%TF.GenerationSoftware,KiCad,Pcbnew,(5.1.8)-1*%
%TF.CreationDate,2021-10-28T00:16:18+03:00*%
%TF.ProjectId,StarDuino,53746172-4475-4696-9e6f-2e6b69636164,rev?*%
%TF.SameCoordinates,Original*%
%TF.FileFunction,Soldermask,Bot*%
%TF.FilePolarity,Negative*%
%FSLAX46Y46*%
G04 Gerber Fmt 4.6, Leading zero omitted, Abs format (unit mm)*
G04 Created by KiCad (PCBNEW (5.1.8)-1) date 2021-10-28 00:16:18*
%MOMM*%
%LPD*%
G01*
G04 APERTURE LIST*
%ADD10O,2.400000X2.400000*%
%ADD11R,2.400000X2.400000*%
%ADD12C,0.100000*%
%ADD13R,1.700000X1.700000*%
%ADD14C,0.800000*%
%ADD15C,5.000000*%
%ADD16O,2.000000X2.000000*%
%ADD17R,2.000000X2.000000*%
%ADD18C,1.600000*%
%ADD19R,2.600000X2.600000*%
%ADD20C,2.600000*%
%ADD21C,1.500000*%
%ADD22O,1.600000X2.000000*%
G04 APERTURE END LIST*
%TO.C,R5*%
G36*
G01*
X108350000Y-97922501D02*
X108350000Y-97022499D01*
G75*
G02*
X108599999Y-96772500I249999J0D01*
G01*
X109300001Y-96772500D01*
G75*
G02*
X109550000Y-97022499I0J-249999D01*
G01*
X109550000Y-97922501D01*
G75*
G02*
X109300001Y-98172500I-249999J0D01*
G01*
X108599999Y-98172500D01*
G75*
G02*
X108350000Y-97922501I0J249999D01*
G01*
G37*
G36*
G01*
X106350000Y-97922501D02*
X106350000Y-97022499D01*
G75*
G02*
X106599999Y-96772500I249999J0D01*
G01*
X107300001Y-96772500D01*
G75*
G02*
X107550000Y-97022499I0J-249999D01*
G01*
X107550000Y-97922501D01*
G75*
G02*
X107300001Y-98172500I-249999J0D01*
G01*
X106599999Y-98172500D01*
G75*
G02*
X106350000Y-97922501I0J249999D01*
G01*
G37*
%TD*%
D10*
%TO.C,C10*%
X117694000Y-115443000D03*
D11*
X91694000Y-115443000D03*
%TD*%
%TO.C,C9*%
G36*
G01*
X84752622Y-109692201D02*
X84752622Y-109692201D01*
G75*
G02*
X86264710Y-110462649I370820J-1141268D01*
G01*
X86264710Y-110462649D01*
G75*
G02*
X85494262Y-111974737I-1141268J-370820D01*
G01*
X85494262Y-111974737D01*
G75*
G02*
X83982174Y-111204289I-370820J1141268D01*
G01*
X83982174Y-111204289D01*
G75*
G02*
X84752622Y-109692201I1141268J370820D01*
G01*
G37*
D12*
G36*
X75576912Y-85335553D02*
G01*
X77859447Y-84593912D01*
X78601088Y-86876447D01*
X76318553Y-87618088D01*
X75576912Y-85335553D01*
G37*
%TD*%
%TO.C,C8*%
G36*
G01*
X109730378Y-63781925D02*
X109730378Y-63781925D01*
G75*
G02*
X108054216Y-64047403I-970820J705342D01*
G01*
X108054216Y-64047403D01*
G75*
G02*
X107788738Y-62371241I705342J970820D01*
G01*
X107788738Y-62371241D01*
G75*
G02*
X109464900Y-62105763I970820J-705342D01*
G01*
X109464900Y-62105763D01*
G75*
G02*
X109730378Y-63781925I-705342J-970820D01*
G01*
G37*
G36*
X131470163Y-78093522D02*
G01*
X130059478Y-80035163D01*
X128117837Y-78624478D01*
X129528522Y-76682837D01*
X131470163Y-78093522D01*
G37*
%TD*%
%TO.C,C7*%
G36*
G01*
X132250622Y-87157799D02*
X132250622Y-87157799D01*
G75*
G02*
X131480174Y-85645711I370820J1141268D01*
G01*
X131480174Y-85645711D01*
G75*
G02*
X132992262Y-84875263I1141268J-370820D01*
G01*
X132992262Y-84875263D01*
G75*
G02*
X133762710Y-86387351I-370820J-1141268D01*
G01*
X133762710Y-86387351D01*
G75*
G02*
X132250622Y-87157799I-1141268J370820D01*
G01*
G37*
G36*
X125357447Y-112256088D02*
G01*
X123074912Y-111514447D01*
X123816553Y-109231912D01*
X126099088Y-109973553D01*
X125357447Y-112256088D01*
G37*
%TD*%
D13*
%TO.C,J3*%
X114744500Y-92710000D03*
%TD*%
%TO.C,C6*%
G36*
G01*
X80266378Y-77188075D02*
X80266378Y-77188075D01*
G75*
G02*
X80000900Y-78864237I-970820J-705342D01*
G01*
X80000900Y-78864237D01*
G75*
G02*
X78324738Y-78598759I-705342J970820D01*
G01*
X78324738Y-78598759D01*
G75*
G02*
X78590216Y-76922597I970820J705342D01*
G01*
X78590216Y-76922597D01*
G75*
G02*
X80266378Y-77188075I705342J-970820D01*
G01*
G37*
D12*
G36*
X100595478Y-60934837D02*
G01*
X102006163Y-62876478D01*
X100064522Y-64287163D01*
X98653837Y-62345522D01*
X100595478Y-60934837D01*
G37*
%TD*%
D14*
%TO.C,H10*%
X82097825Y-81541675D03*
X80772000Y-80992500D03*
X79446175Y-81541675D03*
X78897000Y-82867500D03*
X79446175Y-84193325D03*
X80772000Y-84742500D03*
X82097825Y-84193325D03*
X82647000Y-82867500D03*
D15*
X80772000Y-82867500D03*
%TD*%
D14*
%TO.C,H9*%
X106075770Y-64396675D03*
X104749945Y-63847500D03*
X103424120Y-64396675D03*
X102874945Y-65722500D03*
X103424120Y-67048325D03*
X104749945Y-67597500D03*
X106075770Y-67048325D03*
X106624945Y-65722500D03*
D15*
X104749945Y-65722500D03*
%TD*%
D14*
%TO.C,H8*%
X91241825Y-109799175D03*
X89916000Y-109250000D03*
X88590175Y-109799175D03*
X88041000Y-111125000D03*
X88590175Y-112450825D03*
X89916000Y-113000000D03*
X91241825Y-112450825D03*
X91791000Y-111125000D03*
D15*
X89916000Y-111125000D03*
%TD*%
D14*
%TO.C,H7*%
X120959825Y-109672175D03*
X119634000Y-109123000D03*
X118308175Y-109672175D03*
X117759000Y-110998000D03*
X118308175Y-112323825D03*
X119634000Y-112873000D03*
X120959825Y-112323825D03*
X121509000Y-110998000D03*
D15*
X119634000Y-110998000D03*
%TD*%
D14*
%TO.C,H6*%
X129849825Y-81605175D03*
X128524000Y-81056000D03*
X127198175Y-81605175D03*
X126649000Y-82931000D03*
X127198175Y-84256825D03*
X128524000Y-84806000D03*
X129849825Y-84256825D03*
X130399000Y-82931000D03*
D15*
X128524000Y-82931000D03*
%TD*%
D16*
%TO.C,J2*%
X114807999Y-104521000D03*
X112268000Y-104521000D03*
D17*
X109728000Y-104521000D03*
%TD*%
D12*
%TO.C,C3*%
G36*
X95071129Y-90170000D02*
G01*
X96202500Y-89038629D01*
X97333871Y-90170000D01*
X96202500Y-91301371D01*
X95071129Y-90170000D01*
G37*
D18*
X97970267Y-91937767D03*
%TD*%
D19*
%TO.C,J1*%
X102235000Y-82232500D03*
D20*
X107235000Y-82232500D03*
%TD*%
D21*
%TO.C,Y1*%
X113538000Y-85725000D03*
X116988681Y-89175681D03*
%TD*%
%TO.C,C11*%
G36*
G01*
X60639156Y-96185857D02*
X61019578Y-96062251D01*
G75*
G02*
X62027637Y-96575882I247214J-760845D01*
G01*
X62027637Y-96575882D01*
G75*
G02*
X61514006Y-97583941I-760845J-247214D01*
G01*
X61133584Y-97707547D01*
G75*
G02*
X60125525Y-97193916I-247214J760845D01*
G01*
X60125525Y-97193916D01*
G75*
G02*
X60639156Y-96185857I760845J247214D01*
G01*
G37*
G36*
G01*
X65348575Y-110679958D02*
X65728997Y-110556352D01*
G75*
G02*
X66737056Y-111069983I247214J-760845D01*
G01*
X66737056Y-111069983D01*
G75*
G02*
X66223425Y-112078042I-760845J-247214D01*
G01*
X65843003Y-112201648D01*
G75*
G02*
X64834944Y-111688017I-247214J760845D01*
G01*
X64834944Y-111688017D01*
G75*
G02*
X65348575Y-110679958I760845J247214D01*
G01*
G37*
%TD*%
%TO.C,C12*%
G36*
G01*
X124833352Y-51362425D02*
X124598238Y-51686031D01*
G75*
G02*
X123480796Y-51863017I-647214J470228D01*
G01*
X123480796Y-51863017D01*
G75*
G02*
X123303810Y-50745575I470228J647214D01*
G01*
X123538924Y-50421969D01*
G75*
G02*
X124656366Y-50244983I647214J-470228D01*
G01*
X124656366Y-50244983D01*
G75*
G02*
X124833352Y-51362425I-470228J-647214D01*
G01*
G37*
G36*
G01*
X137162771Y-60320272D02*
X136927657Y-60643878D01*
G75*
G02*
X135810215Y-60820864I-647214J470228D01*
G01*
X135810215Y-60820864D01*
G75*
G02*
X135633229Y-59703422I470228J647214D01*
G01*
X135868343Y-59379816D01*
G75*
G02*
X136985785Y-59202830I647214J-470228D01*
G01*
X136985785Y-59202830D01*
G75*
G02*
X137162771Y-60320272I-470228J-647214D01*
G01*
G37*
%TD*%
%TO.C,C13*%
G36*
G01*
X85937157Y-50548969D02*
X86172271Y-50872575D01*
G75*
G02*
X85995285Y-51990017I-647214J-470228D01*
G01*
X85995285Y-51990017D01*
G75*
G02*
X84877843Y-51813031I-470228J647214D01*
G01*
X84642729Y-51489425D01*
G75*
G02*
X84819715Y-50371983I647214J470228D01*
G01*
X84819715Y-50371983D01*
G75*
G02*
X85937157Y-50548969I470228J-647214D01*
G01*
G37*
G36*
G01*
X73607738Y-59506816D02*
X73842852Y-59830422D01*
G75*
G02*
X73665866Y-60947864I-647214J-470228D01*
G01*
X73665866Y-60947864D01*
G75*
G02*
X72548424Y-60770878I-470228J647214D01*
G01*
X72313310Y-60447272D01*
G75*
G02*
X72490296Y-59329830I647214J470228D01*
G01*
X72490296Y-59329830D01*
G75*
G02*
X73607738Y-59506816I470228J-647214D01*
G01*
G37*
%TD*%
D22*
%TO.C,C14*%
X112395000Y-133858000D03*
X97155000Y-133858000D03*
%TD*%
%TO.C,C15*%
G36*
G01*
X143579997Y-112074648D02*
X143199575Y-111951042D01*
G75*
G02*
X142685944Y-110942983I247214J760845D01*
G01*
X142685944Y-110942983D01*
G75*
G02*
X143694003Y-110429352I760845J-247214D01*
G01*
X144074425Y-110552958D01*
G75*
G02*
X144588056Y-111561017I-247214J-760845D01*
G01*
X144588056Y-111561017D01*
G75*
G02*
X143579997Y-112074648I-760845J247214D01*
G01*
G37*
G36*
G01*
X148289416Y-97580547D02*
X147908994Y-97456941D01*
G75*
G02*
X147395363Y-96448882I247214J760845D01*
G01*
X147395363Y-96448882D01*
G75*
G02*
X148403422Y-95935251I760845J-247214D01*
G01*
X148783844Y-96058857D01*
G75*
G02*
X149297475Y-97066916I-247214J-760845D01*
G01*
X149297475Y-97066916D01*
G75*
G02*
X148289416Y-97580547I-760845J247214D01*
G01*
G37*
%TD*%
M02*
