%TF.GenerationSoftware,KiCad,Pcbnew,(5.1.8)-1*%
%TF.CreationDate,2021-10-28T00:16:18+03:00*%
%TF.ProjectId,StarDuino,53746172-4475-4696-9e6f-2e6b69636164,rev?*%
%TF.SameCoordinates,Original*%
%TF.FileFunction,Legend,Top*%
%TF.FilePolarity,Positive*%
%FSLAX46Y46*%
G04 Gerber Fmt 4.6, Leading zero omitted, Abs format (unit mm)*
G04 Created by KiCad (PCBNEW (5.1.8)-1) date 2021-10-28 00:16:18*
%MOMM*%
%LPD*%
G01*
G04 APERTURE LIST*
%ADD10C,0.120000*%
%ADD11C,0.150000*%
G04 APERTURE END LIST*
D10*
%TO.C,R4*%
X114009500Y-101827064D02*
X114009500Y-101372936D01*
X115479500Y-101827064D02*
X115479500Y-101372936D01*
%TO.C,R3*%
X112041000Y-101827064D02*
X112041000Y-101372936D01*
X113511000Y-101827064D02*
X113511000Y-101372936D01*
%TO.C,C5*%
X110072500Y-101861252D02*
X110072500Y-101338748D01*
X111542500Y-101861252D02*
X111542500Y-101338748D01*
%TO.C,R1*%
X115035175Y-88087728D02*
X114714058Y-87766611D01*
X113995728Y-89127175D02*
X113674611Y-88806058D01*
%TO.C,C4*%
X100358752Y-98325000D02*
X99836248Y-98325000D01*
X100358752Y-99795000D02*
X99836248Y-99795000D01*
%TO.C,D30*%
X82000625Y-54813526D02*
X86291457Y-60719350D01*
X77551031Y-58046344D02*
X81841863Y-63952168D01*
X81841863Y-63952168D02*
X82772233Y-63276215D01*
%TO.C,C1*%
X116036920Y-84345633D02*
X116406387Y-83976166D01*
X117076367Y-85385080D02*
X117445834Y-85015613D01*
%TO.C,C2*%
X118571990Y-86937457D02*
X118941457Y-86567990D01*
X117532543Y-85898010D02*
X117902010Y-85528543D01*
%TO.C,Q1*%
X99185000Y-87622500D02*
X97725000Y-87622500D01*
X99185000Y-84462500D02*
X97025000Y-84462500D01*
X99185000Y-84462500D02*
X99185000Y-85392500D01*
X99185000Y-87622500D02*
X99185000Y-86692500D01*
D11*
%TO.C,U1*%
X112567156Y-94023567D02*
X113483129Y-92931953D01*
X108079306Y-99722016D02*
X108288212Y-99473052D01*
X102525484Y-95061806D02*
X102734390Y-94812842D01*
X107185694Y-89507984D02*
X106976788Y-89756948D01*
X112739516Y-94168194D02*
X112530610Y-94417158D01*
X107185694Y-89507984D02*
X107434658Y-89716890D01*
X102525484Y-95061806D02*
X102774448Y-95270712D01*
X108079306Y-99722016D02*
X107830342Y-99513110D01*
X112739516Y-94168194D02*
X112567156Y-94023567D01*
D10*
%TO.C,D1*%
X104248744Y-134510047D02*
X103098744Y-134510047D01*
X104248744Y-141810047D02*
X104248744Y-134510047D01*
X98748744Y-141810047D02*
X98748744Y-134510047D01*
%TO.C,D2*%
X95573744Y-131015046D02*
X95573744Y-123715046D01*
X101073744Y-131015046D02*
X101073744Y-123715046D01*
X101073744Y-123715046D02*
X99923744Y-123715046D01*
%TO.C,D3*%
X98533745Y-114825046D02*
X97383745Y-114825046D01*
X98533745Y-122125046D02*
X98533745Y-114825046D01*
X93033745Y-122125046D02*
X93033745Y-114825046D01*
%TO.C,D4*%
X94303744Y-113235047D02*
X94303744Y-105935047D01*
X99803744Y-113235047D02*
X99803744Y-105935047D01*
X99803744Y-105935047D02*
X98653744Y-105935047D01*
%TO.C,D5*%
X101923743Y-149430046D02*
X101923743Y-142130046D01*
X107423743Y-149430046D02*
X107423743Y-142130046D01*
X107423743Y-142130046D02*
X106273743Y-142130046D01*
%TO.C,D6*%
X107423745Y-125620046D02*
X106273745Y-125620046D01*
X107423745Y-132920046D02*
X107423745Y-125620046D01*
X101923745Y-132920046D02*
X101923745Y-125620046D01*
%TO.C,D7*%
X101923743Y-122760046D02*
X101923743Y-115460046D01*
X107423743Y-122760046D02*
X107423743Y-115460046D01*
X107423743Y-115460046D02*
X106273743Y-115460046D01*
%TO.C,D8*%
X107499944Y-102137747D02*
X106349944Y-102137747D01*
X107499944Y-109437747D02*
X107499944Y-102137747D01*
X101999944Y-109437747D02*
X101999944Y-102137747D01*
%TO.C,D9*%
X110598744Y-134510046D02*
X109448744Y-134510046D01*
X110598744Y-141810046D02*
X110598744Y-134510046D01*
X105098744Y-141810046D02*
X105098744Y-134510046D01*
%TO.C,D10*%
X108273745Y-131015046D02*
X108273745Y-123715046D01*
X113773745Y-131015046D02*
X113773745Y-123715046D01*
X113773745Y-123715046D02*
X112623745Y-123715046D01*
%TO.C,D11*%
X116313744Y-114825046D02*
X115163744Y-114825046D01*
X116313744Y-122125046D02*
X116313744Y-114825046D01*
X110813744Y-122125046D02*
X110813744Y-114825046D01*
%TO.C,D12*%
X109543744Y-113235046D02*
X109543744Y-105935046D01*
X115043744Y-113235046D02*
X115043744Y-105935046D01*
X115043744Y-105935046D02*
X113893744Y-105935046D01*
%TO.C,D13*%
X54316990Y-100986354D02*
X61259703Y-98730530D01*
X56016583Y-106217164D02*
X62959296Y-103961340D01*
X62959296Y-103961340D02*
X62603926Y-102867625D01*
%TO.C,D14*%
X72249297Y-97601339D02*
X71893927Y-96507624D01*
X65306584Y-99857163D02*
X72249297Y-97601339D01*
X63606991Y-94626353D02*
X70549704Y-92370529D01*
%TO.C,D15*%
X71276990Y-89466354D02*
X78219703Y-87210530D01*
X72976583Y-94697164D02*
X79919296Y-92441340D01*
X79919296Y-92441340D02*
X79563926Y-91347625D01*
%TO.C,D16*%
X88759296Y-90901339D02*
X88403926Y-89807624D01*
X81816583Y-93157163D02*
X88759296Y-90901339D01*
X80116990Y-87926353D02*
X87059703Y-85670529D01*
%TO.C,D17*%
X56699296Y-109331340D02*
X56343926Y-108237625D01*
X49756583Y-111587164D02*
X56699296Y-109331340D01*
X48056990Y-106356354D02*
X54999703Y-104100530D01*
%TO.C,D18*%
X63756990Y-101256353D02*
X70699703Y-99000529D01*
X65456583Y-106487163D02*
X72399296Y-104231339D01*
X72399296Y-104231339D02*
X72043926Y-103137624D01*
%TO.C,D19*%
X82059298Y-101091339D02*
X81703928Y-99997624D01*
X75116585Y-103347163D02*
X82059298Y-101091339D01*
X73416992Y-98116353D02*
X80359705Y-95860529D01*
%TO.C,D20*%
X86077791Y-93886252D02*
X93020504Y-91630428D01*
X87777384Y-99117062D02*
X94720097Y-96861238D01*
X94720097Y-96861238D02*
X94364727Y-95767523D01*
%TO.C,D21*%
X56276990Y-107026354D02*
X63219703Y-104770530D01*
X57976583Y-112257164D02*
X64919296Y-110001340D01*
X64919296Y-110001340D02*
X64563926Y-108907625D01*
%TO.C,D22*%
X76169296Y-109681339D02*
X75813926Y-108587624D01*
X69226583Y-111937163D02*
X76169296Y-109681339D01*
X67526990Y-106706353D02*
X74469703Y-104450529D01*
%TO.C,D23*%
X76766992Y-106376354D02*
X83709705Y-104120530D01*
X78466585Y-111607164D02*
X85409298Y-109351340D01*
X85409298Y-109351340D02*
X85053928Y-108257625D01*
%TO.C,D24*%
X93469296Y-105391339D02*
X93113926Y-104297624D01*
X86526583Y-107647163D02*
X93469296Y-105391339D01*
X84826990Y-102416353D02*
X91769703Y-100160529D01*
%TO.C,D25*%
X79181863Y-54892168D02*
X80112233Y-54216215D01*
X74891031Y-48986344D02*
X79181863Y-54892168D01*
X79340625Y-45753526D02*
X83631457Y-51659350D01*
%TO.C,D26*%
X88260625Y-52613526D02*
X92551457Y-58519350D01*
X83811031Y-55846344D02*
X88101863Y-61752168D01*
X88101863Y-61752168D02*
X89032233Y-61076215D01*
%TO.C,D27*%
X95381863Y-67452167D02*
X96312233Y-66776214D01*
X91091031Y-61546343D02*
X95381863Y-67452167D01*
X95540625Y-58313525D02*
X99831457Y-64219349D01*
%TO.C,D28*%
X99581863Y-75392167D02*
X100512233Y-74716214D01*
X95291031Y-69486343D02*
X99581863Y-75392167D01*
X99740625Y-66253525D02*
X104031457Y-72159349D01*
%TO.C,D29*%
X72300624Y-41453526D02*
X76591456Y-47359350D01*
X67851030Y-44686344D02*
X72141862Y-50592168D01*
X72141862Y-50592168D02*
X73072232Y-49916215D01*
%TO.C,D31*%
X87970624Y-63033526D02*
X92261456Y-68939350D01*
X83521030Y-66266344D02*
X87811862Y-72172168D01*
X87811862Y-72172168D02*
X88742232Y-71496215D01*
%TO.C,D32*%
X95780562Y-83052068D02*
X96710932Y-82376115D01*
X91489730Y-77146244D02*
X95780562Y-83052068D01*
X95939324Y-73913426D02*
X100230156Y-79819250D01*
%TO.C,D33*%
X74210626Y-49483525D02*
X78501458Y-55389349D01*
X69761032Y-52716343D02*
X74051864Y-58622167D01*
X74051864Y-58622167D02*
X74982234Y-57946214D01*
%TO.C,D34*%
X77821862Y-69222167D02*
X78752232Y-68546214D01*
X73531030Y-63316343D02*
X77821862Y-69222167D01*
X77980624Y-60083525D02*
X82271456Y-65989349D01*
%TO.C,D35*%
X81150624Y-68763526D02*
X85441456Y-74669350D01*
X76701030Y-71996344D02*
X80991862Y-77902168D01*
X80991862Y-77902168D02*
X81922232Y-77226215D01*
%TO.C,D36*%
X87251863Y-84352167D02*
X88182233Y-83676214D01*
X82961031Y-78446343D02*
X87251863Y-84352167D01*
X87410625Y-75213525D02*
X91701457Y-81119349D01*
%TO.C,D37*%
X139764256Y-52792542D02*
X135473424Y-58698366D01*
X135314662Y-49559724D02*
X131023830Y-55465548D01*
X131023830Y-55465548D02*
X131954200Y-56141501D01*
%TO.C,D38*%
X127253831Y-66065550D02*
X128184201Y-66741503D01*
X131544663Y-60159726D02*
X127253831Y-66065550D01*
X135994257Y-63392544D02*
X131703425Y-69298368D01*
%TO.C,D39*%
X132824256Y-72072544D02*
X128533424Y-77978368D01*
X128374662Y-68839726D02*
X124083830Y-74745550D01*
X124083830Y-74745550D02*
X125014200Y-75421503D01*
%TO.C,D40*%
X117823830Y-81195549D02*
X118754200Y-81871502D01*
X122114662Y-75289725D02*
X117823830Y-81195549D01*
X126564256Y-78522543D02*
X122273424Y-84428367D01*
%TO.C,D41*%
X141674256Y-44762544D02*
X137383424Y-50668368D01*
X137224662Y-41529726D02*
X132933830Y-47435550D01*
X132933830Y-47435550D02*
X133864200Y-48111503D01*
%TO.C,D42*%
X123233832Y-60795550D02*
X124164202Y-61471503D01*
X127524664Y-54889726D02*
X123233832Y-60795550D01*
X131974258Y-58122544D02*
X127683426Y-64028368D01*
%TO.C,D43*%
X126004257Y-66342543D02*
X121713425Y-72248367D01*
X121554663Y-63109725D02*
X117263831Y-69015549D01*
X117263831Y-69015549D02*
X118194201Y-69691502D01*
%TO.C,D44*%
X109269731Y-79819250D02*
X110200101Y-80495203D01*
X113560563Y-73913426D02*
X109269731Y-79819250D01*
X118010157Y-77146244D02*
X113719325Y-83052068D01*
%TO.C,D45*%
X134634256Y-49062544D02*
X130343424Y-54968368D01*
X130184662Y-45829726D02*
X125893830Y-51735550D01*
X125893830Y-51735550D02*
X126824200Y-52411503D01*
%TO.C,D46*%
X116973831Y-58595549D02*
X117904201Y-59271502D01*
X121264663Y-52689725D02*
X116973831Y-58595549D01*
X125714257Y-55922543D02*
X121423425Y-61828367D01*
%TO.C,D47*%
X109693830Y-64295550D02*
X110624200Y-64971503D01*
X113984662Y-58389726D02*
X109693830Y-64295550D01*
X118434256Y-61622544D02*
X114143424Y-67528368D01*
%TO.C,D48*%
X105493831Y-72235550D02*
X106424201Y-72911503D01*
X109784663Y-66329726D02*
X105493831Y-72235550D01*
X114234257Y-69562544D02*
X109943425Y-75468368D01*
%TO.C,D49*%
X151536003Y-112346064D02*
X144593290Y-110090240D01*
X153235596Y-107115254D02*
X146292883Y-104859430D01*
X146292883Y-104859430D02*
X145937514Y-105953145D01*
%TO.C,D50*%
X135042884Y-104539430D02*
X134687515Y-105633145D01*
X141985597Y-106795254D02*
X135042884Y-104539430D01*
X140286004Y-112026064D02*
X133343291Y-109770240D01*
%TO.C,D51*%
X131046002Y-111696064D02*
X124103289Y-109440240D01*
X132745595Y-106465254D02*
X125802882Y-104209430D01*
X125802882Y-104209430D02*
X125447513Y-105303145D01*
%TO.C,D52*%
X117742883Y-100249430D02*
X117387514Y-101343145D01*
X124685596Y-102505254D02*
X117742883Y-100249430D01*
X122986003Y-107736064D02*
X116043290Y-105480240D01*
%TO.C,D53*%
X159756003Y-111676064D02*
X152813290Y-109420240D01*
X161455596Y-106445254D02*
X154512883Y-104189430D01*
X154512883Y-104189430D02*
X154157514Y-105283145D01*
%TO.C,D54*%
X138812884Y-99089430D02*
X138457515Y-100183145D01*
X145755597Y-101345254D02*
X138812884Y-99089430D01*
X144056004Y-106576064D02*
X137113291Y-104320240D01*
%TO.C,D55*%
X134396004Y-103436063D02*
X127453291Y-101180239D01*
X136095597Y-98205253D02*
X129152884Y-95949429D01*
X129152884Y-95949429D02*
X128797515Y-97043144D01*
%TO.C,D56*%
X116479385Y-91630429D02*
X116124016Y-92724144D01*
X123422098Y-93886253D02*
X116479385Y-91630429D01*
X121722505Y-99117063D02*
X114779792Y-96861239D01*
%TO.C,D57*%
X153496004Y-106306063D02*
X146553291Y-104050239D01*
X155195597Y-101075253D02*
X148252884Y-98819429D01*
X148252884Y-98819429D02*
X147897515Y-99913144D01*
%TO.C,D58*%
X144206004Y-99946064D02*
X137263291Y-97690240D01*
X145905597Y-94715254D02*
X138962884Y-92459430D01*
X138962884Y-92459430D02*
X138607515Y-93553145D01*
%TO.C,D59*%
X131292884Y-87299430D02*
X130937515Y-88393145D01*
X138235597Y-89555254D02*
X131292884Y-87299430D01*
X136536004Y-94786064D02*
X129593291Y-92530240D01*
%TO.C,D60*%
X122452885Y-85759429D02*
X122097516Y-86853144D01*
X129395598Y-88015253D02*
X122452885Y-85759429D01*
X127696005Y-93246063D02*
X120753292Y-90990239D01*
%TO.C,R2*%
X99213936Y-101827000D02*
X99668064Y-101827000D01*
X99213936Y-100357000D02*
X99668064Y-100357000D01*
%TO.C,R4*%
D11*
X115387380Y-98909166D02*
X114911190Y-99242500D01*
X115387380Y-99480595D02*
X114387380Y-99480595D01*
X114387380Y-99099642D01*
X114435000Y-99004404D01*
X114482619Y-98956785D01*
X114577857Y-98909166D01*
X114720714Y-98909166D01*
X114815952Y-98956785D01*
X114863571Y-99004404D01*
X114911190Y-99099642D01*
X114911190Y-99480595D01*
X114720714Y-98052023D02*
X115387380Y-98052023D01*
X114339761Y-98290119D02*
X115054047Y-98528214D01*
X115054047Y-97909166D01*
%TO.C,R3*%
X113164880Y-98909166D02*
X112688690Y-99242500D01*
X113164880Y-99480595D02*
X112164880Y-99480595D01*
X112164880Y-99099642D01*
X112212500Y-99004404D01*
X112260119Y-98956785D01*
X112355357Y-98909166D01*
X112498214Y-98909166D01*
X112593452Y-98956785D01*
X112641071Y-99004404D01*
X112688690Y-99099642D01*
X112688690Y-99480595D01*
X112164880Y-98575833D02*
X112164880Y-97956785D01*
X112545833Y-98290119D01*
X112545833Y-98147261D01*
X112593452Y-98052023D01*
X112641071Y-98004404D01*
X112736309Y-97956785D01*
X112974404Y-97956785D01*
X113069642Y-98004404D01*
X113117261Y-98052023D01*
X113164880Y-98147261D01*
X113164880Y-98432976D01*
X113117261Y-98528214D01*
X113069642Y-98575833D01*
%TO.C,C5*%
X109577142Y-102401666D02*
X109624761Y-102449285D01*
X109672380Y-102592142D01*
X109672380Y-102687380D01*
X109624761Y-102830238D01*
X109529523Y-102925476D01*
X109434285Y-102973095D01*
X109243809Y-103020714D01*
X109100952Y-103020714D01*
X108910476Y-102973095D01*
X108815238Y-102925476D01*
X108720000Y-102830238D01*
X108672380Y-102687380D01*
X108672380Y-102592142D01*
X108720000Y-102449285D01*
X108767619Y-102401666D01*
X108672380Y-101496904D02*
X108672380Y-101973095D01*
X109148571Y-102020714D01*
X109100952Y-101973095D01*
X109053333Y-101877857D01*
X109053333Y-101639761D01*
X109100952Y-101544523D01*
X109148571Y-101496904D01*
X109243809Y-101449285D01*
X109481904Y-101449285D01*
X109577142Y-101496904D01*
X109624761Y-101544523D01*
X109672380Y-101639761D01*
X109672380Y-101877857D01*
X109624761Y-101973095D01*
X109577142Y-102020714D01*
%TO.C,R1*%
X112750434Y-89815649D02*
X112851449Y-89243229D01*
X112346373Y-89411588D02*
X113053479Y-88704481D01*
X113322854Y-88973855D01*
X113356525Y-89074870D01*
X113356525Y-89142214D01*
X113322854Y-89243229D01*
X113221838Y-89344244D01*
X113120823Y-89377916D01*
X113053479Y-89377916D01*
X112952464Y-89344244D01*
X112683090Y-89074870D01*
X113423869Y-90489084D02*
X113019808Y-90085023D01*
X113221838Y-90287054D02*
X113928945Y-89579947D01*
X113760586Y-89613619D01*
X113625899Y-89613619D01*
X113524884Y-89579947D01*
%TO.C,C4*%
X96988333Y-99417142D02*
X96940714Y-99464761D01*
X96797857Y-99512380D01*
X96702619Y-99512380D01*
X96559761Y-99464761D01*
X96464523Y-99369523D01*
X96416904Y-99274285D01*
X96369285Y-99083809D01*
X96369285Y-98940952D01*
X96416904Y-98750476D01*
X96464523Y-98655238D01*
X96559761Y-98560000D01*
X96702619Y-98512380D01*
X96797857Y-98512380D01*
X96940714Y-98560000D01*
X96988333Y-98607619D01*
X97845476Y-98845714D02*
X97845476Y-99512380D01*
X97607380Y-98464761D02*
X97369285Y-99179047D01*
X97988333Y-99179047D01*
%TO.C,D30*%
X80700714Y-59824880D02*
X80700714Y-58824880D01*
X80938809Y-58824880D01*
X81081666Y-58872500D01*
X81176904Y-58967738D01*
X81224523Y-59062976D01*
X81272142Y-59253452D01*
X81272142Y-59396309D01*
X81224523Y-59586785D01*
X81176904Y-59682023D01*
X81081666Y-59777261D01*
X80938809Y-59824880D01*
X80700714Y-59824880D01*
X81605476Y-58824880D02*
X82224523Y-58824880D01*
X81891190Y-59205833D01*
X82034047Y-59205833D01*
X82129285Y-59253452D01*
X82176904Y-59301071D01*
X82224523Y-59396309D01*
X82224523Y-59634404D01*
X82176904Y-59729642D01*
X82129285Y-59777261D01*
X82034047Y-59824880D01*
X81748333Y-59824880D01*
X81653095Y-59777261D01*
X81605476Y-59729642D01*
X82843571Y-58824880D02*
X82938809Y-58824880D01*
X83034047Y-58872500D01*
X83081666Y-58920119D01*
X83129285Y-59015357D01*
X83176904Y-59205833D01*
X83176904Y-59443928D01*
X83129285Y-59634404D01*
X83081666Y-59729642D01*
X83034047Y-59777261D01*
X82938809Y-59824880D01*
X82843571Y-59824880D01*
X82748333Y-59777261D01*
X82700714Y-59729642D01*
X82653095Y-59634404D01*
X82605476Y-59443928D01*
X82605476Y-59205833D01*
X82653095Y-59015357D01*
X82700714Y-58920119D01*
X82748333Y-58872500D01*
X82843571Y-58824880D01*
X81062076Y-55537350D02*
X80490647Y-55537350D01*
X80776362Y-55537350D02*
X80776362Y-54537350D01*
X80681123Y-54680208D01*
X80585885Y-54775446D01*
X80490647Y-54823065D01*
%TO.C,C1*%
X115688125Y-83863073D02*
X115688125Y-83930416D01*
X115620781Y-84065103D01*
X115553438Y-84132447D01*
X115418750Y-84199790D01*
X115284063Y-84199790D01*
X115183048Y-84166119D01*
X115014689Y-84065103D01*
X114913674Y-83964088D01*
X114812659Y-83795729D01*
X114778987Y-83694714D01*
X114778987Y-83560027D01*
X114846331Y-83425340D01*
X114913674Y-83357996D01*
X115048361Y-83290653D01*
X115115705Y-83290653D01*
X116428903Y-83256981D02*
X116024842Y-83661042D01*
X116226873Y-83459012D02*
X115519766Y-82751905D01*
X115553438Y-82920264D01*
X115553438Y-83054951D01*
X115519766Y-83155966D01*
%TO.C,C2*%
X119604687Y-87990389D02*
X119604687Y-88057732D01*
X119537343Y-88192419D01*
X119470000Y-88259763D01*
X119335312Y-88327106D01*
X119200625Y-88327106D01*
X119099610Y-88293435D01*
X118931251Y-88192419D01*
X118830236Y-88091404D01*
X118729221Y-87923045D01*
X118695549Y-87822030D01*
X118695549Y-87687343D01*
X118762893Y-87552656D01*
X118830236Y-87485312D01*
X118964923Y-87417969D01*
X119032267Y-87417969D01*
X119301641Y-87148595D02*
X119301641Y-87081251D01*
X119335312Y-86980236D01*
X119503671Y-86811877D01*
X119604687Y-86778206D01*
X119672030Y-86778206D01*
X119773045Y-86811877D01*
X119840389Y-86879221D01*
X119907732Y-87013908D01*
X119907732Y-87822030D01*
X120345465Y-87384297D01*
%TO.C,Q1*%
X98329761Y-84090119D02*
X98234523Y-84042500D01*
X98139285Y-83947261D01*
X97996428Y-83804404D01*
X97901190Y-83756785D01*
X97805952Y-83756785D01*
X97853571Y-83994880D02*
X97758333Y-83947261D01*
X97663095Y-83852023D01*
X97615476Y-83661547D01*
X97615476Y-83328214D01*
X97663095Y-83137738D01*
X97758333Y-83042500D01*
X97853571Y-82994880D01*
X98044047Y-82994880D01*
X98139285Y-83042500D01*
X98234523Y-83137738D01*
X98282142Y-83328214D01*
X98282142Y-83661547D01*
X98234523Y-83852023D01*
X98139285Y-83947261D01*
X98044047Y-83994880D01*
X97853571Y-83994880D01*
X99234523Y-83994880D02*
X98663095Y-83994880D01*
X98948809Y-83994880D02*
X98948809Y-82994880D01*
X98853571Y-83137738D01*
X98758333Y-83232976D01*
X98663095Y-83280595D01*
%TO.C,U1*%
X113150756Y-94251650D02*
X113770887Y-94772002D01*
X113874453Y-94796741D01*
X113941540Y-94790872D01*
X114039236Y-94748524D01*
X114161672Y-94602611D01*
X114186412Y-94499045D01*
X114180542Y-94431958D01*
X114138194Y-94334262D01*
X113518063Y-93813910D01*
X114926895Y-93690653D02*
X114559588Y-94128393D01*
X114743242Y-93909523D02*
X113977197Y-93266735D01*
X114025414Y-93431519D01*
X114037153Y-93565693D01*
X114012413Y-93669259D01*
%TO.C,D1*%
X102052380Y-138898142D02*
X101052380Y-138898142D01*
X101052380Y-138660047D01*
X101100000Y-138517189D01*
X101195238Y-138421951D01*
X101290476Y-138374332D01*
X101480952Y-138326713D01*
X101623809Y-138326713D01*
X101814285Y-138374332D01*
X101909523Y-138421951D01*
X102004761Y-138517189D01*
X102052380Y-138660047D01*
X102052380Y-138898142D01*
X102052380Y-137374332D02*
X102052380Y-137945761D01*
X102052380Y-137660047D02*
X101052380Y-137660047D01*
X101195238Y-137755285D01*
X101290476Y-137850523D01*
X101338095Y-137945761D01*
X100351124Y-142024332D02*
X100351124Y-142595761D01*
X100351124Y-142310047D02*
X99351124Y-142310047D01*
X99493982Y-142405285D01*
X99589220Y-142500523D01*
X99636839Y-142595761D01*
%TO.C,D2*%
X98877380Y-128055595D02*
X97877380Y-128055595D01*
X97877380Y-127817500D01*
X97925000Y-127674642D01*
X98020238Y-127579404D01*
X98115476Y-127531785D01*
X98305952Y-127484166D01*
X98448809Y-127484166D01*
X98639285Y-127531785D01*
X98734523Y-127579404D01*
X98829761Y-127674642D01*
X98877380Y-127817500D01*
X98877380Y-128055595D01*
X97972619Y-127103214D02*
X97925000Y-127055595D01*
X97877380Y-126960357D01*
X97877380Y-126722261D01*
X97925000Y-126627023D01*
X97972619Y-126579404D01*
X98067857Y-126531785D01*
X98163095Y-126531785D01*
X98305952Y-126579404D01*
X98877380Y-127150833D01*
X98877380Y-126531785D01*
X97176124Y-131229331D02*
X97176124Y-131800760D01*
X97176124Y-131515046D02*
X96176124Y-131515046D01*
X96318982Y-131610284D01*
X96414220Y-131705522D01*
X96461839Y-131800760D01*
%TO.C,D3*%
X96019880Y-119165595D02*
X95019880Y-119165595D01*
X95019880Y-118927500D01*
X95067500Y-118784642D01*
X95162738Y-118689404D01*
X95257976Y-118641785D01*
X95448452Y-118594166D01*
X95591309Y-118594166D01*
X95781785Y-118641785D01*
X95877023Y-118689404D01*
X95972261Y-118784642D01*
X96019880Y-118927500D01*
X96019880Y-119165595D01*
X95019880Y-118260833D02*
X95019880Y-117641785D01*
X95400833Y-117975119D01*
X95400833Y-117832261D01*
X95448452Y-117737023D01*
X95496071Y-117689404D01*
X95591309Y-117641785D01*
X95829404Y-117641785D01*
X95924642Y-117689404D01*
X95972261Y-117737023D01*
X96019880Y-117832261D01*
X96019880Y-118117976D01*
X95972261Y-118213214D01*
X95924642Y-118260833D01*
X94636125Y-122339331D02*
X94636125Y-122910760D01*
X94636125Y-122625046D02*
X93636125Y-122625046D01*
X93778983Y-122720284D01*
X93874221Y-122815522D01*
X93921840Y-122910760D01*
%TO.C,D4*%
X97607380Y-110323142D02*
X96607380Y-110323142D01*
X96607380Y-110085047D01*
X96655000Y-109942189D01*
X96750238Y-109846951D01*
X96845476Y-109799332D01*
X97035952Y-109751713D01*
X97178809Y-109751713D01*
X97369285Y-109799332D01*
X97464523Y-109846951D01*
X97559761Y-109942189D01*
X97607380Y-110085047D01*
X97607380Y-110323142D01*
X96940714Y-108894570D02*
X97607380Y-108894570D01*
X96559761Y-109132666D02*
X97274047Y-109370761D01*
X97274047Y-108751713D01*
X95906124Y-113449332D02*
X95906124Y-114020761D01*
X95906124Y-113735047D02*
X94906124Y-113735047D01*
X95048982Y-113830285D01*
X95144220Y-113925523D01*
X95191839Y-114020761D01*
%TO.C,D5*%
X104909880Y-146518141D02*
X103909880Y-146518141D01*
X103909880Y-146280046D01*
X103957500Y-146137188D01*
X104052738Y-146041950D01*
X104147976Y-145994331D01*
X104338452Y-145946712D01*
X104481309Y-145946712D01*
X104671785Y-145994331D01*
X104767023Y-146041950D01*
X104862261Y-146137188D01*
X104909880Y-146280046D01*
X104909880Y-146518141D01*
X103909880Y-145041950D02*
X103909880Y-145518141D01*
X104386071Y-145565760D01*
X104338452Y-145518141D01*
X104290833Y-145422903D01*
X104290833Y-145184807D01*
X104338452Y-145089569D01*
X104386071Y-145041950D01*
X104481309Y-144994331D01*
X104719404Y-144994331D01*
X104814642Y-145041950D01*
X104862261Y-145089569D01*
X104909880Y-145184807D01*
X104909880Y-145422903D01*
X104862261Y-145518141D01*
X104814642Y-145565760D01*
X101734880Y-146716785D02*
X101734880Y-147288214D01*
X101734880Y-147002500D02*
X100734880Y-147002500D01*
X100877738Y-147097738D01*
X100972976Y-147192976D01*
X101020595Y-147288214D01*
%TO.C,D6*%
X105227380Y-130008141D02*
X104227380Y-130008141D01*
X104227380Y-129770046D01*
X104275000Y-129627188D01*
X104370238Y-129531950D01*
X104465476Y-129484331D01*
X104655952Y-129436712D01*
X104798809Y-129436712D01*
X104989285Y-129484331D01*
X105084523Y-129531950D01*
X105179761Y-129627188D01*
X105227380Y-129770046D01*
X105227380Y-130008141D01*
X104227380Y-128579569D02*
X104227380Y-128770046D01*
X104275000Y-128865284D01*
X104322619Y-128912903D01*
X104465476Y-129008141D01*
X104655952Y-129055760D01*
X105036904Y-129055760D01*
X105132142Y-129008141D01*
X105179761Y-128960522D01*
X105227380Y-128865284D01*
X105227380Y-128674807D01*
X105179761Y-128579569D01*
X105132142Y-128531950D01*
X105036904Y-128484331D01*
X104798809Y-128484331D01*
X104703571Y-128531950D01*
X104655952Y-128579569D01*
X104608333Y-128674807D01*
X104608333Y-128865284D01*
X104655952Y-128960522D01*
X104703571Y-129008141D01*
X104798809Y-129055760D01*
X103526125Y-133134331D02*
X103526125Y-133705760D01*
X103526125Y-133420046D02*
X102526125Y-133420046D01*
X102668983Y-133515284D01*
X102764221Y-133610522D01*
X102811840Y-133705760D01*
%TO.C,D7*%
X105227380Y-119800595D02*
X104227380Y-119800595D01*
X104227380Y-119562500D01*
X104275000Y-119419642D01*
X104370238Y-119324404D01*
X104465476Y-119276785D01*
X104655952Y-119229166D01*
X104798809Y-119229166D01*
X104989285Y-119276785D01*
X105084523Y-119324404D01*
X105179761Y-119419642D01*
X105227380Y-119562500D01*
X105227380Y-119800595D01*
X104227380Y-118895833D02*
X104227380Y-118229166D01*
X105227380Y-118657738D01*
X103526123Y-122974331D02*
X103526123Y-123545760D01*
X103526123Y-123260046D02*
X102526123Y-123260046D01*
X102668981Y-123355284D01*
X102764219Y-123450522D01*
X102811838Y-123545760D01*
%TO.C,D8*%
X105227380Y-106525842D02*
X104227380Y-106525842D01*
X104227380Y-106287747D01*
X104275000Y-106144889D01*
X104370238Y-106049651D01*
X104465476Y-106002032D01*
X104655952Y-105954413D01*
X104798809Y-105954413D01*
X104989285Y-106002032D01*
X105084523Y-106049651D01*
X105179761Y-106144889D01*
X105227380Y-106287747D01*
X105227380Y-106525842D01*
X104655952Y-105382985D02*
X104608333Y-105478223D01*
X104560714Y-105525842D01*
X104465476Y-105573461D01*
X104417857Y-105573461D01*
X104322619Y-105525842D01*
X104275000Y-105478223D01*
X104227380Y-105382985D01*
X104227380Y-105192508D01*
X104275000Y-105097270D01*
X104322619Y-105049651D01*
X104417857Y-105002032D01*
X104465476Y-105002032D01*
X104560714Y-105049651D01*
X104608333Y-105097270D01*
X104655952Y-105192508D01*
X104655952Y-105382985D01*
X104703571Y-105478223D01*
X104751190Y-105525842D01*
X104846428Y-105573461D01*
X105036904Y-105573461D01*
X105132142Y-105525842D01*
X105179761Y-105478223D01*
X105227380Y-105382985D01*
X105227380Y-105192508D01*
X105179761Y-105097270D01*
X105132142Y-105049651D01*
X105036904Y-105002032D01*
X104846428Y-105002032D01*
X104751190Y-105049651D01*
X104703571Y-105097270D01*
X104655952Y-105192508D01*
X103602324Y-109652032D02*
X103602324Y-110223461D01*
X103602324Y-109937747D02*
X102602324Y-109937747D01*
X102745182Y-110032985D01*
X102840420Y-110128223D01*
X102888039Y-110223461D01*
%TO.C,D9*%
X108402380Y-138898141D02*
X107402380Y-138898141D01*
X107402380Y-138660046D01*
X107450000Y-138517188D01*
X107545238Y-138421950D01*
X107640476Y-138374331D01*
X107830952Y-138326712D01*
X107973809Y-138326712D01*
X108164285Y-138374331D01*
X108259523Y-138421950D01*
X108354761Y-138517188D01*
X108402380Y-138660046D01*
X108402380Y-138898141D01*
X108402380Y-137850522D02*
X108402380Y-137660046D01*
X108354761Y-137564807D01*
X108307142Y-137517188D01*
X108164285Y-137421950D01*
X107973809Y-137374331D01*
X107592857Y-137374331D01*
X107497619Y-137421950D01*
X107450000Y-137469569D01*
X107402380Y-137564807D01*
X107402380Y-137755284D01*
X107450000Y-137850522D01*
X107497619Y-137898141D01*
X107592857Y-137945760D01*
X107830952Y-137945760D01*
X107926190Y-137898141D01*
X107973809Y-137850522D01*
X108021428Y-137755284D01*
X108021428Y-137564807D01*
X107973809Y-137469569D01*
X107926190Y-137421950D01*
X107830952Y-137374331D01*
X106701124Y-142024331D02*
X106701124Y-142595760D01*
X106701124Y-142310046D02*
X105701124Y-142310046D01*
X105843982Y-142405284D01*
X105939220Y-142500522D01*
X105986839Y-142595760D01*
%TO.C,D10*%
X111577380Y-128579331D02*
X110577380Y-128579331D01*
X110577380Y-128341236D01*
X110625000Y-128198379D01*
X110720238Y-128103141D01*
X110815476Y-128055522D01*
X111005952Y-128007903D01*
X111148809Y-128007903D01*
X111339285Y-128055522D01*
X111434523Y-128103141D01*
X111529761Y-128198379D01*
X111577380Y-128341236D01*
X111577380Y-128579331D01*
X111577380Y-127055522D02*
X111577380Y-127626950D01*
X111577380Y-127341236D02*
X110577380Y-127341236D01*
X110720238Y-127436474D01*
X110815476Y-127531712D01*
X110863095Y-127626950D01*
X110577380Y-126436474D02*
X110577380Y-126341236D01*
X110625000Y-126245998D01*
X110672619Y-126198379D01*
X110767857Y-126150760D01*
X110958333Y-126103141D01*
X111196428Y-126103141D01*
X111386904Y-126150760D01*
X111482142Y-126198379D01*
X111529761Y-126245998D01*
X111577380Y-126341236D01*
X111577380Y-126436474D01*
X111529761Y-126531712D01*
X111482142Y-126579331D01*
X111386904Y-126626950D01*
X111196428Y-126674569D01*
X110958333Y-126674569D01*
X110767857Y-126626950D01*
X110672619Y-126579331D01*
X110625000Y-126531712D01*
X110577380Y-126436474D01*
X109876125Y-131229331D02*
X109876125Y-131800760D01*
X109876125Y-131515046D02*
X108876125Y-131515046D01*
X109018983Y-131610284D01*
X109114221Y-131705522D01*
X109161840Y-131800760D01*
%TO.C,D11*%
X113799880Y-119641785D02*
X112799880Y-119641785D01*
X112799880Y-119403690D01*
X112847500Y-119260833D01*
X112942738Y-119165595D01*
X113037976Y-119117976D01*
X113228452Y-119070357D01*
X113371309Y-119070357D01*
X113561785Y-119117976D01*
X113657023Y-119165595D01*
X113752261Y-119260833D01*
X113799880Y-119403690D01*
X113799880Y-119641785D01*
X113799880Y-118117976D02*
X113799880Y-118689404D01*
X113799880Y-118403690D02*
X112799880Y-118403690D01*
X112942738Y-118498928D01*
X113037976Y-118594166D01*
X113085595Y-118689404D01*
X113799880Y-117165595D02*
X113799880Y-117737023D01*
X113799880Y-117451309D02*
X112799880Y-117451309D01*
X112942738Y-117546547D01*
X113037976Y-117641785D01*
X113085595Y-117737023D01*
X112416124Y-122339331D02*
X112416124Y-122910760D01*
X112416124Y-122625046D02*
X111416124Y-122625046D01*
X111558982Y-122720284D01*
X111654220Y-122815522D01*
X111701839Y-122910760D01*
%TO.C,D12*%
X112847380Y-110751785D02*
X111847380Y-110751785D01*
X111847380Y-110513690D01*
X111895000Y-110370833D01*
X111990238Y-110275595D01*
X112085476Y-110227976D01*
X112275952Y-110180357D01*
X112418809Y-110180357D01*
X112609285Y-110227976D01*
X112704523Y-110275595D01*
X112799761Y-110370833D01*
X112847380Y-110513690D01*
X112847380Y-110751785D01*
X112847380Y-109227976D02*
X112847380Y-109799404D01*
X112847380Y-109513690D02*
X111847380Y-109513690D01*
X111990238Y-109608928D01*
X112085476Y-109704166D01*
X112133095Y-109799404D01*
X111942619Y-108847023D02*
X111895000Y-108799404D01*
X111847380Y-108704166D01*
X111847380Y-108466071D01*
X111895000Y-108370833D01*
X111942619Y-108323214D01*
X112037857Y-108275595D01*
X112133095Y-108275595D01*
X112275952Y-108323214D01*
X112847380Y-108894642D01*
X112847380Y-108275595D01*
X111146124Y-113449331D02*
X111146124Y-114020760D01*
X111146124Y-113735046D02*
X110146124Y-113735046D01*
X110288982Y-113830284D01*
X110384220Y-113925522D01*
X110431839Y-114020760D01*
%TO.C,D13*%
X57205715Y-103004880D02*
X57205715Y-102004880D01*
X57443810Y-102004880D01*
X57586667Y-102052500D01*
X57681905Y-102147738D01*
X57729524Y-102242976D01*
X57777143Y-102433452D01*
X57777143Y-102576309D01*
X57729524Y-102766785D01*
X57681905Y-102862023D01*
X57586667Y-102957261D01*
X57443810Y-103004880D01*
X57205715Y-103004880D01*
X58729524Y-103004880D02*
X58158096Y-103004880D01*
X58443810Y-103004880D02*
X58443810Y-102004880D01*
X58348572Y-102147738D01*
X58253334Y-102242976D01*
X58158096Y-102290595D01*
X59062858Y-102004880D02*
X59681905Y-102004880D01*
X59348572Y-102385833D01*
X59491429Y-102385833D01*
X59586667Y-102433452D01*
X59634286Y-102481071D01*
X59681905Y-102576309D01*
X59681905Y-102814404D01*
X59634286Y-102909642D01*
X59586667Y-102957261D01*
X59491429Y-103004880D01*
X59205715Y-103004880D01*
X59110477Y-102957261D01*
X59062858Y-102909642D01*
X54482545Y-102686957D02*
X53911116Y-102686957D01*
X54196831Y-102686957D02*
X54196831Y-101686957D01*
X54101592Y-101829815D01*
X54006354Y-101925053D01*
X53911116Y-101972672D01*
%TO.C,D14*%
X66730714Y-96654880D02*
X66730714Y-95654880D01*
X66968809Y-95654880D01*
X67111666Y-95702500D01*
X67206904Y-95797738D01*
X67254523Y-95892976D01*
X67302142Y-96083452D01*
X67302142Y-96226309D01*
X67254523Y-96416785D01*
X67206904Y-96512023D01*
X67111666Y-96607261D01*
X66968809Y-96654880D01*
X66730714Y-96654880D01*
X68254523Y-96654880D02*
X67683095Y-96654880D01*
X67968809Y-96654880D02*
X67968809Y-95654880D01*
X67873571Y-95797738D01*
X67778333Y-95892976D01*
X67683095Y-95940595D01*
X69111666Y-95988214D02*
X69111666Y-96654880D01*
X68873571Y-95607261D02*
X68635476Y-96321547D01*
X69254523Y-96321547D01*
X63772546Y-96326956D02*
X63201117Y-96326956D01*
X63486832Y-96326956D02*
X63486832Y-95326956D01*
X63391593Y-95469814D01*
X63296355Y-95565052D01*
X63201117Y-95612671D01*
%TO.C,D15*%
X74350714Y-91574880D02*
X74350714Y-90574880D01*
X74588809Y-90574880D01*
X74731666Y-90622500D01*
X74826904Y-90717738D01*
X74874523Y-90812976D01*
X74922142Y-91003452D01*
X74922142Y-91146309D01*
X74874523Y-91336785D01*
X74826904Y-91432023D01*
X74731666Y-91527261D01*
X74588809Y-91574880D01*
X74350714Y-91574880D01*
X75874523Y-91574880D02*
X75303095Y-91574880D01*
X75588809Y-91574880D02*
X75588809Y-90574880D01*
X75493571Y-90717738D01*
X75398333Y-90812976D01*
X75303095Y-90860595D01*
X76779285Y-90574880D02*
X76303095Y-90574880D01*
X76255476Y-91051071D01*
X76303095Y-91003452D01*
X76398333Y-90955833D01*
X76636428Y-90955833D01*
X76731666Y-91003452D01*
X76779285Y-91051071D01*
X76826904Y-91146309D01*
X76826904Y-91384404D01*
X76779285Y-91479642D01*
X76731666Y-91527261D01*
X76636428Y-91574880D01*
X76398333Y-91574880D01*
X76303095Y-91527261D01*
X76255476Y-91479642D01*
X71442545Y-91166957D02*
X70871116Y-91166957D01*
X71156831Y-91166957D02*
X71156831Y-90166957D01*
X71061592Y-90309815D01*
X70966354Y-90405053D01*
X70871116Y-90452672D01*
%TO.C,D16*%
X83240714Y-89987380D02*
X83240714Y-88987380D01*
X83478809Y-88987380D01*
X83621666Y-89035000D01*
X83716904Y-89130238D01*
X83764523Y-89225476D01*
X83812142Y-89415952D01*
X83812142Y-89558809D01*
X83764523Y-89749285D01*
X83716904Y-89844523D01*
X83621666Y-89939761D01*
X83478809Y-89987380D01*
X83240714Y-89987380D01*
X84764523Y-89987380D02*
X84193095Y-89987380D01*
X84478809Y-89987380D02*
X84478809Y-88987380D01*
X84383571Y-89130238D01*
X84288333Y-89225476D01*
X84193095Y-89273095D01*
X85621666Y-88987380D02*
X85431190Y-88987380D01*
X85335952Y-89035000D01*
X85288333Y-89082619D01*
X85193095Y-89225476D01*
X85145476Y-89415952D01*
X85145476Y-89796904D01*
X85193095Y-89892142D01*
X85240714Y-89939761D01*
X85335952Y-89987380D01*
X85526428Y-89987380D01*
X85621666Y-89939761D01*
X85669285Y-89892142D01*
X85716904Y-89796904D01*
X85716904Y-89558809D01*
X85669285Y-89463571D01*
X85621666Y-89415952D01*
X85526428Y-89368333D01*
X85335952Y-89368333D01*
X85240714Y-89415952D01*
X85193095Y-89463571D01*
X85145476Y-89558809D01*
X80282545Y-89626956D02*
X79711116Y-89626956D01*
X79996831Y-89626956D02*
X79996831Y-88626956D01*
X79901592Y-88769814D01*
X79806354Y-88865052D01*
X79711116Y-88912671D01*
%TO.C,D17*%
X51173214Y-108402380D02*
X51173214Y-107402380D01*
X51411309Y-107402380D01*
X51554166Y-107450000D01*
X51649404Y-107545238D01*
X51697023Y-107640476D01*
X51744642Y-107830952D01*
X51744642Y-107973809D01*
X51697023Y-108164285D01*
X51649404Y-108259523D01*
X51554166Y-108354761D01*
X51411309Y-108402380D01*
X51173214Y-108402380D01*
X52697023Y-108402380D02*
X52125595Y-108402380D01*
X52411309Y-108402380D02*
X52411309Y-107402380D01*
X52316071Y-107545238D01*
X52220833Y-107640476D01*
X52125595Y-107688095D01*
X53030357Y-107402380D02*
X53697023Y-107402380D01*
X53268452Y-108402380D01*
X50450714Y-105227380D02*
X49879285Y-105227380D01*
X50165000Y-105227380D02*
X50165000Y-104227380D01*
X50069761Y-104370238D01*
X49974523Y-104465476D01*
X49879285Y-104513095D01*
%TO.C,D18*%
X67048214Y-103322380D02*
X67048214Y-102322380D01*
X67286309Y-102322380D01*
X67429166Y-102370000D01*
X67524404Y-102465238D01*
X67572023Y-102560476D01*
X67619642Y-102750952D01*
X67619642Y-102893809D01*
X67572023Y-103084285D01*
X67524404Y-103179523D01*
X67429166Y-103274761D01*
X67286309Y-103322380D01*
X67048214Y-103322380D01*
X68572023Y-103322380D02*
X68000595Y-103322380D01*
X68286309Y-103322380D02*
X68286309Y-102322380D01*
X68191071Y-102465238D01*
X68095833Y-102560476D01*
X68000595Y-102608095D01*
X69143452Y-102750952D02*
X69048214Y-102703333D01*
X69000595Y-102655714D01*
X68952976Y-102560476D01*
X68952976Y-102512857D01*
X69000595Y-102417619D01*
X69048214Y-102370000D01*
X69143452Y-102322380D01*
X69333928Y-102322380D01*
X69429166Y-102370000D01*
X69476785Y-102417619D01*
X69524404Y-102512857D01*
X69524404Y-102560476D01*
X69476785Y-102655714D01*
X69429166Y-102703333D01*
X69333928Y-102750952D01*
X69143452Y-102750952D01*
X69048214Y-102798571D01*
X69000595Y-102846190D01*
X68952976Y-102941428D01*
X68952976Y-103131904D01*
X69000595Y-103227142D01*
X69048214Y-103274761D01*
X69143452Y-103322380D01*
X69333928Y-103322380D01*
X69429166Y-103274761D01*
X69476785Y-103227142D01*
X69524404Y-103131904D01*
X69524404Y-102941428D01*
X69476785Y-102846190D01*
X69429166Y-102798571D01*
X69333928Y-102750952D01*
X63922545Y-102956956D02*
X63351116Y-102956956D01*
X63636831Y-102956956D02*
X63636831Y-101956956D01*
X63541592Y-102099814D01*
X63446354Y-102195052D01*
X63351116Y-102242671D01*
%TO.C,D19*%
X76255714Y-100147380D02*
X76255714Y-99147380D01*
X76493809Y-99147380D01*
X76636666Y-99195000D01*
X76731904Y-99290238D01*
X76779523Y-99385476D01*
X76827142Y-99575952D01*
X76827142Y-99718809D01*
X76779523Y-99909285D01*
X76731904Y-100004523D01*
X76636666Y-100099761D01*
X76493809Y-100147380D01*
X76255714Y-100147380D01*
X77779523Y-100147380D02*
X77208095Y-100147380D01*
X77493809Y-100147380D02*
X77493809Y-99147380D01*
X77398571Y-99290238D01*
X77303333Y-99385476D01*
X77208095Y-99433095D01*
X78255714Y-100147380D02*
X78446190Y-100147380D01*
X78541428Y-100099761D01*
X78589047Y-100052142D01*
X78684285Y-99909285D01*
X78731904Y-99718809D01*
X78731904Y-99337857D01*
X78684285Y-99242619D01*
X78636666Y-99195000D01*
X78541428Y-99147380D01*
X78350952Y-99147380D01*
X78255714Y-99195000D01*
X78208095Y-99242619D01*
X78160476Y-99337857D01*
X78160476Y-99575952D01*
X78208095Y-99671190D01*
X78255714Y-99718809D01*
X78350952Y-99766428D01*
X78541428Y-99766428D01*
X78636666Y-99718809D01*
X78684285Y-99671190D01*
X78731904Y-99575952D01*
X73582547Y-99816956D02*
X73011118Y-99816956D01*
X73296833Y-99816956D02*
X73296833Y-98816956D01*
X73201594Y-98959814D01*
X73106356Y-99055052D01*
X73011118Y-99102671D01*
%TO.C,D20*%
X89273214Y-96019880D02*
X89273214Y-95019880D01*
X89511309Y-95019880D01*
X89654166Y-95067500D01*
X89749404Y-95162738D01*
X89797023Y-95257976D01*
X89844642Y-95448452D01*
X89844642Y-95591309D01*
X89797023Y-95781785D01*
X89749404Y-95877023D01*
X89654166Y-95972261D01*
X89511309Y-96019880D01*
X89273214Y-96019880D01*
X90225595Y-95115119D02*
X90273214Y-95067500D01*
X90368452Y-95019880D01*
X90606547Y-95019880D01*
X90701785Y-95067500D01*
X90749404Y-95115119D01*
X90797023Y-95210357D01*
X90797023Y-95305595D01*
X90749404Y-95448452D01*
X90177976Y-96019880D01*
X90797023Y-96019880D01*
X91416071Y-95019880D02*
X91511309Y-95019880D01*
X91606547Y-95067500D01*
X91654166Y-95115119D01*
X91701785Y-95210357D01*
X91749404Y-95400833D01*
X91749404Y-95638928D01*
X91701785Y-95829404D01*
X91654166Y-95924642D01*
X91606547Y-95972261D01*
X91511309Y-96019880D01*
X91416071Y-96019880D01*
X91320833Y-95972261D01*
X91273214Y-95924642D01*
X91225595Y-95829404D01*
X91177976Y-95638928D01*
X91177976Y-95400833D01*
X91225595Y-95210357D01*
X91273214Y-95115119D01*
X91320833Y-95067500D01*
X91416071Y-95019880D01*
X86243346Y-95586855D02*
X85671917Y-95586855D01*
X85957632Y-95586855D02*
X85957632Y-94586855D01*
X85862393Y-94729713D01*
X85767155Y-94824951D01*
X85671917Y-94872570D01*
%TO.C,D21*%
X59428215Y-109037380D02*
X59428215Y-108037380D01*
X59666310Y-108037380D01*
X59809167Y-108085000D01*
X59904405Y-108180238D01*
X59952024Y-108275476D01*
X59999643Y-108465952D01*
X59999643Y-108608809D01*
X59952024Y-108799285D01*
X59904405Y-108894523D01*
X59809167Y-108989761D01*
X59666310Y-109037380D01*
X59428215Y-109037380D01*
X60380596Y-108132619D02*
X60428215Y-108085000D01*
X60523453Y-108037380D01*
X60761548Y-108037380D01*
X60856786Y-108085000D01*
X60904405Y-108132619D01*
X60952024Y-108227857D01*
X60952024Y-108323095D01*
X60904405Y-108465952D01*
X60332977Y-109037380D01*
X60952024Y-109037380D01*
X61904405Y-109037380D02*
X61332977Y-109037380D01*
X61618691Y-109037380D02*
X61618691Y-108037380D01*
X61523453Y-108180238D01*
X61428215Y-108275476D01*
X61332977Y-108323095D01*
X56442545Y-108726957D02*
X55871116Y-108726957D01*
X56156831Y-108726957D02*
X56156831Y-107726957D01*
X56061592Y-107869815D01*
X55966354Y-107965053D01*
X55871116Y-108012672D01*
%TO.C,D22*%
X70540714Y-108719880D02*
X70540714Y-107719880D01*
X70778809Y-107719880D01*
X70921666Y-107767500D01*
X71016904Y-107862738D01*
X71064523Y-107957976D01*
X71112142Y-108148452D01*
X71112142Y-108291309D01*
X71064523Y-108481785D01*
X71016904Y-108577023D01*
X70921666Y-108672261D01*
X70778809Y-108719880D01*
X70540714Y-108719880D01*
X71493095Y-107815119D02*
X71540714Y-107767500D01*
X71635952Y-107719880D01*
X71874047Y-107719880D01*
X71969285Y-107767500D01*
X72016904Y-107815119D01*
X72064523Y-107910357D01*
X72064523Y-108005595D01*
X72016904Y-108148452D01*
X71445476Y-108719880D01*
X72064523Y-108719880D01*
X72445476Y-107815119D02*
X72493095Y-107767500D01*
X72588333Y-107719880D01*
X72826428Y-107719880D01*
X72921666Y-107767500D01*
X72969285Y-107815119D01*
X73016904Y-107910357D01*
X73016904Y-108005595D01*
X72969285Y-108148452D01*
X72397857Y-108719880D01*
X73016904Y-108719880D01*
X67692545Y-108406956D02*
X67121116Y-108406956D01*
X67406831Y-108406956D02*
X67406831Y-107406956D01*
X67311592Y-107549814D01*
X67216354Y-107645052D01*
X67121116Y-107692671D01*
%TO.C,D23*%
X80157025Y-106934939D02*
X81108081Y-106625922D01*
X81181657Y-106852364D01*
X81180514Y-107002944D01*
X81119367Y-107122951D01*
X81043505Y-107197670D01*
X80877067Y-107301818D01*
X80741202Y-107345964D01*
X80545333Y-107359536D01*
X80440041Y-107343677D01*
X80320034Y-107282531D01*
X80230600Y-107161381D01*
X80157025Y-106934939D01*
X81311806Y-107561120D02*
X81371810Y-107591693D01*
X81446528Y-107667555D01*
X81520104Y-107893997D01*
X81504246Y-107999289D01*
X81473672Y-108059292D01*
X81397811Y-108134011D01*
X81307234Y-108163441D01*
X81156654Y-108162298D01*
X80436612Y-107795418D01*
X80627908Y-108384168D01*
X81681970Y-108392169D02*
X81873266Y-108980919D01*
X81407953Y-108781621D01*
X81452099Y-108917486D01*
X81436240Y-109022778D01*
X81405667Y-109082781D01*
X81329805Y-109157500D01*
X81103363Y-109231075D01*
X80998071Y-109215217D01*
X80938068Y-109184644D01*
X80863349Y-109108782D01*
X80775059Y-108837052D01*
X80790917Y-108731760D01*
X80821490Y-108671756D01*
X76304883Y-108036100D02*
X76128302Y-107492639D01*
X76216593Y-107764370D02*
X77167649Y-107455353D01*
X77002354Y-107408921D01*
X76882347Y-107347775D01*
X76807628Y-107271913D01*
%TO.C,D24*%
X88003214Y-104592380D02*
X88003214Y-103592380D01*
X88241309Y-103592380D01*
X88384166Y-103640000D01*
X88479404Y-103735238D01*
X88527023Y-103830476D01*
X88574642Y-104020952D01*
X88574642Y-104163809D01*
X88527023Y-104354285D01*
X88479404Y-104449523D01*
X88384166Y-104544761D01*
X88241309Y-104592380D01*
X88003214Y-104592380D01*
X88955595Y-103687619D02*
X89003214Y-103640000D01*
X89098452Y-103592380D01*
X89336547Y-103592380D01*
X89431785Y-103640000D01*
X89479404Y-103687619D01*
X89527023Y-103782857D01*
X89527023Y-103878095D01*
X89479404Y-104020952D01*
X88907976Y-104592380D01*
X89527023Y-104592380D01*
X90384166Y-103925714D02*
X90384166Y-104592380D01*
X90146071Y-103544761D02*
X89907976Y-104259047D01*
X90527023Y-104259047D01*
X84992545Y-104116956D02*
X84421116Y-104116956D01*
X84706831Y-104116956D02*
X84706831Y-103116956D01*
X84611592Y-103259814D01*
X84516354Y-103355052D01*
X84421116Y-103402671D01*
%TO.C,D25*%
X77843214Y-50617380D02*
X77843214Y-49617380D01*
X78081309Y-49617380D01*
X78224166Y-49665000D01*
X78319404Y-49760238D01*
X78367023Y-49855476D01*
X78414642Y-50045952D01*
X78414642Y-50188809D01*
X78367023Y-50379285D01*
X78319404Y-50474523D01*
X78224166Y-50569761D01*
X78081309Y-50617380D01*
X77843214Y-50617380D01*
X78795595Y-49712619D02*
X78843214Y-49665000D01*
X78938452Y-49617380D01*
X79176547Y-49617380D01*
X79271785Y-49665000D01*
X79319404Y-49712619D01*
X79367023Y-49807857D01*
X79367023Y-49903095D01*
X79319404Y-50045952D01*
X78747976Y-50617380D01*
X79367023Y-50617380D01*
X80271785Y-49617380D02*
X79795595Y-49617380D01*
X79747976Y-50093571D01*
X79795595Y-50045952D01*
X79890833Y-49998333D01*
X80128928Y-49998333D01*
X80224166Y-50045952D01*
X80271785Y-50093571D01*
X80319404Y-50188809D01*
X80319404Y-50426904D01*
X80271785Y-50522142D01*
X80224166Y-50569761D01*
X80128928Y-50617380D01*
X79890833Y-50617380D01*
X79795595Y-50569761D01*
X79747976Y-50522142D01*
X78402076Y-46477350D02*
X77830647Y-46477350D01*
X78116362Y-46477350D02*
X78116362Y-45477350D01*
X78021123Y-45620208D01*
X77925885Y-45715446D01*
X77830647Y-45763065D01*
%TO.C,D26*%
X86733214Y-57602380D02*
X86733214Y-56602380D01*
X86971309Y-56602380D01*
X87114166Y-56650000D01*
X87209404Y-56745238D01*
X87257023Y-56840476D01*
X87304642Y-57030952D01*
X87304642Y-57173809D01*
X87257023Y-57364285D01*
X87209404Y-57459523D01*
X87114166Y-57554761D01*
X86971309Y-57602380D01*
X86733214Y-57602380D01*
X87685595Y-56697619D02*
X87733214Y-56650000D01*
X87828452Y-56602380D01*
X88066547Y-56602380D01*
X88161785Y-56650000D01*
X88209404Y-56697619D01*
X88257023Y-56792857D01*
X88257023Y-56888095D01*
X88209404Y-57030952D01*
X87637976Y-57602380D01*
X88257023Y-57602380D01*
X89114166Y-56602380D02*
X88923690Y-56602380D01*
X88828452Y-56650000D01*
X88780833Y-56697619D01*
X88685595Y-56840476D01*
X88637976Y-57030952D01*
X88637976Y-57411904D01*
X88685595Y-57507142D01*
X88733214Y-57554761D01*
X88828452Y-57602380D01*
X89018928Y-57602380D01*
X89114166Y-57554761D01*
X89161785Y-57507142D01*
X89209404Y-57411904D01*
X89209404Y-57173809D01*
X89161785Y-57078571D01*
X89114166Y-57030952D01*
X89018928Y-56983333D01*
X88828452Y-56983333D01*
X88733214Y-57030952D01*
X88685595Y-57078571D01*
X88637976Y-57173809D01*
X87322076Y-53337350D02*
X86750647Y-53337350D01*
X87036362Y-53337350D02*
X87036362Y-52337350D01*
X86941123Y-52480208D01*
X86845885Y-52575446D01*
X86750647Y-52623065D01*
%TO.C,D27*%
X94353214Y-63317380D02*
X94353214Y-62317380D01*
X94591309Y-62317380D01*
X94734166Y-62365000D01*
X94829404Y-62460238D01*
X94877023Y-62555476D01*
X94924642Y-62745952D01*
X94924642Y-62888809D01*
X94877023Y-63079285D01*
X94829404Y-63174523D01*
X94734166Y-63269761D01*
X94591309Y-63317380D01*
X94353214Y-63317380D01*
X95305595Y-62412619D02*
X95353214Y-62365000D01*
X95448452Y-62317380D01*
X95686547Y-62317380D01*
X95781785Y-62365000D01*
X95829404Y-62412619D01*
X95877023Y-62507857D01*
X95877023Y-62603095D01*
X95829404Y-62745952D01*
X95257976Y-63317380D01*
X95877023Y-63317380D01*
X96210357Y-62317380D02*
X96877023Y-62317380D01*
X96448452Y-63317380D01*
X94602076Y-59037349D02*
X94030647Y-59037349D01*
X94316362Y-59037349D02*
X94316362Y-58037349D01*
X94221123Y-58180207D01*
X94125885Y-58275445D01*
X94030647Y-58323064D01*
%TO.C,D28*%
X101278517Y-69217978D02*
X101278517Y-68217978D01*
X101516612Y-68217978D01*
X101659469Y-68265598D01*
X101754707Y-68360836D01*
X101802326Y-68456074D01*
X101849945Y-68646550D01*
X101849945Y-68789407D01*
X101802326Y-68979883D01*
X101754707Y-69075121D01*
X101659469Y-69170359D01*
X101516612Y-69217978D01*
X101278517Y-69217978D01*
X102230898Y-68313217D02*
X102278517Y-68265598D01*
X102373755Y-68217978D01*
X102611850Y-68217978D01*
X102707088Y-68265598D01*
X102754707Y-68313217D01*
X102802326Y-68408455D01*
X102802326Y-68503693D01*
X102754707Y-68646550D01*
X102183279Y-69217978D01*
X102802326Y-69217978D01*
X103373755Y-68646550D02*
X103278517Y-68598931D01*
X103230898Y-68551312D01*
X103183279Y-68456074D01*
X103183279Y-68408455D01*
X103230898Y-68313217D01*
X103278517Y-68265598D01*
X103373755Y-68217978D01*
X103564231Y-68217978D01*
X103659469Y-68265598D01*
X103707088Y-68313217D01*
X103754707Y-68408455D01*
X103754707Y-68456074D01*
X103707088Y-68551312D01*
X103659469Y-68598931D01*
X103564231Y-68646550D01*
X103373755Y-68646550D01*
X103278517Y-68694169D01*
X103230898Y-68741788D01*
X103183279Y-68837026D01*
X103183279Y-69027502D01*
X103230898Y-69122740D01*
X103278517Y-69170359D01*
X103373755Y-69217978D01*
X103564231Y-69217978D01*
X103659469Y-69170359D01*
X103707088Y-69122740D01*
X103754707Y-69027502D01*
X103754707Y-68837026D01*
X103707088Y-68741788D01*
X103659469Y-68694169D01*
X103564231Y-68646550D01*
X98802076Y-66977349D02*
X98230647Y-66977349D01*
X98516362Y-66977349D02*
X98516362Y-65977349D01*
X98421123Y-66120207D01*
X98325885Y-66215445D01*
X98230647Y-66263064D01*
%TO.C,D29*%
X70858215Y-46489880D02*
X70858215Y-45489880D01*
X71096310Y-45489880D01*
X71239167Y-45537500D01*
X71334405Y-45632738D01*
X71382024Y-45727976D01*
X71429643Y-45918452D01*
X71429643Y-46061309D01*
X71382024Y-46251785D01*
X71334405Y-46347023D01*
X71239167Y-46442261D01*
X71096310Y-46489880D01*
X70858215Y-46489880D01*
X71810596Y-45585119D02*
X71858215Y-45537500D01*
X71953453Y-45489880D01*
X72191548Y-45489880D01*
X72286786Y-45537500D01*
X72334405Y-45585119D01*
X72382024Y-45680357D01*
X72382024Y-45775595D01*
X72334405Y-45918452D01*
X71762977Y-46489880D01*
X72382024Y-46489880D01*
X72858215Y-46489880D02*
X73048691Y-46489880D01*
X73143929Y-46442261D01*
X73191548Y-46394642D01*
X73286786Y-46251785D01*
X73334405Y-46061309D01*
X73334405Y-45680357D01*
X73286786Y-45585119D01*
X73239167Y-45537500D01*
X73143929Y-45489880D01*
X72953453Y-45489880D01*
X72858215Y-45537500D01*
X72810596Y-45585119D01*
X72762977Y-45680357D01*
X72762977Y-45918452D01*
X72810596Y-46013690D01*
X72858215Y-46061309D01*
X72953453Y-46108928D01*
X73143929Y-46108928D01*
X73239167Y-46061309D01*
X73286786Y-46013690D01*
X73334405Y-45918452D01*
X74580714Y-43314880D02*
X74009285Y-43314880D01*
X74295000Y-43314880D02*
X74295000Y-42314880D01*
X74199761Y-42457738D01*
X74104523Y-42552976D01*
X74009285Y-42600595D01*
%TO.C,D31*%
X86733214Y-68079880D02*
X86733214Y-67079880D01*
X86971309Y-67079880D01*
X87114166Y-67127500D01*
X87209404Y-67222738D01*
X87257023Y-67317976D01*
X87304642Y-67508452D01*
X87304642Y-67651309D01*
X87257023Y-67841785D01*
X87209404Y-67937023D01*
X87114166Y-68032261D01*
X86971309Y-68079880D01*
X86733214Y-68079880D01*
X87637976Y-67079880D02*
X88257023Y-67079880D01*
X87923690Y-67460833D01*
X88066547Y-67460833D01*
X88161785Y-67508452D01*
X88209404Y-67556071D01*
X88257023Y-67651309D01*
X88257023Y-67889404D01*
X88209404Y-67984642D01*
X88161785Y-68032261D01*
X88066547Y-68079880D01*
X87780833Y-68079880D01*
X87685595Y-68032261D01*
X87637976Y-67984642D01*
X89209404Y-68079880D02*
X88637976Y-68079880D01*
X88923690Y-68079880D02*
X88923690Y-67079880D01*
X88828452Y-67222738D01*
X88733214Y-67317976D01*
X88637976Y-67365595D01*
X87032075Y-63757350D02*
X86460646Y-63757350D01*
X86746361Y-63757350D02*
X86746361Y-62757350D01*
X86651122Y-62900208D01*
X86555884Y-62995446D01*
X86460646Y-63043065D01*
%TO.C,D32*%
X94670714Y-79192380D02*
X94670714Y-78192380D01*
X94908809Y-78192380D01*
X95051666Y-78240000D01*
X95146904Y-78335238D01*
X95194523Y-78430476D01*
X95242142Y-78620952D01*
X95242142Y-78763809D01*
X95194523Y-78954285D01*
X95146904Y-79049523D01*
X95051666Y-79144761D01*
X94908809Y-79192380D01*
X94670714Y-79192380D01*
X95575476Y-78192380D02*
X96194523Y-78192380D01*
X95861190Y-78573333D01*
X96004047Y-78573333D01*
X96099285Y-78620952D01*
X96146904Y-78668571D01*
X96194523Y-78763809D01*
X96194523Y-79001904D01*
X96146904Y-79097142D01*
X96099285Y-79144761D01*
X96004047Y-79192380D01*
X95718333Y-79192380D01*
X95623095Y-79144761D01*
X95575476Y-79097142D01*
X96575476Y-78287619D02*
X96623095Y-78240000D01*
X96718333Y-78192380D01*
X96956428Y-78192380D01*
X97051666Y-78240000D01*
X97099285Y-78287619D01*
X97146904Y-78382857D01*
X97146904Y-78478095D01*
X97099285Y-78620952D01*
X96527857Y-79192380D01*
X97146904Y-79192380D01*
X95000775Y-74637250D02*
X94429346Y-74637250D01*
X94715061Y-74637250D02*
X94715061Y-73637250D01*
X94619822Y-73780108D01*
X94524584Y-73875346D01*
X94429346Y-73922965D01*
%TO.C,D33*%
X73080714Y-54744880D02*
X73080714Y-53744880D01*
X73318809Y-53744880D01*
X73461666Y-53792500D01*
X73556904Y-53887738D01*
X73604523Y-53982976D01*
X73652142Y-54173452D01*
X73652142Y-54316309D01*
X73604523Y-54506785D01*
X73556904Y-54602023D01*
X73461666Y-54697261D01*
X73318809Y-54744880D01*
X73080714Y-54744880D01*
X73985476Y-53744880D02*
X74604523Y-53744880D01*
X74271190Y-54125833D01*
X74414047Y-54125833D01*
X74509285Y-54173452D01*
X74556904Y-54221071D01*
X74604523Y-54316309D01*
X74604523Y-54554404D01*
X74556904Y-54649642D01*
X74509285Y-54697261D01*
X74414047Y-54744880D01*
X74128333Y-54744880D01*
X74033095Y-54697261D01*
X73985476Y-54649642D01*
X74937857Y-53744880D02*
X75556904Y-53744880D01*
X75223571Y-54125833D01*
X75366428Y-54125833D01*
X75461666Y-54173452D01*
X75509285Y-54221071D01*
X75556904Y-54316309D01*
X75556904Y-54554404D01*
X75509285Y-54649642D01*
X75461666Y-54697261D01*
X75366428Y-54744880D01*
X75080714Y-54744880D01*
X74985476Y-54697261D01*
X74937857Y-54649642D01*
X73272077Y-50207349D02*
X72700648Y-50207349D01*
X72986363Y-50207349D02*
X72986363Y-49207349D01*
X72891124Y-49350207D01*
X72795886Y-49445445D01*
X72700648Y-49493064D01*
%TO.C,D34*%
X76573214Y-64904880D02*
X76573214Y-63904880D01*
X76811309Y-63904880D01*
X76954166Y-63952500D01*
X77049404Y-64047738D01*
X77097023Y-64142976D01*
X77144642Y-64333452D01*
X77144642Y-64476309D01*
X77097023Y-64666785D01*
X77049404Y-64762023D01*
X76954166Y-64857261D01*
X76811309Y-64904880D01*
X76573214Y-64904880D01*
X77477976Y-63904880D02*
X78097023Y-63904880D01*
X77763690Y-64285833D01*
X77906547Y-64285833D01*
X78001785Y-64333452D01*
X78049404Y-64381071D01*
X78097023Y-64476309D01*
X78097023Y-64714404D01*
X78049404Y-64809642D01*
X78001785Y-64857261D01*
X77906547Y-64904880D01*
X77620833Y-64904880D01*
X77525595Y-64857261D01*
X77477976Y-64809642D01*
X78954166Y-64238214D02*
X78954166Y-64904880D01*
X78716071Y-63857261D02*
X78477976Y-64571547D01*
X79097023Y-64571547D01*
X77042075Y-60807349D02*
X76470646Y-60807349D01*
X76756361Y-60807349D02*
X76756361Y-59807349D01*
X76661122Y-59950207D01*
X76565884Y-60045445D01*
X76470646Y-60093064D01*
%TO.C,D35*%
X79748214Y-73794880D02*
X79748214Y-72794880D01*
X79986309Y-72794880D01*
X80129166Y-72842500D01*
X80224404Y-72937738D01*
X80272023Y-73032976D01*
X80319642Y-73223452D01*
X80319642Y-73366309D01*
X80272023Y-73556785D01*
X80224404Y-73652023D01*
X80129166Y-73747261D01*
X79986309Y-73794880D01*
X79748214Y-73794880D01*
X80652976Y-72794880D02*
X81272023Y-72794880D01*
X80938690Y-73175833D01*
X81081547Y-73175833D01*
X81176785Y-73223452D01*
X81224404Y-73271071D01*
X81272023Y-73366309D01*
X81272023Y-73604404D01*
X81224404Y-73699642D01*
X81176785Y-73747261D01*
X81081547Y-73794880D01*
X80795833Y-73794880D01*
X80700595Y-73747261D01*
X80652976Y-73699642D01*
X82176785Y-72794880D02*
X81700595Y-72794880D01*
X81652976Y-73271071D01*
X81700595Y-73223452D01*
X81795833Y-73175833D01*
X82033928Y-73175833D01*
X82129166Y-73223452D01*
X82176785Y-73271071D01*
X82224404Y-73366309D01*
X82224404Y-73604404D01*
X82176785Y-73699642D01*
X82129166Y-73747261D01*
X82033928Y-73794880D01*
X81795833Y-73794880D01*
X81700595Y-73747261D01*
X81652976Y-73699642D01*
X80212075Y-69487350D02*
X79640646Y-69487350D01*
X79926361Y-69487350D02*
X79926361Y-68487350D01*
X79831122Y-68630208D01*
X79735884Y-68725446D01*
X79640646Y-68773065D01*
%TO.C,D36*%
X85780714Y-80462380D02*
X85780714Y-79462380D01*
X86018809Y-79462380D01*
X86161666Y-79510000D01*
X86256904Y-79605238D01*
X86304523Y-79700476D01*
X86352142Y-79890952D01*
X86352142Y-80033809D01*
X86304523Y-80224285D01*
X86256904Y-80319523D01*
X86161666Y-80414761D01*
X86018809Y-80462380D01*
X85780714Y-80462380D01*
X86685476Y-79462380D02*
X87304523Y-79462380D01*
X86971190Y-79843333D01*
X87114047Y-79843333D01*
X87209285Y-79890952D01*
X87256904Y-79938571D01*
X87304523Y-80033809D01*
X87304523Y-80271904D01*
X87256904Y-80367142D01*
X87209285Y-80414761D01*
X87114047Y-80462380D01*
X86828333Y-80462380D01*
X86733095Y-80414761D01*
X86685476Y-80367142D01*
X88161666Y-79462380D02*
X87971190Y-79462380D01*
X87875952Y-79510000D01*
X87828333Y-79557619D01*
X87733095Y-79700476D01*
X87685476Y-79890952D01*
X87685476Y-80271904D01*
X87733095Y-80367142D01*
X87780714Y-80414761D01*
X87875952Y-80462380D01*
X88066428Y-80462380D01*
X88161666Y-80414761D01*
X88209285Y-80367142D01*
X88256904Y-80271904D01*
X88256904Y-80033809D01*
X88209285Y-79938571D01*
X88161666Y-79890952D01*
X88066428Y-79843333D01*
X87875952Y-79843333D01*
X87780714Y-79890952D01*
X87733095Y-79938571D01*
X87685476Y-80033809D01*
X86472076Y-75937349D02*
X85900647Y-75937349D01*
X86186362Y-75937349D02*
X86186362Y-74937349D01*
X86091123Y-75080207D01*
X85995885Y-75175445D01*
X85900647Y-75223064D01*
%TO.C,D37*%
X134358214Y-54744880D02*
X134358214Y-53744880D01*
X134596309Y-53744880D01*
X134739166Y-53792500D01*
X134834404Y-53887738D01*
X134882023Y-53982976D01*
X134929642Y-54173452D01*
X134929642Y-54316309D01*
X134882023Y-54506785D01*
X134834404Y-54602023D01*
X134739166Y-54697261D01*
X134596309Y-54744880D01*
X134358214Y-54744880D01*
X135262976Y-53744880D02*
X135882023Y-53744880D01*
X135548690Y-54125833D01*
X135691547Y-54125833D01*
X135786785Y-54173452D01*
X135834404Y-54221071D01*
X135882023Y-54316309D01*
X135882023Y-54554404D01*
X135834404Y-54649642D01*
X135786785Y-54697261D01*
X135691547Y-54744880D01*
X135405833Y-54744880D01*
X135310595Y-54697261D01*
X135262976Y-54649642D01*
X136215357Y-53744880D02*
X136882023Y-53744880D01*
X136453452Y-54744880D01*
X139413493Y-52164461D02*
X138842064Y-52164461D01*
X139127779Y-52164461D02*
X139127779Y-51164461D01*
X139032540Y-51307319D01*
X138937302Y-51402557D01*
X138842064Y-51450176D01*
%TO.C,D38*%
X130230714Y-65222380D02*
X130230714Y-64222380D01*
X130468809Y-64222380D01*
X130611666Y-64270000D01*
X130706904Y-64365238D01*
X130754523Y-64460476D01*
X130802142Y-64650952D01*
X130802142Y-64793809D01*
X130754523Y-64984285D01*
X130706904Y-65079523D01*
X130611666Y-65174761D01*
X130468809Y-65222380D01*
X130230714Y-65222380D01*
X131135476Y-64222380D02*
X131754523Y-64222380D01*
X131421190Y-64603333D01*
X131564047Y-64603333D01*
X131659285Y-64650952D01*
X131706904Y-64698571D01*
X131754523Y-64793809D01*
X131754523Y-65031904D01*
X131706904Y-65127142D01*
X131659285Y-65174761D01*
X131564047Y-65222380D01*
X131278333Y-65222380D01*
X131183095Y-65174761D01*
X131135476Y-65127142D01*
X132325952Y-64650952D02*
X132230714Y-64603333D01*
X132183095Y-64555714D01*
X132135476Y-64460476D01*
X132135476Y-64412857D01*
X132183095Y-64317619D01*
X132230714Y-64270000D01*
X132325952Y-64222380D01*
X132516428Y-64222380D01*
X132611666Y-64270000D01*
X132659285Y-64317619D01*
X132706904Y-64412857D01*
X132706904Y-64460476D01*
X132659285Y-64555714D01*
X132611666Y-64603333D01*
X132516428Y-64650952D01*
X132325952Y-64650952D01*
X132230714Y-64698571D01*
X132183095Y-64746190D01*
X132135476Y-64841428D01*
X132135476Y-65031904D01*
X132183095Y-65127142D01*
X132230714Y-65174761D01*
X132325952Y-65222380D01*
X132516428Y-65222380D01*
X132611666Y-65174761D01*
X132659285Y-65127142D01*
X132706904Y-65031904D01*
X132706904Y-64841428D01*
X132659285Y-64746190D01*
X132611666Y-64698571D01*
X132516428Y-64650952D01*
X135643494Y-62764463D02*
X135072065Y-62764463D01*
X135357780Y-62764463D02*
X135357780Y-61764463D01*
X135262541Y-61907321D01*
X135167303Y-62002559D01*
X135072065Y-62050178D01*
%TO.C,D39*%
X127373214Y-73794880D02*
X127373214Y-72794880D01*
X127611309Y-72794880D01*
X127754166Y-72842500D01*
X127849404Y-72937738D01*
X127897023Y-73032976D01*
X127944642Y-73223452D01*
X127944642Y-73366309D01*
X127897023Y-73556785D01*
X127849404Y-73652023D01*
X127754166Y-73747261D01*
X127611309Y-73794880D01*
X127373214Y-73794880D01*
X128277976Y-72794880D02*
X128897023Y-72794880D01*
X128563690Y-73175833D01*
X128706547Y-73175833D01*
X128801785Y-73223452D01*
X128849404Y-73271071D01*
X128897023Y-73366309D01*
X128897023Y-73604404D01*
X128849404Y-73699642D01*
X128801785Y-73747261D01*
X128706547Y-73794880D01*
X128420833Y-73794880D01*
X128325595Y-73747261D01*
X128277976Y-73699642D01*
X129373214Y-73794880D02*
X129563690Y-73794880D01*
X129658928Y-73747261D01*
X129706547Y-73699642D01*
X129801785Y-73556785D01*
X129849404Y-73366309D01*
X129849404Y-72985357D01*
X129801785Y-72890119D01*
X129754166Y-72842500D01*
X129658928Y-72794880D01*
X129468452Y-72794880D01*
X129373214Y-72842500D01*
X129325595Y-72890119D01*
X129277976Y-72985357D01*
X129277976Y-73223452D01*
X129325595Y-73318690D01*
X129373214Y-73366309D01*
X129468452Y-73413928D01*
X129658928Y-73413928D01*
X129754166Y-73366309D01*
X129801785Y-73318690D01*
X129849404Y-73223452D01*
X132473493Y-71444463D02*
X131902064Y-71444463D01*
X132187779Y-71444463D02*
X132187779Y-70444463D01*
X132092540Y-70587321D01*
X131997302Y-70682559D01*
X131902064Y-70730178D01*
%TO.C,D40*%
X121023214Y-80462380D02*
X121023214Y-79462380D01*
X121261309Y-79462380D01*
X121404166Y-79510000D01*
X121499404Y-79605238D01*
X121547023Y-79700476D01*
X121594642Y-79890952D01*
X121594642Y-80033809D01*
X121547023Y-80224285D01*
X121499404Y-80319523D01*
X121404166Y-80414761D01*
X121261309Y-80462380D01*
X121023214Y-80462380D01*
X122451785Y-79795714D02*
X122451785Y-80462380D01*
X122213690Y-79414761D02*
X121975595Y-80129047D01*
X122594642Y-80129047D01*
X123166071Y-79462380D02*
X123261309Y-79462380D01*
X123356547Y-79510000D01*
X123404166Y-79557619D01*
X123451785Y-79652857D01*
X123499404Y-79843333D01*
X123499404Y-80081428D01*
X123451785Y-80271904D01*
X123404166Y-80367142D01*
X123356547Y-80414761D01*
X123261309Y-80462380D01*
X123166071Y-80462380D01*
X123070833Y-80414761D01*
X123023214Y-80367142D01*
X122975595Y-80271904D01*
X122927976Y-80081428D01*
X122927976Y-79843333D01*
X122975595Y-79652857D01*
X123023214Y-79557619D01*
X123070833Y-79510000D01*
X123166071Y-79462380D01*
X126213493Y-77894462D02*
X125642064Y-77894462D01*
X125927779Y-77894462D02*
X125927779Y-76894462D01*
X125832540Y-77037320D01*
X125737302Y-77132558D01*
X125642064Y-77180177D01*
%TO.C,D41*%
X136263214Y-46489880D02*
X136263214Y-45489880D01*
X136501309Y-45489880D01*
X136644166Y-45537500D01*
X136739404Y-45632738D01*
X136787023Y-45727976D01*
X136834642Y-45918452D01*
X136834642Y-46061309D01*
X136787023Y-46251785D01*
X136739404Y-46347023D01*
X136644166Y-46442261D01*
X136501309Y-46489880D01*
X136263214Y-46489880D01*
X137691785Y-45823214D02*
X137691785Y-46489880D01*
X137453690Y-45442261D02*
X137215595Y-46156547D01*
X137834642Y-46156547D01*
X138739404Y-46489880D02*
X138167976Y-46489880D01*
X138453690Y-46489880D02*
X138453690Y-45489880D01*
X138358452Y-45632738D01*
X138263214Y-45727976D01*
X138167976Y-45775595D01*
X140938214Y-48394880D02*
X140366785Y-48394880D01*
X140652500Y-48394880D02*
X140652500Y-47394880D01*
X140557261Y-47537738D01*
X140462023Y-47632976D01*
X140366785Y-47680595D01*
%TO.C,D42*%
X126420714Y-59824880D02*
X126420714Y-58824880D01*
X126658809Y-58824880D01*
X126801666Y-58872500D01*
X126896904Y-58967738D01*
X126944523Y-59062976D01*
X126992142Y-59253452D01*
X126992142Y-59396309D01*
X126944523Y-59586785D01*
X126896904Y-59682023D01*
X126801666Y-59777261D01*
X126658809Y-59824880D01*
X126420714Y-59824880D01*
X127849285Y-59158214D02*
X127849285Y-59824880D01*
X127611190Y-58777261D02*
X127373095Y-59491547D01*
X127992142Y-59491547D01*
X128325476Y-58920119D02*
X128373095Y-58872500D01*
X128468333Y-58824880D01*
X128706428Y-58824880D01*
X128801666Y-58872500D01*
X128849285Y-58920119D01*
X128896904Y-59015357D01*
X128896904Y-59110595D01*
X128849285Y-59253452D01*
X128277857Y-59824880D01*
X128896904Y-59824880D01*
X131623495Y-57494463D02*
X131052066Y-57494463D01*
X131337781Y-57494463D02*
X131337781Y-56494463D01*
X131242542Y-56637321D01*
X131147304Y-56732559D01*
X131052066Y-56780178D01*
%TO.C,D43*%
X120388213Y-68079880D02*
X120388213Y-67079880D01*
X120626308Y-67079880D01*
X120769165Y-67127500D01*
X120864403Y-67222738D01*
X120912022Y-67317976D01*
X120959641Y-67508452D01*
X120959641Y-67651309D01*
X120912022Y-67841785D01*
X120864403Y-67937023D01*
X120769165Y-68032261D01*
X120626308Y-68079880D01*
X120388213Y-68079880D01*
X121816784Y-67413214D02*
X121816784Y-68079880D01*
X121578689Y-67032261D02*
X121340594Y-67746547D01*
X121959641Y-67746547D01*
X122245356Y-67079880D02*
X122864403Y-67079880D01*
X122531070Y-67460833D01*
X122673927Y-67460833D01*
X122769165Y-67508452D01*
X122816784Y-67556071D01*
X122864403Y-67651309D01*
X122864403Y-67889404D01*
X122816784Y-67984642D01*
X122769165Y-68032261D01*
X122673927Y-68079880D01*
X122388213Y-68079880D01*
X122292975Y-68032261D01*
X122245356Y-67984642D01*
X125653494Y-65714462D02*
X125082065Y-65714462D01*
X125367780Y-65714462D02*
X125367780Y-64714462D01*
X125272541Y-64857320D01*
X125177303Y-64952558D01*
X125082065Y-65000177D01*
%TO.C,D44*%
X112450713Y-78874880D02*
X112450713Y-77874880D01*
X112688808Y-77874880D01*
X112831665Y-77922500D01*
X112926903Y-78017738D01*
X112974522Y-78112976D01*
X113022141Y-78303452D01*
X113022141Y-78446309D01*
X112974522Y-78636785D01*
X112926903Y-78732023D01*
X112831665Y-78827261D01*
X112688808Y-78874880D01*
X112450713Y-78874880D01*
X113879284Y-78208214D02*
X113879284Y-78874880D01*
X113641189Y-77827261D02*
X113403094Y-78541547D01*
X114022141Y-78541547D01*
X114831665Y-78208214D02*
X114831665Y-78874880D01*
X114593570Y-77827261D02*
X114355475Y-78541547D01*
X114974522Y-78541547D01*
X117659394Y-76518163D02*
X117087965Y-76518163D01*
X117373680Y-76518163D02*
X117373680Y-75518163D01*
X117278441Y-75661021D01*
X117183203Y-75756259D01*
X117087965Y-75803878D01*
%TO.C,D45*%
X129278214Y-50934880D02*
X129278214Y-49934880D01*
X129516309Y-49934880D01*
X129659166Y-49982500D01*
X129754404Y-50077738D01*
X129802023Y-50172976D01*
X129849642Y-50363452D01*
X129849642Y-50506309D01*
X129802023Y-50696785D01*
X129754404Y-50792023D01*
X129659166Y-50887261D01*
X129516309Y-50934880D01*
X129278214Y-50934880D01*
X130706785Y-50268214D02*
X130706785Y-50934880D01*
X130468690Y-49887261D02*
X130230595Y-50601547D01*
X130849642Y-50601547D01*
X131706785Y-49934880D02*
X131230595Y-49934880D01*
X131182976Y-50411071D01*
X131230595Y-50363452D01*
X131325833Y-50315833D01*
X131563928Y-50315833D01*
X131659166Y-50363452D01*
X131706785Y-50411071D01*
X131754404Y-50506309D01*
X131754404Y-50744404D01*
X131706785Y-50839642D01*
X131659166Y-50887261D01*
X131563928Y-50934880D01*
X131325833Y-50934880D01*
X131230595Y-50887261D01*
X131182976Y-50839642D01*
X135540714Y-49664880D02*
X134969285Y-49664880D01*
X135255000Y-49664880D02*
X135255000Y-48664880D01*
X135159761Y-48807738D01*
X135064523Y-48902976D01*
X134969285Y-48950595D01*
%TO.C,D46*%
X120388214Y-57602380D02*
X120388214Y-56602380D01*
X120626309Y-56602380D01*
X120769166Y-56650000D01*
X120864404Y-56745238D01*
X120912023Y-56840476D01*
X120959642Y-57030952D01*
X120959642Y-57173809D01*
X120912023Y-57364285D01*
X120864404Y-57459523D01*
X120769166Y-57554761D01*
X120626309Y-57602380D01*
X120388214Y-57602380D01*
X121816785Y-56935714D02*
X121816785Y-57602380D01*
X121578690Y-56554761D02*
X121340595Y-57269047D01*
X121959642Y-57269047D01*
X122769166Y-56602380D02*
X122578690Y-56602380D01*
X122483452Y-56650000D01*
X122435833Y-56697619D01*
X122340595Y-56840476D01*
X122292976Y-57030952D01*
X122292976Y-57411904D01*
X122340595Y-57507142D01*
X122388214Y-57554761D01*
X122483452Y-57602380D01*
X122673928Y-57602380D01*
X122769166Y-57554761D01*
X122816785Y-57507142D01*
X122864404Y-57411904D01*
X122864404Y-57173809D01*
X122816785Y-57078571D01*
X122769166Y-57030952D01*
X122673928Y-56983333D01*
X122483452Y-56983333D01*
X122388214Y-57030952D01*
X122340595Y-57078571D01*
X122292976Y-57173809D01*
X125363494Y-55294462D02*
X124792065Y-55294462D01*
X125077780Y-55294462D02*
X125077780Y-54294462D01*
X124982541Y-54437320D01*
X124887303Y-54532558D01*
X124792065Y-54580177D01*
%TO.C,D47*%
X112768214Y-63317380D02*
X112768214Y-62317380D01*
X113006309Y-62317380D01*
X113149166Y-62365000D01*
X113244404Y-62460238D01*
X113292023Y-62555476D01*
X113339642Y-62745952D01*
X113339642Y-62888809D01*
X113292023Y-63079285D01*
X113244404Y-63174523D01*
X113149166Y-63269761D01*
X113006309Y-63317380D01*
X112768214Y-63317380D01*
X114196785Y-62650714D02*
X114196785Y-63317380D01*
X113958690Y-62269761D02*
X113720595Y-62984047D01*
X114339642Y-62984047D01*
X114625357Y-62317380D02*
X115292023Y-62317380D01*
X114863452Y-63317380D01*
X118083493Y-60994463D02*
X117512064Y-60994463D01*
X117797779Y-60994463D02*
X117797779Y-59994463D01*
X117702540Y-60137321D01*
X117607302Y-60232559D01*
X117512064Y-60280178D01*
%TO.C,D48*%
X108640714Y-71254880D02*
X108640714Y-70254880D01*
X108878809Y-70254880D01*
X109021666Y-70302500D01*
X109116904Y-70397738D01*
X109164523Y-70492976D01*
X109212142Y-70683452D01*
X109212142Y-70826309D01*
X109164523Y-71016785D01*
X109116904Y-71112023D01*
X109021666Y-71207261D01*
X108878809Y-71254880D01*
X108640714Y-71254880D01*
X110069285Y-70588214D02*
X110069285Y-71254880D01*
X109831190Y-70207261D02*
X109593095Y-70921547D01*
X110212142Y-70921547D01*
X110735952Y-70683452D02*
X110640714Y-70635833D01*
X110593095Y-70588214D01*
X110545476Y-70492976D01*
X110545476Y-70445357D01*
X110593095Y-70350119D01*
X110640714Y-70302500D01*
X110735952Y-70254880D01*
X110926428Y-70254880D01*
X111021666Y-70302500D01*
X111069285Y-70350119D01*
X111116904Y-70445357D01*
X111116904Y-70492976D01*
X111069285Y-70588214D01*
X111021666Y-70635833D01*
X110926428Y-70683452D01*
X110735952Y-70683452D01*
X110640714Y-70731071D01*
X110593095Y-70778690D01*
X110545476Y-70873928D01*
X110545476Y-71064404D01*
X110593095Y-71159642D01*
X110640714Y-71207261D01*
X110735952Y-71254880D01*
X110926428Y-71254880D01*
X111021666Y-71207261D01*
X111069285Y-71159642D01*
X111116904Y-71064404D01*
X111116904Y-70873928D01*
X111069285Y-70778690D01*
X111021666Y-70731071D01*
X110926428Y-70683452D01*
X113883494Y-68934463D02*
X113312065Y-68934463D01*
X113597780Y-68934463D02*
X113597780Y-67934463D01*
X113502541Y-68077321D01*
X113407303Y-68172559D01*
X113312065Y-68220178D01*
%TO.C,D49*%
X147693214Y-109037380D02*
X147693214Y-108037380D01*
X147931309Y-108037380D01*
X148074166Y-108085000D01*
X148169404Y-108180238D01*
X148217023Y-108275476D01*
X148264642Y-108465952D01*
X148264642Y-108608809D01*
X148217023Y-108799285D01*
X148169404Y-108894523D01*
X148074166Y-108989761D01*
X147931309Y-109037380D01*
X147693214Y-109037380D01*
X149121785Y-108370714D02*
X149121785Y-109037380D01*
X148883690Y-107989761D02*
X148645595Y-108704047D01*
X149264642Y-108704047D01*
X149693214Y-109037380D02*
X149883690Y-109037380D01*
X149978928Y-108989761D01*
X150026547Y-108942142D01*
X150121785Y-108799285D01*
X150169404Y-108608809D01*
X150169404Y-108227857D01*
X150121785Y-108132619D01*
X150074166Y-108085000D01*
X149978928Y-108037380D01*
X149788452Y-108037380D01*
X149693214Y-108085000D01*
X149645595Y-108132619D01*
X149597976Y-108227857D01*
X149597976Y-108465952D01*
X149645595Y-108561190D01*
X149693214Y-108608809D01*
X149788452Y-108656428D01*
X149978928Y-108656428D01*
X150074166Y-108608809D01*
X150121785Y-108561190D01*
X150169404Y-108465952D01*
X152652614Y-111859238D02*
X152081185Y-111859238D01*
X152366900Y-111859238D02*
X152366900Y-110859238D01*
X152271661Y-111002096D01*
X152176423Y-111097334D01*
X152081185Y-111144953D01*
%TO.C,D50*%
X136580714Y-108719880D02*
X136580714Y-107719880D01*
X136818809Y-107719880D01*
X136961666Y-107767500D01*
X137056904Y-107862738D01*
X137104523Y-107957976D01*
X137152142Y-108148452D01*
X137152142Y-108291309D01*
X137104523Y-108481785D01*
X137056904Y-108577023D01*
X136961666Y-108672261D01*
X136818809Y-108719880D01*
X136580714Y-108719880D01*
X138056904Y-107719880D02*
X137580714Y-107719880D01*
X137533095Y-108196071D01*
X137580714Y-108148452D01*
X137675952Y-108100833D01*
X137914047Y-108100833D01*
X138009285Y-108148452D01*
X138056904Y-108196071D01*
X138104523Y-108291309D01*
X138104523Y-108529404D01*
X138056904Y-108624642D01*
X138009285Y-108672261D01*
X137914047Y-108719880D01*
X137675952Y-108719880D01*
X137580714Y-108672261D01*
X137533095Y-108624642D01*
X138723571Y-107719880D02*
X138818809Y-107719880D01*
X138914047Y-107767500D01*
X138961666Y-107815119D01*
X139009285Y-107910357D01*
X139056904Y-108100833D01*
X139056904Y-108338928D01*
X139009285Y-108529404D01*
X138961666Y-108624642D01*
X138914047Y-108672261D01*
X138818809Y-108719880D01*
X138723571Y-108719880D01*
X138628333Y-108672261D01*
X138580714Y-108624642D01*
X138533095Y-108529404D01*
X138485476Y-108338928D01*
X138485476Y-108100833D01*
X138533095Y-107910357D01*
X138580714Y-107815119D01*
X138628333Y-107767500D01*
X138723571Y-107719880D01*
X141402615Y-111539238D02*
X140831186Y-111539238D01*
X141116901Y-111539238D02*
X141116901Y-110539238D01*
X141021662Y-110682096D01*
X140926424Y-110777334D01*
X140831186Y-110824953D01*
%TO.C,D51*%
X127055714Y-108402380D02*
X127055714Y-107402380D01*
X127293809Y-107402380D01*
X127436666Y-107450000D01*
X127531904Y-107545238D01*
X127579523Y-107640476D01*
X127627142Y-107830952D01*
X127627142Y-107973809D01*
X127579523Y-108164285D01*
X127531904Y-108259523D01*
X127436666Y-108354761D01*
X127293809Y-108402380D01*
X127055714Y-108402380D01*
X128531904Y-107402380D02*
X128055714Y-107402380D01*
X128008095Y-107878571D01*
X128055714Y-107830952D01*
X128150952Y-107783333D01*
X128389047Y-107783333D01*
X128484285Y-107830952D01*
X128531904Y-107878571D01*
X128579523Y-107973809D01*
X128579523Y-108211904D01*
X128531904Y-108307142D01*
X128484285Y-108354761D01*
X128389047Y-108402380D01*
X128150952Y-108402380D01*
X128055714Y-108354761D01*
X128008095Y-108307142D01*
X129531904Y-108402380D02*
X128960476Y-108402380D01*
X129246190Y-108402380D02*
X129246190Y-107402380D01*
X129150952Y-107545238D01*
X129055714Y-107640476D01*
X128960476Y-107688095D01*
X132162613Y-111209238D02*
X131591184Y-111209238D01*
X131876899Y-111209238D02*
X131876899Y-110209238D01*
X131781660Y-110352096D01*
X131686422Y-110447334D01*
X131591184Y-110494953D01*
%TO.C,D52*%
X119118214Y-104274880D02*
X119118214Y-103274880D01*
X119356309Y-103274880D01*
X119499166Y-103322500D01*
X119594404Y-103417738D01*
X119642023Y-103512976D01*
X119689642Y-103703452D01*
X119689642Y-103846309D01*
X119642023Y-104036785D01*
X119594404Y-104132023D01*
X119499166Y-104227261D01*
X119356309Y-104274880D01*
X119118214Y-104274880D01*
X120594404Y-103274880D02*
X120118214Y-103274880D01*
X120070595Y-103751071D01*
X120118214Y-103703452D01*
X120213452Y-103655833D01*
X120451547Y-103655833D01*
X120546785Y-103703452D01*
X120594404Y-103751071D01*
X120642023Y-103846309D01*
X120642023Y-104084404D01*
X120594404Y-104179642D01*
X120546785Y-104227261D01*
X120451547Y-104274880D01*
X120213452Y-104274880D01*
X120118214Y-104227261D01*
X120070595Y-104179642D01*
X121022976Y-103370119D02*
X121070595Y-103322500D01*
X121165833Y-103274880D01*
X121403928Y-103274880D01*
X121499166Y-103322500D01*
X121546785Y-103370119D01*
X121594404Y-103465357D01*
X121594404Y-103560595D01*
X121546785Y-103703452D01*
X120975357Y-104274880D01*
X121594404Y-104274880D01*
X124102614Y-107249238D02*
X123531185Y-107249238D01*
X123816900Y-107249238D02*
X123816900Y-106249238D01*
X123721661Y-106392096D01*
X123626423Y-106487334D01*
X123531185Y-106534953D01*
%TO.C,D53*%
X155948214Y-108402379D02*
X155948214Y-107402379D01*
X156186309Y-107402379D01*
X156329166Y-107449999D01*
X156424404Y-107545237D01*
X156472023Y-107640475D01*
X156519642Y-107830951D01*
X156519642Y-107973808D01*
X156472023Y-108164284D01*
X156424404Y-108259522D01*
X156329166Y-108354760D01*
X156186309Y-108402379D01*
X155948214Y-108402379D01*
X157424404Y-107402379D02*
X156948214Y-107402379D01*
X156900595Y-107878570D01*
X156948214Y-107830951D01*
X157043452Y-107783332D01*
X157281547Y-107783332D01*
X157376785Y-107830951D01*
X157424404Y-107878570D01*
X157472023Y-107973808D01*
X157472023Y-108211903D01*
X157424404Y-108307141D01*
X157376785Y-108354760D01*
X157281547Y-108402379D01*
X157043452Y-108402379D01*
X156948214Y-108354760D01*
X156900595Y-108307141D01*
X157805357Y-107402379D02*
X158424404Y-107402379D01*
X158091071Y-107783332D01*
X158233928Y-107783332D01*
X158329166Y-107830951D01*
X158376785Y-107878570D01*
X158424404Y-107973808D01*
X158424404Y-108211903D01*
X158376785Y-108307141D01*
X158329166Y-108354760D01*
X158233928Y-108402379D01*
X157948214Y-108402379D01*
X157852976Y-108354760D01*
X157805357Y-108307141D01*
X157130714Y-112212380D02*
X156559285Y-112212380D01*
X156845000Y-112212380D02*
X156845000Y-111212380D01*
X156749761Y-111355238D01*
X156654523Y-111450476D01*
X156559285Y-111498095D01*
%TO.C,D54*%
X140390714Y-103322380D02*
X140390714Y-102322380D01*
X140628809Y-102322380D01*
X140771666Y-102370000D01*
X140866904Y-102465238D01*
X140914523Y-102560476D01*
X140962142Y-102750952D01*
X140962142Y-102893809D01*
X140914523Y-103084285D01*
X140866904Y-103179523D01*
X140771666Y-103274761D01*
X140628809Y-103322380D01*
X140390714Y-103322380D01*
X141866904Y-102322380D02*
X141390714Y-102322380D01*
X141343095Y-102798571D01*
X141390714Y-102750952D01*
X141485952Y-102703333D01*
X141724047Y-102703333D01*
X141819285Y-102750952D01*
X141866904Y-102798571D01*
X141914523Y-102893809D01*
X141914523Y-103131904D01*
X141866904Y-103227142D01*
X141819285Y-103274761D01*
X141724047Y-103322380D01*
X141485952Y-103322380D01*
X141390714Y-103274761D01*
X141343095Y-103227142D01*
X142771666Y-102655714D02*
X142771666Y-103322380D01*
X142533571Y-102274761D02*
X142295476Y-102989047D01*
X142914523Y-102989047D01*
X145172615Y-106089238D02*
X144601186Y-106089238D01*
X144886901Y-106089238D02*
X144886901Y-105089238D01*
X144791662Y-105232096D01*
X144696424Y-105327334D01*
X144601186Y-105374953D01*
%TO.C,D55*%
X130548214Y-100147380D02*
X130548214Y-99147380D01*
X130786309Y-99147380D01*
X130929166Y-99195000D01*
X131024404Y-99290238D01*
X131072023Y-99385476D01*
X131119642Y-99575952D01*
X131119642Y-99718809D01*
X131072023Y-99909285D01*
X131024404Y-100004523D01*
X130929166Y-100099761D01*
X130786309Y-100147380D01*
X130548214Y-100147380D01*
X132024404Y-99147380D02*
X131548214Y-99147380D01*
X131500595Y-99623571D01*
X131548214Y-99575952D01*
X131643452Y-99528333D01*
X131881547Y-99528333D01*
X131976785Y-99575952D01*
X132024404Y-99623571D01*
X132072023Y-99718809D01*
X132072023Y-99956904D01*
X132024404Y-100052142D01*
X131976785Y-100099761D01*
X131881547Y-100147380D01*
X131643452Y-100147380D01*
X131548214Y-100099761D01*
X131500595Y-100052142D01*
X132976785Y-99147380D02*
X132500595Y-99147380D01*
X132452976Y-99623571D01*
X132500595Y-99575952D01*
X132595833Y-99528333D01*
X132833928Y-99528333D01*
X132929166Y-99575952D01*
X132976785Y-99623571D01*
X133024404Y-99718809D01*
X133024404Y-99956904D01*
X132976785Y-100052142D01*
X132929166Y-100099761D01*
X132833928Y-100147380D01*
X132595833Y-100147380D01*
X132500595Y-100099761D01*
X132452976Y-100052142D01*
X135512615Y-102949237D02*
X134941186Y-102949237D01*
X135226901Y-102949237D02*
X135226901Y-101949237D01*
X135131662Y-102092095D01*
X135036424Y-102187333D01*
X134941186Y-102234952D01*
%TO.C,D56*%
X117848214Y-95702380D02*
X117848214Y-94702380D01*
X118086309Y-94702380D01*
X118229166Y-94750000D01*
X118324404Y-94845238D01*
X118372023Y-94940476D01*
X118419642Y-95130952D01*
X118419642Y-95273809D01*
X118372023Y-95464285D01*
X118324404Y-95559523D01*
X118229166Y-95654761D01*
X118086309Y-95702380D01*
X117848214Y-95702380D01*
X119324404Y-94702380D02*
X118848214Y-94702380D01*
X118800595Y-95178571D01*
X118848214Y-95130952D01*
X118943452Y-95083333D01*
X119181547Y-95083333D01*
X119276785Y-95130952D01*
X119324404Y-95178571D01*
X119372023Y-95273809D01*
X119372023Y-95511904D01*
X119324404Y-95607142D01*
X119276785Y-95654761D01*
X119181547Y-95702380D01*
X118943452Y-95702380D01*
X118848214Y-95654761D01*
X118800595Y-95607142D01*
X120229166Y-94702380D02*
X120038690Y-94702380D01*
X119943452Y-94750000D01*
X119895833Y-94797619D01*
X119800595Y-94940476D01*
X119752976Y-95130952D01*
X119752976Y-95511904D01*
X119800595Y-95607142D01*
X119848214Y-95654761D01*
X119943452Y-95702380D01*
X120133928Y-95702380D01*
X120229166Y-95654761D01*
X120276785Y-95607142D01*
X120324404Y-95511904D01*
X120324404Y-95273809D01*
X120276785Y-95178571D01*
X120229166Y-95130952D01*
X120133928Y-95083333D01*
X119943452Y-95083333D01*
X119848214Y-95130952D01*
X119800595Y-95178571D01*
X119752976Y-95273809D01*
X122839116Y-98630237D02*
X122267687Y-98630237D01*
X122553402Y-98630237D02*
X122553402Y-97630237D01*
X122458163Y-97773095D01*
X122362925Y-97868333D01*
X122267687Y-97915952D01*
%TO.C,D57*%
X149598214Y-103004880D02*
X149598214Y-102004880D01*
X149836309Y-102004880D01*
X149979166Y-102052500D01*
X150074404Y-102147738D01*
X150122023Y-102242976D01*
X150169642Y-102433452D01*
X150169642Y-102576309D01*
X150122023Y-102766785D01*
X150074404Y-102862023D01*
X149979166Y-102957261D01*
X149836309Y-103004880D01*
X149598214Y-103004880D01*
X151074404Y-102004880D02*
X150598214Y-102004880D01*
X150550595Y-102481071D01*
X150598214Y-102433452D01*
X150693452Y-102385833D01*
X150931547Y-102385833D01*
X151026785Y-102433452D01*
X151074404Y-102481071D01*
X151122023Y-102576309D01*
X151122023Y-102814404D01*
X151074404Y-102909642D01*
X151026785Y-102957261D01*
X150931547Y-103004880D01*
X150693452Y-103004880D01*
X150598214Y-102957261D01*
X150550595Y-102909642D01*
X151455357Y-102004880D02*
X152122023Y-102004880D01*
X151693452Y-103004880D01*
X154612615Y-105819237D02*
X154041186Y-105819237D01*
X154326901Y-105819237D02*
X154326901Y-104819237D01*
X154231662Y-104962095D01*
X154136424Y-105057333D01*
X154041186Y-105104952D01*
%TO.C,D58*%
X140390714Y-96654880D02*
X140390714Y-95654880D01*
X140628809Y-95654880D01*
X140771666Y-95702500D01*
X140866904Y-95797738D01*
X140914523Y-95892976D01*
X140962142Y-96083452D01*
X140962142Y-96226309D01*
X140914523Y-96416785D01*
X140866904Y-96512023D01*
X140771666Y-96607261D01*
X140628809Y-96654880D01*
X140390714Y-96654880D01*
X141866904Y-95654880D02*
X141390714Y-95654880D01*
X141343095Y-96131071D01*
X141390714Y-96083452D01*
X141485952Y-96035833D01*
X141724047Y-96035833D01*
X141819285Y-96083452D01*
X141866904Y-96131071D01*
X141914523Y-96226309D01*
X141914523Y-96464404D01*
X141866904Y-96559642D01*
X141819285Y-96607261D01*
X141724047Y-96654880D01*
X141485952Y-96654880D01*
X141390714Y-96607261D01*
X141343095Y-96559642D01*
X142485952Y-96083452D02*
X142390714Y-96035833D01*
X142343095Y-95988214D01*
X142295476Y-95892976D01*
X142295476Y-95845357D01*
X142343095Y-95750119D01*
X142390714Y-95702500D01*
X142485952Y-95654880D01*
X142676428Y-95654880D01*
X142771666Y-95702500D01*
X142819285Y-95750119D01*
X142866904Y-95845357D01*
X142866904Y-95892976D01*
X142819285Y-95988214D01*
X142771666Y-96035833D01*
X142676428Y-96083452D01*
X142485952Y-96083452D01*
X142390714Y-96131071D01*
X142343095Y-96178690D01*
X142295476Y-96273928D01*
X142295476Y-96464404D01*
X142343095Y-96559642D01*
X142390714Y-96607261D01*
X142485952Y-96654880D01*
X142676428Y-96654880D01*
X142771666Y-96607261D01*
X142819285Y-96559642D01*
X142866904Y-96464404D01*
X142866904Y-96273928D01*
X142819285Y-96178690D01*
X142771666Y-96131071D01*
X142676428Y-96083452D01*
X145322615Y-99459238D02*
X144751186Y-99459238D01*
X145036901Y-99459238D02*
X145036901Y-98459238D01*
X144941662Y-98602096D01*
X144846424Y-98697334D01*
X144751186Y-98744953D01*
%TO.C,D59*%
X132770714Y-91574880D02*
X132770714Y-90574880D01*
X133008809Y-90574880D01*
X133151666Y-90622500D01*
X133246904Y-90717738D01*
X133294523Y-90812976D01*
X133342142Y-91003452D01*
X133342142Y-91146309D01*
X133294523Y-91336785D01*
X133246904Y-91432023D01*
X133151666Y-91527261D01*
X133008809Y-91574880D01*
X132770714Y-91574880D01*
X134246904Y-90574880D02*
X133770714Y-90574880D01*
X133723095Y-91051071D01*
X133770714Y-91003452D01*
X133865952Y-90955833D01*
X134104047Y-90955833D01*
X134199285Y-91003452D01*
X134246904Y-91051071D01*
X134294523Y-91146309D01*
X134294523Y-91384404D01*
X134246904Y-91479642D01*
X134199285Y-91527261D01*
X134104047Y-91574880D01*
X133865952Y-91574880D01*
X133770714Y-91527261D01*
X133723095Y-91479642D01*
X134770714Y-91574880D02*
X134961190Y-91574880D01*
X135056428Y-91527261D01*
X135104047Y-91479642D01*
X135199285Y-91336785D01*
X135246904Y-91146309D01*
X135246904Y-90765357D01*
X135199285Y-90670119D01*
X135151666Y-90622500D01*
X135056428Y-90574880D01*
X134865952Y-90574880D01*
X134770714Y-90622500D01*
X134723095Y-90670119D01*
X134675476Y-90765357D01*
X134675476Y-91003452D01*
X134723095Y-91098690D01*
X134770714Y-91146309D01*
X134865952Y-91193928D01*
X135056428Y-91193928D01*
X135151666Y-91146309D01*
X135199285Y-91098690D01*
X135246904Y-91003452D01*
X137652615Y-94299238D02*
X137081186Y-94299238D01*
X137366901Y-94299238D02*
X137366901Y-93299238D01*
X137271662Y-93442096D01*
X137176424Y-93537334D01*
X137081186Y-93584953D01*
%TO.C,D60*%
X123880714Y-89987380D02*
X123880714Y-88987380D01*
X124118809Y-88987380D01*
X124261666Y-89035000D01*
X124356904Y-89130238D01*
X124404523Y-89225476D01*
X124452142Y-89415952D01*
X124452142Y-89558809D01*
X124404523Y-89749285D01*
X124356904Y-89844523D01*
X124261666Y-89939761D01*
X124118809Y-89987380D01*
X123880714Y-89987380D01*
X125309285Y-88987380D02*
X125118809Y-88987380D01*
X125023571Y-89035000D01*
X124975952Y-89082619D01*
X124880714Y-89225476D01*
X124833095Y-89415952D01*
X124833095Y-89796904D01*
X124880714Y-89892142D01*
X124928333Y-89939761D01*
X125023571Y-89987380D01*
X125214047Y-89987380D01*
X125309285Y-89939761D01*
X125356904Y-89892142D01*
X125404523Y-89796904D01*
X125404523Y-89558809D01*
X125356904Y-89463571D01*
X125309285Y-89415952D01*
X125214047Y-89368333D01*
X125023571Y-89368333D01*
X124928333Y-89415952D01*
X124880714Y-89463571D01*
X124833095Y-89558809D01*
X126023571Y-88987380D02*
X126118809Y-88987380D01*
X126214047Y-89035000D01*
X126261666Y-89082619D01*
X126309285Y-89177857D01*
X126356904Y-89368333D01*
X126356904Y-89606428D01*
X126309285Y-89796904D01*
X126261666Y-89892142D01*
X126214047Y-89939761D01*
X126118809Y-89987380D01*
X126023571Y-89987380D01*
X125928333Y-89939761D01*
X125880714Y-89892142D01*
X125833095Y-89796904D01*
X125785476Y-89606428D01*
X125785476Y-89368333D01*
X125833095Y-89177857D01*
X125880714Y-89082619D01*
X125928333Y-89035000D01*
X126023571Y-88987380D01*
X128812616Y-92759237D02*
X128241187Y-92759237D01*
X128526902Y-92759237D02*
X128526902Y-91759237D01*
X128431663Y-91902095D01*
X128336425Y-91997333D01*
X128241187Y-92044952D01*
%TO.C,R2*%
X96353333Y-101734880D02*
X96020000Y-101258690D01*
X95781904Y-101734880D02*
X95781904Y-100734880D01*
X96162857Y-100734880D01*
X96258095Y-100782500D01*
X96305714Y-100830119D01*
X96353333Y-100925357D01*
X96353333Y-101068214D01*
X96305714Y-101163452D01*
X96258095Y-101211071D01*
X96162857Y-101258690D01*
X95781904Y-101258690D01*
X96734285Y-100830119D02*
X96781904Y-100782500D01*
X96877142Y-100734880D01*
X97115238Y-100734880D01*
X97210476Y-100782500D01*
X97258095Y-100830119D01*
X97305714Y-100925357D01*
X97305714Y-101020595D01*
X97258095Y-101163452D01*
X96686666Y-101734880D01*
X97305714Y-101734880D01*
%TD*%
M02*
