M48
INCH,TZ
T1C0.0197
T2C0.0300
T3C0.0315
T4C0.0354
T5C0.0394
T6C0.0472
T7C0.0512
T8C0.0984
%
G90
G05
T1
X40502Y-25875
X40718Y-25353
X40718Y-26397
X41240Y-25137
X41240Y-26613
X41762Y-25353
X41762Y-26397
X41978Y-25875
X46362Y-43700
X46578Y-43178
X46578Y-44222
X47100Y-42962
X47100Y-44438
X47622Y-43178
X47622Y-44222
X47838Y-43700
X31062Y-32625
X31278Y-32103
X31278Y-33147
X31800Y-31887
X31800Y-33363
X32322Y-32103
X32322Y-33147
X32538Y-32625
X34662Y-43750
X34878Y-43228
X34878Y-44272
X35400Y-43012
X35400Y-44488
X35922Y-43228
X35922Y-44272
X36138Y-43750
X49862Y-32650
X50078Y-32128
X50078Y-33172
X50600Y-31912
X50600Y-33388
X51122Y-32128
X51122Y-33172
X51338Y-32650
T2
X28771Y-23677
X33625Y-20150
X56550Y-43800
X58404Y-38094
X48846Y-20100
X53700Y-23627
X38250Y-52700
X44250Y-52700
X24046Y-38144
X25900Y-43850
T3
X44700Y-33750
X46059Y-35109
X37875Y-35500
X38571Y-36196
T4
X22100Y-43450
X27850Y-19800
X34945Y-34305
X35624Y-29335
X36800Y-42350
X36887Y-34513
X38200Y-38050
X38200Y-41350
X39200Y-37500
X40625Y-39000
X40875Y-27750
X42650Y-39700
X42650Y-56550
X45744Y-28394
X47900Y-39625
X47931Y-42445
X48500Y-33350
X52200Y-18200
T5
X45175Y-36500
X43200Y-41150
X44200Y-41150
X45200Y-41150
T6
X42819Y-24833
X51100Y-30850
X31219Y-30667
X39500Y-24650
X36100Y-45450
X46336Y-45450
X30350Y-33900
X33513Y-43635
X49050Y-43600
X52213Y-33865
T7
X40250Y-32375
X42219Y-32375
T8
X31800Y-32625
X35400Y-43750
X50600Y-32650
X41240Y-25875
X47100Y-43700
T0
M30
