%TF.GenerationSoftware,KiCad,Pcbnew,(5.1.8)-1*%
%TF.CreationDate,2021-10-28T00:16:18+03:00*%
%TF.ProjectId,StarDuino,53746172-4475-4696-9e6f-2e6b69636164,rev?*%
%TF.SameCoordinates,Original*%
%TF.FileFunction,Copper,L2,Bot*%
%TF.FilePolarity,Positive*%
%FSLAX46Y46*%
G04 Gerber Fmt 4.6, Leading zero omitted, Abs format (unit mm)*
G04 Created by KiCad (PCBNEW (5.1.8)-1) date 2021-10-28 00:16:18*
%MOMM*%
%LPD*%
G01*
G04 APERTURE LIST*
%TA.AperFunction,NonConductor*%
%ADD10C,0.300000*%
%TD*%
%TA.AperFunction,ComponentPad*%
%ADD11O,2.400000X2.400000*%
%TD*%
%TA.AperFunction,ComponentPad*%
%ADD12R,2.400000X2.400000*%
%TD*%
%TA.AperFunction,ComponentPad*%
%ADD13C,0.100000*%
%TD*%
%TA.AperFunction,ComponentPad*%
%ADD14R,1.700000X1.700000*%
%TD*%
%TA.AperFunction,ComponentPad*%
%ADD15C,0.800000*%
%TD*%
%TA.AperFunction,ComponentPad*%
%ADD16C,5.000000*%
%TD*%
%TA.AperFunction,ComponentPad*%
%ADD17O,2.000000X2.000000*%
%TD*%
%TA.AperFunction,ComponentPad*%
%ADD18R,2.000000X2.000000*%
%TD*%
%TA.AperFunction,ComponentPad*%
%ADD19C,1.600000*%
%TD*%
%TA.AperFunction,ComponentPad*%
%ADD20R,2.600000X2.600000*%
%TD*%
%TA.AperFunction,ComponentPad*%
%ADD21C,2.600000*%
%TD*%
%TA.AperFunction,ComponentPad*%
%ADD22C,1.500000*%
%TD*%
%TA.AperFunction,ComponentPad*%
%ADD23O,1.600000X2.000000*%
%TD*%
%TA.AperFunction,ViaPad*%
%ADD24C,1.600000*%
%TD*%
%TA.AperFunction,Conductor*%
%ADD25C,0.600000*%
%TD*%
%TA.AperFunction,Conductor*%
%ADD26C,0.500000*%
%TD*%
%TA.AperFunction,Conductor*%
%ADD27C,0.800000*%
%TD*%
G04 APERTURE END LIST*
D10*
X141016857Y-101048428D02*
X140945428Y-100977000D01*
X140802571Y-100905571D01*
X140445428Y-100905571D01*
X140302571Y-100977000D01*
X140231142Y-101048428D01*
X140159714Y-101191285D01*
X140159714Y-101334142D01*
X140231142Y-101548428D01*
X141088285Y-102405571D01*
X140159714Y-102405571D01*
X139588285Y-101048428D02*
X139516857Y-100977000D01*
X139374000Y-100905571D01*
X139016857Y-100905571D01*
X138874000Y-100977000D01*
X138802571Y-101048428D01*
X138731142Y-101191285D01*
X138731142Y-101334142D01*
X138802571Y-101548428D01*
X139659714Y-102405571D01*
X138731142Y-102405571D01*
X138088285Y-102262714D02*
X138016857Y-102334142D01*
X138088285Y-102405571D01*
X138159714Y-102334142D01*
X138088285Y-102262714D01*
X138088285Y-102405571D01*
X137088285Y-100905571D02*
X136945428Y-100905571D01*
X136802571Y-100977000D01*
X136731142Y-101048428D01*
X136659714Y-101191285D01*
X136588285Y-101477000D01*
X136588285Y-101834142D01*
X136659714Y-102119857D01*
X136731142Y-102262714D01*
X136802571Y-102334142D01*
X136945428Y-102405571D01*
X137088285Y-102405571D01*
X137231142Y-102334142D01*
X137302571Y-102262714D01*
X137374000Y-102119857D01*
X137445428Y-101834142D01*
X137445428Y-101477000D01*
X137374000Y-101191285D01*
X137302571Y-101048428D01*
X137231142Y-100977000D01*
X137088285Y-100905571D01*
X135874000Y-102405571D02*
X135588285Y-102405571D01*
X135445428Y-102334142D01*
X135374000Y-102262714D01*
X135231142Y-102048428D01*
X135159714Y-101762714D01*
X135159714Y-101191285D01*
X135231142Y-101048428D01*
X135302571Y-100977000D01*
X135445428Y-100905571D01*
X135731142Y-100905571D01*
X135874000Y-100977000D01*
X135945428Y-101048428D01*
X136016857Y-101191285D01*
X136016857Y-101548428D01*
X135945428Y-101691285D01*
X135874000Y-101762714D01*
X135731142Y-101834142D01*
X135445428Y-101834142D01*
X135302571Y-101762714D01*
X135231142Y-101691285D01*
X135159714Y-101548428D01*
X134516857Y-102262714D02*
X134445428Y-102334142D01*
X134516857Y-102405571D01*
X134588285Y-102334142D01*
X134516857Y-102262714D01*
X134516857Y-102405571D01*
X133874000Y-101048428D02*
X133802571Y-100977000D01*
X133659714Y-100905571D01*
X133302571Y-100905571D01*
X133159714Y-100977000D01*
X133088285Y-101048428D01*
X133016857Y-101191285D01*
X133016857Y-101334142D01*
X133088285Y-101548428D01*
X133945428Y-102405571D01*
X133016857Y-102405571D01*
X132088285Y-100905571D02*
X131945428Y-100905571D01*
X131802571Y-100977000D01*
X131731142Y-101048428D01*
X131659714Y-101191285D01*
X131588285Y-101477000D01*
X131588285Y-101834142D01*
X131659714Y-102119857D01*
X131731142Y-102262714D01*
X131802571Y-102334142D01*
X131945428Y-102405571D01*
X132088285Y-102405571D01*
X132231142Y-102334142D01*
X132302571Y-102262714D01*
X132374000Y-102119857D01*
X132445428Y-101834142D01*
X132445428Y-101477000D01*
X132374000Y-101191285D01*
X132302571Y-101048428D01*
X132231142Y-100977000D01*
X132088285Y-100905571D01*
X131016857Y-101048428D02*
X130945428Y-100977000D01*
X130802571Y-100905571D01*
X130445428Y-100905571D01*
X130302571Y-100977000D01*
X130231142Y-101048428D01*
X130159714Y-101191285D01*
X130159714Y-101334142D01*
X130231142Y-101548428D01*
X131088285Y-102405571D01*
X130159714Y-102405571D01*
X128731142Y-102405571D02*
X129588285Y-102405571D01*
X129159714Y-102405571D02*
X129159714Y-100905571D01*
X129302571Y-101119857D01*
X129445428Y-101262714D01*
X129588285Y-101334142D01*
X137981142Y-99611571D02*
X138838285Y-99611571D01*
X138409714Y-99611571D02*
X138409714Y-98111571D01*
X138552571Y-98325857D01*
X138695428Y-98468714D01*
X138838285Y-98540142D01*
X137481142Y-98111571D02*
X136481142Y-98111571D01*
X137124000Y-99611571D01*
X135266857Y-98611571D02*
X135266857Y-99611571D01*
X135624000Y-98040142D02*
X135981142Y-99111571D01*
X135052571Y-99111571D01*
X134481142Y-99611571D02*
X134481142Y-98111571D01*
X134481142Y-98683000D02*
X134338285Y-98611571D01*
X134052571Y-98611571D01*
X133909714Y-98683000D01*
X133838285Y-98754428D01*
X133766857Y-98897285D01*
X133766857Y-99325857D01*
X133838285Y-99468714D01*
X133909714Y-99540142D01*
X134052571Y-99611571D01*
X134338285Y-99611571D01*
X134481142Y-99540142D01*
X132909714Y-98754428D02*
X133052571Y-98683000D01*
X133124000Y-98611571D01*
X133195428Y-98468714D01*
X133195428Y-98397285D01*
X133124000Y-98254428D01*
X133052571Y-98183000D01*
X132909714Y-98111571D01*
X132624000Y-98111571D01*
X132481142Y-98183000D01*
X132409714Y-98254428D01*
X132338285Y-98397285D01*
X132338285Y-98468714D01*
X132409714Y-98611571D01*
X132481142Y-98683000D01*
X132624000Y-98754428D01*
X132909714Y-98754428D01*
X133052571Y-98825857D01*
X133124000Y-98897285D01*
X133195428Y-99040142D01*
X133195428Y-99325857D01*
X133124000Y-99468714D01*
X133052571Y-99540142D01*
X132909714Y-99611571D01*
X132624000Y-99611571D01*
X132481142Y-99540142D01*
X132409714Y-99468714D01*
X132338285Y-99325857D01*
X132338285Y-99040142D01*
X132409714Y-98897285D01*
X132481142Y-98825857D01*
X132624000Y-98754428D01*
X131766857Y-98254428D02*
X131695428Y-98183000D01*
X131552571Y-98111571D01*
X131195428Y-98111571D01*
X131052571Y-98183000D01*
X130981142Y-98254428D01*
X130909714Y-98397285D01*
X130909714Y-98540142D01*
X130981142Y-98754428D01*
X131838285Y-99611571D01*
X130909714Y-99611571D01*
X139889857Y-96746142D02*
X139675571Y-96817571D01*
X139318428Y-96817571D01*
X139175571Y-96746142D01*
X139104142Y-96674714D01*
X139032714Y-96531857D01*
X139032714Y-96389000D01*
X139104142Y-96246142D01*
X139175571Y-96174714D01*
X139318428Y-96103285D01*
X139604142Y-96031857D01*
X139747000Y-95960428D01*
X139818428Y-95889000D01*
X139889857Y-95746142D01*
X139889857Y-95603285D01*
X139818428Y-95460428D01*
X139747000Y-95389000D01*
X139604142Y-95317571D01*
X139247000Y-95317571D01*
X139032714Y-95389000D01*
X138604142Y-95817571D02*
X138032714Y-95817571D01*
X138389857Y-95317571D02*
X138389857Y-96603285D01*
X138318428Y-96746142D01*
X138175571Y-96817571D01*
X138032714Y-96817571D01*
X136889857Y-96817571D02*
X136889857Y-96031857D01*
X136961285Y-95889000D01*
X137104142Y-95817571D01*
X137389857Y-95817571D01*
X137532714Y-95889000D01*
X136889857Y-96746142D02*
X137032714Y-96817571D01*
X137389857Y-96817571D01*
X137532714Y-96746142D01*
X137604142Y-96603285D01*
X137604142Y-96460428D01*
X137532714Y-96317571D01*
X137389857Y-96246142D01*
X137032714Y-96246142D01*
X136889857Y-96174714D01*
X136175571Y-96817571D02*
X136175571Y-95817571D01*
X136175571Y-96103285D02*
X136104142Y-95960428D01*
X136032714Y-95889000D01*
X135889857Y-95817571D01*
X135747000Y-95817571D01*
X135247000Y-96817571D02*
X135247000Y-95317571D01*
X134889857Y-95317571D01*
X134675571Y-95389000D01*
X134532714Y-95531857D01*
X134461285Y-95674714D01*
X134389857Y-95960428D01*
X134389857Y-96174714D01*
X134461285Y-96460428D01*
X134532714Y-96603285D01*
X134675571Y-96746142D01*
X134889857Y-96817571D01*
X135247000Y-96817571D01*
X133104142Y-95817571D02*
X133104142Y-96817571D01*
X133747000Y-95817571D02*
X133747000Y-96603285D01*
X133675571Y-96746142D01*
X133532714Y-96817571D01*
X133318428Y-96817571D01*
X133175571Y-96746142D01*
X133104142Y-96674714D01*
X132389857Y-96817571D02*
X132389857Y-95817571D01*
X132389857Y-95317571D02*
X132461285Y-95389000D01*
X132389857Y-95460428D01*
X132318428Y-95389000D01*
X132389857Y-95317571D01*
X132389857Y-95460428D01*
X131675571Y-95817571D02*
X131675571Y-96817571D01*
X131675571Y-95960428D02*
X131604142Y-95889000D01*
X131461285Y-95817571D01*
X131247000Y-95817571D01*
X131104142Y-95889000D01*
X131032714Y-96031857D01*
X131032714Y-96817571D01*
X130104142Y-96817571D02*
X130247000Y-96746142D01*
X130318428Y-96674714D01*
X130389857Y-96531857D01*
X130389857Y-96103285D01*
X130318428Y-95960428D01*
X130247000Y-95889000D01*
X130104142Y-95817571D01*
X129889857Y-95817571D01*
X129747000Y-95889000D01*
X129675571Y-95960428D01*
X129604142Y-96103285D01*
X129604142Y-96531857D01*
X129675571Y-96674714D01*
X129747000Y-96746142D01*
X129889857Y-96817571D01*
X130104142Y-96817571D01*
%TO.P,R5,2*%
%TO.N,Net-(C5-Pad1)*%
%TA.AperFunction,SMDPad,CuDef*%
G36*
G01*
X108350000Y-97922501D02*
X108350000Y-97022499D01*
G75*
G02*
X108599999Y-96772500I249999J0D01*
G01*
X109300001Y-96772500D01*
G75*
G02*
X109550000Y-97022499I0J-249999D01*
G01*
X109550000Y-97922501D01*
G75*
G02*
X109300001Y-98172500I-249999J0D01*
G01*
X108599999Y-98172500D01*
G75*
G02*
X108350000Y-97922501I0J249999D01*
G01*
G37*
%TD.AperFunction*%
%TO.P,R5,1*%
%TO.N,GND*%
%TA.AperFunction,SMDPad,CuDef*%
G36*
G01*
X106350000Y-97922501D02*
X106350000Y-97022499D01*
G75*
G02*
X106599999Y-96772500I249999J0D01*
G01*
X107300001Y-96772500D01*
G75*
G02*
X107550000Y-97022499I0J-249999D01*
G01*
X107550000Y-97922501D01*
G75*
G02*
X107300001Y-98172500I-249999J0D01*
G01*
X106599999Y-98172500D01*
G75*
G02*
X106350000Y-97922501I0J249999D01*
G01*
G37*
%TD.AperFunction*%
%TD*%
D11*
%TO.P,C10,2*%
%TO.N,GND*%
X117694000Y-115443000D03*
D12*
%TO.P,C10,1*%
%TO.N,VCC*%
X91694000Y-115443000D03*
%TD*%
%TO.P,C9,2*%
%TO.N,GND*%
%TA.AperFunction,ComponentPad*%
G36*
G01*
X84752622Y-109692201D02*
X84752622Y-109692201D01*
G75*
G02*
X86264710Y-110462649I370820J-1141268D01*
G01*
X86264710Y-110462649D01*
G75*
G02*
X85494262Y-111974737I-1141268J-370820D01*
G01*
X85494262Y-111974737D01*
G75*
G02*
X83982174Y-111204289I-370820J1141268D01*
G01*
X83982174Y-111204289D01*
G75*
G02*
X84752622Y-109692201I1141268J370820D01*
G01*
G37*
%TD.AperFunction*%
%TA.AperFunction,ComponentPad*%
D13*
%TO.P,C9,1*%
%TO.N,VCC*%
G36*
X75576912Y-85335553D02*
G01*
X77859447Y-84593912D01*
X78601088Y-86876447D01*
X76318553Y-87618088D01*
X75576912Y-85335553D01*
G37*
%TD.AperFunction*%
%TD*%
%TO.P,C8,2*%
%TO.N,GND*%
%TA.AperFunction,ComponentPad*%
G36*
G01*
X109730378Y-63781925D02*
X109730378Y-63781925D01*
G75*
G02*
X108054216Y-64047403I-970820J705342D01*
G01*
X108054216Y-64047403D01*
G75*
G02*
X107788738Y-62371241I705342J970820D01*
G01*
X107788738Y-62371241D01*
G75*
G02*
X109464900Y-62105763I970820J-705342D01*
G01*
X109464900Y-62105763D01*
G75*
G02*
X109730378Y-63781925I-705342J-970820D01*
G01*
G37*
%TD.AperFunction*%
%TA.AperFunction,ComponentPad*%
%TO.P,C8,1*%
%TO.N,VCC*%
G36*
X131470163Y-78093522D02*
G01*
X130059478Y-80035163D01*
X128117837Y-78624478D01*
X129528522Y-76682837D01*
X131470163Y-78093522D01*
G37*
%TD.AperFunction*%
%TD*%
%TO.P,C7,2*%
%TO.N,GND*%
%TA.AperFunction,ComponentPad*%
G36*
G01*
X132250622Y-87157799D02*
X132250622Y-87157799D01*
G75*
G02*
X131480174Y-85645711I370820J1141268D01*
G01*
X131480174Y-85645711D01*
G75*
G02*
X132992262Y-84875263I1141268J-370820D01*
G01*
X132992262Y-84875263D01*
G75*
G02*
X133762710Y-86387351I-370820J-1141268D01*
G01*
X133762710Y-86387351D01*
G75*
G02*
X132250622Y-87157799I-1141268J370820D01*
G01*
G37*
%TD.AperFunction*%
%TA.AperFunction,ComponentPad*%
%TO.P,C7,1*%
%TO.N,VCC*%
G36*
X125357447Y-112256088D02*
G01*
X123074912Y-111514447D01*
X123816553Y-109231912D01*
X126099088Y-109973553D01*
X125357447Y-112256088D01*
G37*
%TD.AperFunction*%
%TD*%
D14*
%TO.P,J3,1*%
%TO.N,GND*%
X114744500Y-92710000D03*
%TD*%
%TO.P,C6,2*%
%TO.N,GND*%
%TA.AperFunction,ComponentPad*%
G36*
G01*
X80266378Y-77188075D02*
X80266378Y-77188075D01*
G75*
G02*
X80000900Y-78864237I-970820J-705342D01*
G01*
X80000900Y-78864237D01*
G75*
G02*
X78324738Y-78598759I-705342J970820D01*
G01*
X78324738Y-78598759D01*
G75*
G02*
X78590216Y-76922597I970820J705342D01*
G01*
X78590216Y-76922597D01*
G75*
G02*
X80266378Y-77188075I705342J-970820D01*
G01*
G37*
%TD.AperFunction*%
%TA.AperFunction,ComponentPad*%
D13*
%TO.P,C6,1*%
%TO.N,VCC*%
G36*
X100595478Y-60934837D02*
G01*
X102006163Y-62876478D01*
X100064522Y-64287163D01*
X98653837Y-62345522D01*
X100595478Y-60934837D01*
G37*
%TD.AperFunction*%
%TD*%
D15*
%TO.P,H10,1*%
%TO.N,Net-(H10-Pad1)*%
X82097825Y-81541675D03*
X80772000Y-80992500D03*
X79446175Y-81541675D03*
X78897000Y-82867500D03*
X79446175Y-84193325D03*
X80772000Y-84742500D03*
X82097825Y-84193325D03*
X82647000Y-82867500D03*
D16*
X80772000Y-82867500D03*
%TD*%
D15*
%TO.P,H9,1*%
%TO.N,Net-(H9-Pad1)*%
X106075770Y-64396675D03*
X104749945Y-63847500D03*
X103424120Y-64396675D03*
X102874945Y-65722500D03*
X103424120Y-67048325D03*
X104749945Y-67597500D03*
X106075770Y-67048325D03*
X106624945Y-65722500D03*
D16*
X104749945Y-65722500D03*
%TD*%
D15*
%TO.P,H8,1*%
%TO.N,Net-(H8-Pad1)*%
X91241825Y-109799175D03*
X89916000Y-109250000D03*
X88590175Y-109799175D03*
X88041000Y-111125000D03*
X88590175Y-112450825D03*
X89916000Y-113000000D03*
X91241825Y-112450825D03*
X91791000Y-111125000D03*
D16*
X89916000Y-111125000D03*
%TD*%
D15*
%TO.P,H7,1*%
%TO.N,Net-(H7-Pad1)*%
X120959825Y-109672175D03*
X119634000Y-109123000D03*
X118308175Y-109672175D03*
X117759000Y-110998000D03*
X118308175Y-112323825D03*
X119634000Y-112873000D03*
X120959825Y-112323825D03*
X121509000Y-110998000D03*
D16*
X119634000Y-110998000D03*
%TD*%
D15*
%TO.P,H6,1*%
%TO.N,Net-(H6-Pad1)*%
X129849825Y-81605175D03*
X128524000Y-81056000D03*
X127198175Y-81605175D03*
X126649000Y-82931000D03*
X127198175Y-84256825D03*
X128524000Y-84806000D03*
X129849825Y-84256825D03*
X130399000Y-82931000D03*
D16*
X128524000Y-82931000D03*
%TD*%
D17*
%TO.P,J2,3*%
%TO.N,Net-(J2-Pad3)*%
X114807999Y-104521000D03*
%TO.P,J2,2*%
%TO.N,Net-(J2-Pad2)*%
X112268000Y-104521000D03*
D18*
%TO.P,J2,1*%
%TO.N,Net-(C5-Pad1)*%
X109728000Y-104521000D03*
%TD*%
%TA.AperFunction,ComponentPad*%
D13*
%TO.P,C3,1*%
%TO.N,VCC*%
G36*
X95071129Y-90170000D02*
G01*
X96202500Y-89038629D01*
X97333871Y-90170000D01*
X96202500Y-91301371D01*
X95071129Y-90170000D01*
G37*
%TD.AperFunction*%
D19*
%TO.P,C3,2*%
%TO.N,GND*%
X97970267Y-91937767D03*
%TD*%
D20*
%TO.P,J1,1*%
%TO.N,Net-(J1-Pad1)*%
X102235000Y-82232500D03*
D21*
%TO.P,J1,2*%
%TO.N,GND*%
X107235000Y-82232500D03*
%TD*%
D22*
%TO.P,Y1,1*%
%TO.N,Net-(C1-Pad1)*%
X113538000Y-85725000D03*
%TO.P,Y1,2*%
%TO.N,Net-(C2-Pad1)*%
X116988681Y-89175681D03*
%TD*%
%TO.P,C11,1*%
%TO.N,VCC*%
%TA.AperFunction,ComponentPad*%
G36*
G01*
X60639156Y-96185857D02*
X61019578Y-96062251D01*
G75*
G02*
X62027637Y-96575882I247214J-760845D01*
G01*
X62027637Y-96575882D01*
G75*
G02*
X61514006Y-97583941I-760845J-247214D01*
G01*
X61133584Y-97707547D01*
G75*
G02*
X60125525Y-97193916I-247214J760845D01*
G01*
X60125525Y-97193916D01*
G75*
G02*
X60639156Y-96185857I760845J247214D01*
G01*
G37*
%TD.AperFunction*%
%TO.P,C11,2*%
%TO.N,GND*%
%TA.AperFunction,ComponentPad*%
G36*
G01*
X65348575Y-110679958D02*
X65728997Y-110556352D01*
G75*
G02*
X66737056Y-111069983I247214J-760845D01*
G01*
X66737056Y-111069983D01*
G75*
G02*
X66223425Y-112078042I-760845J-247214D01*
G01*
X65843003Y-112201648D01*
G75*
G02*
X64834944Y-111688017I-247214J760845D01*
G01*
X64834944Y-111688017D01*
G75*
G02*
X65348575Y-110679958I760845J247214D01*
G01*
G37*
%TD.AperFunction*%
%TD*%
%TO.P,C12,2*%
%TO.N,GND*%
%TA.AperFunction,ComponentPad*%
G36*
G01*
X124833352Y-51362425D02*
X124598238Y-51686031D01*
G75*
G02*
X123480796Y-51863017I-647214J470228D01*
G01*
X123480796Y-51863017D01*
G75*
G02*
X123303810Y-50745575I470228J647214D01*
G01*
X123538924Y-50421969D01*
G75*
G02*
X124656366Y-50244983I647214J-470228D01*
G01*
X124656366Y-50244983D01*
G75*
G02*
X124833352Y-51362425I-470228J-647214D01*
G01*
G37*
%TD.AperFunction*%
%TO.P,C12,1*%
%TO.N,VCC*%
%TA.AperFunction,ComponentPad*%
G36*
G01*
X137162771Y-60320272D02*
X136927657Y-60643878D01*
G75*
G02*
X135810215Y-60820864I-647214J470228D01*
G01*
X135810215Y-60820864D01*
G75*
G02*
X135633229Y-59703422I470228J647214D01*
G01*
X135868343Y-59379816D01*
G75*
G02*
X136985785Y-59202830I647214J-470228D01*
G01*
X136985785Y-59202830D01*
G75*
G02*
X137162771Y-60320272I-470228J-647214D01*
G01*
G37*
%TD.AperFunction*%
%TD*%
%TO.P,C13,1*%
%TO.N,VCC*%
%TA.AperFunction,ComponentPad*%
G36*
G01*
X85937157Y-50548969D02*
X86172271Y-50872575D01*
G75*
G02*
X85995285Y-51990017I-647214J-470228D01*
G01*
X85995285Y-51990017D01*
G75*
G02*
X84877843Y-51813031I-470228J647214D01*
G01*
X84642729Y-51489425D01*
G75*
G02*
X84819715Y-50371983I647214J470228D01*
G01*
X84819715Y-50371983D01*
G75*
G02*
X85937157Y-50548969I470228J-647214D01*
G01*
G37*
%TD.AperFunction*%
%TO.P,C13,2*%
%TO.N,GND*%
%TA.AperFunction,ComponentPad*%
G36*
G01*
X73607738Y-59506816D02*
X73842852Y-59830422D01*
G75*
G02*
X73665866Y-60947864I-647214J-470228D01*
G01*
X73665866Y-60947864D01*
G75*
G02*
X72548424Y-60770878I-470228J647214D01*
G01*
X72313310Y-60447272D01*
G75*
G02*
X72490296Y-59329830I647214J470228D01*
G01*
X72490296Y-59329830D01*
G75*
G02*
X73607738Y-59506816I470228J-647214D01*
G01*
G37*
%TD.AperFunction*%
%TD*%
D23*
%TO.P,C14,2*%
%TO.N,GND*%
X112395000Y-133858000D03*
%TO.P,C14,1*%
%TO.N,VCC*%
X97155000Y-133858000D03*
%TD*%
%TO.P,C15,1*%
%TO.N,VCC*%
%TA.AperFunction,ComponentPad*%
G36*
G01*
X143579997Y-112074648D02*
X143199575Y-111951042D01*
G75*
G02*
X142685944Y-110942983I247214J760845D01*
G01*
X142685944Y-110942983D01*
G75*
G02*
X143694003Y-110429352I760845J-247214D01*
G01*
X144074425Y-110552958D01*
G75*
G02*
X144588056Y-111561017I-247214J-760845D01*
G01*
X144588056Y-111561017D01*
G75*
G02*
X143579997Y-112074648I-760845J247214D01*
G01*
G37*
%TD.AperFunction*%
%TO.P,C15,2*%
%TO.N,GND*%
%TA.AperFunction,ComponentPad*%
G36*
G01*
X148289416Y-97580547D02*
X147908994Y-97456941D01*
G75*
G02*
X147395363Y-96448882I247214J760845D01*
G01*
X147395363Y-96448882D01*
G75*
G02*
X148403422Y-95935251I760845J-247214D01*
G01*
X148783844Y-96058857D01*
G75*
G02*
X149297475Y-97066916I-247214J-760845D01*
G01*
X149297475Y-97066916D01*
G75*
G02*
X148289416Y-97580547I-760845J247214D01*
G01*
G37*
%TD.AperFunction*%
%TD*%
D24*
%TO.N,GND*%
X103187500Y-99060000D03*
X99568000Y-95250000D03*
%TO.N,VCC*%
X90485221Y-74509694D03*
X116190587Y-72121587D03*
X93472000Y-107569000D03*
X93694250Y-87661750D03*
X97028000Y-96647000D03*
X121743924Y-107809336D03*
%TO.N,Net-(D21-Pad2)*%
X56134000Y-110363000D03*
X103822500Y-70485000D03*
%TO.N,Net-(D33-Pad2)*%
X70739000Y-50292000D03*
X123190000Y-84709000D03*
%TO.N,Net-(D45-Pad2)*%
X121666000Y-100647500D03*
X132588000Y-46228000D03*
%TO.N,Net-(D4-Pad4)*%
X108331000Y-100838000D03*
X97028000Y-105029000D03*
%TO.N,Net-(D16-Pad4)*%
X88759936Y-87135064D03*
X108331000Y-143637000D03*
%TD*%
D25*
%TO.N,GND*%
X99568000Y-95250000D02*
X103187500Y-99060000D01*
D26*
X104775000Y-97472500D02*
X103187500Y-99060000D01*
X106950000Y-97472500D02*
X104775000Y-97472500D01*
D27*
%TO.N,VCC*%
X113802480Y-74509694D02*
X116190587Y-72121587D01*
D25*
X93726000Y-107315000D02*
X93472000Y-107569000D01*
D27*
X90485221Y-84452721D02*
X93694250Y-87661750D01*
X90485221Y-74509694D02*
X90485221Y-84452721D01*
X113802480Y-74509694D02*
X99670806Y-74509694D01*
X93694250Y-80486250D02*
X93694250Y-87661750D01*
X99670806Y-74509694D02*
X93694250Y-80486250D01*
D25*
X90614500Y-99885500D02*
X90730013Y-100001013D01*
D27*
X90614500Y-90678000D02*
X90614500Y-99885500D01*
X90614500Y-104711500D02*
X93472000Y-107569000D01*
X90614500Y-99885500D02*
X90614500Y-104711500D01*
X93694250Y-93313250D02*
X94361000Y-93980000D01*
X93694250Y-87661750D02*
X93694250Y-93313250D01*
X94361000Y-93980000D02*
X97028000Y-96647000D01*
D25*
X93694250Y-87661750D02*
X93694250Y-88550750D01*
D27*
X93694250Y-87661750D02*
X91154250Y-87661750D01*
X90614500Y-88201500D02*
X90614500Y-90678000D01*
X91154250Y-87661750D02*
X90614500Y-88201500D01*
X96139000Y-106934000D02*
X106553000Y-106934000D01*
X92456000Y-103251000D02*
X96139000Y-106934000D01*
X92456000Y-88900000D02*
X92456000Y-103251000D01*
X93694250Y-87661750D02*
X92456000Y-88900000D01*
X120868588Y-106934000D02*
X121743924Y-107809336D01*
X106553000Y-106934000D02*
X120868588Y-106934000D01*
D25*
%TO.N,Net-(D21-Pad2)*%
X56134000Y-110363000D02*
X68961000Y-97536000D01*
D26*
X89852500Y-70485000D02*
X89757250Y-70580250D01*
X103822500Y-70485000D02*
X89852500Y-70485000D01*
D25*
X86518750Y-83978750D02*
X86518750Y-73818750D01*
X84772500Y-85725000D02*
X86518750Y-83978750D01*
X86518750Y-73818750D02*
X89757250Y-70580250D01*
D26*
X68961000Y-97536000D02*
X68961000Y-97409000D01*
X84772500Y-85725000D02*
X78740000Y-91757500D01*
X78740000Y-91757500D02*
X74612500Y-91757500D01*
X68961000Y-97409000D02*
X74612500Y-91757500D01*
%TO.N,Net-(D33-Pad2)*%
X117856000Y-68834000D02*
X123190000Y-74168000D01*
X123190000Y-74168000D02*
X123190000Y-84709000D01*
X89281000Y-68834000D02*
X117856000Y-68834000D01*
X70739000Y-50292000D02*
X89281000Y-68834000D01*
%TO.N,Net-(D45-Pad2)*%
X132588000Y-46228000D02*
X132588000Y-46101000D01*
X125222000Y-64770000D02*
X132588000Y-57404000D01*
X125222000Y-85979000D02*
X125222000Y-64770000D01*
X123571000Y-87630000D02*
X125222000Y-85979000D01*
X132588000Y-57404000D02*
X132588000Y-46228000D01*
X123571000Y-95377000D02*
X123571000Y-87630000D01*
X123571000Y-95377000D02*
X121666000Y-100774500D01*
%TO.N,Net-(D4-Pad4)*%
X105574740Y-103594260D02*
X108331000Y-100838000D01*
X105574740Y-103632000D02*
X105574740Y-103594260D01*
X104177740Y-105029000D02*
X105574740Y-103632000D01*
X97028000Y-105029000D02*
X104177740Y-105029000D01*
%TO.N,Net-(D16-Pad4)*%
X99822000Y-135128000D02*
X108331000Y-143637000D01*
X99822000Y-116586000D02*
X99822000Y-135128000D01*
X88759936Y-105523936D02*
X99822000Y-116586000D01*
X88759936Y-87135064D02*
X88759936Y-105523936D01*
%TO.N,Net-(C5-Pad1)*%
X108950000Y-97472500D02*
X109855000Y-97472500D01*
X109855000Y-97472500D02*
X110807500Y-98425000D01*
X110807500Y-98425000D02*
X110807500Y-101917500D01*
X109728000Y-102997000D02*
X109728000Y-104521000D01*
X110807500Y-101917500D02*
X109728000Y-102997000D01*
%TD*%
M02*
