%TF.GenerationSoftware,KiCad,Pcbnew,(5.1.8)-1*%
%TF.CreationDate,2021-10-28T00:16:18+03:00*%
%TF.ProjectId,StarDuino,53746172-4475-4696-9e6f-2e6b69636164,rev?*%
%TF.SameCoordinates,Original*%
%TF.FileFunction,Soldermask,Top*%
%TF.FilePolarity,Negative*%
%FSLAX46Y46*%
G04 Gerber Fmt 4.6, Leading zero omitted, Abs format (unit mm)*
G04 Created by KiCad (PCBNEW (5.1.8)-1) date 2021-10-28 00:16:18*
%MOMM*%
%LPD*%
G01*
G04 APERTURE LIST*
%ADD10O,2.400000X2.400000*%
%ADD11R,2.400000X2.400000*%
%ADD12C,0.100000*%
%ADD13R,1.700000X1.700000*%
%ADD14C,0.800000*%
%ADD15C,5.000000*%
%ADD16O,2.000000X2.000000*%
%ADD17R,2.000000X2.000000*%
%ADD18C,1.600000*%
%ADD19R,2.600000X2.600000*%
%ADD20C,2.600000*%
%ADD21R,0.900000X0.800000*%
%ADD22R,1.000000X1.500000*%
%ADD23C,1.500000*%
%ADD24O,1.600000X2.000000*%
G04 APERTURE END LIST*
D10*
%TO.C,C10*%
X117694000Y-115443000D03*
D11*
X91694000Y-115443000D03*
%TD*%
%TO.C,C9*%
G36*
G01*
X84752622Y-109692201D02*
X84752622Y-109692201D01*
G75*
G02*
X86264710Y-110462649I370820J-1141268D01*
G01*
X86264710Y-110462649D01*
G75*
G02*
X85494262Y-111974737I-1141268J-370820D01*
G01*
X85494262Y-111974737D01*
G75*
G02*
X83982174Y-111204289I-370820J1141268D01*
G01*
X83982174Y-111204289D01*
G75*
G02*
X84752622Y-109692201I1141268J370820D01*
G01*
G37*
D12*
G36*
X75576912Y-85335553D02*
G01*
X77859447Y-84593912D01*
X78601088Y-86876447D01*
X76318553Y-87618088D01*
X75576912Y-85335553D01*
G37*
%TD*%
%TO.C,C8*%
G36*
G01*
X109730378Y-63781925D02*
X109730378Y-63781925D01*
G75*
G02*
X108054216Y-64047403I-970820J705342D01*
G01*
X108054216Y-64047403D01*
G75*
G02*
X107788738Y-62371241I705342J970820D01*
G01*
X107788738Y-62371241D01*
G75*
G02*
X109464900Y-62105763I970820J-705342D01*
G01*
X109464900Y-62105763D01*
G75*
G02*
X109730378Y-63781925I-705342J-970820D01*
G01*
G37*
G36*
X131470163Y-78093522D02*
G01*
X130059478Y-80035163D01*
X128117837Y-78624478D01*
X129528522Y-76682837D01*
X131470163Y-78093522D01*
G37*
%TD*%
%TO.C,C7*%
G36*
G01*
X132250622Y-87157799D02*
X132250622Y-87157799D01*
G75*
G02*
X131480174Y-85645711I370820J1141268D01*
G01*
X131480174Y-85645711D01*
G75*
G02*
X132992262Y-84875263I1141268J-370820D01*
G01*
X132992262Y-84875263D01*
G75*
G02*
X133762710Y-86387351I-370820J-1141268D01*
G01*
X133762710Y-86387351D01*
G75*
G02*
X132250622Y-87157799I-1141268J370820D01*
G01*
G37*
G36*
X125357447Y-112256088D02*
G01*
X123074912Y-111514447D01*
X123816553Y-109231912D01*
X126099088Y-109973553D01*
X125357447Y-112256088D01*
G37*
%TD*%
D13*
%TO.C,J3*%
X114744500Y-92710000D03*
%TD*%
%TO.C,C6*%
G36*
G01*
X80266378Y-77188075D02*
X80266378Y-77188075D01*
G75*
G02*
X80000900Y-78864237I-970820J-705342D01*
G01*
X80000900Y-78864237D01*
G75*
G02*
X78324738Y-78598759I-705342J970820D01*
G01*
X78324738Y-78598759D01*
G75*
G02*
X78590216Y-76922597I970820J705342D01*
G01*
X78590216Y-76922597D01*
G75*
G02*
X80266378Y-77188075I705342J-970820D01*
G01*
G37*
D12*
G36*
X100595478Y-60934837D02*
G01*
X102006163Y-62876478D01*
X100064522Y-64287163D01*
X98653837Y-62345522D01*
X100595478Y-60934837D01*
G37*
%TD*%
%TO.C,R4*%
G36*
G01*
X115194501Y-101200000D02*
X114294499Y-101200000D01*
G75*
G02*
X114044500Y-100950001I0J249999D01*
G01*
X114044500Y-100249999D01*
G75*
G02*
X114294499Y-100000000I249999J0D01*
G01*
X115194501Y-100000000D01*
G75*
G02*
X115444500Y-100249999I0J-249999D01*
G01*
X115444500Y-100950001D01*
G75*
G02*
X115194501Y-101200000I-249999J0D01*
G01*
G37*
G36*
G01*
X115194501Y-103200000D02*
X114294499Y-103200000D01*
G75*
G02*
X114044500Y-102950001I0J249999D01*
G01*
X114044500Y-102249999D01*
G75*
G02*
X114294499Y-102000000I249999J0D01*
G01*
X115194501Y-102000000D01*
G75*
G02*
X115444500Y-102249999I0J-249999D01*
G01*
X115444500Y-102950001D01*
G75*
G02*
X115194501Y-103200000I-249999J0D01*
G01*
G37*
%TD*%
%TO.C,R3*%
G36*
G01*
X113226001Y-101200000D02*
X112325999Y-101200000D01*
G75*
G02*
X112076000Y-100950001I0J249999D01*
G01*
X112076000Y-100249999D01*
G75*
G02*
X112325999Y-100000000I249999J0D01*
G01*
X113226001Y-100000000D01*
G75*
G02*
X113476000Y-100249999I0J-249999D01*
G01*
X113476000Y-100950001D01*
G75*
G02*
X113226001Y-101200000I-249999J0D01*
G01*
G37*
G36*
G01*
X113226001Y-103200000D02*
X112325999Y-103200000D01*
G75*
G02*
X112076000Y-102950001I0J249999D01*
G01*
X112076000Y-102249999D01*
G75*
G02*
X112325999Y-102000000I249999J0D01*
G01*
X113226001Y-102000000D01*
G75*
G02*
X113476000Y-102249999I0J-249999D01*
G01*
X113476000Y-102950001D01*
G75*
G02*
X113226001Y-103200000I-249999J0D01*
G01*
G37*
%TD*%
D14*
%TO.C,H10*%
X82097825Y-81541675D03*
X80772000Y-80992500D03*
X79446175Y-81541675D03*
X78897000Y-82867500D03*
X79446175Y-84193325D03*
X80772000Y-84742500D03*
X82097825Y-84193325D03*
X82647000Y-82867500D03*
D15*
X80772000Y-82867500D03*
%TD*%
D14*
%TO.C,H9*%
X106075770Y-64396675D03*
X104749945Y-63847500D03*
X103424120Y-64396675D03*
X102874945Y-65722500D03*
X103424120Y-67048325D03*
X104749945Y-67597500D03*
X106075770Y-67048325D03*
X106624945Y-65722500D03*
D15*
X104749945Y-65722500D03*
%TD*%
D14*
%TO.C,H8*%
X91241825Y-109799175D03*
X89916000Y-109250000D03*
X88590175Y-109799175D03*
X88041000Y-111125000D03*
X88590175Y-112450825D03*
X89916000Y-113000000D03*
X91241825Y-112450825D03*
X91791000Y-111125000D03*
D15*
X89916000Y-111125000D03*
%TD*%
D14*
%TO.C,H7*%
X120959825Y-109672175D03*
X119634000Y-109123000D03*
X118308175Y-109672175D03*
X117759000Y-110998000D03*
X118308175Y-112323825D03*
X119634000Y-112873000D03*
X120959825Y-112323825D03*
X121509000Y-110998000D03*
D15*
X119634000Y-110998000D03*
%TD*%
D14*
%TO.C,H6*%
X129849825Y-81605175D03*
X128524000Y-81056000D03*
X127198175Y-81605175D03*
X126649000Y-82931000D03*
X127198175Y-84256825D03*
X128524000Y-84806000D03*
X129849825Y-84256825D03*
X130399000Y-82931000D03*
D15*
X128524000Y-82931000D03*
%TD*%
%TO.C,C5*%
G36*
G01*
X111282500Y-101150000D02*
X110332500Y-101150000D01*
G75*
G02*
X110082500Y-100900000I0J250000D01*
G01*
X110082500Y-100225000D01*
G75*
G02*
X110332500Y-99975000I250000J0D01*
G01*
X111282500Y-99975000D01*
G75*
G02*
X111532500Y-100225000I0J-250000D01*
G01*
X111532500Y-100900000D01*
G75*
G02*
X111282500Y-101150000I-250000J0D01*
G01*
G37*
G36*
G01*
X111282500Y-103225000D02*
X110332500Y-103225000D01*
G75*
G02*
X110082500Y-102975000I0J250000D01*
G01*
X110082500Y-102300000D01*
G75*
G02*
X110332500Y-102050000I250000J0D01*
G01*
X111282500Y-102050000D01*
G75*
G02*
X111532500Y-102300000I0J-250000D01*
G01*
X111532500Y-102975000D01*
G75*
G02*
X111282500Y-103225000I-250000J0D01*
G01*
G37*
%TD*%
D16*
%TO.C,J2*%
X114807999Y-104521000D03*
X112268000Y-104521000D03*
D17*
X109728000Y-104521000D03*
%TD*%
%TO.C,R1*%
G36*
G01*
X114390249Y-87845851D02*
X113753851Y-88482249D01*
G75*
G02*
X113400299Y-88482249I-176776J176776D01*
G01*
X112905323Y-87987273D01*
G75*
G02*
X112905323Y-87633721I176776J176776D01*
G01*
X113541721Y-86997323D01*
G75*
G02*
X113895273Y-86997323I176776J-176776D01*
G01*
X114390249Y-87492299D01*
G75*
G02*
X114390249Y-87845851I-176776J-176776D01*
G01*
G37*
G36*
G01*
X115804463Y-89260065D02*
X115168065Y-89896463D01*
G75*
G02*
X114814513Y-89896463I-176776J176776D01*
G01*
X114319537Y-89401487D01*
G75*
G02*
X114319537Y-89047935I176776J176776D01*
G01*
X114955935Y-88411537D01*
G75*
G02*
X115309487Y-88411537I176776J-176776D01*
G01*
X115804463Y-88906513D01*
G75*
G02*
X115804463Y-89260065I-176776J-176776D01*
G01*
G37*
%TD*%
%TO.C,C4*%
G36*
G01*
X99647500Y-98585000D02*
X99647500Y-99535000D01*
G75*
G02*
X99397500Y-99785000I-250000J0D01*
G01*
X98722500Y-99785000D01*
G75*
G02*
X98472500Y-99535000I0J250000D01*
G01*
X98472500Y-98585000D01*
G75*
G02*
X98722500Y-98335000I250000J0D01*
G01*
X99397500Y-98335000D01*
G75*
G02*
X99647500Y-98585000I0J-250000D01*
G01*
G37*
G36*
G01*
X101722500Y-98585000D02*
X101722500Y-99535000D01*
G75*
G02*
X101472500Y-99785000I-250000J0D01*
G01*
X100797500Y-99785000D01*
G75*
G02*
X100547500Y-99535000I0J250000D01*
G01*
X100547500Y-98585000D01*
G75*
G02*
X100797500Y-98335000I250000J0D01*
G01*
X101472500Y-98335000D01*
G75*
G02*
X101722500Y-98585000I0J-250000D01*
G01*
G37*
%TD*%
D12*
%TO.C,D30*%
G36*
X81221544Y-61992525D02*
G01*
X82030561Y-61404740D01*
X82912238Y-62618265D01*
X82103221Y-63206050D01*
X81221544Y-61992525D01*
G37*
G36*
X83810398Y-60111612D02*
G01*
X84619415Y-59523827D01*
X85501092Y-60737352D01*
X84692075Y-61325137D01*
X83810398Y-60111612D01*
G37*
G36*
X78341396Y-58028342D02*
G01*
X79150413Y-57440557D01*
X80032090Y-58654082D01*
X79223073Y-59241867D01*
X78341396Y-58028342D01*
G37*
G36*
X80930250Y-56147429D02*
G01*
X81739267Y-55559644D01*
X82620944Y-56773169D01*
X81811927Y-57360954D01*
X80930250Y-56147429D01*
G37*
%TD*%
%TO.C,C1*%
G36*
G01*
X117395450Y-84698301D02*
X116723699Y-84026550D01*
G75*
G02*
X116723699Y-83672996I176777J176777D01*
G01*
X117200996Y-83195699D01*
G75*
G02*
X117554550Y-83195699I176777J-176777D01*
G01*
X118226301Y-83867450D01*
G75*
G02*
X118226301Y-84221004I-176777J-176777D01*
G01*
X117749004Y-84698301D01*
G75*
G02*
X117395450Y-84698301I-176777J176777D01*
G01*
G37*
G36*
G01*
X115928204Y-86165547D02*
X115256453Y-85493796D01*
G75*
G02*
X115256453Y-85140242I176777J176777D01*
G01*
X115733750Y-84662945D01*
G75*
G02*
X116087304Y-84662945I176777J-176777D01*
G01*
X116759055Y-85334696D01*
G75*
G02*
X116759055Y-85688250I-176777J-176777D01*
G01*
X116281758Y-86165547D01*
G75*
G02*
X115928204Y-86165547I-176777J176777D01*
G01*
G37*
%TD*%
%TO.C,C2*%
G36*
G01*
X117423827Y-87717924D02*
X116752076Y-87046173D01*
G75*
G02*
X116752076Y-86692619I176777J176777D01*
G01*
X117229373Y-86215322D01*
G75*
G02*
X117582927Y-86215322I176777J-176777D01*
G01*
X118254678Y-86887073D01*
G75*
G02*
X118254678Y-87240627I-176777J-176777D01*
G01*
X117777381Y-87717924D01*
G75*
G02*
X117423827Y-87717924I-176777J176777D01*
G01*
G37*
G36*
G01*
X118891073Y-86250678D02*
X118219322Y-85578927D01*
G75*
G02*
X118219322Y-85225373I176777J176777D01*
G01*
X118696619Y-84748076D01*
G75*
G02*
X119050173Y-84748076I176777J-176777D01*
G01*
X119721924Y-85419827D01*
G75*
G02*
X119721924Y-85773381I-176777J-176777D01*
G01*
X119244627Y-86250678D01*
G75*
G02*
X118891073Y-86250678I-176777J176777D01*
G01*
G37*
%TD*%
%TO.C,C3*%
G36*
X95071129Y-90170000D02*
G01*
X96202500Y-89038629D01*
X97333871Y-90170000D01*
X96202500Y-91301371D01*
X95071129Y-90170000D01*
G37*
D18*
X97970267Y-91937767D03*
%TD*%
D19*
%TO.C,J1*%
X102235000Y-82232500D03*
D20*
X107235000Y-82232500D03*
%TD*%
D21*
%TO.C,Q1*%
X97425000Y-85092500D03*
X97425000Y-86992500D03*
X99425000Y-86042500D03*
%TD*%
D12*
%TO.C,U1*%
G36*
X112812840Y-92369514D02*
G01*
X113234164Y-92723047D01*
X112205704Y-93948718D01*
X111784380Y-93595185D01*
X112812840Y-92369514D01*
G37*
G36*
X112200004Y-91855284D02*
G01*
X112621328Y-92208817D01*
X111592868Y-93434488D01*
X111171544Y-93080955D01*
X112200004Y-91855284D01*
G37*
G36*
X111587169Y-91341054D02*
G01*
X112008493Y-91694587D01*
X110980033Y-92920258D01*
X110558709Y-92566725D01*
X111587169Y-91341054D01*
G37*
G36*
X110974333Y-90826824D02*
G01*
X111395657Y-91180357D01*
X110367197Y-92406028D01*
X109945873Y-92052495D01*
X110974333Y-90826824D01*
G37*
G36*
X110361498Y-90312594D02*
G01*
X110782822Y-90666127D01*
X109754362Y-91891798D01*
X109333038Y-91538265D01*
X110361498Y-90312594D01*
G37*
G36*
X109748662Y-89798364D02*
G01*
X110169986Y-90151897D01*
X109141526Y-91377568D01*
X108720202Y-91024035D01*
X109748662Y-89798364D01*
G37*
G36*
X109135826Y-89284134D02*
G01*
X109557150Y-89637667D01*
X108528690Y-90863338D01*
X108107366Y-90509805D01*
X109135826Y-89284134D01*
G37*
G36*
X108522991Y-88769904D02*
G01*
X108944315Y-89123437D01*
X107915855Y-90349108D01*
X107494531Y-89995575D01*
X108522991Y-88769904D01*
G37*
G36*
X105387014Y-89434660D02*
G01*
X105740547Y-89013336D01*
X106966218Y-90041796D01*
X106612685Y-90463120D01*
X105387014Y-89434660D01*
G37*
G36*
X104872784Y-90047496D02*
G01*
X105226317Y-89626172D01*
X106451988Y-90654632D01*
X106098455Y-91075956D01*
X104872784Y-90047496D01*
G37*
G36*
X104358554Y-90660331D02*
G01*
X104712087Y-90239007D01*
X105937758Y-91267467D01*
X105584225Y-91688791D01*
X104358554Y-90660331D01*
G37*
G36*
X103844324Y-91273167D02*
G01*
X104197857Y-90851843D01*
X105423528Y-91880303D01*
X105069995Y-92301627D01*
X103844324Y-91273167D01*
G37*
G36*
X103330094Y-91886002D02*
G01*
X103683627Y-91464678D01*
X104909298Y-92493138D01*
X104555765Y-92914462D01*
X103330094Y-91886002D01*
G37*
G36*
X102815864Y-92498838D02*
G01*
X103169397Y-92077514D01*
X104395068Y-93105974D01*
X104041535Y-93527298D01*
X102815864Y-92498838D01*
G37*
G36*
X102301634Y-93111674D02*
G01*
X102655167Y-92690350D01*
X103880838Y-93718810D01*
X103527305Y-94140134D01*
X102301634Y-93111674D01*
G37*
G36*
X101787404Y-93724509D02*
G01*
X102140937Y-93303185D01*
X103366608Y-94331645D01*
X103013075Y-94752969D01*
X101787404Y-93724509D01*
G37*
G36*
X103059296Y-95281282D02*
G01*
X103480620Y-95634815D01*
X102452160Y-96860486D01*
X102030836Y-96506953D01*
X103059296Y-95281282D01*
G37*
G36*
X103672132Y-95795512D02*
G01*
X104093456Y-96149045D01*
X103064996Y-97374716D01*
X102643672Y-97021183D01*
X103672132Y-95795512D01*
G37*
G36*
X104284967Y-96309742D02*
G01*
X104706291Y-96663275D01*
X103677831Y-97888946D01*
X103256507Y-97535413D01*
X104284967Y-96309742D01*
G37*
G36*
X104897803Y-96823972D02*
G01*
X105319127Y-97177505D01*
X104290667Y-98403176D01*
X103869343Y-98049643D01*
X104897803Y-96823972D01*
G37*
G36*
X105510638Y-97338202D02*
G01*
X105931962Y-97691735D01*
X104903502Y-98917406D01*
X104482178Y-98563873D01*
X105510638Y-97338202D01*
G37*
G36*
X106123474Y-97852432D02*
G01*
X106544798Y-98205965D01*
X105516338Y-99431636D01*
X105095014Y-99078103D01*
X106123474Y-97852432D01*
G37*
G36*
X106736310Y-98366662D02*
G01*
X107157634Y-98720195D01*
X106129174Y-99945866D01*
X105707850Y-99592333D01*
X106736310Y-98366662D01*
G37*
G36*
X107349145Y-98880892D02*
G01*
X107770469Y-99234425D01*
X106742009Y-100460096D01*
X106320685Y-100106563D01*
X107349145Y-98880892D01*
G37*
G36*
X108298782Y-99188204D02*
G01*
X108652315Y-98766880D01*
X109877986Y-99795340D01*
X109524453Y-100216664D01*
X108298782Y-99188204D01*
G37*
G36*
X108813012Y-98575368D02*
G01*
X109166545Y-98154044D01*
X110392216Y-99182504D01*
X110038683Y-99603828D01*
X108813012Y-98575368D01*
G37*
G36*
X109327242Y-97962533D02*
G01*
X109680775Y-97541209D01*
X110906446Y-98569669D01*
X110552913Y-98990993D01*
X109327242Y-97962533D01*
G37*
G36*
X109841472Y-97349697D02*
G01*
X110195005Y-96928373D01*
X111420676Y-97956833D01*
X111067143Y-98378157D01*
X109841472Y-97349697D01*
G37*
G36*
X110355702Y-96736862D02*
G01*
X110709235Y-96315538D01*
X111934906Y-97343998D01*
X111581373Y-97765322D01*
X110355702Y-96736862D01*
G37*
G36*
X110869932Y-96124026D02*
G01*
X111223465Y-95702702D01*
X112449136Y-96731162D01*
X112095603Y-97152486D01*
X110869932Y-96124026D01*
G37*
G36*
X111384162Y-95511190D02*
G01*
X111737695Y-95089866D01*
X112963366Y-96118326D01*
X112609833Y-96539650D01*
X111384162Y-95511190D01*
G37*
G36*
X111898392Y-94898355D02*
G01*
X112251925Y-94477031D01*
X113477596Y-95505491D01*
X113124063Y-95926815D01*
X111898392Y-94898355D01*
G37*
%TD*%
D22*
%TO.C,D1*%
X99898744Y-140610047D03*
X103098744Y-140610047D03*
X99898744Y-135710047D03*
X103098744Y-135710047D03*
%TD*%
%TO.C,D2*%
X99923744Y-124915046D03*
X96723744Y-124915046D03*
X99923744Y-129815046D03*
X96723744Y-129815046D03*
%TD*%
%TO.C,D3*%
X94183745Y-120925046D03*
X97383745Y-120925046D03*
X94183745Y-116025046D03*
X97383745Y-116025046D03*
%TD*%
%TO.C,D4*%
X98653744Y-107135047D03*
X95453744Y-107135047D03*
X98653744Y-112035047D03*
X95453744Y-112035047D03*
%TD*%
%TO.C,D5*%
X106273743Y-143330046D03*
X103073743Y-143330046D03*
X106273743Y-148230046D03*
X103073743Y-148230046D03*
%TD*%
%TO.C,D6*%
X103073745Y-131720046D03*
X106273745Y-131720046D03*
X103073745Y-126820046D03*
X106273745Y-126820046D03*
%TD*%
%TO.C,D7*%
X106273743Y-116660046D03*
X103073743Y-116660046D03*
X106273743Y-121560046D03*
X103073743Y-121560046D03*
%TD*%
%TO.C,D8*%
X103149944Y-108237747D03*
X106349944Y-108237747D03*
X103149944Y-103337747D03*
X106349944Y-103337747D03*
%TD*%
%TO.C,D9*%
X106248744Y-140610046D03*
X109448744Y-140610046D03*
X106248744Y-135710046D03*
X109448744Y-135710046D03*
%TD*%
%TO.C,D10*%
X112623745Y-124915046D03*
X109423745Y-124915046D03*
X112623745Y-129815046D03*
X109423745Y-129815046D03*
%TD*%
%TO.C,D11*%
X111963744Y-120925046D03*
X115163744Y-120925046D03*
X111963744Y-116025046D03*
X115163744Y-116025046D03*
%TD*%
%TO.C,D12*%
X113893744Y-107135046D03*
X110693744Y-107135046D03*
X113893744Y-112035046D03*
X110693744Y-112035046D03*
%TD*%
D12*
%TO.C,D13*%
G36*
X60903875Y-103945737D02*
G01*
X60594858Y-102994680D01*
X62021443Y-102531155D01*
X62330460Y-103482212D01*
X60903875Y-103945737D01*
G37*
G36*
X59915020Y-100902356D02*
G01*
X59606003Y-99951299D01*
X61032588Y-99487774D01*
X61341605Y-100438831D01*
X59915020Y-100902356D01*
G37*
G36*
X56243698Y-105459920D02*
G01*
X55934681Y-104508863D01*
X57361266Y-104045338D01*
X57670283Y-104996395D01*
X56243698Y-105459920D01*
G37*
G36*
X55254843Y-102416539D02*
G01*
X54945826Y-101465482D01*
X56372411Y-101001957D01*
X56681428Y-101953014D01*
X55254843Y-102416539D01*
G37*
%TD*%
%TO.C,D14*%
G36*
X64544844Y-96056538D02*
G01*
X64235827Y-95105481D01*
X65662412Y-94641956D01*
X65971429Y-95593013D01*
X64544844Y-96056538D01*
G37*
G36*
X65533699Y-99099919D02*
G01*
X65224682Y-98148862D01*
X66651267Y-97685337D01*
X66960284Y-98636394D01*
X65533699Y-99099919D01*
G37*
G36*
X69205021Y-94542355D02*
G01*
X68896004Y-93591298D01*
X70322589Y-93127773D01*
X70631606Y-94078830D01*
X69205021Y-94542355D01*
G37*
G36*
X70193876Y-97585736D02*
G01*
X69884859Y-96634679D01*
X71311444Y-96171154D01*
X71620461Y-97122211D01*
X70193876Y-97585736D01*
G37*
%TD*%
%TO.C,D15*%
G36*
X77863875Y-92425737D02*
G01*
X77554858Y-91474680D01*
X78981443Y-91011155D01*
X79290460Y-91962212D01*
X77863875Y-92425737D01*
G37*
G36*
X76875020Y-89382356D02*
G01*
X76566003Y-88431299D01*
X77992588Y-87967774D01*
X78301605Y-88918831D01*
X76875020Y-89382356D01*
G37*
G36*
X73203698Y-93939920D02*
G01*
X72894681Y-92988863D01*
X74321266Y-92525338D01*
X74630283Y-93476395D01*
X73203698Y-93939920D01*
G37*
G36*
X72214843Y-90896539D02*
G01*
X71905826Y-89945482D01*
X73332411Y-89481957D01*
X73641428Y-90433014D01*
X72214843Y-90896539D01*
G37*
%TD*%
%TO.C,D16*%
G36*
X81054843Y-89356538D02*
G01*
X80745826Y-88405481D01*
X82172411Y-87941956D01*
X82481428Y-88893013D01*
X81054843Y-89356538D01*
G37*
G36*
X82043698Y-92399919D02*
G01*
X81734681Y-91448862D01*
X83161266Y-90985337D01*
X83470283Y-91936394D01*
X82043698Y-92399919D01*
G37*
G36*
X85715020Y-87842355D02*
G01*
X85406003Y-86891298D01*
X86832588Y-86427773D01*
X87141605Y-87378830D01*
X85715020Y-87842355D01*
G37*
G36*
X86703875Y-90885736D02*
G01*
X86394858Y-89934679D01*
X87821443Y-89471154D01*
X88130460Y-90422211D01*
X86703875Y-90885736D01*
G37*
%TD*%
%TO.C,D17*%
G36*
X48994843Y-107786539D02*
G01*
X48685826Y-106835482D01*
X50112411Y-106371957D01*
X50421428Y-107323014D01*
X48994843Y-107786539D01*
G37*
G36*
X49983698Y-110829920D02*
G01*
X49674681Y-109878863D01*
X51101266Y-109415338D01*
X51410283Y-110366395D01*
X49983698Y-110829920D01*
G37*
G36*
X53655020Y-106272356D02*
G01*
X53346003Y-105321299D01*
X54772588Y-104857774D01*
X55081605Y-105808831D01*
X53655020Y-106272356D01*
G37*
G36*
X54643875Y-109315737D02*
G01*
X54334858Y-108364680D01*
X55761443Y-107901155D01*
X56070460Y-108852212D01*
X54643875Y-109315737D01*
G37*
%TD*%
%TO.C,D18*%
G36*
X70343875Y-104215736D02*
G01*
X70034858Y-103264679D01*
X71461443Y-102801154D01*
X71770460Y-103752211D01*
X70343875Y-104215736D01*
G37*
G36*
X69355020Y-101172355D02*
G01*
X69046003Y-100221298D01*
X70472588Y-99757773D01*
X70781605Y-100708830D01*
X69355020Y-101172355D01*
G37*
G36*
X65683698Y-105729919D02*
G01*
X65374681Y-104778862D01*
X66801266Y-104315337D01*
X67110283Y-105266394D01*
X65683698Y-105729919D01*
G37*
G36*
X64694843Y-102686538D02*
G01*
X64385826Y-101735481D01*
X65812411Y-101271956D01*
X66121428Y-102223013D01*
X64694843Y-102686538D01*
G37*
%TD*%
%TO.C,D19*%
G36*
X74354845Y-99546538D02*
G01*
X74045828Y-98595481D01*
X75472413Y-98131956D01*
X75781430Y-99083013D01*
X74354845Y-99546538D01*
G37*
G36*
X75343700Y-102589919D02*
G01*
X75034683Y-101638862D01*
X76461268Y-101175337D01*
X76770285Y-102126394D01*
X75343700Y-102589919D01*
G37*
G36*
X79015022Y-98032355D02*
G01*
X78706005Y-97081298D01*
X80132590Y-96617773D01*
X80441607Y-97568830D01*
X79015022Y-98032355D01*
G37*
G36*
X80003877Y-101075736D02*
G01*
X79694860Y-100124679D01*
X81121445Y-99661154D01*
X81430462Y-100612211D01*
X80003877Y-101075736D01*
G37*
%TD*%
%TO.C,D20*%
G36*
X92664676Y-96845635D02*
G01*
X92355659Y-95894578D01*
X93782244Y-95431053D01*
X94091261Y-96382110D01*
X92664676Y-96845635D01*
G37*
G36*
X91675821Y-93802254D02*
G01*
X91366804Y-92851197D01*
X92793389Y-92387672D01*
X93102406Y-93338729D01*
X91675821Y-93802254D01*
G37*
G36*
X88004499Y-98359818D02*
G01*
X87695482Y-97408761D01*
X89122067Y-96945236D01*
X89431084Y-97896293D01*
X88004499Y-98359818D01*
G37*
G36*
X87015644Y-95316437D02*
G01*
X86706627Y-94365380D01*
X88133212Y-93901855D01*
X88442229Y-94852912D01*
X87015644Y-95316437D01*
G37*
%TD*%
%TO.C,D21*%
G36*
X62863875Y-109985737D02*
G01*
X62554858Y-109034680D01*
X63981443Y-108571155D01*
X64290460Y-109522212D01*
X62863875Y-109985737D01*
G37*
G36*
X61875020Y-106942356D02*
G01*
X61566003Y-105991299D01*
X62992588Y-105527774D01*
X63301605Y-106478831D01*
X61875020Y-106942356D01*
G37*
G36*
X58203698Y-111499920D02*
G01*
X57894681Y-110548863D01*
X59321266Y-110085338D01*
X59630283Y-111036395D01*
X58203698Y-111499920D01*
G37*
G36*
X57214843Y-108456539D02*
G01*
X56905826Y-107505482D01*
X58332411Y-107041957D01*
X58641428Y-107993014D01*
X57214843Y-108456539D01*
G37*
%TD*%
%TO.C,D22*%
G36*
X68464843Y-108136538D02*
G01*
X68155826Y-107185481D01*
X69582411Y-106721956D01*
X69891428Y-107673013D01*
X68464843Y-108136538D01*
G37*
G36*
X69453698Y-111179919D02*
G01*
X69144681Y-110228862D01*
X70571266Y-109765337D01*
X70880283Y-110716394D01*
X69453698Y-111179919D01*
G37*
G36*
X73125020Y-106622355D02*
G01*
X72816003Y-105671298D01*
X74242588Y-105207773D01*
X74551605Y-106158830D01*
X73125020Y-106622355D01*
G37*
G36*
X74113875Y-109665736D02*
G01*
X73804858Y-108714679D01*
X75231443Y-108251154D01*
X75540460Y-109202211D01*
X74113875Y-109665736D01*
G37*
%TD*%
%TO.C,D23*%
G36*
X83353877Y-109335737D02*
G01*
X83044860Y-108384680D01*
X84471445Y-107921155D01*
X84780462Y-108872212D01*
X83353877Y-109335737D01*
G37*
G36*
X82365022Y-106292356D02*
G01*
X82056005Y-105341299D01*
X83482590Y-104877774D01*
X83791607Y-105828831D01*
X82365022Y-106292356D01*
G37*
G36*
X78693700Y-110849920D02*
G01*
X78384683Y-109898863D01*
X79811268Y-109435338D01*
X80120285Y-110386395D01*
X78693700Y-110849920D01*
G37*
G36*
X77704845Y-107806539D02*
G01*
X77395828Y-106855482D01*
X78822413Y-106391957D01*
X79131430Y-107343014D01*
X77704845Y-107806539D01*
G37*
%TD*%
%TO.C,D24*%
G36*
X85764843Y-103846538D02*
G01*
X85455826Y-102895481D01*
X86882411Y-102431956D01*
X87191428Y-103383013D01*
X85764843Y-103846538D01*
G37*
G36*
X86753698Y-106889919D02*
G01*
X86444681Y-105938862D01*
X87871266Y-105475337D01*
X88180283Y-106426394D01*
X86753698Y-106889919D01*
G37*
G36*
X90425020Y-102332355D02*
G01*
X90116003Y-101381298D01*
X91542588Y-100917773D01*
X91851605Y-101868830D01*
X90425020Y-102332355D01*
G37*
G36*
X91413875Y-105375736D02*
G01*
X91104858Y-104424679D01*
X92531443Y-103961154D01*
X92840460Y-104912211D01*
X91413875Y-105375736D01*
G37*
%TD*%
%TO.C,D25*%
G36*
X78270250Y-47087429D02*
G01*
X79079267Y-46499644D01*
X79960944Y-47713169D01*
X79151927Y-48300954D01*
X78270250Y-47087429D01*
G37*
G36*
X75681396Y-48968342D02*
G01*
X76490413Y-48380557D01*
X77372090Y-49594082D01*
X76563073Y-50181867D01*
X75681396Y-48968342D01*
G37*
G36*
X81150398Y-51051612D02*
G01*
X81959415Y-50463827D01*
X82841092Y-51677352D01*
X82032075Y-52265137D01*
X81150398Y-51051612D01*
G37*
G36*
X78561544Y-52932525D02*
G01*
X79370561Y-52344740D01*
X80252238Y-53558265D01*
X79443221Y-54146050D01*
X78561544Y-52932525D01*
G37*
%TD*%
%TO.C,D26*%
G36*
X87481544Y-59792525D02*
G01*
X88290561Y-59204740D01*
X89172238Y-60418265D01*
X88363221Y-61006050D01*
X87481544Y-59792525D01*
G37*
G36*
X90070398Y-57911612D02*
G01*
X90879415Y-57323827D01*
X91761092Y-58537352D01*
X90952075Y-59125137D01*
X90070398Y-57911612D01*
G37*
G36*
X84601396Y-55828342D02*
G01*
X85410413Y-55240557D01*
X86292090Y-56454082D01*
X85483073Y-57041867D01*
X84601396Y-55828342D01*
G37*
G36*
X87190250Y-53947429D02*
G01*
X87999267Y-53359644D01*
X88880944Y-54573169D01*
X88071927Y-55160954D01*
X87190250Y-53947429D01*
G37*
%TD*%
%TO.C,D27*%
G36*
X94470250Y-59647428D02*
G01*
X95279267Y-59059643D01*
X96160944Y-60273168D01*
X95351927Y-60860953D01*
X94470250Y-59647428D01*
G37*
G36*
X91881396Y-61528341D02*
G01*
X92690413Y-60940556D01*
X93572090Y-62154081D01*
X92763073Y-62741866D01*
X91881396Y-61528341D01*
G37*
G36*
X97350398Y-63611611D02*
G01*
X98159415Y-63023826D01*
X99041092Y-64237351D01*
X98232075Y-64825136D01*
X97350398Y-63611611D01*
G37*
G36*
X94761544Y-65492524D02*
G01*
X95570561Y-64904739D01*
X96452238Y-66118264D01*
X95643221Y-66706049D01*
X94761544Y-65492524D01*
G37*
%TD*%
%TO.C,D28*%
G36*
X98670250Y-67587428D02*
G01*
X99479267Y-66999643D01*
X100360944Y-68213168D01*
X99551927Y-68800953D01*
X98670250Y-67587428D01*
G37*
G36*
X96081396Y-69468341D02*
G01*
X96890413Y-68880556D01*
X97772090Y-70094081D01*
X96963073Y-70681866D01*
X96081396Y-69468341D01*
G37*
G36*
X101550398Y-71551611D02*
G01*
X102359415Y-70963826D01*
X103241092Y-72177351D01*
X102432075Y-72765136D01*
X101550398Y-71551611D01*
G37*
G36*
X98961544Y-73432524D02*
G01*
X99770561Y-72844739D01*
X100652238Y-74058264D01*
X99843221Y-74646049D01*
X98961544Y-73432524D01*
G37*
%TD*%
%TO.C,D29*%
G36*
X71521543Y-48632525D02*
G01*
X72330560Y-48044740D01*
X73212237Y-49258265D01*
X72403220Y-49846050D01*
X71521543Y-48632525D01*
G37*
G36*
X74110397Y-46751612D02*
G01*
X74919414Y-46163827D01*
X75801091Y-47377352D01*
X74992074Y-47965137D01*
X74110397Y-46751612D01*
G37*
G36*
X68641395Y-44668342D02*
G01*
X69450412Y-44080557D01*
X70332089Y-45294082D01*
X69523072Y-45881867D01*
X68641395Y-44668342D01*
G37*
G36*
X71230249Y-42787429D02*
G01*
X72039266Y-42199644D01*
X72920943Y-43413169D01*
X72111926Y-44000954D01*
X71230249Y-42787429D01*
G37*
%TD*%
%TO.C,D31*%
G36*
X87191543Y-70212525D02*
G01*
X88000560Y-69624740D01*
X88882237Y-70838265D01*
X88073220Y-71426050D01*
X87191543Y-70212525D01*
G37*
G36*
X89780397Y-68331612D02*
G01*
X90589414Y-67743827D01*
X91471091Y-68957352D01*
X90662074Y-69545137D01*
X89780397Y-68331612D01*
G37*
G36*
X84311395Y-66248342D02*
G01*
X85120412Y-65660557D01*
X86002089Y-66874082D01*
X85193072Y-67461867D01*
X84311395Y-66248342D01*
G37*
G36*
X86900249Y-64367429D02*
G01*
X87709266Y-63779644D01*
X88590943Y-64993169D01*
X87781926Y-65580954D01*
X86900249Y-64367429D01*
G37*
%TD*%
%TO.C,D32*%
G36*
X94868949Y-75247329D02*
G01*
X95677966Y-74659544D01*
X96559643Y-75873069D01*
X95750626Y-76460854D01*
X94868949Y-75247329D01*
G37*
G36*
X92280095Y-77128242D02*
G01*
X93089112Y-76540457D01*
X93970789Y-77753982D01*
X93161772Y-78341767D01*
X92280095Y-77128242D01*
G37*
G36*
X97749097Y-79211512D02*
G01*
X98558114Y-78623727D01*
X99439791Y-79837252D01*
X98630774Y-80425037D01*
X97749097Y-79211512D01*
G37*
G36*
X95160243Y-81092425D02*
G01*
X95969260Y-80504640D01*
X96850937Y-81718165D01*
X96041920Y-82305950D01*
X95160243Y-81092425D01*
G37*
%TD*%
%TO.C,D33*%
G36*
X73431545Y-56662524D02*
G01*
X74240562Y-56074739D01*
X75122239Y-57288264D01*
X74313222Y-57876049D01*
X73431545Y-56662524D01*
G37*
G36*
X76020399Y-54781611D02*
G01*
X76829416Y-54193826D01*
X77711093Y-55407351D01*
X76902076Y-55995136D01*
X76020399Y-54781611D01*
G37*
G36*
X70551397Y-52698341D02*
G01*
X71360414Y-52110556D01*
X72242091Y-53324081D01*
X71433074Y-53911866D01*
X70551397Y-52698341D01*
G37*
G36*
X73140251Y-50817428D02*
G01*
X73949268Y-50229643D01*
X74830945Y-51443168D01*
X74021928Y-52030953D01*
X73140251Y-50817428D01*
G37*
%TD*%
%TO.C,D34*%
G36*
X76910249Y-61417428D02*
G01*
X77719266Y-60829643D01*
X78600943Y-62043168D01*
X77791926Y-62630953D01*
X76910249Y-61417428D01*
G37*
G36*
X74321395Y-63298341D02*
G01*
X75130412Y-62710556D01*
X76012089Y-63924081D01*
X75203072Y-64511866D01*
X74321395Y-63298341D01*
G37*
G36*
X79790397Y-65381611D02*
G01*
X80599414Y-64793826D01*
X81481091Y-66007351D01*
X80672074Y-66595136D01*
X79790397Y-65381611D01*
G37*
G36*
X77201543Y-67262524D02*
G01*
X78010560Y-66674739D01*
X78892237Y-67888264D01*
X78083220Y-68476049D01*
X77201543Y-67262524D01*
G37*
%TD*%
%TO.C,D35*%
G36*
X80371543Y-75942525D02*
G01*
X81180560Y-75354740D01*
X82062237Y-76568265D01*
X81253220Y-77156050D01*
X80371543Y-75942525D01*
G37*
G36*
X82960397Y-74061612D02*
G01*
X83769414Y-73473827D01*
X84651091Y-74687352D01*
X83842074Y-75275137D01*
X82960397Y-74061612D01*
G37*
G36*
X77491395Y-71978342D02*
G01*
X78300412Y-71390557D01*
X79182089Y-72604082D01*
X78373072Y-73191867D01*
X77491395Y-71978342D01*
G37*
G36*
X80080249Y-70097429D02*
G01*
X80889266Y-69509644D01*
X81770943Y-70723169D01*
X80961926Y-71310954D01*
X80080249Y-70097429D01*
G37*
%TD*%
%TO.C,D36*%
G36*
X86340250Y-76547428D02*
G01*
X87149267Y-75959643D01*
X88030944Y-77173168D01*
X87221927Y-77760953D01*
X86340250Y-76547428D01*
G37*
G36*
X83751396Y-78428341D02*
G01*
X84560413Y-77840556D01*
X85442090Y-79054081D01*
X84633073Y-79641866D01*
X83751396Y-78428341D01*
G37*
G36*
X89220398Y-80511611D02*
G01*
X90029415Y-79923826D01*
X90911092Y-81137351D01*
X90102075Y-81725136D01*
X89220398Y-80511611D01*
G37*
G36*
X86631544Y-82392524D02*
G01*
X87440561Y-81804739D01*
X88322238Y-83018264D01*
X87513221Y-83606049D01*
X86631544Y-82392524D01*
G37*
%TD*%
%TO.C,D37*%
G36*
X132695872Y-54270025D02*
G01*
X133504889Y-54857810D01*
X132623212Y-56071335D01*
X131814195Y-55483550D01*
X132695872Y-54270025D01*
G37*
G36*
X135284726Y-56150938D02*
G01*
X136093743Y-56738723D01*
X135212066Y-57952248D01*
X134403049Y-57364463D01*
X135284726Y-56150938D01*
G37*
G36*
X135576020Y-50305842D02*
G01*
X136385037Y-50893627D01*
X135503360Y-52107152D01*
X134694343Y-51519367D01*
X135576020Y-50305842D01*
G37*
G36*
X138164874Y-52186755D02*
G01*
X138973891Y-52774540D01*
X138092214Y-53988065D01*
X137283197Y-53400280D01*
X138164874Y-52186755D01*
G37*
%TD*%
%TO.C,D38*%
G36*
X134394875Y-62786757D02*
G01*
X135203892Y-63374542D01*
X134322215Y-64588067D01*
X133513198Y-64000282D01*
X134394875Y-62786757D01*
G37*
G36*
X131806021Y-60905844D02*
G01*
X132615038Y-61493629D01*
X131733361Y-62707154D01*
X130924344Y-62119369D01*
X131806021Y-60905844D01*
G37*
G36*
X131514727Y-66750940D02*
G01*
X132323744Y-67338725D01*
X131442067Y-68552250D01*
X130633050Y-67964465D01*
X131514727Y-66750940D01*
G37*
G36*
X128925873Y-64870027D02*
G01*
X129734890Y-65457812D01*
X128853213Y-66671337D01*
X128044196Y-66083552D01*
X128925873Y-64870027D01*
G37*
%TD*%
%TO.C,D39*%
G36*
X125755872Y-73550027D02*
G01*
X126564889Y-74137812D01*
X125683212Y-75351337D01*
X124874195Y-74763552D01*
X125755872Y-73550027D01*
G37*
G36*
X128344726Y-75430940D02*
G01*
X129153743Y-76018725D01*
X128272066Y-77232250D01*
X127463049Y-76644465D01*
X128344726Y-75430940D01*
G37*
G36*
X128636020Y-69585844D02*
G01*
X129445037Y-70173629D01*
X128563360Y-71387154D01*
X127754343Y-70799369D01*
X128636020Y-69585844D01*
G37*
G36*
X131224874Y-71466757D02*
G01*
X132033891Y-72054542D01*
X131152214Y-73268067D01*
X130343197Y-72680282D01*
X131224874Y-71466757D01*
G37*
%TD*%
%TO.C,D40*%
G36*
X124964874Y-77916756D02*
G01*
X125773891Y-78504541D01*
X124892214Y-79718066D01*
X124083197Y-79130281D01*
X124964874Y-77916756D01*
G37*
G36*
X122376020Y-76035843D02*
G01*
X123185037Y-76623628D01*
X122303360Y-77837153D01*
X121494343Y-77249368D01*
X122376020Y-76035843D01*
G37*
G36*
X122084726Y-81880939D02*
G01*
X122893743Y-82468724D01*
X122012066Y-83682249D01*
X121203049Y-83094464D01*
X122084726Y-81880939D01*
G37*
G36*
X119495872Y-80000026D02*
G01*
X120304889Y-80587811D01*
X119423212Y-81801336D01*
X118614195Y-81213551D01*
X119495872Y-80000026D01*
G37*
%TD*%
%TO.C,D41*%
G36*
X134605872Y-46240027D02*
G01*
X135414889Y-46827812D01*
X134533212Y-48041337D01*
X133724195Y-47453552D01*
X134605872Y-46240027D01*
G37*
G36*
X137194726Y-48120940D02*
G01*
X138003743Y-48708725D01*
X137122066Y-49922250D01*
X136313049Y-49334465D01*
X137194726Y-48120940D01*
G37*
G36*
X137486020Y-42275844D02*
G01*
X138295037Y-42863629D01*
X137413360Y-44077154D01*
X136604343Y-43489369D01*
X137486020Y-42275844D01*
G37*
G36*
X140074874Y-44156757D02*
G01*
X140883891Y-44744542D01*
X140002214Y-45958067D01*
X139193197Y-45370282D01*
X140074874Y-44156757D01*
G37*
%TD*%
%TO.C,D42*%
G36*
X130374876Y-57516757D02*
G01*
X131183893Y-58104542D01*
X130302216Y-59318067D01*
X129493199Y-58730282D01*
X130374876Y-57516757D01*
G37*
G36*
X127786022Y-55635844D02*
G01*
X128595039Y-56223629D01*
X127713362Y-57437154D01*
X126904345Y-56849369D01*
X127786022Y-55635844D01*
G37*
G36*
X127494728Y-61480940D02*
G01*
X128303745Y-62068725D01*
X127422068Y-63282250D01*
X126613051Y-62694465D01*
X127494728Y-61480940D01*
G37*
G36*
X124905874Y-59600027D02*
G01*
X125714891Y-60187812D01*
X124833214Y-61401337D01*
X124024197Y-60813552D01*
X124905874Y-59600027D01*
G37*
%TD*%
%TO.C,D43*%
G36*
X118935873Y-67820026D02*
G01*
X119744890Y-68407811D01*
X118863213Y-69621336D01*
X118054196Y-69033551D01*
X118935873Y-67820026D01*
G37*
G36*
X121524727Y-69700939D02*
G01*
X122333744Y-70288724D01*
X121452067Y-71502249D01*
X120643050Y-70914464D01*
X121524727Y-69700939D01*
G37*
G36*
X121816021Y-63855843D02*
G01*
X122625038Y-64443628D01*
X121743361Y-65657153D01*
X120934344Y-65069368D01*
X121816021Y-63855843D01*
G37*
G36*
X124404875Y-65736756D02*
G01*
X125213892Y-66324541D01*
X124332215Y-67538066D01*
X123523198Y-66950281D01*
X124404875Y-65736756D01*
G37*
%TD*%
%TO.C,D44*%
G36*
X116410775Y-76540457D02*
G01*
X117219792Y-77128242D01*
X116338115Y-78341767D01*
X115529098Y-77753982D01*
X116410775Y-76540457D01*
G37*
G36*
X113821921Y-74659544D02*
G01*
X114630938Y-75247329D01*
X113749261Y-76460854D01*
X112940244Y-75873069D01*
X113821921Y-74659544D01*
G37*
G36*
X113530627Y-80504640D02*
G01*
X114339644Y-81092425D01*
X113457967Y-82305950D01*
X112648950Y-81718165D01*
X113530627Y-80504640D01*
G37*
G36*
X110941773Y-78623727D02*
G01*
X111750790Y-79211512D01*
X110869113Y-80425037D01*
X110060096Y-79837252D01*
X110941773Y-78623727D01*
G37*
%TD*%
%TO.C,D45*%
G36*
X127565872Y-50540027D02*
G01*
X128374889Y-51127812D01*
X127493212Y-52341337D01*
X126684195Y-51753552D01*
X127565872Y-50540027D01*
G37*
G36*
X130154726Y-52420940D02*
G01*
X130963743Y-53008725D01*
X130082066Y-54222250D01*
X129273049Y-53634465D01*
X130154726Y-52420940D01*
G37*
G36*
X130446020Y-46575844D02*
G01*
X131255037Y-47163629D01*
X130373360Y-48377154D01*
X129564343Y-47789369D01*
X130446020Y-46575844D01*
G37*
G36*
X133034874Y-48456757D02*
G01*
X133843891Y-49044542D01*
X132962214Y-50258067D01*
X132153197Y-49670282D01*
X133034874Y-48456757D01*
G37*
%TD*%
%TO.C,D46*%
G36*
X124114875Y-55316756D02*
G01*
X124923892Y-55904541D01*
X124042215Y-57118066D01*
X123233198Y-56530281D01*
X124114875Y-55316756D01*
G37*
G36*
X121526021Y-53435843D02*
G01*
X122335038Y-54023628D01*
X121453361Y-55237153D01*
X120644344Y-54649368D01*
X121526021Y-53435843D01*
G37*
G36*
X121234727Y-59280939D02*
G01*
X122043744Y-59868724D01*
X121162067Y-61082249D01*
X120353050Y-60494464D01*
X121234727Y-59280939D01*
G37*
G36*
X118645873Y-57400026D02*
G01*
X119454890Y-57987811D01*
X118573213Y-59201336D01*
X117764196Y-58613551D01*
X118645873Y-57400026D01*
G37*
%TD*%
%TO.C,D47*%
G36*
X116834874Y-61016757D02*
G01*
X117643891Y-61604542D01*
X116762214Y-62818067D01*
X115953197Y-62230282D01*
X116834874Y-61016757D01*
G37*
G36*
X114246020Y-59135844D02*
G01*
X115055037Y-59723629D01*
X114173360Y-60937154D01*
X113364343Y-60349369D01*
X114246020Y-59135844D01*
G37*
G36*
X113954726Y-64980940D02*
G01*
X114763743Y-65568725D01*
X113882066Y-66782250D01*
X113073049Y-66194465D01*
X113954726Y-64980940D01*
G37*
G36*
X111365872Y-63100027D02*
G01*
X112174889Y-63687812D01*
X111293212Y-64901337D01*
X110484195Y-64313552D01*
X111365872Y-63100027D01*
G37*
%TD*%
%TO.C,D48*%
G36*
X112634875Y-68956757D02*
G01*
X113443892Y-69544542D01*
X112562215Y-70758067D01*
X111753198Y-70170282D01*
X112634875Y-68956757D01*
G37*
G36*
X110046021Y-67075844D02*
G01*
X110855038Y-67663629D01*
X109973361Y-68877154D01*
X109164344Y-68289369D01*
X110046021Y-67075844D01*
G37*
G36*
X109754727Y-72920940D02*
G01*
X110563744Y-73508725D01*
X109682067Y-74722250D01*
X108873050Y-74134465D01*
X109754727Y-72920940D01*
G37*
G36*
X107165873Y-71040027D02*
G01*
X107974890Y-71627812D01*
X107093213Y-72841337D01*
X106284196Y-72253552D01*
X107165873Y-71040027D01*
G37*
%TD*%
%TO.C,D49*%
G36*
X147946583Y-106080199D02*
G01*
X147637566Y-107031256D01*
X146210981Y-106567731D01*
X146519998Y-105616674D01*
X147946583Y-106080199D01*
G37*
G36*
X146957728Y-109123580D02*
G01*
X146648711Y-110074637D01*
X145222126Y-109611112D01*
X145531143Y-108660055D01*
X146957728Y-109123580D01*
G37*
G36*
X152606760Y-107594382D02*
G01*
X152297743Y-108545439D01*
X150871158Y-108081914D01*
X151180175Y-107130857D01*
X152606760Y-107594382D01*
G37*
G36*
X151617905Y-110637763D02*
G01*
X151308888Y-111588820D01*
X149882303Y-111125295D01*
X150191320Y-110174238D01*
X151617905Y-110637763D01*
G37*
%TD*%
%TO.C,D50*%
G36*
X140367906Y-110317763D02*
G01*
X140058889Y-111268820D01*
X138632304Y-110805295D01*
X138941321Y-109854238D01*
X140367906Y-110317763D01*
G37*
G36*
X141356761Y-107274382D02*
G01*
X141047744Y-108225439D01*
X139621159Y-107761914D01*
X139930176Y-106810857D01*
X141356761Y-107274382D01*
G37*
G36*
X135707729Y-108803580D02*
G01*
X135398712Y-109754637D01*
X133972127Y-109291112D01*
X134281144Y-108340055D01*
X135707729Y-108803580D01*
G37*
G36*
X136696584Y-105760199D02*
G01*
X136387567Y-106711256D01*
X134960982Y-106247731D01*
X135269999Y-105296674D01*
X136696584Y-105760199D01*
G37*
%TD*%
%TO.C,D51*%
G36*
X127456582Y-105430199D02*
G01*
X127147565Y-106381256D01*
X125720980Y-105917731D01*
X126029997Y-104966674D01*
X127456582Y-105430199D01*
G37*
G36*
X126467727Y-108473580D02*
G01*
X126158710Y-109424637D01*
X124732125Y-108961112D01*
X125041142Y-108010055D01*
X126467727Y-108473580D01*
G37*
G36*
X132116759Y-106944382D02*
G01*
X131807742Y-107895439D01*
X130381157Y-107431914D01*
X130690174Y-106480857D01*
X132116759Y-106944382D01*
G37*
G36*
X131127904Y-109987763D02*
G01*
X130818887Y-110938820D01*
X129392302Y-110475295D01*
X129701319Y-109524238D01*
X131127904Y-109987763D01*
G37*
%TD*%
%TO.C,D52*%
G36*
X123067905Y-106027763D02*
G01*
X122758888Y-106978820D01*
X121332303Y-106515295D01*
X121641320Y-105564238D01*
X123067905Y-106027763D01*
G37*
G36*
X124056760Y-102984382D02*
G01*
X123747743Y-103935439D01*
X122321158Y-103471914D01*
X122630175Y-102520857D01*
X124056760Y-102984382D01*
G37*
G36*
X118407728Y-104513580D02*
G01*
X118098711Y-105464637D01*
X116672126Y-105001112D01*
X116981143Y-104050055D01*
X118407728Y-104513580D01*
G37*
G36*
X119396583Y-101470199D02*
G01*
X119087566Y-102421256D01*
X117660981Y-101957731D01*
X117969998Y-101006674D01*
X119396583Y-101470199D01*
G37*
%TD*%
%TO.C,D53*%
G36*
X156166583Y-105410199D02*
G01*
X155857566Y-106361256D01*
X154430981Y-105897731D01*
X154739998Y-104946674D01*
X156166583Y-105410199D01*
G37*
G36*
X155177728Y-108453580D02*
G01*
X154868711Y-109404637D01*
X153442126Y-108941112D01*
X153751143Y-107990055D01*
X155177728Y-108453580D01*
G37*
G36*
X160826760Y-106924382D02*
G01*
X160517743Y-107875439D01*
X159091158Y-107411914D01*
X159400175Y-106460857D01*
X160826760Y-106924382D01*
G37*
G36*
X159837905Y-109967763D02*
G01*
X159528888Y-110918820D01*
X158102303Y-110455295D01*
X158411320Y-109504238D01*
X159837905Y-109967763D01*
G37*
%TD*%
%TO.C,D54*%
G36*
X144137906Y-104867763D02*
G01*
X143828889Y-105818820D01*
X142402304Y-105355295D01*
X142711321Y-104404238D01*
X144137906Y-104867763D01*
G37*
G36*
X145126761Y-101824382D02*
G01*
X144817744Y-102775439D01*
X143391159Y-102311914D01*
X143700176Y-101360857D01*
X145126761Y-101824382D01*
G37*
G36*
X139477729Y-103353580D02*
G01*
X139168712Y-104304637D01*
X137742127Y-103841112D01*
X138051144Y-102890055D01*
X139477729Y-103353580D01*
G37*
G36*
X140466584Y-100310199D02*
G01*
X140157567Y-101261256D01*
X138730982Y-100797731D01*
X139039999Y-99846674D01*
X140466584Y-100310199D01*
G37*
%TD*%
%TO.C,D55*%
G36*
X130806584Y-97170198D02*
G01*
X130497567Y-98121255D01*
X129070982Y-97657730D01*
X129379999Y-96706673D01*
X130806584Y-97170198D01*
G37*
G36*
X129817729Y-100213579D02*
G01*
X129508712Y-101164636D01*
X128082127Y-100701111D01*
X128391144Y-99750054D01*
X129817729Y-100213579D01*
G37*
G36*
X135466761Y-98684381D02*
G01*
X135157744Y-99635438D01*
X133731159Y-99171913D01*
X134040176Y-98220856D01*
X135466761Y-98684381D01*
G37*
G36*
X134477906Y-101727762D02*
G01*
X134168889Y-102678819D01*
X132742304Y-102215294D01*
X133051321Y-101264237D01*
X134477906Y-101727762D01*
G37*
%TD*%
%TO.C,D56*%
G36*
X121804407Y-97408762D02*
G01*
X121495390Y-98359819D01*
X120068805Y-97896294D01*
X120377822Y-96945237D01*
X121804407Y-97408762D01*
G37*
G36*
X122793262Y-94365381D02*
G01*
X122484245Y-95316438D01*
X121057660Y-94852913D01*
X121366677Y-93901856D01*
X122793262Y-94365381D01*
G37*
G36*
X117144230Y-95894579D02*
G01*
X116835213Y-96845636D01*
X115408628Y-96382111D01*
X115717645Y-95431054D01*
X117144230Y-95894579D01*
G37*
G36*
X118133085Y-92851198D02*
G01*
X117824068Y-93802255D01*
X116397483Y-93338730D01*
X116706500Y-92387673D01*
X118133085Y-92851198D01*
G37*
%TD*%
%TO.C,D57*%
G36*
X149906584Y-100040198D02*
G01*
X149597567Y-100991255D01*
X148170982Y-100527730D01*
X148479999Y-99576673D01*
X149906584Y-100040198D01*
G37*
G36*
X148917729Y-103083579D02*
G01*
X148608712Y-104034636D01*
X147182127Y-103571111D01*
X147491144Y-102620054D01*
X148917729Y-103083579D01*
G37*
G36*
X154566761Y-101554381D02*
G01*
X154257744Y-102505438D01*
X152831159Y-102041913D01*
X153140176Y-101090856D01*
X154566761Y-101554381D01*
G37*
G36*
X153577906Y-104597762D02*
G01*
X153268889Y-105548819D01*
X151842304Y-105085294D01*
X152151321Y-104134237D01*
X153577906Y-104597762D01*
G37*
%TD*%
%TO.C,D58*%
G36*
X140616584Y-93680199D02*
G01*
X140307567Y-94631256D01*
X138880982Y-94167731D01*
X139189999Y-93216674D01*
X140616584Y-93680199D01*
G37*
G36*
X139627729Y-96723580D02*
G01*
X139318712Y-97674637D01*
X137892127Y-97211112D01*
X138201144Y-96260055D01*
X139627729Y-96723580D01*
G37*
G36*
X145276761Y-95194382D02*
G01*
X144967744Y-96145439D01*
X143541159Y-95681914D01*
X143850176Y-94730857D01*
X145276761Y-95194382D01*
G37*
G36*
X144287906Y-98237763D02*
G01*
X143978889Y-99188820D01*
X142552304Y-98725295D01*
X142861321Y-97774238D01*
X144287906Y-98237763D01*
G37*
%TD*%
%TO.C,D59*%
G36*
X136617906Y-93077763D02*
G01*
X136308889Y-94028820D01*
X134882304Y-93565295D01*
X135191321Y-92614238D01*
X136617906Y-93077763D01*
G37*
G36*
X137606761Y-90034382D02*
G01*
X137297744Y-90985439D01*
X135871159Y-90521914D01*
X136180176Y-89570857D01*
X137606761Y-90034382D01*
G37*
G36*
X131957729Y-91563580D02*
G01*
X131648712Y-92514637D01*
X130222127Y-92051112D01*
X130531144Y-91100055D01*
X131957729Y-91563580D01*
G37*
G36*
X132946584Y-88520199D02*
G01*
X132637567Y-89471256D01*
X131210982Y-89007731D01*
X131519999Y-88056674D01*
X132946584Y-88520199D01*
G37*
%TD*%
%TO.C,D60*%
G36*
X127777907Y-91537762D02*
G01*
X127468890Y-92488819D01*
X126042305Y-92025294D01*
X126351322Y-91074237D01*
X127777907Y-91537762D01*
G37*
G36*
X128766762Y-88494381D02*
G01*
X128457745Y-89445438D01*
X127031160Y-88981913D01*
X127340177Y-88030856D01*
X128766762Y-88494381D01*
G37*
G36*
X123117730Y-90023579D02*
G01*
X122808713Y-90974636D01*
X121382128Y-90511111D01*
X121691145Y-89560054D01*
X123117730Y-90023579D01*
G37*
G36*
X124106585Y-86980198D02*
G01*
X123797568Y-87931255D01*
X122370983Y-87467730D01*
X122680000Y-86516673D01*
X124106585Y-86980198D01*
G37*
%TD*%
D23*
%TO.C,Y1*%
X113538000Y-85725000D03*
X116988681Y-89175681D03*
%TD*%
%TO.C,R2*%
G36*
G01*
X97841000Y-101542001D02*
X97841000Y-100641999D01*
G75*
G02*
X98090999Y-100392000I249999J0D01*
G01*
X98791001Y-100392000D01*
G75*
G02*
X99041000Y-100641999I0J-249999D01*
G01*
X99041000Y-101542001D01*
G75*
G02*
X98791001Y-101792000I-249999J0D01*
G01*
X98090999Y-101792000D01*
G75*
G02*
X97841000Y-101542001I0J249999D01*
G01*
G37*
G36*
G01*
X99841000Y-101542001D02*
X99841000Y-100641999D01*
G75*
G02*
X100090999Y-100392000I249999J0D01*
G01*
X100791001Y-100392000D01*
G75*
G02*
X101041000Y-100641999I0J-249999D01*
G01*
X101041000Y-101542001D01*
G75*
G02*
X100791001Y-101792000I-249999J0D01*
G01*
X100090999Y-101792000D01*
G75*
G02*
X99841000Y-101542001I0J249999D01*
G01*
G37*
%TD*%
%TO.C,C11*%
G36*
G01*
X60639156Y-96185857D02*
X61019578Y-96062251D01*
G75*
G02*
X62027637Y-96575882I247214J-760845D01*
G01*
X62027637Y-96575882D01*
G75*
G02*
X61514006Y-97583941I-760845J-247214D01*
G01*
X61133584Y-97707547D01*
G75*
G02*
X60125525Y-97193916I-247214J760845D01*
G01*
X60125525Y-97193916D01*
G75*
G02*
X60639156Y-96185857I760845J247214D01*
G01*
G37*
G36*
G01*
X65348575Y-110679958D02*
X65728997Y-110556352D01*
G75*
G02*
X66737056Y-111069983I247214J-760845D01*
G01*
X66737056Y-111069983D01*
G75*
G02*
X66223425Y-112078042I-760845J-247214D01*
G01*
X65843003Y-112201648D01*
G75*
G02*
X64834944Y-111688017I-247214J760845D01*
G01*
X64834944Y-111688017D01*
G75*
G02*
X65348575Y-110679958I760845J247214D01*
G01*
G37*
%TD*%
%TO.C,C12*%
G36*
G01*
X124833352Y-51362425D02*
X124598238Y-51686031D01*
G75*
G02*
X123480796Y-51863017I-647214J470228D01*
G01*
X123480796Y-51863017D01*
G75*
G02*
X123303810Y-50745575I470228J647214D01*
G01*
X123538924Y-50421969D01*
G75*
G02*
X124656366Y-50244983I647214J-470228D01*
G01*
X124656366Y-50244983D01*
G75*
G02*
X124833352Y-51362425I-470228J-647214D01*
G01*
G37*
G36*
G01*
X137162771Y-60320272D02*
X136927657Y-60643878D01*
G75*
G02*
X135810215Y-60820864I-647214J470228D01*
G01*
X135810215Y-60820864D01*
G75*
G02*
X135633229Y-59703422I470228J647214D01*
G01*
X135868343Y-59379816D01*
G75*
G02*
X136985785Y-59202830I647214J-470228D01*
G01*
X136985785Y-59202830D01*
G75*
G02*
X137162771Y-60320272I-470228J-647214D01*
G01*
G37*
%TD*%
%TO.C,C13*%
G36*
G01*
X85937157Y-50548969D02*
X86172271Y-50872575D01*
G75*
G02*
X85995285Y-51990017I-647214J-470228D01*
G01*
X85995285Y-51990017D01*
G75*
G02*
X84877843Y-51813031I-470228J647214D01*
G01*
X84642729Y-51489425D01*
G75*
G02*
X84819715Y-50371983I647214J470228D01*
G01*
X84819715Y-50371983D01*
G75*
G02*
X85937157Y-50548969I470228J-647214D01*
G01*
G37*
G36*
G01*
X73607738Y-59506816D02*
X73842852Y-59830422D01*
G75*
G02*
X73665866Y-60947864I-647214J-470228D01*
G01*
X73665866Y-60947864D01*
G75*
G02*
X72548424Y-60770878I-470228J647214D01*
G01*
X72313310Y-60447272D01*
G75*
G02*
X72490296Y-59329830I647214J470228D01*
G01*
X72490296Y-59329830D01*
G75*
G02*
X73607738Y-59506816I470228J-647214D01*
G01*
G37*
%TD*%
D24*
%TO.C,C14*%
X112395000Y-133858000D03*
X97155000Y-133858000D03*
%TD*%
%TO.C,C15*%
G36*
G01*
X143579997Y-112074648D02*
X143199575Y-111951042D01*
G75*
G02*
X142685944Y-110942983I247214J760845D01*
G01*
X142685944Y-110942983D01*
G75*
G02*
X143694003Y-110429352I760845J-247214D01*
G01*
X144074425Y-110552958D01*
G75*
G02*
X144588056Y-111561017I-247214J-760845D01*
G01*
X144588056Y-111561017D01*
G75*
G02*
X143579997Y-112074648I-760845J247214D01*
G01*
G37*
G36*
G01*
X148289416Y-97580547D02*
X147908994Y-97456941D01*
G75*
G02*
X147395363Y-96448882I247214J760845D01*
G01*
X147395363Y-96448882D01*
G75*
G02*
X148403422Y-95935251I760845J-247214D01*
G01*
X148783844Y-96058857D01*
G75*
G02*
X149297475Y-97066916I-247214J-760845D01*
G01*
X149297475Y-97066916D01*
G75*
G02*
X148289416Y-97580547I-760845J247214D01*
G01*
G37*
%TD*%
M02*
