%TF.GenerationSoftware,KiCad,Pcbnew,(5.1.8)-1*%
%TF.CreationDate,2021-10-28T00:16:18+03:00*%
%TF.ProjectId,StarDuino,53746172-4475-4696-9e6f-2e6b69636164,rev?*%
%TF.SameCoordinates,Original*%
%TF.FileFunction,Profile,NP*%
%FSLAX46Y46*%
G04 Gerber Fmt 4.6, Leading zero omitted, Abs format (unit mm)*
G04 Created by KiCad (PCBNEW (5.1.8)-1) date 2021-10-28 00:16:18*
%MOMM*%
%LPD*%
G01*
G04 APERTURE LIST*
%TA.AperFunction,Profile*%
%ADD10C,0.200000*%
%TD*%
G04 APERTURE END LIST*
D10*
X78359000Y-79946500D02*
X77343000Y-83756500D01*
X86741000Y-112458500D02*
X89662000Y-114617500D01*
X119888000Y-114300000D02*
X122809000Y-112458500D01*
X130937000Y-80264000D02*
X131826000Y-83566000D01*
X103124000Y-62738000D02*
X106299000Y-62738000D01*
X136372600Y-40868600D02*
X142316200Y-45237400D01*
X67081400Y-45262800D02*
X73075800Y-40919400D01*
X47675800Y-105333800D02*
X50012600Y-112471200D01*
X161899600Y-105435400D02*
X159537400Y-112471200D01*
X100965000Y-149479000D02*
X108458000Y-149479000D01*
X77343000Y-83756500D02*
X47675800Y-105333800D01*
X67081400Y-45262800D02*
X78359000Y-79946500D01*
X103124000Y-62738000D02*
X73075800Y-40919400D01*
X136372600Y-40868600D02*
X106299000Y-62738000D01*
X130937000Y-80264000D02*
X142316200Y-45237400D01*
X89662000Y-114617500D02*
X100965000Y-149479000D01*
X50012600Y-112471200D02*
X86741000Y-112458500D01*
X108458000Y-149479000D02*
X119888000Y-114300000D01*
X122809000Y-112458500D02*
X159537400Y-112471200D01*
X161899600Y-105435400D02*
X131826000Y-83566000D01*
M02*
