%TF.GenerationSoftware,KiCad,Pcbnew,(5.1.8)-1*%
%TF.CreationDate,2021-10-28T00:16:18+03:00*%
%TF.ProjectId,StarDuino,53746172-4475-4696-9e6f-2e6b69636164,rev?*%
%TF.SameCoordinates,Original*%
%TF.FileFunction,Copper,L1,Top*%
%TF.FilePolarity,Positive*%
%FSLAX46Y46*%
G04 Gerber Fmt 4.6, Leading zero omitted, Abs format (unit mm)*
G04 Created by KiCad (PCBNEW (5.1.8)-1) date 2021-10-28 00:16:18*
%MOMM*%
%LPD*%
G01*
G04 APERTURE LIST*
%TA.AperFunction,ComponentPad*%
%ADD10O,2.400000X2.400000*%
%TD*%
%TA.AperFunction,ComponentPad*%
%ADD11R,2.400000X2.400000*%
%TD*%
%TA.AperFunction,ComponentPad*%
%ADD12C,0.100000*%
%TD*%
%TA.AperFunction,ComponentPad*%
%ADD13R,1.700000X1.700000*%
%TD*%
%TA.AperFunction,ComponentPad*%
%ADD14C,0.800000*%
%TD*%
%TA.AperFunction,ComponentPad*%
%ADD15C,5.000000*%
%TD*%
%TA.AperFunction,ComponentPad*%
%ADD16O,2.000000X2.000000*%
%TD*%
%TA.AperFunction,ComponentPad*%
%ADD17R,2.000000X2.000000*%
%TD*%
%TA.AperFunction,SMDPad,CuDef*%
%ADD18C,0.100000*%
%TD*%
%TA.AperFunction,ComponentPad*%
%ADD19C,1.600000*%
%TD*%
%TA.AperFunction,ComponentPad*%
%ADD20R,2.600000X2.600000*%
%TD*%
%TA.AperFunction,ComponentPad*%
%ADD21C,2.600000*%
%TD*%
%TA.AperFunction,SMDPad,CuDef*%
%ADD22R,0.900000X0.800000*%
%TD*%
%TA.AperFunction,SMDPad,CuDef*%
%ADD23R,1.000000X1.500000*%
%TD*%
%TA.AperFunction,ComponentPad*%
%ADD24C,1.500000*%
%TD*%
%TA.AperFunction,ComponentPad*%
%ADD25O,1.600000X2.000000*%
%TD*%
%TA.AperFunction,ViaPad*%
%ADD26C,1.600000*%
%TD*%
%TA.AperFunction,Conductor*%
%ADD27C,0.500000*%
%TD*%
%TA.AperFunction,Conductor*%
%ADD28C,0.600000*%
%TD*%
%TA.AperFunction,Conductor*%
%ADD29C,0.800000*%
%TD*%
%TA.AperFunction,Conductor*%
%ADD30C,1.000000*%
%TD*%
%TA.AperFunction,Conductor*%
%ADD31C,0.900000*%
%TD*%
G04 APERTURE END LIST*
D10*
%TO.P,C10,2*%
%TO.N,GND*%
X117694000Y-115443000D03*
D11*
%TO.P,C10,1*%
%TO.N,VCC*%
X91694000Y-115443000D03*
%TD*%
%TO.P,C9,2*%
%TO.N,GND*%
%TA.AperFunction,ComponentPad*%
G36*
G01*
X84752622Y-109692201D02*
X84752622Y-109692201D01*
G75*
G02*
X86264710Y-110462649I370820J-1141268D01*
G01*
X86264710Y-110462649D01*
G75*
G02*
X85494262Y-111974737I-1141268J-370820D01*
G01*
X85494262Y-111974737D01*
G75*
G02*
X83982174Y-111204289I-370820J1141268D01*
G01*
X83982174Y-111204289D01*
G75*
G02*
X84752622Y-109692201I1141268J370820D01*
G01*
G37*
%TD.AperFunction*%
%TA.AperFunction,ComponentPad*%
D12*
%TO.P,C9,1*%
%TO.N,VCC*%
G36*
X75576912Y-85335553D02*
G01*
X77859447Y-84593912D01*
X78601088Y-86876447D01*
X76318553Y-87618088D01*
X75576912Y-85335553D01*
G37*
%TD.AperFunction*%
%TD*%
%TO.P,C8,2*%
%TO.N,GND*%
%TA.AperFunction,ComponentPad*%
G36*
G01*
X109730378Y-63781925D02*
X109730378Y-63781925D01*
G75*
G02*
X108054216Y-64047403I-970820J705342D01*
G01*
X108054216Y-64047403D01*
G75*
G02*
X107788738Y-62371241I705342J970820D01*
G01*
X107788738Y-62371241D01*
G75*
G02*
X109464900Y-62105763I970820J-705342D01*
G01*
X109464900Y-62105763D01*
G75*
G02*
X109730378Y-63781925I-705342J-970820D01*
G01*
G37*
%TD.AperFunction*%
%TA.AperFunction,ComponentPad*%
%TO.P,C8,1*%
%TO.N,VCC*%
G36*
X131470163Y-78093522D02*
G01*
X130059478Y-80035163D01*
X128117837Y-78624478D01*
X129528522Y-76682837D01*
X131470163Y-78093522D01*
G37*
%TD.AperFunction*%
%TD*%
%TO.P,C7,2*%
%TO.N,GND*%
%TA.AperFunction,ComponentPad*%
G36*
G01*
X132250622Y-87157799D02*
X132250622Y-87157799D01*
G75*
G02*
X131480174Y-85645711I370820J1141268D01*
G01*
X131480174Y-85645711D01*
G75*
G02*
X132992262Y-84875263I1141268J-370820D01*
G01*
X132992262Y-84875263D01*
G75*
G02*
X133762710Y-86387351I-370820J-1141268D01*
G01*
X133762710Y-86387351D01*
G75*
G02*
X132250622Y-87157799I-1141268J370820D01*
G01*
G37*
%TD.AperFunction*%
%TA.AperFunction,ComponentPad*%
%TO.P,C7,1*%
%TO.N,VCC*%
G36*
X125357447Y-112256088D02*
G01*
X123074912Y-111514447D01*
X123816553Y-109231912D01*
X126099088Y-109973553D01*
X125357447Y-112256088D01*
G37*
%TD.AperFunction*%
%TD*%
D13*
%TO.P,J3,1*%
%TO.N,GND*%
X114744500Y-92710000D03*
%TD*%
%TO.P,C6,2*%
%TO.N,GND*%
%TA.AperFunction,ComponentPad*%
G36*
G01*
X80266378Y-77188075D02*
X80266378Y-77188075D01*
G75*
G02*
X80000900Y-78864237I-970820J-705342D01*
G01*
X80000900Y-78864237D01*
G75*
G02*
X78324738Y-78598759I-705342J970820D01*
G01*
X78324738Y-78598759D01*
G75*
G02*
X78590216Y-76922597I970820J705342D01*
G01*
X78590216Y-76922597D01*
G75*
G02*
X80266378Y-77188075I705342J-970820D01*
G01*
G37*
%TD.AperFunction*%
%TA.AperFunction,ComponentPad*%
D12*
%TO.P,C6,1*%
%TO.N,VCC*%
G36*
X100595478Y-60934837D02*
G01*
X102006163Y-62876478D01*
X100064522Y-64287163D01*
X98653837Y-62345522D01*
X100595478Y-60934837D01*
G37*
%TD.AperFunction*%
%TD*%
%TO.P,R4,2*%
%TO.N,/TX*%
%TA.AperFunction,SMDPad,CuDef*%
G36*
G01*
X115194501Y-101200000D02*
X114294499Y-101200000D01*
G75*
G02*
X114044500Y-100950001I0J249999D01*
G01*
X114044500Y-100249999D01*
G75*
G02*
X114294499Y-100000000I249999J0D01*
G01*
X115194501Y-100000000D01*
G75*
G02*
X115444500Y-100249999I0J-249999D01*
G01*
X115444500Y-100950001D01*
G75*
G02*
X115194501Y-101200000I-249999J0D01*
G01*
G37*
%TD.AperFunction*%
%TO.P,R4,1*%
%TO.N,Net-(J2-Pad3)*%
%TA.AperFunction,SMDPad,CuDef*%
G36*
G01*
X115194501Y-103200000D02*
X114294499Y-103200000D01*
G75*
G02*
X114044500Y-102950001I0J249999D01*
G01*
X114044500Y-102249999D01*
G75*
G02*
X114294499Y-102000000I249999J0D01*
G01*
X115194501Y-102000000D01*
G75*
G02*
X115444500Y-102249999I0J-249999D01*
G01*
X115444500Y-102950001D01*
G75*
G02*
X115194501Y-103200000I-249999J0D01*
G01*
G37*
%TD.AperFunction*%
%TD*%
%TO.P,R3,2*%
%TO.N,/RX*%
%TA.AperFunction,SMDPad,CuDef*%
G36*
G01*
X113226001Y-101200000D02*
X112325999Y-101200000D01*
G75*
G02*
X112076000Y-100950001I0J249999D01*
G01*
X112076000Y-100249999D01*
G75*
G02*
X112325999Y-100000000I249999J0D01*
G01*
X113226001Y-100000000D01*
G75*
G02*
X113476000Y-100249999I0J-249999D01*
G01*
X113476000Y-100950001D01*
G75*
G02*
X113226001Y-101200000I-249999J0D01*
G01*
G37*
%TD.AperFunction*%
%TO.P,R3,1*%
%TO.N,Net-(J2-Pad2)*%
%TA.AperFunction,SMDPad,CuDef*%
G36*
G01*
X113226001Y-103200000D02*
X112325999Y-103200000D01*
G75*
G02*
X112076000Y-102950001I0J249999D01*
G01*
X112076000Y-102249999D01*
G75*
G02*
X112325999Y-102000000I249999J0D01*
G01*
X113226001Y-102000000D01*
G75*
G02*
X113476000Y-102249999I0J-249999D01*
G01*
X113476000Y-102950001D01*
G75*
G02*
X113226001Y-103200000I-249999J0D01*
G01*
G37*
%TD.AperFunction*%
%TD*%
D14*
%TO.P,H10,1*%
%TO.N,Net-(H10-Pad1)*%
X82097825Y-81541675D03*
X80772000Y-80992500D03*
X79446175Y-81541675D03*
X78897000Y-82867500D03*
X79446175Y-84193325D03*
X80772000Y-84742500D03*
X82097825Y-84193325D03*
X82647000Y-82867500D03*
D15*
X80772000Y-82867500D03*
%TD*%
D14*
%TO.P,H9,1*%
%TO.N,Net-(H9-Pad1)*%
X106075770Y-64396675D03*
X104749945Y-63847500D03*
X103424120Y-64396675D03*
X102874945Y-65722500D03*
X103424120Y-67048325D03*
X104749945Y-67597500D03*
X106075770Y-67048325D03*
X106624945Y-65722500D03*
D15*
X104749945Y-65722500D03*
%TD*%
D14*
%TO.P,H8,1*%
%TO.N,Net-(H8-Pad1)*%
X91241825Y-109799175D03*
X89916000Y-109250000D03*
X88590175Y-109799175D03*
X88041000Y-111125000D03*
X88590175Y-112450825D03*
X89916000Y-113000000D03*
X91241825Y-112450825D03*
X91791000Y-111125000D03*
D15*
X89916000Y-111125000D03*
%TD*%
D14*
%TO.P,H7,1*%
%TO.N,Net-(H7-Pad1)*%
X120959825Y-109672175D03*
X119634000Y-109123000D03*
X118308175Y-109672175D03*
X117759000Y-110998000D03*
X118308175Y-112323825D03*
X119634000Y-112873000D03*
X120959825Y-112323825D03*
X121509000Y-110998000D03*
D15*
X119634000Y-110998000D03*
%TD*%
D14*
%TO.P,H6,1*%
%TO.N,Net-(H6-Pad1)*%
X129849825Y-81605175D03*
X128524000Y-81056000D03*
X127198175Y-81605175D03*
X126649000Y-82931000D03*
X127198175Y-84256825D03*
X128524000Y-84806000D03*
X129849825Y-84256825D03*
X130399000Y-82931000D03*
D15*
X128524000Y-82931000D03*
%TD*%
%TO.P,C5,2*%
%TO.N,/~Reset*%
%TA.AperFunction,SMDPad,CuDef*%
G36*
G01*
X111282500Y-101150000D02*
X110332500Y-101150000D01*
G75*
G02*
X110082500Y-100900000I0J250000D01*
G01*
X110082500Y-100225000D01*
G75*
G02*
X110332500Y-99975000I250000J0D01*
G01*
X111282500Y-99975000D01*
G75*
G02*
X111532500Y-100225000I0J-250000D01*
G01*
X111532500Y-100900000D01*
G75*
G02*
X111282500Y-101150000I-250000J0D01*
G01*
G37*
%TD.AperFunction*%
%TO.P,C5,1*%
%TO.N,Net-(C5-Pad1)*%
%TA.AperFunction,SMDPad,CuDef*%
G36*
G01*
X111282500Y-103225000D02*
X110332500Y-103225000D01*
G75*
G02*
X110082500Y-102975000I0J250000D01*
G01*
X110082500Y-102300000D01*
G75*
G02*
X110332500Y-102050000I250000J0D01*
G01*
X111282500Y-102050000D01*
G75*
G02*
X111532500Y-102300000I0J-250000D01*
G01*
X111532500Y-102975000D01*
G75*
G02*
X111282500Y-103225000I-250000J0D01*
G01*
G37*
%TD.AperFunction*%
%TD*%
D16*
%TO.P,J2,3*%
%TO.N,Net-(J2-Pad3)*%
X114807999Y-104521000D03*
%TO.P,J2,2*%
%TO.N,Net-(J2-Pad2)*%
X112268000Y-104521000D03*
D17*
%TO.P,J2,1*%
%TO.N,Net-(C5-Pad1)*%
X109728000Y-104521000D03*
%TD*%
%TO.P,R1,2*%
%TO.N,Net-(C1-Pad1)*%
%TA.AperFunction,SMDPad,CuDef*%
G36*
G01*
X114390249Y-87845851D02*
X113753851Y-88482249D01*
G75*
G02*
X113400299Y-88482249I-176776J176776D01*
G01*
X112905323Y-87987273D01*
G75*
G02*
X112905323Y-87633721I176776J176776D01*
G01*
X113541721Y-86997323D01*
G75*
G02*
X113895273Y-86997323I176776J-176776D01*
G01*
X114390249Y-87492299D01*
G75*
G02*
X114390249Y-87845851I-176776J-176776D01*
G01*
G37*
%TD.AperFunction*%
%TO.P,R1,1*%
%TO.N,Net-(C2-Pad1)*%
%TA.AperFunction,SMDPad,CuDef*%
G36*
G01*
X115804463Y-89260065D02*
X115168065Y-89896463D01*
G75*
G02*
X114814513Y-89896463I-176776J176776D01*
G01*
X114319537Y-89401487D01*
G75*
G02*
X114319537Y-89047935I176776J176776D01*
G01*
X114955935Y-88411537D01*
G75*
G02*
X115309487Y-88411537I176776J-176776D01*
G01*
X115804463Y-88906513D01*
G75*
G02*
X115804463Y-89260065I-176776J-176776D01*
G01*
G37*
%TD.AperFunction*%
%TD*%
%TO.P,C4,2*%
%TO.N,VCC*%
%TA.AperFunction,SMDPad,CuDef*%
G36*
G01*
X99647500Y-98585000D02*
X99647500Y-99535000D01*
G75*
G02*
X99397500Y-99785000I-250000J0D01*
G01*
X98722500Y-99785000D01*
G75*
G02*
X98472500Y-99535000I0J250000D01*
G01*
X98472500Y-98585000D01*
G75*
G02*
X98722500Y-98335000I250000J0D01*
G01*
X99397500Y-98335000D01*
G75*
G02*
X99647500Y-98585000I0J-250000D01*
G01*
G37*
%TD.AperFunction*%
%TO.P,C4,1*%
%TO.N,GND*%
%TA.AperFunction,SMDPad,CuDef*%
G36*
G01*
X101722500Y-98585000D02*
X101722500Y-99535000D01*
G75*
G02*
X101472500Y-99785000I-250000J0D01*
G01*
X100797500Y-99785000D01*
G75*
G02*
X100547500Y-99535000I0J250000D01*
G01*
X100547500Y-98585000D01*
G75*
G02*
X100797500Y-98335000I250000J0D01*
G01*
X101472500Y-98335000D01*
G75*
G02*
X101722500Y-98585000I0J-250000D01*
G01*
G37*
%TD.AperFunction*%
%TD*%
%TA.AperFunction,SMDPad,CuDef*%
D18*
%TO.P,D30,3*%
%TO.N,GND*%
G36*
X81221544Y-61992525D02*
G01*
X82030561Y-61404740D01*
X82912238Y-62618265D01*
X82103221Y-63206050D01*
X81221544Y-61992525D01*
G37*
%TD.AperFunction*%
%TA.AperFunction,SMDPad,CuDef*%
%TO.P,D30,4*%
%TO.N,Net-(D26-Pad2)*%
G36*
X83810398Y-60111612D02*
G01*
X84619415Y-59523827D01*
X85501092Y-60737352D01*
X84692075Y-61325137D01*
X83810398Y-60111612D01*
G37*
%TD.AperFunction*%
%TA.AperFunction,SMDPad,CuDef*%
%TO.P,D30,2*%
%TO.N,Net-(D30-Pad2)*%
G36*
X78341396Y-58028342D02*
G01*
X79150413Y-57440557D01*
X80032090Y-58654082D01*
X79223073Y-59241867D01*
X78341396Y-58028342D01*
G37*
%TD.AperFunction*%
%TA.AperFunction,SMDPad,CuDef*%
%TO.P,D30,1*%
%TO.N,VCC*%
G36*
X80930250Y-56147429D02*
G01*
X81739267Y-55559644D01*
X82620944Y-56773169D01*
X81811927Y-57360954D01*
X80930250Y-56147429D01*
G37*
%TD.AperFunction*%
%TD*%
%TO.P,C1,2*%
%TO.N,GND*%
%TA.AperFunction,SMDPad,CuDef*%
G36*
G01*
X117395450Y-84698301D02*
X116723699Y-84026550D01*
G75*
G02*
X116723699Y-83672996I176777J176777D01*
G01*
X117200996Y-83195699D01*
G75*
G02*
X117554550Y-83195699I176777J-176777D01*
G01*
X118226301Y-83867450D01*
G75*
G02*
X118226301Y-84221004I-176777J-176777D01*
G01*
X117749004Y-84698301D01*
G75*
G02*
X117395450Y-84698301I-176777J176777D01*
G01*
G37*
%TD.AperFunction*%
%TO.P,C1,1*%
%TO.N,Net-(C1-Pad1)*%
%TA.AperFunction,SMDPad,CuDef*%
G36*
G01*
X115928204Y-86165547D02*
X115256453Y-85493796D01*
G75*
G02*
X115256453Y-85140242I176777J176777D01*
G01*
X115733750Y-84662945D01*
G75*
G02*
X116087304Y-84662945I176777J-176777D01*
G01*
X116759055Y-85334696D01*
G75*
G02*
X116759055Y-85688250I-176777J-176777D01*
G01*
X116281758Y-86165547D01*
G75*
G02*
X115928204Y-86165547I-176777J176777D01*
G01*
G37*
%TD.AperFunction*%
%TD*%
%TO.P,C2,1*%
%TO.N,Net-(C2-Pad1)*%
%TA.AperFunction,SMDPad,CuDef*%
G36*
G01*
X117423827Y-87717924D02*
X116752076Y-87046173D01*
G75*
G02*
X116752076Y-86692619I176777J176777D01*
G01*
X117229373Y-86215322D01*
G75*
G02*
X117582927Y-86215322I176777J-176777D01*
G01*
X118254678Y-86887073D01*
G75*
G02*
X118254678Y-87240627I-176777J-176777D01*
G01*
X117777381Y-87717924D01*
G75*
G02*
X117423827Y-87717924I-176777J176777D01*
G01*
G37*
%TD.AperFunction*%
%TO.P,C2,2*%
%TO.N,GND*%
%TA.AperFunction,SMDPad,CuDef*%
G36*
G01*
X118891073Y-86250678D02*
X118219322Y-85578927D01*
G75*
G02*
X118219322Y-85225373I176777J176777D01*
G01*
X118696619Y-84748076D01*
G75*
G02*
X119050173Y-84748076I176777J-176777D01*
G01*
X119721924Y-85419827D01*
G75*
G02*
X119721924Y-85773381I-176777J-176777D01*
G01*
X119244627Y-86250678D01*
G75*
G02*
X118891073Y-86250678I-176777J176777D01*
G01*
G37*
%TD.AperFunction*%
%TD*%
%TA.AperFunction,ComponentPad*%
D12*
%TO.P,C3,1*%
%TO.N,VCC*%
G36*
X95071129Y-90170000D02*
G01*
X96202500Y-89038629D01*
X97333871Y-90170000D01*
X96202500Y-91301371D01*
X95071129Y-90170000D01*
G37*
%TD.AperFunction*%
D19*
%TO.P,C3,2*%
%TO.N,GND*%
X97970267Y-91937767D03*
%TD*%
D20*
%TO.P,J1,1*%
%TO.N,Net-(J1-Pad1)*%
X102235000Y-82232500D03*
D21*
%TO.P,J1,2*%
%TO.N,GND*%
X107235000Y-82232500D03*
%TD*%
D22*
%TO.P,Q1,1*%
%TO.N,GND*%
X97425000Y-85092500D03*
%TO.P,Q1,2*%
%TO.N,VCC*%
X97425000Y-86992500D03*
%TO.P,Q1,3*%
%TO.N,Net-(J1-Pad1)*%
X99425000Y-86042500D03*
%TD*%
%TA.AperFunction,SMDPad,CuDef*%
D18*
%TO.P,U1,1*%
%TO.N,Net-(U1-Pad1)*%
G36*
X112812840Y-92369514D02*
G01*
X113234164Y-92723047D01*
X112205704Y-93948718D01*
X111784380Y-93595185D01*
X112812840Y-92369514D01*
G37*
%TD.AperFunction*%
%TA.AperFunction,SMDPad,CuDef*%
%TO.P,U1,2*%
%TO.N,Net-(U1-Pad2)*%
G36*
X112200004Y-91855284D02*
G01*
X112621328Y-92208817D01*
X111592868Y-93434488D01*
X111171544Y-93080955D01*
X112200004Y-91855284D01*
G37*
%TD.AperFunction*%
%TA.AperFunction,SMDPad,CuDef*%
%TO.P,U1,3*%
%TO.N,GND*%
G36*
X111587169Y-91341054D02*
G01*
X112008493Y-91694587D01*
X110980033Y-92920258D01*
X110558709Y-92566725D01*
X111587169Y-91341054D01*
G37*
%TD.AperFunction*%
%TA.AperFunction,SMDPad,CuDef*%
%TO.P,U1,4*%
%TO.N,VCC*%
G36*
X110974333Y-90826824D02*
G01*
X111395657Y-91180357D01*
X110367197Y-92406028D01*
X109945873Y-92052495D01*
X110974333Y-90826824D01*
G37*
%TD.AperFunction*%
%TA.AperFunction,SMDPad,CuDef*%
%TO.P,U1,5*%
%TO.N,GND*%
G36*
X110361498Y-90312594D02*
G01*
X110782822Y-90666127D01*
X109754362Y-91891798D01*
X109333038Y-91538265D01*
X110361498Y-90312594D01*
G37*
%TD.AperFunction*%
%TA.AperFunction,SMDPad,CuDef*%
%TO.P,U1,6*%
%TO.N,VCC*%
G36*
X109748662Y-89798364D02*
G01*
X110169986Y-90151897D01*
X109141526Y-91377568D01*
X108720202Y-91024035D01*
X109748662Y-89798364D01*
G37*
%TD.AperFunction*%
%TA.AperFunction,SMDPad,CuDef*%
%TO.P,U1,7*%
%TO.N,Net-(C2-Pad1)*%
G36*
X109135826Y-89284134D02*
G01*
X109557150Y-89637667D01*
X108528690Y-90863338D01*
X108107366Y-90509805D01*
X109135826Y-89284134D01*
G37*
%TD.AperFunction*%
%TA.AperFunction,SMDPad,CuDef*%
%TO.P,U1,8*%
%TO.N,Net-(C1-Pad1)*%
G36*
X108522991Y-88769904D02*
G01*
X108944315Y-89123437D01*
X107915855Y-90349108D01*
X107494531Y-89995575D01*
X108522991Y-88769904D01*
G37*
%TD.AperFunction*%
%TA.AperFunction,SMDPad,CuDef*%
%TO.P,U1,9*%
%TO.N,Net-(U1-Pad9)*%
G36*
X105387014Y-89434660D02*
G01*
X105740547Y-89013336D01*
X106966218Y-90041796D01*
X106612685Y-90463120D01*
X105387014Y-89434660D01*
G37*
%TD.AperFunction*%
%TA.AperFunction,SMDPad,CuDef*%
%TO.P,U1,10*%
%TO.N,Net-(U1-Pad10)*%
G36*
X104872784Y-90047496D02*
G01*
X105226317Y-89626172D01*
X106451988Y-90654632D01*
X106098455Y-91075956D01*
X104872784Y-90047496D01*
G37*
%TD.AperFunction*%
%TA.AperFunction,SMDPad,CuDef*%
%TO.P,U1,11*%
%TO.N,Net-(U1-Pad11)*%
G36*
X104358554Y-90660331D02*
G01*
X104712087Y-90239007D01*
X105937758Y-91267467D01*
X105584225Y-91688791D01*
X104358554Y-90660331D01*
G37*
%TD.AperFunction*%
%TA.AperFunction,SMDPad,CuDef*%
%TO.P,U1,12*%
%TO.N,Net-(U1-Pad12)*%
G36*
X103844324Y-91273167D02*
G01*
X104197857Y-90851843D01*
X105423528Y-91880303D01*
X105069995Y-92301627D01*
X103844324Y-91273167D01*
G37*
%TD.AperFunction*%
%TA.AperFunction,SMDPad,CuDef*%
%TO.P,U1,13*%
%TO.N,Net-(U1-Pad13)*%
G36*
X103330094Y-91886002D02*
G01*
X103683627Y-91464678D01*
X104909298Y-92493138D01*
X104555765Y-92914462D01*
X103330094Y-91886002D01*
G37*
%TD.AperFunction*%
%TA.AperFunction,SMDPad,CuDef*%
%TO.P,U1,14*%
%TO.N,Net-(U1-Pad14)*%
G36*
X102815864Y-92498838D02*
G01*
X103169397Y-92077514D01*
X104395068Y-93105974D01*
X104041535Y-93527298D01*
X102815864Y-92498838D01*
G37*
%TD.AperFunction*%
%TA.AperFunction,SMDPad,CuDef*%
%TO.P,U1,15*%
%TO.N,Net-(U1-Pad15)*%
G36*
X102301634Y-93111674D02*
G01*
X102655167Y-92690350D01*
X103880838Y-93718810D01*
X103527305Y-94140134D01*
X102301634Y-93111674D01*
G37*
%TD.AperFunction*%
%TA.AperFunction,SMDPad,CuDef*%
%TO.P,U1,16*%
%TO.N,Net-(U1-Pad16)*%
G36*
X101787404Y-93724509D02*
G01*
X102140937Y-93303185D01*
X103366608Y-94331645D01*
X103013075Y-94752969D01*
X101787404Y-93724509D01*
G37*
%TD.AperFunction*%
%TA.AperFunction,SMDPad,CuDef*%
%TO.P,U1,17*%
%TO.N,Net-(U1-Pad17)*%
G36*
X103059296Y-95281282D02*
G01*
X103480620Y-95634815D01*
X102452160Y-96860486D01*
X102030836Y-96506953D01*
X103059296Y-95281282D01*
G37*
%TD.AperFunction*%
%TA.AperFunction,SMDPad,CuDef*%
%TO.P,U1,18*%
%TO.N,VCC*%
G36*
X103672132Y-95795512D02*
G01*
X104093456Y-96149045D01*
X103064996Y-97374716D01*
X102643672Y-97021183D01*
X103672132Y-95795512D01*
G37*
%TD.AperFunction*%
%TA.AperFunction,SMDPad,CuDef*%
%TO.P,U1,19*%
%TO.N,Net-(U1-Pad19)*%
G36*
X104284967Y-96309742D02*
G01*
X104706291Y-96663275D01*
X103677831Y-97888946D01*
X103256507Y-97535413D01*
X104284967Y-96309742D01*
G37*
%TD.AperFunction*%
%TA.AperFunction,SMDPad,CuDef*%
%TO.P,U1,20*%
%TO.N,Net-(U1-Pad20)*%
G36*
X104897803Y-96823972D02*
G01*
X105319127Y-97177505D01*
X104290667Y-98403176D01*
X103869343Y-98049643D01*
X104897803Y-96823972D01*
G37*
%TD.AperFunction*%
%TA.AperFunction,SMDPad,CuDef*%
%TO.P,U1,21*%
%TO.N,GND*%
G36*
X105510638Y-97338202D02*
G01*
X105931962Y-97691735D01*
X104903502Y-98917406D01*
X104482178Y-98563873D01*
X105510638Y-97338202D01*
G37*
%TD.AperFunction*%
%TA.AperFunction,SMDPad,CuDef*%
%TO.P,U1,22*%
%TO.N,Net-(U1-Pad22)*%
G36*
X106123474Y-97852432D02*
G01*
X106544798Y-98205965D01*
X105516338Y-99431636D01*
X105095014Y-99078103D01*
X106123474Y-97852432D01*
G37*
%TD.AperFunction*%
%TA.AperFunction,SMDPad,CuDef*%
%TO.P,U1,23*%
%TO.N,Net-(U1-Pad23)*%
G36*
X106736310Y-98366662D02*
G01*
X107157634Y-98720195D01*
X106129174Y-99945866D01*
X105707850Y-99592333D01*
X106736310Y-98366662D01*
G37*
%TD.AperFunction*%
%TA.AperFunction,SMDPad,CuDef*%
%TO.P,U1,24*%
%TO.N,Net-(D4-Pad4)*%
G36*
X107349145Y-98880892D02*
G01*
X107770469Y-99234425D01*
X106742009Y-100460096D01*
X106320685Y-100106563D01*
X107349145Y-98880892D01*
G37*
%TD.AperFunction*%
%TA.AperFunction,SMDPad,CuDef*%
%TO.P,U1,25*%
%TO.N,Net-(U1-Pad25)*%
G36*
X108298782Y-99188204D02*
G01*
X108652315Y-98766880D01*
X109877986Y-99795340D01*
X109524453Y-100216664D01*
X108298782Y-99188204D01*
G37*
%TD.AperFunction*%
%TA.AperFunction,SMDPad,CuDef*%
%TO.P,U1,26*%
%TO.N,Net-(U1-Pad26)*%
G36*
X108813012Y-98575368D02*
G01*
X109166545Y-98154044D01*
X110392216Y-99182504D01*
X110038683Y-99603828D01*
X108813012Y-98575368D01*
G37*
%TD.AperFunction*%
%TA.AperFunction,SMDPad,CuDef*%
%TO.P,U1,27*%
%TO.N,Net-(U1-Pad27)*%
G36*
X109327242Y-97962533D02*
G01*
X109680775Y-97541209D01*
X110906446Y-98569669D01*
X110552913Y-98990993D01*
X109327242Y-97962533D01*
G37*
%TD.AperFunction*%
%TA.AperFunction,SMDPad,CuDef*%
%TO.P,U1,28*%
%TO.N,Net-(U1-Pad28)*%
G36*
X109841472Y-97349697D02*
G01*
X110195005Y-96928373D01*
X111420676Y-97956833D01*
X111067143Y-98378157D01*
X109841472Y-97349697D01*
G37*
%TD.AperFunction*%
%TA.AperFunction,SMDPad,CuDef*%
%TO.P,U1,29*%
%TO.N,/~Reset*%
G36*
X110355702Y-96736862D02*
G01*
X110709235Y-96315538D01*
X111934906Y-97343998D01*
X111581373Y-97765322D01*
X110355702Y-96736862D01*
G37*
%TD.AperFunction*%
%TA.AperFunction,SMDPad,CuDef*%
%TO.P,U1,30*%
%TO.N,/RX*%
G36*
X110869932Y-96124026D02*
G01*
X111223465Y-95702702D01*
X112449136Y-96731162D01*
X112095603Y-97152486D01*
X110869932Y-96124026D01*
G37*
%TD.AperFunction*%
%TA.AperFunction,SMDPad,CuDef*%
%TO.P,U1,31*%
%TO.N,/TX*%
G36*
X111384162Y-95511190D02*
G01*
X111737695Y-95089866D01*
X112963366Y-96118326D01*
X112609833Y-96539650D01*
X111384162Y-95511190D01*
G37*
%TD.AperFunction*%
%TA.AperFunction,SMDPad,CuDef*%
%TO.P,U1,32*%
%TO.N,Net-(U1-Pad32)*%
G36*
X111898392Y-94898355D02*
G01*
X112251925Y-94477031D01*
X113477596Y-95505491D01*
X113124063Y-95926815D01*
X111898392Y-94898355D01*
G37*
%TD.AperFunction*%
%TD*%
D23*
%TO.P,D1,1*%
%TO.N,VCC*%
X99898744Y-140610047D03*
%TO.P,D1,2*%
%TO.N,Net-(D1-Pad2)*%
X103098744Y-140610047D03*
%TO.P,D1,4*%
%TO.N,Net-(D1-Pad4)*%
X99898744Y-135710047D03*
%TO.P,D1,3*%
%TO.N,GND*%
X103098744Y-135710047D03*
%TD*%
%TO.P,D2,3*%
%TO.N,GND*%
X99923744Y-124915046D03*
%TO.P,D2,4*%
%TO.N,Net-(D11-Pad2)*%
X96723744Y-124915046D03*
%TO.P,D2,2*%
%TO.N,Net-(D2-Pad2)*%
X99923744Y-129815046D03*
%TO.P,D2,1*%
%TO.N,VCC*%
X96723744Y-129815046D03*
%TD*%
%TO.P,D3,1*%
%TO.N,VCC*%
X94183745Y-120925046D03*
%TO.P,D3,2*%
%TO.N,Net-(D3-Pad2)*%
X97383745Y-120925046D03*
%TO.P,D3,4*%
%TO.N,Net-(D12-Pad2)*%
X94183745Y-116025046D03*
%TO.P,D3,3*%
%TO.N,GND*%
X97383745Y-116025046D03*
%TD*%
%TO.P,D4,3*%
%TO.N,GND*%
X98653744Y-107135047D03*
%TO.P,D4,4*%
%TO.N,Net-(D4-Pad4)*%
X95453744Y-107135047D03*
%TO.P,D4,2*%
%TO.N,Net-(D4-Pad2)*%
X98653744Y-112035047D03*
%TO.P,D4,1*%
%TO.N,VCC*%
X95453744Y-112035047D03*
%TD*%
%TO.P,D5,3*%
%TO.N,GND*%
X106273743Y-143330046D03*
%TO.P,D5,4*%
%TO.N,Net-(D1-Pad2)*%
X103073743Y-143330046D03*
%TO.P,D5,2*%
%TO.N,Net-(D5-Pad2)*%
X106273743Y-148230046D03*
%TO.P,D5,1*%
%TO.N,VCC*%
X103073743Y-148230046D03*
%TD*%
%TO.P,D6,1*%
%TO.N,VCC*%
X103073745Y-131720046D03*
%TO.P,D6,2*%
%TO.N,Net-(D10-Pad4)*%
X106273745Y-131720046D03*
%TO.P,D6,4*%
%TO.N,Net-(D2-Pad2)*%
X103073745Y-126820046D03*
%TO.P,D6,3*%
%TO.N,GND*%
X106273745Y-126820046D03*
%TD*%
%TO.P,D7,3*%
%TO.N,GND*%
X106273743Y-116660046D03*
%TO.P,D7,4*%
%TO.N,Net-(D3-Pad2)*%
X103073743Y-116660046D03*
%TO.P,D7,2*%
%TO.N,Net-(D11-Pad4)*%
X106273743Y-121560046D03*
%TO.P,D7,1*%
%TO.N,VCC*%
X103073743Y-121560046D03*
%TD*%
%TO.P,D8,1*%
%TO.N,VCC*%
X103149944Y-108237747D03*
%TO.P,D8,2*%
%TO.N,Net-(D12-Pad4)*%
X106349944Y-108237747D03*
%TO.P,D8,4*%
%TO.N,Net-(D4-Pad2)*%
X103149944Y-103337747D03*
%TO.P,D8,3*%
%TO.N,GND*%
X106349944Y-103337747D03*
%TD*%
%TO.P,D9,1*%
%TO.N,VCC*%
X106248744Y-140610046D03*
%TO.P,D9,2*%
%TO.N,Net-(D16-Pad4)*%
X109448744Y-140610046D03*
%TO.P,D9,4*%
%TO.N,Net-(D5-Pad2)*%
X106248744Y-135710046D03*
%TO.P,D9,3*%
%TO.N,GND*%
X109448744Y-135710046D03*
%TD*%
%TO.P,D10,3*%
%TO.N,GND*%
X112623745Y-124915046D03*
%TO.P,D10,4*%
%TO.N,Net-(D10-Pad4)*%
X109423745Y-124915046D03*
%TO.P,D10,2*%
%TO.N,Net-(D1-Pad4)*%
X112623745Y-129815046D03*
%TO.P,D10,1*%
%TO.N,VCC*%
X109423745Y-129815046D03*
%TD*%
%TO.P,D11,1*%
%TO.N,VCC*%
X111963744Y-120925046D03*
%TO.P,D11,2*%
%TO.N,Net-(D11-Pad2)*%
X115163744Y-120925046D03*
%TO.P,D11,4*%
%TO.N,Net-(D11-Pad4)*%
X111963744Y-116025046D03*
%TO.P,D11,3*%
%TO.N,GND*%
X115163744Y-116025046D03*
%TD*%
%TO.P,D12,3*%
%TO.N,GND*%
X113893744Y-107135046D03*
%TO.P,D12,4*%
%TO.N,Net-(D12-Pad4)*%
X110693744Y-107135046D03*
%TO.P,D12,2*%
%TO.N,Net-(D12-Pad2)*%
X113893744Y-112035046D03*
%TO.P,D12,1*%
%TO.N,VCC*%
X110693744Y-112035046D03*
%TD*%
%TA.AperFunction,SMDPad,CuDef*%
D18*
%TO.P,D13,3*%
%TO.N,GND*%
G36*
X60903875Y-103945737D02*
G01*
X60594858Y-102994680D01*
X62021443Y-102531155D01*
X62330460Y-103482212D01*
X60903875Y-103945737D01*
G37*
%TD.AperFunction*%
%TA.AperFunction,SMDPad,CuDef*%
%TO.P,D13,4*%
%TO.N,Net-(D13-Pad4)*%
G36*
X59915020Y-100902356D02*
G01*
X59606003Y-99951299D01*
X61032588Y-99487774D01*
X61341605Y-100438831D01*
X59915020Y-100902356D01*
G37*
%TD.AperFunction*%
%TA.AperFunction,SMDPad,CuDef*%
%TO.P,D13,2*%
%TO.N,Net-(D13-Pad2)*%
G36*
X56243698Y-105459920D02*
G01*
X55934681Y-104508863D01*
X57361266Y-104045338D01*
X57670283Y-104996395D01*
X56243698Y-105459920D01*
G37*
%TD.AperFunction*%
%TA.AperFunction,SMDPad,CuDef*%
%TO.P,D13,1*%
%TO.N,VCC*%
G36*
X55254843Y-102416539D02*
G01*
X54945826Y-101465482D01*
X56372411Y-101001957D01*
X56681428Y-101953014D01*
X55254843Y-102416539D01*
G37*
%TD.AperFunction*%
%TD*%
%TA.AperFunction,SMDPad,CuDef*%
%TO.P,D14,1*%
%TO.N,VCC*%
G36*
X64544844Y-96056538D02*
G01*
X64235827Y-95105481D01*
X65662412Y-94641956D01*
X65971429Y-95593013D01*
X64544844Y-96056538D01*
G37*
%TD.AperFunction*%
%TA.AperFunction,SMDPad,CuDef*%
%TO.P,D14,2*%
%TO.N,Net-(D14-Pad2)*%
G36*
X65533699Y-99099919D02*
G01*
X65224682Y-98148862D01*
X66651267Y-97685337D01*
X66960284Y-98636394D01*
X65533699Y-99099919D01*
G37*
%TD.AperFunction*%
%TA.AperFunction,SMDPad,CuDef*%
%TO.P,D14,4*%
%TO.N,Net-(D14-Pad4)*%
G36*
X69205021Y-94542355D02*
G01*
X68896004Y-93591298D01*
X70322589Y-93127773D01*
X70631606Y-94078830D01*
X69205021Y-94542355D01*
G37*
%TD.AperFunction*%
%TA.AperFunction,SMDPad,CuDef*%
%TO.P,D14,3*%
%TO.N,GND*%
G36*
X70193876Y-97585736D02*
G01*
X69884859Y-96634679D01*
X71311444Y-96171154D01*
X71620461Y-97122211D01*
X70193876Y-97585736D01*
G37*
%TD.AperFunction*%
%TD*%
%TA.AperFunction,SMDPad,CuDef*%
%TO.P,D15,3*%
%TO.N,GND*%
G36*
X77863875Y-92425737D02*
G01*
X77554858Y-91474680D01*
X78981443Y-91011155D01*
X79290460Y-91962212D01*
X77863875Y-92425737D01*
G37*
%TD.AperFunction*%
%TA.AperFunction,SMDPad,CuDef*%
%TO.P,D15,4*%
%TO.N,Net-(D15-Pad4)*%
G36*
X76875020Y-89382356D02*
G01*
X76566003Y-88431299D01*
X77992588Y-87967774D01*
X78301605Y-88918831D01*
X76875020Y-89382356D01*
G37*
%TD.AperFunction*%
%TA.AperFunction,SMDPad,CuDef*%
%TO.P,D15,2*%
%TO.N,Net-(D15-Pad2)*%
G36*
X73203698Y-93939920D02*
G01*
X72894681Y-92988863D01*
X74321266Y-92525338D01*
X74630283Y-93476395D01*
X73203698Y-93939920D01*
G37*
%TD.AperFunction*%
%TA.AperFunction,SMDPad,CuDef*%
%TO.P,D15,1*%
%TO.N,VCC*%
G36*
X72214843Y-90896539D02*
G01*
X71905826Y-89945482D01*
X73332411Y-89481957D01*
X73641428Y-90433014D01*
X72214843Y-90896539D01*
G37*
%TD.AperFunction*%
%TD*%
%TA.AperFunction,SMDPad,CuDef*%
%TO.P,D16,1*%
%TO.N,VCC*%
G36*
X81054843Y-89356538D02*
G01*
X80745826Y-88405481D01*
X82172411Y-87941956D01*
X82481428Y-88893013D01*
X81054843Y-89356538D01*
G37*
%TD.AperFunction*%
%TA.AperFunction,SMDPad,CuDef*%
%TO.P,D16,2*%
%TO.N,Net-(D16-Pad2)*%
G36*
X82043698Y-92399919D02*
G01*
X81734681Y-91448862D01*
X83161266Y-90985337D01*
X83470283Y-91936394D01*
X82043698Y-92399919D01*
G37*
%TD.AperFunction*%
%TA.AperFunction,SMDPad,CuDef*%
%TO.P,D16,4*%
%TO.N,Net-(D16-Pad4)*%
G36*
X85715020Y-87842355D02*
G01*
X85406003Y-86891298D01*
X86832588Y-86427773D01*
X87141605Y-87378830D01*
X85715020Y-87842355D01*
G37*
%TD.AperFunction*%
%TA.AperFunction,SMDPad,CuDef*%
%TO.P,D16,3*%
%TO.N,GND*%
G36*
X86703875Y-90885736D02*
G01*
X86394858Y-89934679D01*
X87821443Y-89471154D01*
X88130460Y-90422211D01*
X86703875Y-90885736D01*
G37*
%TD.AperFunction*%
%TD*%
%TA.AperFunction,SMDPad,CuDef*%
%TO.P,D17,1*%
%TO.N,VCC*%
G36*
X48994843Y-107786539D02*
G01*
X48685826Y-106835482D01*
X50112411Y-106371957D01*
X50421428Y-107323014D01*
X48994843Y-107786539D01*
G37*
%TD.AperFunction*%
%TA.AperFunction,SMDPad,CuDef*%
%TO.P,D17,2*%
%TO.N,Net-(D17-Pad2)*%
G36*
X49983698Y-110829920D02*
G01*
X49674681Y-109878863D01*
X51101266Y-109415338D01*
X51410283Y-110366395D01*
X49983698Y-110829920D01*
G37*
%TD.AperFunction*%
%TA.AperFunction,SMDPad,CuDef*%
%TO.P,D17,4*%
%TO.N,Net-(D13-Pad2)*%
G36*
X53655020Y-106272356D02*
G01*
X53346003Y-105321299D01*
X54772588Y-104857774D01*
X55081605Y-105808831D01*
X53655020Y-106272356D01*
G37*
%TD.AperFunction*%
%TA.AperFunction,SMDPad,CuDef*%
%TO.P,D17,3*%
%TO.N,GND*%
G36*
X54643875Y-109315737D02*
G01*
X54334858Y-108364680D01*
X55761443Y-107901155D01*
X56070460Y-108852212D01*
X54643875Y-109315737D01*
G37*
%TD.AperFunction*%
%TD*%
%TA.AperFunction,SMDPad,CuDef*%
%TO.P,D18,3*%
%TO.N,GND*%
G36*
X70343875Y-104215736D02*
G01*
X70034858Y-103264679D01*
X71461443Y-102801154D01*
X71770460Y-103752211D01*
X70343875Y-104215736D01*
G37*
%TD.AperFunction*%
%TA.AperFunction,SMDPad,CuDef*%
%TO.P,D18,4*%
%TO.N,Net-(D14-Pad2)*%
G36*
X69355020Y-101172355D02*
G01*
X69046003Y-100221298D01*
X70472588Y-99757773D01*
X70781605Y-100708830D01*
X69355020Y-101172355D01*
G37*
%TD.AperFunction*%
%TA.AperFunction,SMDPad,CuDef*%
%TO.P,D18,2*%
%TO.N,Net-(D18-Pad2)*%
G36*
X65683698Y-105729919D02*
G01*
X65374681Y-104778862D01*
X66801266Y-104315337D01*
X67110283Y-105266394D01*
X65683698Y-105729919D01*
G37*
%TD.AperFunction*%
%TA.AperFunction,SMDPad,CuDef*%
%TO.P,D18,1*%
%TO.N,VCC*%
G36*
X64694843Y-102686538D02*
G01*
X64385826Y-101735481D01*
X65812411Y-101271956D01*
X66121428Y-102223013D01*
X64694843Y-102686538D01*
G37*
%TD.AperFunction*%
%TD*%
%TA.AperFunction,SMDPad,CuDef*%
%TO.P,D19,1*%
%TO.N,VCC*%
G36*
X74354845Y-99546538D02*
G01*
X74045828Y-98595481D01*
X75472413Y-98131956D01*
X75781430Y-99083013D01*
X74354845Y-99546538D01*
G37*
%TD.AperFunction*%
%TA.AperFunction,SMDPad,CuDef*%
%TO.P,D19,2*%
%TO.N,Net-(D19-Pad2)*%
G36*
X75343700Y-102589919D02*
G01*
X75034683Y-101638862D01*
X76461268Y-101175337D01*
X76770285Y-102126394D01*
X75343700Y-102589919D01*
G37*
%TD.AperFunction*%
%TA.AperFunction,SMDPad,CuDef*%
%TO.P,D19,4*%
%TO.N,Net-(D15-Pad2)*%
G36*
X79015022Y-98032355D02*
G01*
X78706005Y-97081298D01*
X80132590Y-96617773D01*
X80441607Y-97568830D01*
X79015022Y-98032355D01*
G37*
%TD.AperFunction*%
%TA.AperFunction,SMDPad,CuDef*%
%TO.P,D19,3*%
%TO.N,GND*%
G36*
X80003877Y-101075736D02*
G01*
X79694860Y-100124679D01*
X81121445Y-99661154D01*
X81430462Y-100612211D01*
X80003877Y-101075736D01*
G37*
%TD.AperFunction*%
%TD*%
%TA.AperFunction,SMDPad,CuDef*%
%TO.P,D20,3*%
%TO.N,GND*%
G36*
X92664676Y-96845635D02*
G01*
X92355659Y-95894578D01*
X93782244Y-95431053D01*
X94091261Y-96382110D01*
X92664676Y-96845635D01*
G37*
%TD.AperFunction*%
%TA.AperFunction,SMDPad,CuDef*%
%TO.P,D20,4*%
%TO.N,Net-(D16-Pad2)*%
G36*
X91675821Y-93802254D02*
G01*
X91366804Y-92851197D01*
X92793389Y-92387672D01*
X93102406Y-93338729D01*
X91675821Y-93802254D01*
G37*
%TD.AperFunction*%
%TA.AperFunction,SMDPad,CuDef*%
%TO.P,D20,2*%
%TO.N,Net-(D20-Pad2)*%
G36*
X88004499Y-98359818D02*
G01*
X87695482Y-97408761D01*
X89122067Y-96945236D01*
X89431084Y-97896293D01*
X88004499Y-98359818D01*
G37*
%TD.AperFunction*%
%TA.AperFunction,SMDPad,CuDef*%
%TO.P,D20,1*%
%TO.N,VCC*%
G36*
X87015644Y-95316437D02*
G01*
X86706627Y-94365380D01*
X88133212Y-93901855D01*
X88442229Y-94852912D01*
X87015644Y-95316437D01*
G37*
%TD.AperFunction*%
%TD*%
%TA.AperFunction,SMDPad,CuDef*%
%TO.P,D21,3*%
%TO.N,GND*%
G36*
X62863875Y-109985737D02*
G01*
X62554858Y-109034680D01*
X63981443Y-108571155D01*
X64290460Y-109522212D01*
X62863875Y-109985737D01*
G37*
%TD.AperFunction*%
%TA.AperFunction,SMDPad,CuDef*%
%TO.P,D21,4*%
%TO.N,Net-(D17-Pad2)*%
G36*
X61875020Y-106942356D02*
G01*
X61566003Y-105991299D01*
X62992588Y-105527774D01*
X63301605Y-106478831D01*
X61875020Y-106942356D01*
G37*
%TD.AperFunction*%
%TA.AperFunction,SMDPad,CuDef*%
%TO.P,D21,2*%
%TO.N,Net-(D21-Pad2)*%
G36*
X58203698Y-111499920D02*
G01*
X57894681Y-110548863D01*
X59321266Y-110085338D01*
X59630283Y-111036395D01*
X58203698Y-111499920D01*
G37*
%TD.AperFunction*%
%TA.AperFunction,SMDPad,CuDef*%
%TO.P,D21,1*%
%TO.N,VCC*%
G36*
X57214843Y-108456539D02*
G01*
X56905826Y-107505482D01*
X58332411Y-107041957D01*
X58641428Y-107993014D01*
X57214843Y-108456539D01*
G37*
%TD.AperFunction*%
%TD*%
%TA.AperFunction,SMDPad,CuDef*%
%TO.P,D22,1*%
%TO.N,VCC*%
G36*
X68464843Y-108136538D02*
G01*
X68155826Y-107185481D01*
X69582411Y-106721956D01*
X69891428Y-107673013D01*
X68464843Y-108136538D01*
G37*
%TD.AperFunction*%
%TA.AperFunction,SMDPad,CuDef*%
%TO.P,D22,2*%
%TO.N,Net-(D13-Pad4)*%
G36*
X69453698Y-111179919D02*
G01*
X69144681Y-110228862D01*
X70571266Y-109765337D01*
X70880283Y-110716394D01*
X69453698Y-111179919D01*
G37*
%TD.AperFunction*%
%TA.AperFunction,SMDPad,CuDef*%
%TO.P,D22,4*%
%TO.N,Net-(D18-Pad2)*%
G36*
X73125020Y-106622355D02*
G01*
X72816003Y-105671298D01*
X74242588Y-105207773D01*
X74551605Y-106158830D01*
X73125020Y-106622355D01*
G37*
%TD.AperFunction*%
%TA.AperFunction,SMDPad,CuDef*%
%TO.P,D22,3*%
%TO.N,GND*%
G36*
X74113875Y-109665736D02*
G01*
X73804858Y-108714679D01*
X75231443Y-108251154D01*
X75540460Y-109202211D01*
X74113875Y-109665736D01*
G37*
%TD.AperFunction*%
%TD*%
%TA.AperFunction,SMDPad,CuDef*%
%TO.P,D23,3*%
%TO.N,GND*%
G36*
X83353877Y-109335737D02*
G01*
X83044860Y-108384680D01*
X84471445Y-107921155D01*
X84780462Y-108872212D01*
X83353877Y-109335737D01*
G37*
%TD.AperFunction*%
%TA.AperFunction,SMDPad,CuDef*%
%TO.P,D23,4*%
%TO.N,Net-(D19-Pad2)*%
G36*
X82365022Y-106292356D02*
G01*
X82056005Y-105341299D01*
X83482590Y-104877774D01*
X83791607Y-105828831D01*
X82365022Y-106292356D01*
G37*
%TD.AperFunction*%
%TA.AperFunction,SMDPad,CuDef*%
%TO.P,D23,2*%
%TO.N,Net-(D14-Pad4)*%
G36*
X78693700Y-110849920D02*
G01*
X78384683Y-109898863D01*
X79811268Y-109435338D01*
X80120285Y-110386395D01*
X78693700Y-110849920D01*
G37*
%TD.AperFunction*%
%TA.AperFunction,SMDPad,CuDef*%
%TO.P,D23,1*%
%TO.N,VCC*%
G36*
X77704845Y-107806539D02*
G01*
X77395828Y-106855482D01*
X78822413Y-106391957D01*
X79131430Y-107343014D01*
X77704845Y-107806539D01*
G37*
%TD.AperFunction*%
%TD*%
%TA.AperFunction,SMDPad,CuDef*%
%TO.P,D24,1*%
%TO.N,VCC*%
G36*
X85764843Y-103846538D02*
G01*
X85455826Y-102895481D01*
X86882411Y-102431956D01*
X87191428Y-103383013D01*
X85764843Y-103846538D01*
G37*
%TD.AperFunction*%
%TA.AperFunction,SMDPad,CuDef*%
%TO.P,D24,2*%
%TO.N,Net-(D15-Pad4)*%
G36*
X86753698Y-106889919D02*
G01*
X86444681Y-105938862D01*
X87871266Y-105475337D01*
X88180283Y-106426394D01*
X86753698Y-106889919D01*
G37*
%TD.AperFunction*%
%TA.AperFunction,SMDPad,CuDef*%
%TO.P,D24,4*%
%TO.N,Net-(D20-Pad2)*%
G36*
X90425020Y-102332355D02*
G01*
X90116003Y-101381298D01*
X91542588Y-100917773D01*
X91851605Y-101868830D01*
X90425020Y-102332355D01*
G37*
%TD.AperFunction*%
%TA.AperFunction,SMDPad,CuDef*%
%TO.P,D24,3*%
%TO.N,GND*%
G36*
X91413875Y-105375736D02*
G01*
X91104858Y-104424679D01*
X92531443Y-103961154D01*
X92840460Y-104912211D01*
X91413875Y-105375736D01*
G37*
%TD.AperFunction*%
%TD*%
%TA.AperFunction,SMDPad,CuDef*%
%TO.P,D25,1*%
%TO.N,VCC*%
G36*
X78270250Y-47087429D02*
G01*
X79079267Y-46499644D01*
X79960944Y-47713169D01*
X79151927Y-48300954D01*
X78270250Y-47087429D01*
G37*
%TD.AperFunction*%
%TA.AperFunction,SMDPad,CuDef*%
%TO.P,D25,2*%
%TO.N,Net-(D25-Pad2)*%
G36*
X75681396Y-48968342D02*
G01*
X76490413Y-48380557D01*
X77372090Y-49594082D01*
X76563073Y-50181867D01*
X75681396Y-48968342D01*
G37*
%TD.AperFunction*%
%TA.AperFunction,SMDPad,CuDef*%
%TO.P,D25,4*%
%TO.N,Net-(D25-Pad4)*%
G36*
X81150398Y-51051612D02*
G01*
X81959415Y-50463827D01*
X82841092Y-51677352D01*
X82032075Y-52265137D01*
X81150398Y-51051612D01*
G37*
%TD.AperFunction*%
%TA.AperFunction,SMDPad,CuDef*%
%TO.P,D25,3*%
%TO.N,GND*%
G36*
X78561544Y-52932525D02*
G01*
X79370561Y-52344740D01*
X80252238Y-53558265D01*
X79443221Y-54146050D01*
X78561544Y-52932525D01*
G37*
%TD.AperFunction*%
%TD*%
%TA.AperFunction,SMDPad,CuDef*%
%TO.P,D26,3*%
%TO.N,GND*%
G36*
X87481544Y-59792525D02*
G01*
X88290561Y-59204740D01*
X89172238Y-60418265D01*
X88363221Y-61006050D01*
X87481544Y-59792525D01*
G37*
%TD.AperFunction*%
%TA.AperFunction,SMDPad,CuDef*%
%TO.P,D26,4*%
%TO.N,Net-(D26-Pad4)*%
G36*
X90070398Y-57911612D02*
G01*
X90879415Y-57323827D01*
X91761092Y-58537352D01*
X90952075Y-59125137D01*
X90070398Y-57911612D01*
G37*
%TD.AperFunction*%
%TA.AperFunction,SMDPad,CuDef*%
%TO.P,D26,2*%
%TO.N,Net-(D26-Pad2)*%
G36*
X84601396Y-55828342D02*
G01*
X85410413Y-55240557D01*
X86292090Y-56454082D01*
X85483073Y-57041867D01*
X84601396Y-55828342D01*
G37*
%TD.AperFunction*%
%TA.AperFunction,SMDPad,CuDef*%
%TO.P,D26,1*%
%TO.N,VCC*%
G36*
X87190250Y-53947429D02*
G01*
X87999267Y-53359644D01*
X88880944Y-54573169D01*
X88071927Y-55160954D01*
X87190250Y-53947429D01*
G37*
%TD.AperFunction*%
%TD*%
%TA.AperFunction,SMDPad,CuDef*%
%TO.P,D27,1*%
%TO.N,VCC*%
G36*
X94470250Y-59647428D02*
G01*
X95279267Y-59059643D01*
X96160944Y-60273168D01*
X95351927Y-60860953D01*
X94470250Y-59647428D01*
G37*
%TD.AperFunction*%
%TA.AperFunction,SMDPad,CuDef*%
%TO.P,D27,2*%
%TO.N,Net-(D27-Pad2)*%
G36*
X91881396Y-61528341D02*
G01*
X92690413Y-60940556D01*
X93572090Y-62154081D01*
X92763073Y-62741866D01*
X91881396Y-61528341D01*
G37*
%TD.AperFunction*%
%TA.AperFunction,SMDPad,CuDef*%
%TO.P,D27,4*%
%TO.N,Net-(D27-Pad4)*%
G36*
X97350398Y-63611611D02*
G01*
X98159415Y-63023826D01*
X99041092Y-64237351D01*
X98232075Y-64825136D01*
X97350398Y-63611611D01*
G37*
%TD.AperFunction*%
%TA.AperFunction,SMDPad,CuDef*%
%TO.P,D27,3*%
%TO.N,GND*%
G36*
X94761544Y-65492524D02*
G01*
X95570561Y-64904739D01*
X96452238Y-66118264D01*
X95643221Y-66706049D01*
X94761544Y-65492524D01*
G37*
%TD.AperFunction*%
%TD*%
%TA.AperFunction,SMDPad,CuDef*%
%TO.P,D28,1*%
%TO.N,VCC*%
G36*
X98670250Y-67587428D02*
G01*
X99479267Y-66999643D01*
X100360944Y-68213168D01*
X99551927Y-68800953D01*
X98670250Y-67587428D01*
G37*
%TD.AperFunction*%
%TA.AperFunction,SMDPad,CuDef*%
%TO.P,D28,2*%
%TO.N,Net-(D28-Pad2)*%
G36*
X96081396Y-69468341D02*
G01*
X96890413Y-68880556D01*
X97772090Y-70094081D01*
X96963073Y-70681866D01*
X96081396Y-69468341D01*
G37*
%TD.AperFunction*%
%TA.AperFunction,SMDPad,CuDef*%
%TO.P,D28,4*%
%TO.N,Net-(D21-Pad2)*%
G36*
X101550398Y-71551611D02*
G01*
X102359415Y-70963826D01*
X103241092Y-72177351D01*
X102432075Y-72765136D01*
X101550398Y-71551611D01*
G37*
%TD.AperFunction*%
%TA.AperFunction,SMDPad,CuDef*%
%TO.P,D28,3*%
%TO.N,GND*%
G36*
X98961544Y-73432524D02*
G01*
X99770561Y-72844739D01*
X100652238Y-74058264D01*
X99843221Y-74646049D01*
X98961544Y-73432524D01*
G37*
%TD.AperFunction*%
%TD*%
%TA.AperFunction,SMDPad,CuDef*%
%TO.P,D29,3*%
%TO.N,GND*%
G36*
X71521543Y-48632525D02*
G01*
X72330560Y-48044740D01*
X73212237Y-49258265D01*
X72403220Y-49846050D01*
X71521543Y-48632525D01*
G37*
%TD.AperFunction*%
%TA.AperFunction,SMDPad,CuDef*%
%TO.P,D29,4*%
%TO.N,Net-(D25-Pad2)*%
G36*
X74110397Y-46751612D02*
G01*
X74919414Y-46163827D01*
X75801091Y-47377352D01*
X74992074Y-47965137D01*
X74110397Y-46751612D01*
G37*
%TD.AperFunction*%
%TA.AperFunction,SMDPad,CuDef*%
%TO.P,D29,2*%
%TO.N,Net-(D29-Pad2)*%
G36*
X68641395Y-44668342D02*
G01*
X69450412Y-44080557D01*
X70332089Y-45294082D01*
X69523072Y-45881867D01*
X68641395Y-44668342D01*
G37*
%TD.AperFunction*%
%TA.AperFunction,SMDPad,CuDef*%
%TO.P,D29,1*%
%TO.N,VCC*%
G36*
X71230249Y-42787429D02*
G01*
X72039266Y-42199644D01*
X72920943Y-43413169D01*
X72111926Y-44000954D01*
X71230249Y-42787429D01*
G37*
%TD.AperFunction*%
%TD*%
%TA.AperFunction,SMDPad,CuDef*%
%TO.P,D31,3*%
%TO.N,GND*%
G36*
X87191543Y-70212525D02*
G01*
X88000560Y-69624740D01*
X88882237Y-70838265D01*
X88073220Y-71426050D01*
X87191543Y-70212525D01*
G37*
%TD.AperFunction*%
%TA.AperFunction,SMDPad,CuDef*%
%TO.P,D31,4*%
%TO.N,Net-(D27-Pad2)*%
G36*
X89780397Y-68331612D02*
G01*
X90589414Y-67743827D01*
X91471091Y-68957352D01*
X90662074Y-69545137D01*
X89780397Y-68331612D01*
G37*
%TD.AperFunction*%
%TA.AperFunction,SMDPad,CuDef*%
%TO.P,D31,2*%
%TO.N,Net-(D31-Pad2)*%
G36*
X84311395Y-66248342D02*
G01*
X85120412Y-65660557D01*
X86002089Y-66874082D01*
X85193072Y-67461867D01*
X84311395Y-66248342D01*
G37*
%TD.AperFunction*%
%TA.AperFunction,SMDPad,CuDef*%
%TO.P,D31,1*%
%TO.N,VCC*%
G36*
X86900249Y-64367429D02*
G01*
X87709266Y-63779644D01*
X88590943Y-64993169D01*
X87781926Y-65580954D01*
X86900249Y-64367429D01*
G37*
%TD.AperFunction*%
%TD*%
%TA.AperFunction,SMDPad,CuDef*%
%TO.P,D32,1*%
%TO.N,VCC*%
G36*
X94868949Y-75247329D02*
G01*
X95677966Y-74659544D01*
X96559643Y-75873069D01*
X95750626Y-76460854D01*
X94868949Y-75247329D01*
G37*
%TD.AperFunction*%
%TA.AperFunction,SMDPad,CuDef*%
%TO.P,D32,2*%
%TO.N,Net-(D32-Pad2)*%
G36*
X92280095Y-77128242D02*
G01*
X93089112Y-76540457D01*
X93970789Y-77753982D01*
X93161772Y-78341767D01*
X92280095Y-77128242D01*
G37*
%TD.AperFunction*%
%TA.AperFunction,SMDPad,CuDef*%
%TO.P,D32,4*%
%TO.N,Net-(D28-Pad2)*%
G36*
X97749097Y-79211512D02*
G01*
X98558114Y-78623727D01*
X99439791Y-79837252D01*
X98630774Y-80425037D01*
X97749097Y-79211512D01*
G37*
%TD.AperFunction*%
%TA.AperFunction,SMDPad,CuDef*%
%TO.P,D32,3*%
%TO.N,GND*%
G36*
X95160243Y-81092425D02*
G01*
X95969260Y-80504640D01*
X96850937Y-81718165D01*
X96041920Y-82305950D01*
X95160243Y-81092425D01*
G37*
%TD.AperFunction*%
%TD*%
%TA.AperFunction,SMDPad,CuDef*%
%TO.P,D33,3*%
%TO.N,GND*%
G36*
X73431545Y-56662524D02*
G01*
X74240562Y-56074739D01*
X75122239Y-57288264D01*
X74313222Y-57876049D01*
X73431545Y-56662524D01*
G37*
%TD.AperFunction*%
%TA.AperFunction,SMDPad,CuDef*%
%TO.P,D33,4*%
%TO.N,Net-(D29-Pad2)*%
G36*
X76020399Y-54781611D02*
G01*
X76829416Y-54193826D01*
X77711093Y-55407351D01*
X76902076Y-55995136D01*
X76020399Y-54781611D01*
G37*
%TD.AperFunction*%
%TA.AperFunction,SMDPad,CuDef*%
%TO.P,D33,2*%
%TO.N,Net-(D33-Pad2)*%
G36*
X70551397Y-52698341D02*
G01*
X71360414Y-52110556D01*
X72242091Y-53324081D01*
X71433074Y-53911866D01*
X70551397Y-52698341D01*
G37*
%TD.AperFunction*%
%TA.AperFunction,SMDPad,CuDef*%
%TO.P,D33,1*%
%TO.N,VCC*%
G36*
X73140251Y-50817428D02*
G01*
X73949268Y-50229643D01*
X74830945Y-51443168D01*
X74021928Y-52030953D01*
X73140251Y-50817428D01*
G37*
%TD.AperFunction*%
%TD*%
%TA.AperFunction,SMDPad,CuDef*%
%TO.P,D34,1*%
%TO.N,VCC*%
G36*
X76910249Y-61417428D02*
G01*
X77719266Y-60829643D01*
X78600943Y-62043168D01*
X77791926Y-62630953D01*
X76910249Y-61417428D01*
G37*
%TD.AperFunction*%
%TA.AperFunction,SMDPad,CuDef*%
%TO.P,D34,2*%
%TO.N,Net-(D25-Pad4)*%
G36*
X74321395Y-63298341D02*
G01*
X75130412Y-62710556D01*
X76012089Y-63924081D01*
X75203072Y-64511866D01*
X74321395Y-63298341D01*
G37*
%TD.AperFunction*%
%TA.AperFunction,SMDPad,CuDef*%
%TO.P,D34,4*%
%TO.N,Net-(D30-Pad2)*%
G36*
X79790397Y-65381611D02*
G01*
X80599414Y-64793826D01*
X81481091Y-66007351D01*
X80672074Y-66595136D01*
X79790397Y-65381611D01*
G37*
%TD.AperFunction*%
%TA.AperFunction,SMDPad,CuDef*%
%TO.P,D34,3*%
%TO.N,GND*%
G36*
X77201543Y-67262524D02*
G01*
X78010560Y-66674739D01*
X78892237Y-67888264D01*
X78083220Y-68476049D01*
X77201543Y-67262524D01*
G37*
%TD.AperFunction*%
%TD*%
%TA.AperFunction,SMDPad,CuDef*%
%TO.P,D35,3*%
%TO.N,GND*%
G36*
X80371543Y-75942525D02*
G01*
X81180560Y-75354740D01*
X82062237Y-76568265D01*
X81253220Y-77156050D01*
X80371543Y-75942525D01*
G37*
%TD.AperFunction*%
%TA.AperFunction,SMDPad,CuDef*%
%TO.P,D35,4*%
%TO.N,Net-(D31-Pad2)*%
G36*
X82960397Y-74061612D02*
G01*
X83769414Y-73473827D01*
X84651091Y-74687352D01*
X83842074Y-75275137D01*
X82960397Y-74061612D01*
G37*
%TD.AperFunction*%
%TA.AperFunction,SMDPad,CuDef*%
%TO.P,D35,2*%
%TO.N,Net-(D26-Pad4)*%
G36*
X77491395Y-71978342D02*
G01*
X78300412Y-71390557D01*
X79182089Y-72604082D01*
X78373072Y-73191867D01*
X77491395Y-71978342D01*
G37*
%TD.AperFunction*%
%TA.AperFunction,SMDPad,CuDef*%
%TO.P,D35,1*%
%TO.N,VCC*%
G36*
X80080249Y-70097429D02*
G01*
X80889266Y-69509644D01*
X81770943Y-70723169D01*
X80961926Y-71310954D01*
X80080249Y-70097429D01*
G37*
%TD.AperFunction*%
%TD*%
%TA.AperFunction,SMDPad,CuDef*%
%TO.P,D36,1*%
%TO.N,VCC*%
G36*
X86340250Y-76547428D02*
G01*
X87149267Y-75959643D01*
X88030944Y-77173168D01*
X87221927Y-77760953D01*
X86340250Y-76547428D01*
G37*
%TD.AperFunction*%
%TA.AperFunction,SMDPad,CuDef*%
%TO.P,D36,2*%
%TO.N,Net-(D27-Pad4)*%
G36*
X83751396Y-78428341D02*
G01*
X84560413Y-77840556D01*
X85442090Y-79054081D01*
X84633073Y-79641866D01*
X83751396Y-78428341D01*
G37*
%TD.AperFunction*%
%TA.AperFunction,SMDPad,CuDef*%
%TO.P,D36,4*%
%TO.N,Net-(D32-Pad2)*%
G36*
X89220398Y-80511611D02*
G01*
X90029415Y-79923826D01*
X90911092Y-81137351D01*
X90102075Y-81725136D01*
X89220398Y-80511611D01*
G37*
%TD.AperFunction*%
%TA.AperFunction,SMDPad,CuDef*%
%TO.P,D36,3*%
%TO.N,GND*%
G36*
X86631544Y-82392524D02*
G01*
X87440561Y-81804739D01*
X88322238Y-83018264D01*
X87513221Y-83606049D01*
X86631544Y-82392524D01*
G37*
%TD.AperFunction*%
%TD*%
%TA.AperFunction,SMDPad,CuDef*%
%TO.P,D37,3*%
%TO.N,GND*%
G36*
X132695872Y-54270025D02*
G01*
X133504889Y-54857810D01*
X132623212Y-56071335D01*
X131814195Y-55483550D01*
X132695872Y-54270025D01*
G37*
%TD.AperFunction*%
%TA.AperFunction,SMDPad,CuDef*%
%TO.P,D37,4*%
%TO.N,Net-(D37-Pad4)*%
G36*
X135284726Y-56150938D02*
G01*
X136093743Y-56738723D01*
X135212066Y-57952248D01*
X134403049Y-57364463D01*
X135284726Y-56150938D01*
G37*
%TD.AperFunction*%
%TA.AperFunction,SMDPad,CuDef*%
%TO.P,D37,2*%
%TO.N,Net-(D37-Pad2)*%
G36*
X135576020Y-50305842D02*
G01*
X136385037Y-50893627D01*
X135503360Y-52107152D01*
X134694343Y-51519367D01*
X135576020Y-50305842D01*
G37*
%TD.AperFunction*%
%TA.AperFunction,SMDPad,CuDef*%
%TO.P,D37,1*%
%TO.N,VCC*%
G36*
X138164874Y-52186755D02*
G01*
X138973891Y-52774540D01*
X138092214Y-53988065D01*
X137283197Y-53400280D01*
X138164874Y-52186755D01*
G37*
%TD.AperFunction*%
%TD*%
%TA.AperFunction,SMDPad,CuDef*%
%TO.P,D38,1*%
%TO.N,VCC*%
G36*
X134394875Y-62786757D02*
G01*
X135203892Y-63374542D01*
X134322215Y-64588067D01*
X133513198Y-64000282D01*
X134394875Y-62786757D01*
G37*
%TD.AperFunction*%
%TA.AperFunction,SMDPad,CuDef*%
%TO.P,D38,2*%
%TO.N,Net-(D38-Pad2)*%
G36*
X131806021Y-60905844D02*
G01*
X132615038Y-61493629D01*
X131733361Y-62707154D01*
X130924344Y-62119369D01*
X131806021Y-60905844D01*
G37*
%TD.AperFunction*%
%TA.AperFunction,SMDPad,CuDef*%
%TO.P,D38,4*%
%TO.N,Net-(D38-Pad4)*%
G36*
X131514727Y-66750940D02*
G01*
X132323744Y-67338725D01*
X131442067Y-68552250D01*
X130633050Y-67964465D01*
X131514727Y-66750940D01*
G37*
%TD.AperFunction*%
%TA.AperFunction,SMDPad,CuDef*%
%TO.P,D38,3*%
%TO.N,GND*%
G36*
X128925873Y-64870027D02*
G01*
X129734890Y-65457812D01*
X128853213Y-66671337D01*
X128044196Y-66083552D01*
X128925873Y-64870027D01*
G37*
%TD.AperFunction*%
%TD*%
%TA.AperFunction,SMDPad,CuDef*%
%TO.P,D39,3*%
%TO.N,GND*%
G36*
X125755872Y-73550027D02*
G01*
X126564889Y-74137812D01*
X125683212Y-75351337D01*
X124874195Y-74763552D01*
X125755872Y-73550027D01*
G37*
%TD.AperFunction*%
%TA.AperFunction,SMDPad,CuDef*%
%TO.P,D39,4*%
%TO.N,Net-(D39-Pad4)*%
G36*
X128344726Y-75430940D02*
G01*
X129153743Y-76018725D01*
X128272066Y-77232250D01*
X127463049Y-76644465D01*
X128344726Y-75430940D01*
G37*
%TD.AperFunction*%
%TA.AperFunction,SMDPad,CuDef*%
%TO.P,D39,2*%
%TO.N,Net-(D39-Pad2)*%
G36*
X128636020Y-69585844D02*
G01*
X129445037Y-70173629D01*
X128563360Y-71387154D01*
X127754343Y-70799369D01*
X128636020Y-69585844D01*
G37*
%TD.AperFunction*%
%TA.AperFunction,SMDPad,CuDef*%
%TO.P,D39,1*%
%TO.N,VCC*%
G36*
X131224874Y-71466757D02*
G01*
X132033891Y-72054542D01*
X131152214Y-73268067D01*
X130343197Y-72680282D01*
X131224874Y-71466757D01*
G37*
%TD.AperFunction*%
%TD*%
%TA.AperFunction,SMDPad,CuDef*%
%TO.P,D40,1*%
%TO.N,VCC*%
G36*
X124964874Y-77916756D02*
G01*
X125773891Y-78504541D01*
X124892214Y-79718066D01*
X124083197Y-79130281D01*
X124964874Y-77916756D01*
G37*
%TD.AperFunction*%
%TA.AperFunction,SMDPad,CuDef*%
%TO.P,D40,2*%
%TO.N,Net-(D40-Pad2)*%
G36*
X122376020Y-76035843D02*
G01*
X123185037Y-76623628D01*
X122303360Y-77837153D01*
X121494343Y-77249368D01*
X122376020Y-76035843D01*
G37*
%TD.AperFunction*%
%TA.AperFunction,SMDPad,CuDef*%
%TO.P,D40,4*%
%TO.N,Net-(D33-Pad2)*%
G36*
X122084726Y-81880939D02*
G01*
X122893743Y-82468724D01*
X122012066Y-83682249D01*
X121203049Y-83094464D01*
X122084726Y-81880939D01*
G37*
%TD.AperFunction*%
%TA.AperFunction,SMDPad,CuDef*%
%TO.P,D40,3*%
%TO.N,GND*%
G36*
X119495872Y-80000026D02*
G01*
X120304889Y-80587811D01*
X119423212Y-81801336D01*
X118614195Y-81213551D01*
X119495872Y-80000026D01*
G37*
%TD.AperFunction*%
%TD*%
%TA.AperFunction,SMDPad,CuDef*%
%TO.P,D41,3*%
%TO.N,GND*%
G36*
X134605872Y-46240027D02*
G01*
X135414889Y-46827812D01*
X134533212Y-48041337D01*
X133724195Y-47453552D01*
X134605872Y-46240027D01*
G37*
%TD.AperFunction*%
%TA.AperFunction,SMDPad,CuDef*%
%TO.P,D41,4*%
%TO.N,Net-(D37-Pad2)*%
G36*
X137194726Y-48120940D02*
G01*
X138003743Y-48708725D01*
X137122066Y-49922250D01*
X136313049Y-49334465D01*
X137194726Y-48120940D01*
G37*
%TD.AperFunction*%
%TA.AperFunction,SMDPad,CuDef*%
%TO.P,D41,2*%
%TO.N,Net-(D41-Pad2)*%
G36*
X137486020Y-42275844D02*
G01*
X138295037Y-42863629D01*
X137413360Y-44077154D01*
X136604343Y-43489369D01*
X137486020Y-42275844D01*
G37*
%TD.AperFunction*%
%TA.AperFunction,SMDPad,CuDef*%
%TO.P,D41,1*%
%TO.N,VCC*%
G36*
X140074874Y-44156757D02*
G01*
X140883891Y-44744542D01*
X140002214Y-45958067D01*
X139193197Y-45370282D01*
X140074874Y-44156757D01*
G37*
%TD.AperFunction*%
%TD*%
%TA.AperFunction,SMDPad,CuDef*%
%TO.P,D42,1*%
%TO.N,VCC*%
G36*
X130374876Y-57516757D02*
G01*
X131183893Y-58104542D01*
X130302216Y-59318067D01*
X129493199Y-58730282D01*
X130374876Y-57516757D01*
G37*
%TD.AperFunction*%
%TA.AperFunction,SMDPad,CuDef*%
%TO.P,D42,2*%
%TO.N,Net-(D42-Pad2)*%
G36*
X127786022Y-55635844D02*
G01*
X128595039Y-56223629D01*
X127713362Y-57437154D01*
X126904345Y-56849369D01*
X127786022Y-55635844D01*
G37*
%TD.AperFunction*%
%TA.AperFunction,SMDPad,CuDef*%
%TO.P,D42,4*%
%TO.N,Net-(D38-Pad2)*%
G36*
X127494728Y-61480940D02*
G01*
X128303745Y-62068725D01*
X127422068Y-63282250D01*
X126613051Y-62694465D01*
X127494728Y-61480940D01*
G37*
%TD.AperFunction*%
%TA.AperFunction,SMDPad,CuDef*%
%TO.P,D42,3*%
%TO.N,GND*%
G36*
X124905874Y-59600027D02*
G01*
X125714891Y-60187812D01*
X124833214Y-61401337D01*
X124024197Y-60813552D01*
X124905874Y-59600027D01*
G37*
%TD.AperFunction*%
%TD*%
%TA.AperFunction,SMDPad,CuDef*%
%TO.P,D43,3*%
%TO.N,GND*%
G36*
X118935873Y-67820026D02*
G01*
X119744890Y-68407811D01*
X118863213Y-69621336D01*
X118054196Y-69033551D01*
X118935873Y-67820026D01*
G37*
%TD.AperFunction*%
%TA.AperFunction,SMDPad,CuDef*%
%TO.P,D43,4*%
%TO.N,Net-(D39-Pad2)*%
G36*
X121524727Y-69700939D02*
G01*
X122333744Y-70288724D01*
X121452067Y-71502249D01*
X120643050Y-70914464D01*
X121524727Y-69700939D01*
G37*
%TD.AperFunction*%
%TA.AperFunction,SMDPad,CuDef*%
%TO.P,D43,2*%
%TO.N,Net-(D43-Pad2)*%
G36*
X121816021Y-63855843D02*
G01*
X122625038Y-64443628D01*
X121743361Y-65657153D01*
X120934344Y-65069368D01*
X121816021Y-63855843D01*
G37*
%TD.AperFunction*%
%TA.AperFunction,SMDPad,CuDef*%
%TO.P,D43,1*%
%TO.N,VCC*%
G36*
X124404875Y-65736756D02*
G01*
X125213892Y-66324541D01*
X124332215Y-67538066D01*
X123523198Y-66950281D01*
X124404875Y-65736756D01*
G37*
%TD.AperFunction*%
%TD*%
%TA.AperFunction,SMDPad,CuDef*%
%TO.P,D44,1*%
%TO.N,VCC*%
G36*
X116410775Y-76540457D02*
G01*
X117219792Y-77128242D01*
X116338115Y-78341767D01*
X115529098Y-77753982D01*
X116410775Y-76540457D01*
G37*
%TD.AperFunction*%
%TA.AperFunction,SMDPad,CuDef*%
%TO.P,D44,2*%
%TO.N,Net-(D44-Pad2)*%
G36*
X113821921Y-74659544D02*
G01*
X114630938Y-75247329D01*
X113749261Y-76460854D01*
X112940244Y-75873069D01*
X113821921Y-74659544D01*
G37*
%TD.AperFunction*%
%TA.AperFunction,SMDPad,CuDef*%
%TO.P,D44,4*%
%TO.N,Net-(D40-Pad2)*%
G36*
X113530627Y-80504640D02*
G01*
X114339644Y-81092425D01*
X113457967Y-82305950D01*
X112648950Y-81718165D01*
X113530627Y-80504640D01*
G37*
%TD.AperFunction*%
%TA.AperFunction,SMDPad,CuDef*%
%TO.P,D44,3*%
%TO.N,GND*%
G36*
X110941773Y-78623727D02*
G01*
X111750790Y-79211512D01*
X110869113Y-80425037D01*
X110060096Y-79837252D01*
X110941773Y-78623727D01*
G37*
%TD.AperFunction*%
%TD*%
%TA.AperFunction,SMDPad,CuDef*%
%TO.P,D45,3*%
%TO.N,GND*%
G36*
X127565872Y-50540027D02*
G01*
X128374889Y-51127812D01*
X127493212Y-52341337D01*
X126684195Y-51753552D01*
X127565872Y-50540027D01*
G37*
%TD.AperFunction*%
%TA.AperFunction,SMDPad,CuDef*%
%TO.P,D45,4*%
%TO.N,Net-(D41-Pad2)*%
G36*
X130154726Y-52420940D02*
G01*
X130963743Y-53008725D01*
X130082066Y-54222250D01*
X129273049Y-53634465D01*
X130154726Y-52420940D01*
G37*
%TD.AperFunction*%
%TA.AperFunction,SMDPad,CuDef*%
%TO.P,D45,2*%
%TO.N,Net-(D45-Pad2)*%
G36*
X130446020Y-46575844D02*
G01*
X131255037Y-47163629D01*
X130373360Y-48377154D01*
X129564343Y-47789369D01*
X130446020Y-46575844D01*
G37*
%TD.AperFunction*%
%TA.AperFunction,SMDPad,CuDef*%
%TO.P,D45,1*%
%TO.N,VCC*%
G36*
X133034874Y-48456757D02*
G01*
X133843891Y-49044542D01*
X132962214Y-50258067D01*
X132153197Y-49670282D01*
X133034874Y-48456757D01*
G37*
%TD.AperFunction*%
%TD*%
%TA.AperFunction,SMDPad,CuDef*%
%TO.P,D46,1*%
%TO.N,VCC*%
G36*
X124114875Y-55316756D02*
G01*
X124923892Y-55904541D01*
X124042215Y-57118066D01*
X123233198Y-56530281D01*
X124114875Y-55316756D01*
G37*
%TD.AperFunction*%
%TA.AperFunction,SMDPad,CuDef*%
%TO.P,D46,2*%
%TO.N,Net-(D37-Pad4)*%
G36*
X121526021Y-53435843D02*
G01*
X122335038Y-54023628D01*
X121453361Y-55237153D01*
X120644344Y-54649368D01*
X121526021Y-53435843D01*
G37*
%TD.AperFunction*%
%TA.AperFunction,SMDPad,CuDef*%
%TO.P,D46,4*%
%TO.N,Net-(D42-Pad2)*%
G36*
X121234727Y-59280939D02*
G01*
X122043744Y-59868724D01*
X121162067Y-61082249D01*
X120353050Y-60494464D01*
X121234727Y-59280939D01*
G37*
%TD.AperFunction*%
%TA.AperFunction,SMDPad,CuDef*%
%TO.P,D46,3*%
%TO.N,GND*%
G36*
X118645873Y-57400026D02*
G01*
X119454890Y-57987811D01*
X118573213Y-59201336D01*
X117764196Y-58613551D01*
X118645873Y-57400026D01*
G37*
%TD.AperFunction*%
%TD*%
%TA.AperFunction,SMDPad,CuDef*%
%TO.P,D47,1*%
%TO.N,VCC*%
G36*
X116834874Y-61016757D02*
G01*
X117643891Y-61604542D01*
X116762214Y-62818067D01*
X115953197Y-62230282D01*
X116834874Y-61016757D01*
G37*
%TD.AperFunction*%
%TA.AperFunction,SMDPad,CuDef*%
%TO.P,D47,2*%
%TO.N,Net-(D38-Pad4)*%
G36*
X114246020Y-59135844D02*
G01*
X115055037Y-59723629D01*
X114173360Y-60937154D01*
X113364343Y-60349369D01*
X114246020Y-59135844D01*
G37*
%TD.AperFunction*%
%TA.AperFunction,SMDPad,CuDef*%
%TO.P,D47,4*%
%TO.N,Net-(D43-Pad2)*%
G36*
X113954726Y-64980940D02*
G01*
X114763743Y-65568725D01*
X113882066Y-66782250D01*
X113073049Y-66194465D01*
X113954726Y-64980940D01*
G37*
%TD.AperFunction*%
%TA.AperFunction,SMDPad,CuDef*%
%TO.P,D47,3*%
%TO.N,GND*%
G36*
X111365872Y-63100027D02*
G01*
X112174889Y-63687812D01*
X111293212Y-64901337D01*
X110484195Y-64313552D01*
X111365872Y-63100027D01*
G37*
%TD.AperFunction*%
%TD*%
%TA.AperFunction,SMDPad,CuDef*%
%TO.P,D48,1*%
%TO.N,VCC*%
G36*
X112634875Y-68956757D02*
G01*
X113443892Y-69544542D01*
X112562215Y-70758067D01*
X111753198Y-70170282D01*
X112634875Y-68956757D01*
G37*
%TD.AperFunction*%
%TA.AperFunction,SMDPad,CuDef*%
%TO.P,D48,2*%
%TO.N,Net-(D39-Pad4)*%
G36*
X110046021Y-67075844D02*
G01*
X110855038Y-67663629D01*
X109973361Y-68877154D01*
X109164344Y-68289369D01*
X110046021Y-67075844D01*
G37*
%TD.AperFunction*%
%TA.AperFunction,SMDPad,CuDef*%
%TO.P,D48,4*%
%TO.N,Net-(D44-Pad2)*%
G36*
X109754727Y-72920940D02*
G01*
X110563744Y-73508725D01*
X109682067Y-74722250D01*
X108873050Y-74134465D01*
X109754727Y-72920940D01*
G37*
%TD.AperFunction*%
%TA.AperFunction,SMDPad,CuDef*%
%TO.P,D48,3*%
%TO.N,GND*%
G36*
X107165873Y-71040027D02*
G01*
X107974890Y-71627812D01*
X107093213Y-72841337D01*
X106284196Y-72253552D01*
X107165873Y-71040027D01*
G37*
%TD.AperFunction*%
%TD*%
%TA.AperFunction,SMDPad,CuDef*%
%TO.P,D49,3*%
%TO.N,GND*%
G36*
X147946583Y-106080199D02*
G01*
X147637566Y-107031256D01*
X146210981Y-106567731D01*
X146519998Y-105616674D01*
X147946583Y-106080199D01*
G37*
%TD.AperFunction*%
%TA.AperFunction,SMDPad,CuDef*%
%TO.P,D49,4*%
%TO.N,Net-(D49-Pad4)*%
G36*
X146957728Y-109123580D02*
G01*
X146648711Y-110074637D01*
X145222126Y-109611112D01*
X145531143Y-108660055D01*
X146957728Y-109123580D01*
G37*
%TD.AperFunction*%
%TA.AperFunction,SMDPad,CuDef*%
%TO.P,D49,2*%
%TO.N,Net-(D49-Pad2)*%
G36*
X152606760Y-107594382D02*
G01*
X152297743Y-108545439D01*
X150871158Y-108081914D01*
X151180175Y-107130857D01*
X152606760Y-107594382D01*
G37*
%TD.AperFunction*%
%TA.AperFunction,SMDPad,CuDef*%
%TO.P,D49,1*%
%TO.N,VCC*%
G36*
X151617905Y-110637763D02*
G01*
X151308888Y-111588820D01*
X149882303Y-111125295D01*
X150191320Y-110174238D01*
X151617905Y-110637763D01*
G37*
%TD.AperFunction*%
%TD*%
%TA.AperFunction,SMDPad,CuDef*%
%TO.P,D50,1*%
%TO.N,VCC*%
G36*
X140367906Y-110317763D02*
G01*
X140058889Y-111268820D01*
X138632304Y-110805295D01*
X138941321Y-109854238D01*
X140367906Y-110317763D01*
G37*
%TD.AperFunction*%
%TA.AperFunction,SMDPad,CuDef*%
%TO.P,D50,2*%
%TO.N,Net-(D50-Pad2)*%
G36*
X141356761Y-107274382D02*
G01*
X141047744Y-108225439D01*
X139621159Y-107761914D01*
X139930176Y-106810857D01*
X141356761Y-107274382D01*
G37*
%TD.AperFunction*%
%TA.AperFunction,SMDPad,CuDef*%
%TO.P,D50,4*%
%TO.N,Net-(D50-Pad4)*%
G36*
X135707729Y-108803580D02*
G01*
X135398712Y-109754637D01*
X133972127Y-109291112D01*
X134281144Y-108340055D01*
X135707729Y-108803580D01*
G37*
%TD.AperFunction*%
%TA.AperFunction,SMDPad,CuDef*%
%TO.P,D50,3*%
%TO.N,GND*%
G36*
X136696584Y-105760199D02*
G01*
X136387567Y-106711256D01*
X134960982Y-106247731D01*
X135269999Y-105296674D01*
X136696584Y-105760199D01*
G37*
%TD.AperFunction*%
%TD*%
%TA.AperFunction,SMDPad,CuDef*%
%TO.P,D51,3*%
%TO.N,GND*%
G36*
X127456582Y-105430199D02*
G01*
X127147565Y-106381256D01*
X125720980Y-105917731D01*
X126029997Y-104966674D01*
X127456582Y-105430199D01*
G37*
%TD.AperFunction*%
%TA.AperFunction,SMDPad,CuDef*%
%TO.P,D51,4*%
%TO.N,Net-(D51-Pad4)*%
G36*
X126467727Y-108473580D02*
G01*
X126158710Y-109424637D01*
X124732125Y-108961112D01*
X125041142Y-108010055D01*
X126467727Y-108473580D01*
G37*
%TD.AperFunction*%
%TA.AperFunction,SMDPad,CuDef*%
%TO.P,D51,2*%
%TO.N,Net-(D51-Pad2)*%
G36*
X132116759Y-106944382D02*
G01*
X131807742Y-107895439D01*
X130381157Y-107431914D01*
X130690174Y-106480857D01*
X132116759Y-106944382D01*
G37*
%TD.AperFunction*%
%TA.AperFunction,SMDPad,CuDef*%
%TO.P,D51,1*%
%TO.N,VCC*%
G36*
X131127904Y-109987763D02*
G01*
X130818887Y-110938820D01*
X129392302Y-110475295D01*
X129701319Y-109524238D01*
X131127904Y-109987763D01*
G37*
%TD.AperFunction*%
%TD*%
%TA.AperFunction,SMDPad,CuDef*%
%TO.P,D52,1*%
%TO.N,VCC*%
G36*
X123067905Y-106027763D02*
G01*
X122758888Y-106978820D01*
X121332303Y-106515295D01*
X121641320Y-105564238D01*
X123067905Y-106027763D01*
G37*
%TD.AperFunction*%
%TA.AperFunction,SMDPad,CuDef*%
%TO.P,D52,2*%
%TO.N,Net-(D52-Pad2)*%
G36*
X124056760Y-102984382D02*
G01*
X123747743Y-103935439D01*
X122321158Y-103471914D01*
X122630175Y-102520857D01*
X124056760Y-102984382D01*
G37*
%TD.AperFunction*%
%TA.AperFunction,SMDPad,CuDef*%
%TO.P,D52,4*%
%TO.N,Net-(D45-Pad2)*%
G36*
X118407728Y-104513580D02*
G01*
X118098711Y-105464637D01*
X116672126Y-105001112D01*
X116981143Y-104050055D01*
X118407728Y-104513580D01*
G37*
%TD.AperFunction*%
%TA.AperFunction,SMDPad,CuDef*%
%TO.P,D52,3*%
%TO.N,GND*%
G36*
X119396583Y-101470199D02*
G01*
X119087566Y-102421256D01*
X117660981Y-101957731D01*
X117969998Y-101006674D01*
X119396583Y-101470199D01*
G37*
%TD.AperFunction*%
%TD*%
%TA.AperFunction,SMDPad,CuDef*%
%TO.P,D53,3*%
%TO.N,GND*%
G36*
X156166583Y-105410199D02*
G01*
X155857566Y-106361256D01*
X154430981Y-105897731D01*
X154739998Y-104946674D01*
X156166583Y-105410199D01*
G37*
%TD.AperFunction*%
%TA.AperFunction,SMDPad,CuDef*%
%TO.P,D53,4*%
%TO.N,Net-(D49-Pad2)*%
G36*
X155177728Y-108453580D02*
G01*
X154868711Y-109404637D01*
X153442126Y-108941112D01*
X153751143Y-107990055D01*
X155177728Y-108453580D01*
G37*
%TD.AperFunction*%
%TA.AperFunction,SMDPad,CuDef*%
%TO.P,D53,2*%
%TO.N,Net-(D53-Pad2)*%
G36*
X160826760Y-106924382D02*
G01*
X160517743Y-107875439D01*
X159091158Y-107411914D01*
X159400175Y-106460857D01*
X160826760Y-106924382D01*
G37*
%TD.AperFunction*%
%TA.AperFunction,SMDPad,CuDef*%
%TO.P,D53,1*%
%TO.N,VCC*%
G36*
X159837905Y-109967763D02*
G01*
X159528888Y-110918820D01*
X158102303Y-110455295D01*
X158411320Y-109504238D01*
X159837905Y-109967763D01*
G37*
%TD.AperFunction*%
%TD*%
%TA.AperFunction,SMDPad,CuDef*%
%TO.P,D54,1*%
%TO.N,VCC*%
G36*
X144137906Y-104867763D02*
G01*
X143828889Y-105818820D01*
X142402304Y-105355295D01*
X142711321Y-104404238D01*
X144137906Y-104867763D01*
G37*
%TD.AperFunction*%
%TA.AperFunction,SMDPad,CuDef*%
%TO.P,D54,2*%
%TO.N,Net-(D54-Pad2)*%
G36*
X145126761Y-101824382D02*
G01*
X144817744Y-102775439D01*
X143391159Y-102311914D01*
X143700176Y-101360857D01*
X145126761Y-101824382D01*
G37*
%TD.AperFunction*%
%TA.AperFunction,SMDPad,CuDef*%
%TO.P,D54,4*%
%TO.N,Net-(D50-Pad2)*%
G36*
X139477729Y-103353580D02*
G01*
X139168712Y-104304637D01*
X137742127Y-103841112D01*
X138051144Y-102890055D01*
X139477729Y-103353580D01*
G37*
%TD.AperFunction*%
%TA.AperFunction,SMDPad,CuDef*%
%TO.P,D54,3*%
%TO.N,GND*%
G36*
X140466584Y-100310199D02*
G01*
X140157567Y-101261256D01*
X138730982Y-100797731D01*
X139039999Y-99846674D01*
X140466584Y-100310199D01*
G37*
%TD.AperFunction*%
%TD*%
%TA.AperFunction,SMDPad,CuDef*%
%TO.P,D55,3*%
%TO.N,GND*%
G36*
X130806584Y-97170198D02*
G01*
X130497567Y-98121255D01*
X129070982Y-97657730D01*
X129379999Y-96706673D01*
X130806584Y-97170198D01*
G37*
%TD.AperFunction*%
%TA.AperFunction,SMDPad,CuDef*%
%TO.P,D55,4*%
%TO.N,Net-(D51-Pad2)*%
G36*
X129817729Y-100213579D02*
G01*
X129508712Y-101164636D01*
X128082127Y-100701111D01*
X128391144Y-99750054D01*
X129817729Y-100213579D01*
G37*
%TD.AperFunction*%
%TA.AperFunction,SMDPad,CuDef*%
%TO.P,D55,2*%
%TO.N,Net-(D55-Pad2)*%
G36*
X135466761Y-98684381D02*
G01*
X135157744Y-99635438D01*
X133731159Y-99171913D01*
X134040176Y-98220856D01*
X135466761Y-98684381D01*
G37*
%TD.AperFunction*%
%TA.AperFunction,SMDPad,CuDef*%
%TO.P,D55,1*%
%TO.N,VCC*%
G36*
X134477906Y-101727762D02*
G01*
X134168889Y-102678819D01*
X132742304Y-102215294D01*
X133051321Y-101264237D01*
X134477906Y-101727762D01*
G37*
%TD.AperFunction*%
%TD*%
%TA.AperFunction,SMDPad,CuDef*%
%TO.P,D56,1*%
%TO.N,VCC*%
G36*
X121804407Y-97408762D02*
G01*
X121495390Y-98359819D01*
X120068805Y-97896294D01*
X120377822Y-96945237D01*
X121804407Y-97408762D01*
G37*
%TD.AperFunction*%
%TA.AperFunction,SMDPad,CuDef*%
%TO.P,D56,2*%
%TO.N,Net-(D56-Pad2)*%
G36*
X122793262Y-94365381D02*
G01*
X122484245Y-95316438D01*
X121057660Y-94852913D01*
X121366677Y-93901856D01*
X122793262Y-94365381D01*
G37*
%TD.AperFunction*%
%TA.AperFunction,SMDPad,CuDef*%
%TO.P,D56,4*%
%TO.N,Net-(D52-Pad2)*%
G36*
X117144230Y-95894579D02*
G01*
X116835213Y-96845636D01*
X115408628Y-96382111D01*
X115717645Y-95431054D01*
X117144230Y-95894579D01*
G37*
%TD.AperFunction*%
%TA.AperFunction,SMDPad,CuDef*%
%TO.P,D56,3*%
%TO.N,GND*%
G36*
X118133085Y-92851198D02*
G01*
X117824068Y-93802255D01*
X116397483Y-93338730D01*
X116706500Y-92387673D01*
X118133085Y-92851198D01*
G37*
%TD.AperFunction*%
%TD*%
%TA.AperFunction,SMDPad,CuDef*%
%TO.P,D57,3*%
%TO.N,GND*%
G36*
X149906584Y-100040198D02*
G01*
X149597567Y-100991255D01*
X148170982Y-100527730D01*
X148479999Y-99576673D01*
X149906584Y-100040198D01*
G37*
%TD.AperFunction*%
%TA.AperFunction,SMDPad,CuDef*%
%TO.P,D57,4*%
%TO.N,Net-(D53-Pad2)*%
G36*
X148917729Y-103083579D02*
G01*
X148608712Y-104034636D01*
X147182127Y-103571111D01*
X147491144Y-102620054D01*
X148917729Y-103083579D01*
G37*
%TD.AperFunction*%
%TA.AperFunction,SMDPad,CuDef*%
%TO.P,D57,2*%
%TO.N,Net-(D57-Pad2)*%
G36*
X154566761Y-101554381D02*
G01*
X154257744Y-102505438D01*
X152831159Y-102041913D01*
X153140176Y-101090856D01*
X154566761Y-101554381D01*
G37*
%TD.AperFunction*%
%TA.AperFunction,SMDPad,CuDef*%
%TO.P,D57,1*%
%TO.N,VCC*%
G36*
X153577906Y-104597762D02*
G01*
X153268889Y-105548819D01*
X151842304Y-105085294D01*
X152151321Y-104134237D01*
X153577906Y-104597762D01*
G37*
%TD.AperFunction*%
%TD*%
%TA.AperFunction,SMDPad,CuDef*%
%TO.P,D58,3*%
%TO.N,GND*%
G36*
X140616584Y-93680199D02*
G01*
X140307567Y-94631256D01*
X138880982Y-94167731D01*
X139189999Y-93216674D01*
X140616584Y-93680199D01*
G37*
%TD.AperFunction*%
%TA.AperFunction,SMDPad,CuDef*%
%TO.P,D58,4*%
%TO.N,Net-(D54-Pad2)*%
G36*
X139627729Y-96723580D02*
G01*
X139318712Y-97674637D01*
X137892127Y-97211112D01*
X138201144Y-96260055D01*
X139627729Y-96723580D01*
G37*
%TD.AperFunction*%
%TA.AperFunction,SMDPad,CuDef*%
%TO.P,D58,2*%
%TO.N,Net-(D49-Pad4)*%
G36*
X145276761Y-95194382D02*
G01*
X144967744Y-96145439D01*
X143541159Y-95681914D01*
X143850176Y-94730857D01*
X145276761Y-95194382D01*
G37*
%TD.AperFunction*%
%TA.AperFunction,SMDPad,CuDef*%
%TO.P,D58,1*%
%TO.N,VCC*%
G36*
X144287906Y-98237763D02*
G01*
X143978889Y-99188820D01*
X142552304Y-98725295D01*
X142861321Y-97774238D01*
X144287906Y-98237763D01*
G37*
%TD.AperFunction*%
%TD*%
%TA.AperFunction,SMDPad,CuDef*%
%TO.P,D59,1*%
%TO.N,VCC*%
G36*
X136617906Y-93077763D02*
G01*
X136308889Y-94028820D01*
X134882304Y-93565295D01*
X135191321Y-92614238D01*
X136617906Y-93077763D01*
G37*
%TD.AperFunction*%
%TA.AperFunction,SMDPad,CuDef*%
%TO.P,D59,2*%
%TO.N,Net-(D50-Pad4)*%
G36*
X137606761Y-90034382D02*
G01*
X137297744Y-90985439D01*
X135871159Y-90521914D01*
X136180176Y-89570857D01*
X137606761Y-90034382D01*
G37*
%TD.AperFunction*%
%TA.AperFunction,SMDPad,CuDef*%
%TO.P,D59,4*%
%TO.N,Net-(D55-Pad2)*%
G36*
X131957729Y-91563580D02*
G01*
X131648712Y-92514637D01*
X130222127Y-92051112D01*
X130531144Y-91100055D01*
X131957729Y-91563580D01*
G37*
%TD.AperFunction*%
%TA.AperFunction,SMDPad,CuDef*%
%TO.P,D59,3*%
%TO.N,GND*%
G36*
X132946584Y-88520199D02*
G01*
X132637567Y-89471256D01*
X131210982Y-89007731D01*
X131519999Y-88056674D01*
X132946584Y-88520199D01*
G37*
%TD.AperFunction*%
%TD*%
%TA.AperFunction,SMDPad,CuDef*%
%TO.P,D60,1*%
%TO.N,VCC*%
G36*
X127777907Y-91537762D02*
G01*
X127468890Y-92488819D01*
X126042305Y-92025294D01*
X126351322Y-91074237D01*
X127777907Y-91537762D01*
G37*
%TD.AperFunction*%
%TA.AperFunction,SMDPad,CuDef*%
%TO.P,D60,2*%
%TO.N,Net-(D51-Pad4)*%
G36*
X128766762Y-88494381D02*
G01*
X128457745Y-89445438D01*
X127031160Y-88981913D01*
X127340177Y-88030856D01*
X128766762Y-88494381D01*
G37*
%TD.AperFunction*%
%TA.AperFunction,SMDPad,CuDef*%
%TO.P,D60,4*%
%TO.N,Net-(D56-Pad2)*%
G36*
X123117730Y-90023579D02*
G01*
X122808713Y-90974636D01*
X121382128Y-90511111D01*
X121691145Y-89560054D01*
X123117730Y-90023579D01*
G37*
%TD.AperFunction*%
%TA.AperFunction,SMDPad,CuDef*%
%TO.P,D60,3*%
%TO.N,GND*%
G36*
X124106585Y-86980198D02*
G01*
X123797568Y-87931255D01*
X122370983Y-87467730D01*
X122680000Y-86516673D01*
X124106585Y-86980198D01*
G37*
%TD.AperFunction*%
%TD*%
D24*
%TO.P,Y1,1*%
%TO.N,Net-(C1-Pad1)*%
X113538000Y-85725000D03*
%TO.P,Y1,2*%
%TO.N,Net-(C2-Pad1)*%
X116988681Y-89175681D03*
%TD*%
%TO.P,R2,1*%
%TO.N,VCC*%
%TA.AperFunction,SMDPad,CuDef*%
G36*
G01*
X97841000Y-101542001D02*
X97841000Y-100641999D01*
G75*
G02*
X98090999Y-100392000I249999J0D01*
G01*
X98791001Y-100392000D01*
G75*
G02*
X99041000Y-100641999I0J-249999D01*
G01*
X99041000Y-101542001D01*
G75*
G02*
X98791001Y-101792000I-249999J0D01*
G01*
X98090999Y-101792000D01*
G75*
G02*
X97841000Y-101542001I0J249999D01*
G01*
G37*
%TD.AperFunction*%
%TO.P,R2,2*%
%TO.N,/~Reset*%
%TA.AperFunction,SMDPad,CuDef*%
G36*
G01*
X99841000Y-101542001D02*
X99841000Y-100641999D01*
G75*
G02*
X100090999Y-100392000I249999J0D01*
G01*
X100791001Y-100392000D01*
G75*
G02*
X101041000Y-100641999I0J-249999D01*
G01*
X101041000Y-101542001D01*
G75*
G02*
X100791001Y-101792000I-249999J0D01*
G01*
X100090999Y-101792000D01*
G75*
G02*
X99841000Y-101542001I0J249999D01*
G01*
G37*
%TD.AperFunction*%
%TD*%
%TO.P,C11,1*%
%TO.N,VCC*%
%TA.AperFunction,ComponentPad*%
G36*
G01*
X60639156Y-96185857D02*
X61019578Y-96062251D01*
G75*
G02*
X62027637Y-96575882I247214J-760845D01*
G01*
X62027637Y-96575882D01*
G75*
G02*
X61514006Y-97583941I-760845J-247214D01*
G01*
X61133584Y-97707547D01*
G75*
G02*
X60125525Y-97193916I-247214J760845D01*
G01*
X60125525Y-97193916D01*
G75*
G02*
X60639156Y-96185857I760845J247214D01*
G01*
G37*
%TD.AperFunction*%
%TO.P,C11,2*%
%TO.N,GND*%
%TA.AperFunction,ComponentPad*%
G36*
G01*
X65348575Y-110679958D02*
X65728997Y-110556352D01*
G75*
G02*
X66737056Y-111069983I247214J-760845D01*
G01*
X66737056Y-111069983D01*
G75*
G02*
X66223425Y-112078042I-760845J-247214D01*
G01*
X65843003Y-112201648D01*
G75*
G02*
X64834944Y-111688017I-247214J760845D01*
G01*
X64834944Y-111688017D01*
G75*
G02*
X65348575Y-110679958I760845J247214D01*
G01*
G37*
%TD.AperFunction*%
%TD*%
%TO.P,C12,2*%
%TO.N,GND*%
%TA.AperFunction,ComponentPad*%
G36*
G01*
X124833352Y-51362425D02*
X124598238Y-51686031D01*
G75*
G02*
X123480796Y-51863017I-647214J470228D01*
G01*
X123480796Y-51863017D01*
G75*
G02*
X123303810Y-50745575I470228J647214D01*
G01*
X123538924Y-50421969D01*
G75*
G02*
X124656366Y-50244983I647214J-470228D01*
G01*
X124656366Y-50244983D01*
G75*
G02*
X124833352Y-51362425I-470228J-647214D01*
G01*
G37*
%TD.AperFunction*%
%TO.P,C12,1*%
%TO.N,VCC*%
%TA.AperFunction,ComponentPad*%
G36*
G01*
X137162771Y-60320272D02*
X136927657Y-60643878D01*
G75*
G02*
X135810215Y-60820864I-647214J470228D01*
G01*
X135810215Y-60820864D01*
G75*
G02*
X135633229Y-59703422I470228J647214D01*
G01*
X135868343Y-59379816D01*
G75*
G02*
X136985785Y-59202830I647214J-470228D01*
G01*
X136985785Y-59202830D01*
G75*
G02*
X137162771Y-60320272I-470228J-647214D01*
G01*
G37*
%TD.AperFunction*%
%TD*%
%TO.P,C13,1*%
%TO.N,VCC*%
%TA.AperFunction,ComponentPad*%
G36*
G01*
X85937157Y-50548969D02*
X86172271Y-50872575D01*
G75*
G02*
X85995285Y-51990017I-647214J-470228D01*
G01*
X85995285Y-51990017D01*
G75*
G02*
X84877843Y-51813031I-470228J647214D01*
G01*
X84642729Y-51489425D01*
G75*
G02*
X84819715Y-50371983I647214J470228D01*
G01*
X84819715Y-50371983D01*
G75*
G02*
X85937157Y-50548969I470228J-647214D01*
G01*
G37*
%TD.AperFunction*%
%TO.P,C13,2*%
%TO.N,GND*%
%TA.AperFunction,ComponentPad*%
G36*
G01*
X73607738Y-59506816D02*
X73842852Y-59830422D01*
G75*
G02*
X73665866Y-60947864I-647214J-470228D01*
G01*
X73665866Y-60947864D01*
G75*
G02*
X72548424Y-60770878I-470228J647214D01*
G01*
X72313310Y-60447272D01*
G75*
G02*
X72490296Y-59329830I647214J470228D01*
G01*
X72490296Y-59329830D01*
G75*
G02*
X73607738Y-59506816I470228J-647214D01*
G01*
G37*
%TD.AperFunction*%
%TD*%
D25*
%TO.P,C14,2*%
%TO.N,GND*%
X112395000Y-133858000D03*
%TO.P,C14,1*%
%TO.N,VCC*%
X97155000Y-133858000D03*
%TD*%
%TO.P,C15,1*%
%TO.N,VCC*%
%TA.AperFunction,ComponentPad*%
G36*
G01*
X143579997Y-112074648D02*
X143199575Y-111951042D01*
G75*
G02*
X142685944Y-110942983I247214J760845D01*
G01*
X142685944Y-110942983D01*
G75*
G02*
X143694003Y-110429352I760845J-247214D01*
G01*
X144074425Y-110552958D01*
G75*
G02*
X144588056Y-111561017I-247214J-760845D01*
G01*
X144588056Y-111561017D01*
G75*
G02*
X143579997Y-112074648I-760845J247214D01*
G01*
G37*
%TD.AperFunction*%
%TO.P,C15,2*%
%TO.N,GND*%
%TA.AperFunction,ComponentPad*%
G36*
G01*
X148289416Y-97580547D02*
X147908994Y-97456941D01*
G75*
G02*
X147395363Y-96448882I247214J760845D01*
G01*
X147395363Y-96448882D01*
G75*
G02*
X148403422Y-95935251I760845J-247214D01*
G01*
X148783844Y-96058857D01*
G75*
G02*
X149297475Y-97066916I-247214J-760845D01*
G01*
X149297475Y-97066916D01*
G75*
G02*
X148289416Y-97580547I-760845J247214D01*
G01*
G37*
%TD.AperFunction*%
%TD*%
D26*
%TO.N,GND*%
X103187500Y-99060000D03*
X99568000Y-95250000D03*
%TO.N,VCC*%
X90485221Y-74509694D03*
X116190587Y-72121587D03*
X93472000Y-107569000D03*
X93694250Y-87661750D03*
X97028000Y-96647000D03*
X121743924Y-107809336D03*
%TO.N,Net-(D21-Pad2)*%
X56134000Y-110363000D03*
X103822500Y-70485000D03*
%TO.N,Net-(D33-Pad2)*%
X70739000Y-50292000D03*
X123190000Y-84709000D03*
%TO.N,Net-(D45-Pad2)*%
X121666000Y-100647500D03*
X132588000Y-46228000D03*
%TO.N,Net-(D4-Pad4)*%
X108331000Y-100838000D03*
X97028000Y-105029000D03*
%TO.N,Net-(D16-Pad4)*%
X88759936Y-87135064D03*
X108331000Y-143637000D03*
%TD*%
D27*
%TO.N,GND*%
X137854837Y-100065786D02*
X137792463Y-100097566D01*
X145808940Y-105587806D02*
X147574972Y-100152518D01*
X147894779Y-99989568D02*
X149055544Y-100366723D01*
X147574972Y-100152518D02*
X147894779Y-99989568D01*
X149889627Y-99225112D02*
X149334586Y-99507919D01*
X149334586Y-99507919D02*
X149055544Y-100366723D01*
X154012582Y-100564741D02*
X149889627Y-99225112D01*
X155327077Y-101520380D02*
X154012582Y-100564741D01*
X147093286Y-106405932D02*
X146053686Y-106068146D01*
X138058650Y-99278326D02*
X137112092Y-97420600D01*
X155321465Y-105741037D02*
X156161034Y-103157112D01*
X137112092Y-97420600D02*
X138289446Y-93797075D01*
X156161034Y-103157112D02*
X155327077Y-101520380D01*
X146053686Y-106068146D02*
X145808940Y-105587806D01*
X149334586Y-99507919D02*
X149502660Y-98990640D01*
X149502660Y-98990640D02*
X148123085Y-96283070D01*
X139770017Y-94011280D02*
X138609253Y-93634125D01*
X133321858Y-87509258D02*
X132379071Y-87989632D01*
X132379071Y-87989632D02*
X132100028Y-88848436D01*
X138262883Y-89114694D02*
X133321858Y-87509258D01*
X140627500Y-92451549D02*
X139318206Y-89881915D01*
X139318206Y-89881915D02*
X138262883Y-89114694D01*
X140567446Y-92636376D02*
X140627500Y-92451549D01*
X126612072Y-103022597D02*
X128574330Y-96983388D01*
X128615228Y-97063655D02*
X128574330Y-96983388D01*
X128574330Y-96983388D02*
X129849797Y-93057902D01*
X129956788Y-97499554D02*
X128615228Y-97063655D01*
X126605706Y-105758221D02*
X127150936Y-104080176D01*
X127150936Y-104080176D02*
X126612072Y-103022597D01*
X129849797Y-93057902D02*
X129483841Y-92339673D01*
X129483841Y-92339673D02*
X130603262Y-88894452D01*
X140567446Y-92636376D02*
X140147173Y-92850516D01*
X140147173Y-92850516D02*
X139770017Y-94011280D01*
X145159209Y-94128330D02*
X140567446Y-92636376D01*
X148123085Y-96283070D02*
X145159209Y-94128330D01*
X130603262Y-88894452D02*
X130995713Y-87686610D01*
X130995713Y-87686610D02*
X131171229Y-87597180D01*
X131171229Y-87597180D02*
X132379071Y-87989632D01*
X138609253Y-93634125D02*
X138289446Y-93797075D01*
X135845502Y-106089698D02*
X137792463Y-100097566D01*
X139619522Y-100639167D02*
X137854837Y-100065786D01*
X137792463Y-100097566D02*
X138058650Y-99278326D01*
X82546444Y-64356998D02*
X82220283Y-66416303D01*
X76004371Y-71218506D02*
X76407183Y-72459504D01*
X83174190Y-63839729D02*
X83243331Y-63850679D01*
X82474492Y-77139896D02*
X81447041Y-77886384D01*
X77078622Y-68329603D02*
X78066027Y-67612211D01*
X88870490Y-71788386D02*
X85531273Y-74214468D01*
X83243331Y-63850679D02*
X82546444Y-64356998D01*
X79984947Y-54697015D02*
X75361414Y-58056208D01*
X79426772Y-53280218D02*
X80069281Y-54164555D01*
X69893840Y-52393012D02*
X70395578Y-53938780D01*
X70395578Y-53938780D02*
X72943704Y-57445976D01*
X73558973Y-57543424D02*
X74289515Y-57012654D01*
X76612745Y-68255816D02*
X77078622Y-68329603D01*
X85405172Y-75010632D02*
X82474492Y-77139896D01*
X85531273Y-74214468D02*
X85405172Y-75010632D01*
X94193428Y-66883613D02*
X94007748Y-68055950D01*
X95620858Y-65846525D02*
X94193428Y-66883613D01*
X88055452Y-70558211D02*
X88884582Y-71699409D01*
X88884582Y-71699409D02*
X88870490Y-71788386D01*
X94007748Y-68055950D02*
X88870490Y-71788386D01*
X76612745Y-68255816D02*
X76455523Y-68370044D01*
X76455523Y-68370044D02*
X76004371Y-71218506D01*
X76407183Y-72459504D02*
X79460905Y-76662591D01*
X80505992Y-76828116D02*
X81236534Y-76297347D01*
X79460905Y-76662591D02*
X80505992Y-76828116D01*
X87489398Y-82743020D02*
X86501992Y-83460413D01*
X86501992Y-83460413D02*
X85171538Y-83249689D01*
X78066027Y-67612211D02*
X78783420Y-68599616D01*
X73118947Y-57863121D02*
X72643579Y-60864484D01*
X73558973Y-57543424D02*
X73118947Y-57863121D01*
X80069281Y-54164555D02*
X79984947Y-54697015D01*
X82220283Y-66416303D02*
X79137927Y-68655765D01*
X85171538Y-83249689D02*
X81252480Y-77855568D01*
X82083554Y-62338597D02*
X83174190Y-63839729D01*
X81447041Y-77886384D02*
X81252480Y-77855568D01*
X89028884Y-82269498D02*
X89588749Y-83040087D01*
X72643579Y-60864484D02*
X73774880Y-64349830D01*
X92833522Y-83554008D02*
X95824457Y-81380967D01*
X73774880Y-64349830D02*
X76612745Y-68255816D01*
X78783420Y-68599616D02*
X79137927Y-68655765D01*
X88300033Y-82154060D02*
X89028884Y-82269498D01*
X89588749Y-83040087D02*
X92833522Y-83554008D01*
X101207811Y-75696962D02*
X99818816Y-73785173D01*
X81252480Y-77855568D02*
X80505992Y-76828116D01*
X95824457Y-81380967D02*
X96429602Y-80941303D01*
X72943704Y-57445976D02*
X73558973Y-57543424D01*
X88340543Y-60147338D02*
X83243331Y-63850679D01*
D28*
X98950130Y-81340516D02*
X100491309Y-80220785D01*
D27*
X87489398Y-82743020D02*
X88300033Y-82154060D01*
X96429602Y-80941303D02*
X98950130Y-81340516D01*
X75361414Y-58056208D02*
X75006906Y-58000060D01*
X75006906Y-58000060D02*
X74289515Y-57012654D01*
X123251850Y-61456386D02*
X121192545Y-61782548D01*
X114704556Y-57354827D02*
X113648773Y-58121414D01*
X123937786Y-61893563D02*
X123948737Y-61962705D01*
X111072357Y-65338088D02*
X110044905Y-64591602D01*
X117784029Y-57483781D02*
X118771433Y-58201173D01*
X118138418Y-69767336D02*
X114799201Y-67341252D01*
X123948737Y-61962705D02*
X123251850Y-61456386D01*
X131647493Y-56035158D02*
X127023961Y-52675966D01*
X132822462Y-55066489D02*
X132179954Y-55950825D01*
X130720407Y-45725969D02*
X129405340Y-46680819D01*
X129405340Y-46680819D02*
X126857213Y-50188015D01*
X126954662Y-50803283D02*
X127685204Y-51334052D01*
X117710241Y-57017905D02*
X117784029Y-57483781D01*
X114003038Y-67467352D02*
X111072357Y-65338088D01*
X114799201Y-67341252D02*
X114003038Y-67467352D01*
X124448012Y-73314093D02*
X123275675Y-73499773D01*
X125875441Y-74351181D02*
X124448012Y-73314093D01*
X119056524Y-68612045D02*
X118227394Y-69753244D01*
X118227394Y-69753244D02*
X118138418Y-69767336D01*
X123275675Y-73499773D02*
X118138418Y-69767336D01*
X117710241Y-57017905D02*
X117553018Y-56903675D01*
X117553018Y-56903675D02*
X114704556Y-57354827D01*
X113648773Y-58121414D02*
X110595051Y-62324502D01*
X110760577Y-63369589D02*
X111491119Y-63900360D01*
X110595051Y-62324502D02*
X110760577Y-63369589D01*
X107293160Y-71839008D02*
X106305755Y-71121616D01*
X106305755Y-71121616D02*
X106095032Y-69791161D01*
X118771433Y-58201173D02*
X118054042Y-59188578D01*
X126514637Y-50483587D02*
X123513274Y-50958955D01*
X126954662Y-50803283D02*
X126514637Y-50483587D01*
X132179954Y-55950825D02*
X131647493Y-56035158D01*
X121192545Y-61782548D02*
X118110190Y-59543086D01*
X106095032Y-69791161D02*
X110014090Y-64397041D01*
X125028422Y-60392432D02*
X123937786Y-61893563D01*
X110044905Y-64591602D02*
X110014090Y-64397041D01*
X108219234Y-73156820D02*
X107659368Y-73927408D01*
X123513274Y-50958955D02*
X120548106Y-53111918D01*
X120548106Y-53111918D02*
X117710241Y-57017905D01*
X118054042Y-59188578D02*
X118110190Y-59543086D01*
X108103795Y-72427969D02*
X108219234Y-73156820D01*
X107659368Y-73927408D02*
X108173290Y-77172180D01*
X110014090Y-64397041D02*
X110760577Y-63369589D01*
X126857213Y-50188015D02*
X126954662Y-50803283D01*
X129045949Y-65666045D02*
X123948737Y-61962705D01*
X107293160Y-71839008D02*
X108103795Y-72427969D01*
X127023961Y-52675966D02*
X126967812Y-52321458D01*
X126967812Y-52321458D02*
X127685204Y-51334052D01*
X64418609Y-108814517D02*
X63257846Y-109191672D01*
X72496293Y-102851526D02*
X72528074Y-102789152D01*
X63254080Y-110605517D02*
X63536887Y-110050478D01*
X62815527Y-103059423D02*
X64581560Y-108494710D01*
X59131125Y-111945147D02*
X63254080Y-110605517D01*
X64581560Y-108494710D02*
X64418609Y-108814517D01*
X63536887Y-110050478D02*
X63257846Y-109191672D01*
X63536887Y-110050478D02*
X63704961Y-110567756D01*
X57505965Y-112014000D02*
X59131125Y-112014487D01*
X61295587Y-103152464D02*
X62335187Y-102814678D01*
X72794262Y-103608392D02*
X74651989Y-104554951D01*
X74651989Y-104554951D02*
X75829343Y-108178476D01*
X62335187Y-102814678D02*
X62815527Y-103059423D01*
X63704961Y-110567756D02*
X66412530Y-111947332D01*
X74505629Y-108875439D02*
X75666394Y-108498284D01*
X92185021Y-105749723D02*
X91573478Y-106949943D01*
X91807866Y-104588958D02*
X92185021Y-105749723D01*
X83544093Y-110345552D02*
X84024467Y-109402765D01*
X84024467Y-109402765D02*
X83745425Y-108543960D01*
X78603068Y-111950989D02*
X83544093Y-110345552D01*
X74728698Y-110641303D02*
X77298331Y-111950596D01*
X77298331Y-111950596D02*
X78603068Y-111950989D01*
X74668644Y-110456477D02*
X74728698Y-110641303D01*
X79853911Y-93851084D02*
X81816170Y-99890293D01*
X81735903Y-99849394D02*
X81816170Y-99890293D01*
X81816170Y-99890293D02*
X83091638Y-103815778D01*
X80394342Y-100285295D02*
X81735903Y-99849394D01*
X78251102Y-91634176D02*
X78796333Y-93312219D01*
X78796333Y-93312219D02*
X79853911Y-93851084D01*
X83091638Y-103815778D02*
X83809867Y-104181734D01*
X83809867Y-104181734D02*
X84929286Y-107626955D01*
X74668644Y-110456477D02*
X74882785Y-110036202D01*
X74882785Y-110036202D02*
X74505629Y-108875439D01*
X70076881Y-111948431D02*
X74668644Y-110456477D01*
X66412530Y-111947332D02*
X70076881Y-111948431D01*
X91498230Y-103635999D02*
X91833248Y-102978492D01*
X92857005Y-95529557D02*
X94015567Y-93255754D01*
X84929286Y-107626955D02*
X85321738Y-108834797D01*
X94015567Y-93255754D02*
X93426888Y-91443992D01*
X85321738Y-108834797D02*
X85232310Y-109010313D01*
X93088150Y-96240949D02*
X92857005Y-95529557D01*
X85232310Y-109010313D02*
X84024467Y-109402765D01*
X89345889Y-89364618D02*
X87098446Y-90094856D01*
X93426888Y-91443992D02*
X89345889Y-89364618D01*
X92739129Y-102684154D02*
X94230585Y-99757002D01*
X94230585Y-99757002D02*
X93088150Y-96240949D01*
X91833248Y-102978492D02*
X92739129Y-102684154D01*
X75666394Y-108498284D02*
X75829343Y-108178476D01*
X91807866Y-104588958D02*
X91498230Y-103635999D01*
X91573478Y-106949943D02*
X85232310Y-109010313D01*
X70581114Y-96797020D02*
X72528074Y-102789152D01*
X70731608Y-103424907D02*
X72496293Y-102851526D01*
X72528074Y-102789152D02*
X72794262Y-103608392D01*
X103098744Y-135710045D02*
X103098744Y-134616946D01*
X103098744Y-134616946D02*
X103479944Y-134235746D01*
X103479944Y-134235746D02*
X109194944Y-134235746D01*
X109448743Y-134489548D02*
X109448744Y-135710046D01*
X109194944Y-134235746D02*
X109448743Y-134489548D01*
X110792226Y-136150530D02*
X110351745Y-135710047D01*
X110792227Y-140485662D02*
X110792226Y-136150530D01*
X110351745Y-135710047D02*
X109448744Y-135710046D01*
X110289561Y-142031128D02*
X110792227Y-140485662D01*
X107085644Y-124915047D02*
X108559944Y-123440746D01*
X108559944Y-123440746D02*
X112369943Y-123440746D01*
X106273743Y-124964546D02*
X106224243Y-124915047D01*
X106273744Y-126820046D02*
X106273743Y-124964546D01*
X106224243Y-124915047D02*
X107085644Y-124915047D01*
X99923744Y-124915047D02*
X106224243Y-124915047D01*
X112623743Y-123694547D02*
X112369943Y-123440746D01*
X112623744Y-124915047D02*
X112623743Y-123694547D01*
X110351745Y-135710047D02*
X110895645Y-135710046D01*
X110895645Y-135710046D02*
X113044383Y-133561307D01*
X113044383Y-133561307D02*
X114177774Y-130076643D01*
X114177774Y-130076643D02*
X114177774Y-125248577D01*
X113844243Y-124915046D02*
X112623744Y-124915047D01*
X114177774Y-125248577D02*
X113844243Y-124915046D01*
X111034933Y-114615757D02*
X114657454Y-114615756D01*
X110464944Y-115185747D02*
X111034933Y-114615757D01*
X99148144Y-116025048D02*
X99987443Y-115185746D01*
X97383744Y-116025047D02*
X99148144Y-116025048D01*
X106273744Y-116660046D02*
X106273744Y-115249446D01*
X106337444Y-115185746D02*
X110464944Y-115185747D01*
X106273744Y-115249446D02*
X106337444Y-115185746D01*
X99987443Y-115185746D02*
X106337444Y-115185746D01*
X114177774Y-125248577D02*
X114372113Y-125248578D01*
X116411386Y-123209305D02*
X116814943Y-121968548D01*
X114372113Y-125248578D02*
X116411386Y-123209305D01*
X116814943Y-121968548D02*
X116814943Y-116773246D01*
X116066743Y-116025047D02*
X115163744Y-116025046D01*
X116814943Y-116773246D02*
X116066743Y-116025047D01*
X115927453Y-114615757D02*
X116066744Y-114755046D01*
X114657454Y-114615756D02*
X115927453Y-114615757D01*
X98653744Y-104771948D02*
X98653744Y-107135047D01*
X55202659Y-108608446D02*
X53340000Y-110471105D01*
X53340000Y-110471105D02*
X53340000Y-111125000D01*
X53340000Y-111125000D02*
X54134654Y-111919655D01*
X54134654Y-111919655D02*
X57505965Y-111944660D01*
D28*
X98950130Y-82659870D02*
X98950130Y-81340516D01*
X97425000Y-84185000D02*
X98950130Y-82659870D01*
X97425000Y-85092500D02*
X97425000Y-84185000D01*
X109702165Y-78269665D02*
X109750831Y-78318331D01*
X109750831Y-78318331D02*
X111164225Y-79345222D01*
D27*
X108173290Y-77172180D02*
X109750831Y-78318331D01*
D28*
X100491309Y-80220785D02*
X100800335Y-78269665D01*
D27*
X100800335Y-78269665D02*
X101207811Y-75696962D01*
D28*
X107235000Y-78354330D02*
X107150335Y-78269665D01*
D29*
X107235000Y-82232500D02*
X107235000Y-78354330D01*
X107150335Y-78269665D02*
X109702165Y-78269665D01*
X100800335Y-78269665D02*
X107150335Y-78269665D01*
D28*
X97970267Y-91497233D02*
X97970267Y-91937767D01*
D30*
X107235000Y-82232500D02*
X97970267Y-91497233D01*
D29*
X96652280Y-93255754D02*
X97970267Y-91937767D01*
X94015567Y-93255754D02*
X96652280Y-93255754D01*
D27*
X124830059Y-85536809D02*
X131171229Y-87597180D01*
X114820197Y-95138560D02*
X117094000Y-93980000D01*
X117078930Y-94021657D02*
X117702985Y-92101015D01*
X117702985Y-92101015D02*
X119099985Y-92101015D01*
X119099985Y-92101015D02*
X120079976Y-91121024D01*
X121379661Y-88302753D02*
X122285543Y-88597091D01*
X122285543Y-88597091D02*
X122943049Y-88262075D01*
X122943049Y-88262075D02*
X123629839Y-86148352D01*
X123629839Y-86148352D02*
X124830059Y-85536809D01*
X119330861Y-80772000D02*
X119459542Y-80900681D01*
X111164225Y-79345222D02*
X111769370Y-79784886D01*
X117475000Y-83947000D02*
X117488492Y-83947000D01*
X110057930Y-91102196D02*
X108712000Y-92448126D01*
X108712000Y-92448126D02*
X108712000Y-92456000D01*
X108712000Y-92456000D02*
X109855000Y-93599000D01*
X109855000Y-93559257D02*
X111283601Y-92130656D01*
X109855000Y-93599000D02*
X109855000Y-93559257D01*
X109735874Y-93599000D02*
X109855000Y-93599000D01*
X105207070Y-98127804D02*
X109735874Y-93599000D01*
X105207070Y-98132424D02*
X104267000Y-99072494D01*
X105207070Y-98127804D02*
X105207070Y-98132424D01*
D28*
X96652280Y-93255754D02*
X96609246Y-93255754D01*
D29*
X96609246Y-93255754D02*
X94996000Y-94869000D01*
X94996000Y-94869000D02*
X94996000Y-97917000D01*
D28*
X100188846Y-103109846D02*
X100188846Y-103236846D01*
D27*
X100188846Y-103236846D02*
X98653744Y-104771948D01*
X101282500Y-99060000D02*
X103398500Y-99060000D01*
D29*
X97970267Y-91937767D02*
X97970267Y-93652267D01*
X97970267Y-93652267D02*
X99568000Y-95250000D01*
D27*
X110289561Y-142031128D02*
X110289561Y-142062037D01*
X110289561Y-142062037D02*
X109068328Y-145820672D01*
X109068328Y-145820672D02*
X108966000Y-145923000D01*
X108966000Y-145923000D02*
X106807000Y-145923000D01*
X106273743Y-145389743D02*
X106273743Y-143330046D01*
X106807000Y-145923000D02*
X106273743Y-145389743D01*
X120985642Y-88440310D02*
X120079976Y-89345976D01*
X121109690Y-88440310D02*
X120985642Y-88440310D01*
X120079976Y-91121024D02*
X120079976Y-89345976D01*
X121109690Y-88440310D02*
X121379661Y-88302753D01*
X117475000Y-84003754D02*
X118970623Y-85499377D01*
X117475000Y-83947000D02*
X117475000Y-84003754D01*
X120142000Y-86670754D02*
X118970623Y-85499377D01*
X120142000Y-87630000D02*
X120142000Y-86670754D01*
X118872000Y-88900000D02*
X120142000Y-87630000D01*
X118872000Y-90043000D02*
X118872000Y-88900000D01*
X117729000Y-91186000D02*
X118872000Y-90043000D01*
X112522000Y-90805000D02*
X112903000Y-91186000D01*
X111283601Y-92043399D02*
X112522000Y-90805000D01*
X111283601Y-92130656D02*
X111283601Y-92043399D01*
D28*
X112493114Y-79784886D02*
X111769370Y-79784886D01*
X112903000Y-79375000D02*
X112493114Y-79784886D01*
X117933861Y-79375000D02*
X112903000Y-79375000D01*
X119459542Y-80900681D02*
X117933861Y-79375000D01*
D29*
X106934000Y-86868000D02*
X104521000Y-86868000D01*
X104521000Y-86868000D02*
X99451233Y-91937767D01*
X114808000Y-83185000D02*
X110617000Y-83185000D01*
X99451233Y-91937767D02*
X97970267Y-91937767D01*
X115570000Y-82423000D02*
X114808000Y-83185000D01*
X117729000Y-82423000D02*
X115570000Y-82423000D01*
X110617000Y-83185000D02*
X106934000Y-86868000D01*
X118618000Y-83312000D02*
X117729000Y-82423000D01*
X119326820Y-83312000D02*
X118618000Y-83312000D01*
X123238784Y-87223964D02*
X119326820Y-83312000D01*
D27*
X136017000Y-45212000D02*
X134569542Y-47140682D01*
X136017000Y-45085000D02*
X136017000Y-45212000D01*
X134747000Y-43815000D02*
X136017000Y-45085000D01*
X133253667Y-43815000D02*
X134747000Y-43815000D01*
X130720407Y-45655899D02*
X133253667Y-43815000D01*
X130720407Y-45725969D02*
X130720407Y-45655899D01*
X69088000Y-49845479D02*
X69908143Y-52393012D01*
X68620806Y-48219193D02*
X69149479Y-49845479D01*
X69596000Y-47244000D02*
X68620806Y-48219193D01*
X70665495Y-47244000D02*
X69596000Y-47244000D01*
X72366890Y-48945395D02*
X70665495Y-47244000D01*
X114216450Y-96991980D02*
X114216450Y-97071450D01*
X118528782Y-101383782D02*
X118528782Y-101713965D01*
X114216450Y-97071450D02*
X118528782Y-101383782D01*
X103199994Y-99072494D02*
X103187500Y-99060000D01*
X104267000Y-99072494D02*
X103199994Y-99072494D01*
X115114244Y-107135046D02*
X116066744Y-108087547D01*
D29*
X104104044Y-101839846D02*
X105601945Y-103337746D01*
X105601945Y-103337746D02*
X106349943Y-103337747D01*
D27*
X116066744Y-108087547D02*
X116066744Y-114755046D01*
D29*
X96266000Y-99187000D02*
X96266000Y-101981000D01*
X94996000Y-97917000D02*
X96266000Y-99187000D01*
X96266000Y-101981000D02*
X97409000Y-103124000D01*
D28*
X100174692Y-103124000D02*
X100188846Y-103109846D01*
D29*
X97409000Y-103124000D02*
X100174692Y-103124000D01*
X100174692Y-103124000D02*
X101092000Y-103124000D01*
X101092000Y-103124000D02*
X102376154Y-101839846D01*
D28*
X102376154Y-101839846D02*
X102503154Y-101839846D01*
D29*
X102503154Y-101839846D02*
X104104044Y-101839846D01*
D27*
X105410000Y-106045000D02*
X104775000Y-106680000D01*
X104775000Y-106680000D02*
X104775000Y-109855000D01*
X104775000Y-109855000D02*
X105410000Y-110490000D01*
X105410000Y-110490000D02*
X108585000Y-110490000D01*
X108585000Y-110490000D02*
X109537500Y-109537500D01*
X109537500Y-109537500D02*
X113347500Y-109537500D01*
X113893744Y-108991256D02*
X113893744Y-107135046D01*
X113347500Y-109537500D02*
X113893744Y-108991256D01*
X115114244Y-107135046D02*
X113893744Y-107135046D01*
X114219323Y-96934763D02*
X114808000Y-95123000D01*
X106349944Y-105486056D02*
X105791000Y-106045000D01*
X105791000Y-106045000D02*
X105410000Y-106045000D01*
X106349944Y-103337747D02*
X106349944Y-105486056D01*
D28*
X80360859Y-76828116D02*
X79295558Y-77893417D01*
X80505992Y-76828116D02*
X80360859Y-76828116D01*
D27*
X114744500Y-92519500D02*
X114744500Y-91249500D01*
X114935000Y-91186000D02*
X117729000Y-91186000D01*
X112903000Y-91186000D02*
X114935000Y-91186000D01*
X132621442Y-87747261D02*
X132379071Y-87989632D01*
X132621442Y-86016531D02*
X132621442Y-87747261D01*
X110014090Y-64331115D02*
X110014090Y-64397041D01*
X108759558Y-63076583D02*
X110014090Y-64331115D01*
X85123442Y-110501740D02*
X84024467Y-109402765D01*
X85123442Y-110833469D02*
X85123442Y-110501740D01*
X116078000Y-115443000D02*
X116066744Y-115431744D01*
X117694000Y-115443000D02*
X116078000Y-115443000D01*
X116066744Y-115431744D02*
X116066743Y-116025047D01*
X116066744Y-114755046D02*
X116066744Y-115431744D01*
%TO.N,Net-(C1-Pad1)*%
X108219423Y-89559506D02*
X108224042Y-89559506D01*
X112058548Y-85725000D02*
X113538000Y-85725000D01*
X108224042Y-89559506D02*
X112058548Y-85725000D01*
X116007754Y-85414246D02*
X115062000Y-86360000D01*
X115062000Y-86360000D02*
X115027572Y-86360000D01*
X113538000Y-85725000D02*
X114600286Y-86787286D01*
X114600286Y-86787286D02*
X113647786Y-87739786D01*
X115027572Y-86360000D02*
X114600286Y-86787286D01*
%TO.N,Net-(C2-Pad1)*%
X108836878Y-90073736D02*
X109629614Y-89281000D01*
X108832258Y-90073736D02*
X108836878Y-90073736D01*
X116883362Y-89281000D02*
X116988681Y-89175681D01*
X109629614Y-89281000D02*
X109728000Y-89281000D01*
X109728000Y-89281000D02*
X110871000Y-88138000D01*
X110871000Y-88138000D02*
X111506000Y-88138000D01*
X117503377Y-86966623D02*
X117249377Y-86966623D01*
X116988681Y-89175681D02*
X116078000Y-88265000D01*
X116078000Y-88138000D02*
X115062000Y-89154000D01*
X116078000Y-88265000D02*
X116078000Y-88138000D01*
X117249377Y-86966623D02*
X116078000Y-88138000D01*
X113284000Y-89916000D02*
X114300000Y-89916000D01*
X114300000Y-89916000D02*
X115062000Y-89154000D01*
X111506000Y-88138000D02*
X113284000Y-89916000D01*
%TO.N,VCC*%
X154082850Y-110946876D02*
X152770862Y-111615368D01*
X158831481Y-110795053D02*
X156800494Y-111829892D01*
X156800494Y-111829892D02*
X154082850Y-110946876D01*
X152770862Y-111615368D02*
X150764608Y-110963496D01*
X158992788Y-110298601D02*
X158831481Y-110795053D01*
X149055258Y-109980991D02*
X149316054Y-110492832D01*
X149316054Y-110492832D02*
X150764608Y-110963496D01*
X151411555Y-104496917D02*
X150723177Y-104847663D01*
X150723177Y-104847663D02*
X149055258Y-109980991D01*
X152726866Y-104924287D02*
X151411555Y-104496917D01*
X140919157Y-111102908D02*
X139516824Y-110647262D01*
X141461619Y-110826510D02*
X140919157Y-111102908D01*
X149316054Y-110492832D02*
X149272761Y-110626075D01*
X149272761Y-110626075D02*
X146791172Y-111890508D01*
X141657844Y-110222589D02*
X141461619Y-110826510D01*
X143290845Y-105196731D02*
X141657844Y-110222589D01*
X143441340Y-98568844D02*
X142087660Y-102735043D01*
X143310745Y-105135483D02*
X143290845Y-105196731D01*
X142087660Y-102735043D02*
X143310745Y-105135483D01*
X132976239Y-104063372D02*
X133628111Y-102057118D01*
X133572180Y-105232972D02*
X132976239Y-104063372D01*
X131987356Y-110110560D02*
X133572180Y-105232972D01*
X131075441Y-110575204D02*
X131987356Y-110110560D01*
X130277029Y-110315785D02*
X131075441Y-110575204D01*
X139516824Y-110647262D02*
X138503473Y-110318005D01*
X138503473Y-110318005D02*
X136214802Y-111484141D01*
X136214802Y-111484141D02*
X131987356Y-110110560D01*
X123013000Y-106620202D02*
X122214588Y-106360782D01*
X125668440Y-95730918D02*
X126468228Y-97300592D01*
X123524842Y-106359405D02*
X123013000Y-106620202D01*
X126924007Y-91866680D02*
X125668440Y-95730918D01*
X120981397Y-97867830D02*
X125765687Y-99422340D01*
X125781438Y-99414315D02*
X123524842Y-106359405D01*
X125765687Y-99422340D02*
X125781438Y-99414315D01*
X126468228Y-97300592D02*
X125781438Y-99414315D01*
X134885083Y-96133653D02*
X135771351Y-93406000D01*
X136254675Y-98821629D02*
X134885083Y-96133653D01*
X135845198Y-100081870D02*
X136254675Y-98821629D01*
X133957368Y-101043767D02*
X135845198Y-100081870D01*
X133628111Y-102057118D02*
X133957368Y-101043767D01*
X122214588Y-106360782D02*
X121743924Y-107809336D01*
X121743924Y-107809336D02*
X122747560Y-109779083D01*
X130017609Y-111114197D02*
X130277029Y-110315785D01*
X128786769Y-111741341D02*
X130017609Y-111114197D01*
X77895547Y-45728501D02*
X79135478Y-47435122D01*
X72510233Y-42829807D02*
X74761599Y-43186388D01*
X76441196Y-45498154D02*
X77895547Y-45728501D01*
X74761599Y-43186388D02*
X76441196Y-45498154D01*
X72087927Y-43136630D02*
X72510233Y-42829807D01*
X79940871Y-49234717D02*
X80030735Y-48667336D01*
X80030735Y-48667336D02*
X79135478Y-47435122D01*
X74811128Y-52286429D02*
X75574201Y-52407288D01*
X75574201Y-52407288D02*
X79940871Y-49234717D01*
X73998222Y-51167559D02*
X74811128Y-52286429D01*
X87182560Y-53109347D02*
X88049250Y-54302241D01*
X86581237Y-53014107D02*
X87182560Y-53109347D01*
X80030735Y-48667336D02*
X80144078Y-48584987D01*
X80144078Y-48584987D02*
X82894941Y-49020680D01*
X86067511Y-53387351D02*
X86581237Y-53014107D01*
X81792261Y-56493502D02*
X86067511Y-53387351D01*
X77774734Y-61767115D02*
X81318714Y-59192263D01*
X81740160Y-56531355D02*
X81792261Y-56493502D01*
X81318714Y-59192263D02*
X81740160Y-56531355D01*
X89470780Y-63473181D02*
X87764159Y-64713113D01*
X89676128Y-62176668D02*
X89470780Y-63473181D01*
X93825253Y-59162154D02*
X89676128Y-62176668D01*
X94836118Y-59322259D02*
X93825253Y-59162154D01*
X95329564Y-60001429D02*
X94836118Y-59322259D01*
X88049250Y-54302241D02*
X88675535Y-55164250D01*
X88675535Y-55164250D02*
X91212547Y-55566073D01*
X91212547Y-55566073D02*
X93825253Y-59162154D01*
X99034078Y-67260907D02*
X99527523Y-67940077D01*
X90485221Y-74509694D02*
X90485221Y-74509694D01*
X98466697Y-67171042D02*
X99034078Y-67260907D01*
X87198105Y-76897925D02*
X90485221Y-74509694D01*
X95533164Y-75535870D02*
X92576310Y-71466110D01*
X92558849Y-71463346D02*
X98466697Y-67171042D01*
X92576310Y-71466110D02*
X92558849Y-71463346D01*
X90760809Y-72769698D02*
X92558849Y-71463346D01*
X83265521Y-68766469D02*
X80945241Y-70452251D01*
X83737451Y-65786824D02*
X83265521Y-68766469D01*
X84809477Y-65007951D02*
X83737451Y-65786824D01*
X86902152Y-65339400D02*
X84809477Y-65007951D01*
X87764159Y-64713113D02*
X86902152Y-65339400D01*
X99527523Y-67940077D02*
X100759738Y-67044821D01*
X100759738Y-67044821D02*
X101105566Y-64861340D01*
X96008734Y-59507983D02*
X95329564Y-60001429D01*
X97373130Y-59724083D02*
X96008734Y-59507983D01*
X139531397Y-51276597D02*
X138291464Y-52983219D01*
X140624066Y-45259115D02*
X140980647Y-47510480D01*
X139301051Y-49822246D02*
X139531397Y-51276597D01*
X140980647Y-47510480D02*
X139301051Y-49822246D01*
X140201759Y-44952291D02*
X140624066Y-45259115D01*
X136828827Y-54305296D02*
X137396208Y-54215432D01*
X137396208Y-54215432D02*
X138291464Y-52983219D01*
X132341300Y-50369653D02*
X132462158Y-51132726D01*
X132462158Y-51132726D02*
X136828827Y-54305296D01*
X133154206Y-49250782D02*
X132341300Y-50369653D01*
X135381641Y-62389880D02*
X134514951Y-63582776D01*
X135286400Y-61788556D02*
X135381641Y-62389880D01*
X137396208Y-54215432D02*
X137509552Y-54297781D01*
X137509552Y-54297781D02*
X137945246Y-57048644D01*
X134772675Y-61415312D02*
X135286400Y-61788556D01*
X130497424Y-58309161D02*
X134772675Y-61415312D01*
X124240435Y-56117903D02*
X127784415Y-58692755D01*
X130445323Y-58271308D02*
X130497424Y-58309161D01*
X127784415Y-58692755D02*
X130445323Y-58271308D01*
X126232148Y-67768708D02*
X124525526Y-66528774D01*
X127528659Y-67563360D02*
X126232148Y-67768708D01*
X131677784Y-70577875D02*
X127528659Y-67563360D01*
X131837889Y-71588741D02*
X131677784Y-70577875D01*
X131344443Y-72267910D02*
X131837889Y-71588741D01*
X134514951Y-63582776D02*
X133888666Y-64444782D01*
X133888666Y-64444782D02*
X134290490Y-66981795D01*
X134290490Y-66981795D02*
X131677784Y-70577875D01*
X125585027Y-78034415D02*
X125091582Y-78713585D01*
X116049279Y-72143968D02*
X116190587Y-72121587D01*
X125495163Y-77467034D02*
X125585027Y-78034415D01*
X112762162Y-69755737D02*
X116049279Y-72143968D01*
X116633228Y-77261952D02*
X119590081Y-73192192D01*
X119587316Y-73174732D02*
X125495163Y-77467034D01*
X119590081Y-73192192D02*
X119587316Y-73174732D01*
X117789276Y-71868379D02*
X119587316Y-73174732D01*
X119280401Y-63502871D02*
X116960122Y-61817089D01*
X122260046Y-63030942D02*
X119280401Y-63502871D01*
X123332072Y-63809814D02*
X122260046Y-63030942D01*
X123663518Y-65902489D02*
X123332072Y-63809814D01*
X124525526Y-66528774D02*
X123663518Y-65902489D01*
X125091582Y-78713585D02*
X126323795Y-79608841D01*
X126323795Y-79608841D02*
X128507276Y-79263011D01*
X132023613Y-72761356D02*
X131344443Y-72267910D01*
X132239713Y-74125753D02*
X132023613Y-72761356D01*
X52971811Y-103587126D02*
X53640302Y-102275137D01*
X49219327Y-106501128D02*
X50254167Y-104470142D01*
X50254167Y-104470142D02*
X52971811Y-103587126D01*
X53640302Y-102275137D02*
X55646556Y-101623266D01*
X49380633Y-106997581D02*
X49219327Y-106501128D01*
X57606953Y-101413398D02*
X57095109Y-101152602D01*
X57095109Y-101152602D02*
X55646556Y-101623266D01*
X58924124Y-107235104D02*
X59274871Y-106546726D01*
X59274871Y-106546726D02*
X57606953Y-101413398D01*
X57608815Y-107662475D02*
X58924124Y-107235104D01*
X63529750Y-95723468D02*
X64932082Y-95267823D01*
X63253351Y-96265929D02*
X63529750Y-95723468D01*
X57095109Y-101152602D02*
X57051816Y-101019358D01*
X57051816Y-101019358D02*
X58316249Y-98537771D01*
X63449577Y-96869851D02*
X63253351Y-96265929D01*
X65082578Y-101895709D02*
X63449577Y-96869851D01*
X68856598Y-107346240D02*
X67502918Y-103180043D01*
X65102478Y-101956958D02*
X65082578Y-101895709D01*
X67502918Y-103180043D02*
X65102478Y-101956958D01*
X74093440Y-96749844D02*
X74745311Y-98756097D01*
X72923840Y-96153902D02*
X74093440Y-96749844D01*
X71339015Y-91276313D02*
X72923840Y-96153902D01*
X71803660Y-90364398D02*
X71339015Y-91276313D01*
X72602072Y-90104979D02*
X71803660Y-90364398D01*
X64932082Y-95267823D02*
X65945432Y-94938565D01*
X65945432Y-94938565D02*
X67111569Y-92649894D01*
X67111569Y-92649894D02*
X71339015Y-91276313D01*
X80651003Y-88825078D02*
X81449416Y-88565659D01*
X84903268Y-99195523D02*
X83333595Y-98395734D01*
X80390207Y-89336920D02*
X80651003Y-88825078D01*
X86158834Y-103059760D02*
X85164987Y-100001013D01*
X87439118Y-94711749D02*
X82654829Y-96266260D01*
X82646803Y-96282011D02*
X80390207Y-89336920D01*
X82654829Y-96266260D02*
X82646803Y-96282011D01*
X83333595Y-98395734D02*
X82646803Y-96282011D01*
X77210126Y-104287109D02*
X78096395Y-107014762D01*
X74522149Y-102917518D02*
X77210126Y-104287109D01*
X74112672Y-101657277D02*
X74522149Y-102917518D01*
X75074569Y-99769447D02*
X74112672Y-101657277D01*
X74745311Y-98756097D02*
X75074569Y-99769447D01*
X81449416Y-88565659D02*
X80978750Y-87117105D01*
X80978750Y-87117105D02*
X79919574Y-86577426D01*
X72342651Y-89306567D02*
X72602072Y-90104979D01*
X72969796Y-88075727D02*
X72342651Y-89306567D01*
X99898744Y-142719547D02*
X99898744Y-140610047D01*
X100939943Y-143760747D02*
X99898744Y-142719547D01*
X100939944Y-146618246D02*
X100939943Y-143760747D01*
X102551743Y-148230047D02*
X100939944Y-146618246D01*
X103073744Y-148230046D02*
X102551743Y-148230047D01*
X100304944Y-138680746D02*
X99898745Y-139086947D01*
X99898745Y-139086947D02*
X99898744Y-140610047D01*
X106248744Y-139227046D02*
X105702444Y-138680745D01*
X105702444Y-138680745D02*
X100304944Y-138680746D01*
X106248744Y-140610047D02*
X106248744Y-139227046D01*
X96723743Y-131289547D02*
X96723744Y-129815047D01*
X97154244Y-131720045D02*
X96723743Y-131289547D01*
X99898745Y-139086947D02*
X99758643Y-139086946D01*
X99758643Y-139086946D02*
X97789244Y-137117547D01*
X97789243Y-131720047D02*
X97154244Y-131720045D01*
X103073743Y-131720046D02*
X97789243Y-131720047D01*
X109423745Y-129815047D02*
X105043144Y-129815045D01*
X103138143Y-131720046D02*
X103073743Y-131720046D01*
X105043144Y-129815045D02*
X103138143Y-131720046D01*
X100964245Y-121560047D02*
X103073743Y-121560046D01*
X100036044Y-122488247D02*
X100964245Y-121560047D01*
X94907443Y-122488246D02*
X100036044Y-122488247D01*
X94183745Y-121764546D02*
X94907443Y-122488246D01*
X94183743Y-120925046D02*
X94183745Y-121764546D01*
X96723744Y-129815047D02*
X96723744Y-128749547D01*
X96723744Y-128749547D02*
X94907444Y-126933246D01*
X94907444Y-126933246D02*
X94907443Y-122488246D01*
X95453745Y-112874547D02*
X95453744Y-112035046D01*
X106630644Y-112035046D02*
X105384944Y-113280746D01*
X95859944Y-113280747D02*
X95453745Y-112874547D01*
X110693744Y-112035047D02*
X106630644Y-112035046D01*
X103149944Y-108237747D02*
X103149945Y-113268246D01*
X103162443Y-113280748D02*
X95859944Y-113280747D01*
X103149945Y-113268246D02*
X103162443Y-113280748D01*
X105384944Y-113280746D02*
X103162443Y-113280748D01*
X109095720Y-120925047D02*
X111963743Y-120925047D01*
X106962529Y-123058236D02*
X109095720Y-120925047D01*
X105637434Y-123058237D02*
X106962529Y-123058236D01*
X104139244Y-121560047D02*
X105637434Y-123058237D01*
X103073743Y-121560046D02*
X104139244Y-121560047D01*
X95453744Y-112035046D02*
X93930644Y-112035047D01*
X93930644Y-112035047D02*
X92367444Y-113598247D01*
X93344243Y-120925046D02*
X94183743Y-120925046D01*
X92367444Y-119948247D02*
X93344243Y-120925046D01*
X79919574Y-86577426D02*
X79009005Y-86113468D01*
X90485221Y-74509694D02*
X90760809Y-72769698D01*
X116190587Y-72121587D02*
X117789276Y-71868379D01*
X92367444Y-113598247D02*
X92367444Y-113598247D01*
X85164987Y-100001013D02*
X84903268Y-99195523D01*
D28*
X97425000Y-88947500D02*
X96202500Y-90170000D01*
X97425000Y-86992500D02*
X97425000Y-88947500D01*
D31*
X96202500Y-90170000D02*
X93694250Y-87661750D01*
D28*
X93694250Y-87661750D02*
X91122500Y-85090000D01*
D27*
X109440474Y-90587966D02*
X105921440Y-94107000D01*
X109445094Y-90587966D02*
X109440474Y-90587966D01*
X105846678Y-94107000D02*
X103368564Y-96585114D01*
X105921440Y-94107000D02*
X105846678Y-94107000D01*
X99060000Y-97790000D02*
X99060000Y-99292500D01*
X109449714Y-90587966D02*
X110502680Y-89535000D01*
X109445094Y-90587966D02*
X109449714Y-90587966D01*
X110502680Y-89535000D02*
X110744000Y-89535000D01*
X110744000Y-89535000D02*
X111506000Y-90297000D01*
X111506000Y-90781191D02*
X110670765Y-91616426D01*
X111506000Y-90297000D02*
X111506000Y-90781191D01*
X121743924Y-107809336D02*
X121743924Y-107809336D01*
D28*
X93726000Y-107823000D02*
X93472000Y-107569000D01*
X93726000Y-111830403D02*
X93726000Y-107823000D01*
X93930644Y-112035047D02*
X93726000Y-111830403D01*
D27*
X98143161Y-97754339D02*
X98139250Y-97758250D01*
X102199339Y-97754339D02*
X98143161Y-97754339D01*
D28*
X97028000Y-96647000D02*
X98139250Y-97758250D01*
D27*
X102199339Y-97754339D02*
X103368564Y-96585114D01*
X98441000Y-99679000D02*
X99060000Y-99060000D01*
X98441000Y-101092000D02*
X98441000Y-99679000D01*
D28*
X81475395Y-87117105D02*
X83502500Y-85090000D01*
X80978750Y-87117105D02*
X81475395Y-87117105D01*
X91122500Y-85090000D02*
X83502500Y-85090000D01*
X100203000Y-62611000D02*
X99778799Y-63035201D01*
X100330000Y-62611000D02*
X100203000Y-62611000D01*
D27*
X99778799Y-63035201D02*
X97373130Y-59724083D01*
X101105566Y-64861340D02*
X99778799Y-63035201D01*
X124587000Y-110383760D02*
X124576620Y-110373380D01*
X124587000Y-110744000D02*
X124587000Y-110383760D01*
X124576620Y-110373380D02*
X128786769Y-111741341D01*
X122747560Y-109779083D02*
X124576620Y-110373380D01*
X129164882Y-78359000D02*
X129161941Y-78361941D01*
X129161941Y-78361941D02*
X132239713Y-74125753D01*
X129794000Y-78359000D02*
X129164882Y-78359000D01*
X128507276Y-79263011D02*
X129161941Y-78361941D01*
X77089000Y-86735440D02*
X77086220Y-86738220D01*
X77089000Y-86106000D02*
X77089000Y-86735440D01*
X77086220Y-86738220D02*
X72969796Y-88075727D01*
X79009005Y-86113468D02*
X77086220Y-86738220D01*
X91694000Y-115443000D02*
X92329000Y-115443000D01*
X92329000Y-115443000D02*
X92367444Y-115481444D01*
X92367444Y-115481444D02*
X92367444Y-119948247D01*
X92367444Y-113598247D02*
X92367444Y-115481444D01*
D28*
X143637000Y-110871000D02*
X143629084Y-110863084D01*
X143637000Y-111252000D02*
X143637000Y-110871000D01*
D27*
X143629084Y-110863084D02*
X141657844Y-110222589D01*
X146791172Y-111890508D02*
X143629084Y-110863084D01*
D28*
X136271000Y-59817000D02*
X136075765Y-59621765D01*
X136398000Y-59817000D02*
X136271000Y-59817000D01*
D27*
X136075765Y-59621765D02*
X134772675Y-61415312D01*
X137945246Y-57048644D02*
X136075765Y-59621765D01*
D28*
X85090000Y-51181000D02*
X84727717Y-51543283D01*
X85090000Y-51054000D02*
X85090000Y-51181000D01*
D27*
X84727717Y-51543283D02*
X86067511Y-53387351D01*
X82894941Y-49020680D02*
X84727717Y-51543283D01*
D28*
X60960000Y-97409000D02*
X61163607Y-97612607D01*
X60960000Y-97028000D02*
X60960000Y-97409000D01*
D27*
X61163607Y-97612607D02*
X63449577Y-96869851D01*
X58316249Y-98537771D02*
X61163607Y-97612607D01*
D28*
X97788488Y-133858000D02*
X97789244Y-133858756D01*
X97409000Y-133858000D02*
X97788488Y-133858000D01*
D27*
X97789244Y-133858756D02*
X97789243Y-131720047D01*
X97789244Y-137117547D02*
X97789244Y-133858756D01*
%TO.N,Net-(D1-Pad2)*%
X103098744Y-143305048D02*
X103073743Y-143330045D01*
X103098744Y-140610047D02*
X103098744Y-143305048D01*
%TO.N,Net-(D1-Pad4)*%
X99898744Y-134324447D02*
X99898743Y-135710047D01*
X100939943Y-133283246D02*
X99898744Y-134324447D01*
X110782443Y-133283246D02*
X100939943Y-133283246D01*
X112623744Y-131441947D02*
X110782443Y-133283246D01*
X112623744Y-129815047D02*
X112623744Y-131441947D01*
%TO.N,Net-(D2-Pad2)*%
X99923744Y-129815046D02*
X101233143Y-129815046D01*
X103073744Y-127974446D02*
X103073744Y-126820046D01*
X101233143Y-129815046D02*
X103073744Y-127974446D01*
%TO.N,Net-(D3-Pad2)*%
X99328144Y-120925046D02*
X97383744Y-120925047D01*
X99963144Y-120925046D02*
X99328144Y-120925046D01*
X103073744Y-117814447D02*
X99963144Y-120925046D01*
X103073743Y-116660046D02*
X103073744Y-117814447D01*
%TO.N,Net-(D4-Pad2)*%
X98653744Y-112035047D02*
X99645644Y-112035047D01*
X99645644Y-112035047D02*
X101257444Y-110423247D01*
X101257444Y-110423247D02*
X101257445Y-104390746D01*
X102310443Y-103337746D02*
X103149943Y-103337746D01*
X101257445Y-104390746D02*
X102310443Y-103337746D01*
%TO.N,Net-(D5-Pad2)*%
X104749943Y-147570745D02*
X105409243Y-148230046D01*
X104749945Y-142173247D02*
X104749943Y-147570745D01*
X107289944Y-141855747D02*
X105067443Y-141855747D01*
X105067443Y-141855747D02*
X104749945Y-142173247D01*
X107924944Y-141220747D02*
X107289944Y-141855747D01*
X107924944Y-138998246D02*
X107924944Y-141220747D01*
X105409243Y-148230046D02*
X106273744Y-148230047D01*
X106248745Y-137322046D02*
X107924944Y-138998246D01*
X106248744Y-135710046D02*
X106248745Y-137322046D01*
%TO.N,Net-(D11-Pad2)*%
X114909943Y-122488247D02*
X115163743Y-122234446D01*
X108522482Y-122488246D02*
X114909943Y-122488247D01*
X115163743Y-122234446D02*
X115163743Y-120925047D01*
X102209945Y-123758247D02*
X107252482Y-123758247D01*
X101892444Y-123440747D02*
X102209945Y-123758247D01*
X107252482Y-123758247D02*
X108522482Y-122488246D01*
X99034944Y-123440746D02*
X101892444Y-123440747D01*
X97560643Y-124915046D02*
X99034944Y-123440746D01*
X96723744Y-124915046D02*
X97560643Y-124915046D01*
%TO.N,Net-(D12-Pad2)*%
X113893743Y-113661947D02*
X113893743Y-112035047D01*
X109829944Y-113915746D02*
X113639944Y-113915745D01*
X109512444Y-114233247D02*
X109829944Y-113915746D01*
X94907444Y-114233246D02*
X109512444Y-114233247D01*
X113639944Y-113915745D02*
X113893743Y-113661947D01*
X94183743Y-114956947D02*
X94907444Y-114233246D01*
X94183744Y-116025045D02*
X94183743Y-114956947D01*
%TO.N,Net-(D13-Pad2)*%
X54072313Y-105499448D02*
X54040810Y-105483397D01*
X56635410Y-104666646D02*
X54072313Y-105499448D01*
X54213806Y-105565064D02*
X54680625Y-105565065D01*
%TO.N,Net-(D14-Pad2)*%
X65920937Y-98311204D02*
X66325564Y-99556517D01*
X68644855Y-100738255D02*
X69742753Y-100381526D01*
X66325564Y-99556517D02*
X68644855Y-100738255D01*
%TO.N,Net-(D15-Pad2)*%
X74191778Y-94997594D02*
X73590926Y-93148359D01*
X78307589Y-97598643D02*
X74388004Y-95601514D01*
X79405489Y-97241913D02*
X78307589Y-97598643D01*
X74388004Y-95601514D02*
X74191778Y-94997594D01*
%TO.N,Net-(D16-Pad2)*%
X82438270Y-91609040D02*
X82744784Y-92552393D01*
X82744784Y-92552393D02*
X84775770Y-93587231D01*
X84775770Y-93587231D02*
X90513019Y-91723087D01*
X91839876Y-92399155D02*
X92099297Y-93197566D01*
X90513019Y-91723087D02*
X91839876Y-92399155D01*
%TO.N,Net-(D17-Pad2)*%
X56745832Y-109037657D02*
X56059041Y-106923934D01*
X56059041Y-106923934D02*
X55658967Y-106720088D01*
X55658967Y-106720088D02*
X50525639Y-108388005D01*
X50525639Y-108388005D02*
X50102343Y-109218773D01*
X57545978Y-109445353D02*
X56745832Y-109037657D01*
X59659702Y-108758562D02*
X57545978Y-109445353D01*
X50102343Y-109218773D02*
X50369487Y-110040961D01*
X60735888Y-106646427D02*
X59659702Y-108758562D01*
X62268990Y-106148291D02*
X60735888Y-106646427D01*
X62373122Y-106295748D02*
X62433804Y-106235063D01*
%TO.N,Net-(D18-Pad2)*%
X71814954Y-106385013D02*
X73516775Y-105832057D01*
X66071431Y-104939090D02*
X67359075Y-108902047D01*
X67359075Y-108902047D02*
X68189841Y-109325344D01*
X70738767Y-108497148D02*
X71814954Y-106385013D01*
X68189841Y-109325344D02*
X70738767Y-108497148D01*
%TO.N,Net-(D19-Pad2)*%
X75734166Y-101799479D02*
X76602575Y-101517313D01*
X76602575Y-101517313D02*
X79083282Y-102781297D01*
X79083282Y-102781297D02*
X79868185Y-105196981D01*
X81356710Y-105955422D02*
X82756570Y-105500580D01*
X79868185Y-105196981D02*
X81356710Y-105955422D01*
%TO.N,Net-(D20-Pad2)*%
X88427972Y-97755131D02*
X88903241Y-99217856D01*
X90292724Y-99925833D02*
X90819011Y-101545578D01*
X88903241Y-99217856D02*
X90292724Y-99925833D01*
%TO.N,Net-(D21-Pad2)*%
X56466371Y-110792629D02*
X56309629Y-110792629D01*
X56134000Y-110363000D02*
X56769000Y-110998000D01*
X58557111Y-110998000D02*
X58762482Y-110792629D01*
X56769000Y-110998000D02*
X58557111Y-110998000D01*
X102395745Y-71864481D02*
X104013000Y-70247226D01*
%TO.N,Net-(D25-Pad2)*%
X74962543Y-47135734D02*
X74968075Y-47100814D01*
X76546625Y-49316035D02*
X74962543Y-47135734D01*
%TO.N,Net-(D26-Pad2)*%
X85460396Y-56183155D02*
X84401068Y-56952801D01*
X83993869Y-59523755D02*
X84672409Y-60457685D01*
X84401068Y-56952801D02*
X83993869Y-59523755D01*
%TO.N,Net-(D27-Pad2)*%
X91167656Y-63025232D02*
X92740709Y-61882342D01*
X90653931Y-63398475D02*
X91167656Y-63025232D01*
X89965767Y-67743368D02*
X90653931Y-63398475D01*
X90644306Y-68677297D02*
X89965767Y-67743368D01*
%TO.N,Net-(D28-Pad2)*%
X96938669Y-69820991D02*
X96136205Y-70404014D01*
X96136205Y-70404014D02*
X95779623Y-72655380D01*
X95779623Y-72655380D02*
X99325438Y-77535775D01*
X99092481Y-79006607D02*
X98413311Y-79500053D01*
X99325438Y-77535775D02*
X99092481Y-79006607D01*
%TO.N,Net-(D29-Pad2)*%
X71119379Y-44655261D02*
X70198468Y-44509404D01*
X74291950Y-49021930D02*
X71119379Y-44655261D01*
X72423668Y-50771769D02*
X74221708Y-49465415D01*
X74221708Y-49465415D02*
X74291950Y-49021930D01*
X72283187Y-51658737D02*
X72423668Y-50771769D01*
X73589539Y-53456778D02*
X72283187Y-51658737D01*
X70198468Y-44509404D02*
X69499072Y-45017543D01*
X75930859Y-53827606D02*
X73589539Y-53456778D01*
X76878368Y-55131741D02*
X75930859Y-53827606D01*
%TO.N,Net-(D30-Pad2)*%
X79603099Y-64283643D02*
X80654882Y-65731298D01*
X79203407Y-58374415D02*
X75832314Y-60823657D01*
X75832314Y-60823657D02*
X75686455Y-61744567D01*
X77261779Y-63912815D02*
X79603099Y-64283643D01*
X75686455Y-61744567D02*
X77261779Y-63912815D01*
%TO.N,Net-(D31-Pad2)*%
X85175305Y-66594027D02*
X85712011Y-67332740D01*
X85712011Y-67332740D02*
X85276473Y-70082624D01*
X85276473Y-70082624D02*
X83221569Y-71575599D01*
X82960229Y-73225643D02*
X83825390Y-74416435D01*
X83221569Y-71575599D02*
X82960229Y-73225643D01*
%TO.N,Net-(D32-Pad2)*%
X92944309Y-77416783D02*
X91700041Y-78320797D01*
X91456089Y-79861051D02*
X90078252Y-80862108D01*
X91700041Y-78320797D02*
X91456089Y-79861051D01*
%TO.N,Net-(D33-Pad2)*%
X71396744Y-53011211D02*
X70739000Y-52353467D01*
X70739000Y-52353467D02*
X70739000Y-50292000D01*
X70739000Y-50292000D02*
X70739000Y-50292000D01*
X122048396Y-82781594D02*
X122959802Y-83693000D01*
X122959802Y-84478802D02*
X123190000Y-84709000D01*
X122959802Y-83693000D02*
X122959802Y-84478802D01*
%TO.N,Net-(D37-Pad2)*%
X137286691Y-48922005D02*
X137321611Y-48916474D01*
X135702610Y-51102305D02*
X137286691Y-48922005D01*
%TO.N,Net-(D38-Pad2)*%
X131926097Y-61701862D02*
X130866771Y-60932216D01*
X128295816Y-61339415D02*
X127617276Y-62273345D01*
X130866771Y-60932216D02*
X128295816Y-61339415D01*
%TO.N,Net-(D39-Pad2)*%
X127182536Y-69244108D02*
X128755590Y-70386998D01*
X126668811Y-68870864D02*
X127182536Y-69244108D01*
X122323918Y-69559029D02*
X126668811Y-68870864D01*
X121645379Y-70492957D02*
X122323918Y-69559029D01*
%TO.N,Net-(D40-Pad2)*%
X113750002Y-81661000D02*
X113494297Y-81405295D01*
X118872000Y-82296000D02*
X118110000Y-81534000D01*
X120396000Y-82296000D02*
X118872000Y-82296000D01*
X121666000Y-81026000D02*
X120396000Y-82296000D01*
X121666000Y-78994000D02*
X121666000Y-81026000D01*
X121412000Y-78740000D02*
X121666000Y-78994000D01*
X121412000Y-77864188D02*
X121412000Y-78740000D01*
X122339690Y-76936498D02*
X121412000Y-77864188D01*
X115316000Y-81534000D02*
X115189000Y-81661000D01*
X118110000Y-81534000D02*
X115316000Y-81534000D01*
X115189000Y-81661000D02*
X113750002Y-81661000D01*
%TO.N,Net-(D41-Pad2)*%
X138458158Y-44500430D02*
X138312300Y-43579519D01*
X135285587Y-48867100D02*
X138458158Y-44500430D01*
X133044062Y-47630988D02*
X134842103Y-48937340D01*
X134842103Y-48937340D02*
X135285587Y-48867100D01*
X132157093Y-47771470D02*
X133044062Y-47630988D01*
X130850740Y-49569510D02*
X132157093Y-47771470D01*
X138312300Y-43579519D02*
X137612904Y-43071378D01*
X131221568Y-51910830D02*
X130850740Y-49569510D01*
X130274059Y-53214966D02*
X131221568Y-51910830D01*
%TO.N,Net-(D42-Pad2)*%
X122412071Y-58634431D02*
X121360288Y-60082086D01*
X127908570Y-56428249D02*
X124537477Y-53979006D01*
X124537477Y-53979006D02*
X123616566Y-54124864D01*
X122041242Y-56293111D02*
X122412071Y-58634431D01*
X123616566Y-54124864D02*
X122041242Y-56293111D01*
%TO.N,Net-(D43-Pad2)*%
X121936672Y-64647861D02*
X121399965Y-65386575D01*
X121399965Y-65386575D02*
X118650081Y-65822114D01*
X118650081Y-65822114D02*
X116595177Y-64329139D01*
X114945134Y-64590480D02*
X114079973Y-65781272D01*
X116595177Y-64329139D02*
X114945134Y-64590480D01*
%TO.N,Net-(D44-Pad2)*%
X114044373Y-75381039D02*
X112800105Y-74477025D01*
X111259851Y-74720978D02*
X109882014Y-73719921D01*
X112800105Y-74477025D02*
X111259851Y-74720978D01*
%TO.N,Net-(D45-Pad2)*%
X130409690Y-47476499D02*
X131404189Y-46482000D01*
X132334000Y-46482000D02*
X132588000Y-46228000D01*
X131404189Y-46482000D02*
X132334000Y-46482000D01*
X121666000Y-100647500D02*
X120015000Y-104902000D01*
X119489346Y-105427654D02*
X117539927Y-104757346D01*
X120015000Y-104902000D02*
X119489346Y-105427654D01*
%TO.N,Net-(D49-Pad2)*%
X154316560Y-108752916D02*
X154332611Y-108784418D01*
X151753463Y-107920115D02*
X154316560Y-108752916D01*
%TO.N,Net-(D50-Pad2)*%
X140505679Y-107603881D02*
X140910305Y-106358568D01*
X139728567Y-104039277D02*
X138630668Y-103682547D01*
X140910305Y-106358568D02*
X139728567Y-104039277D01*
%TO.N,Net-(D51-Pad2)*%
X131866736Y-105423169D02*
X131265883Y-107272404D01*
X132062961Y-104819249D02*
X131866736Y-105423169D01*
X130065833Y-100899664D02*
X132062961Y-104819249D01*
X128967934Y-100542935D02*
X130065833Y-100899664D01*
%TO.N,Net-(D52-Pad2)*%
X116276429Y-96138345D02*
X118463187Y-96882340D01*
X123203442Y-103317401D02*
X123509956Y-102374048D01*
X123509956Y-102374048D02*
X123509956Y-100332456D01*
X123509956Y-100332456D02*
X122555000Y-99377500D01*
X118463187Y-98071813D02*
X118456076Y-98078924D01*
X118463187Y-96882340D02*
X118463187Y-98071813D01*
X118456076Y-98078924D02*
X122590687Y-99422340D01*
%TO.N,Net-(D53-Pad2)*%
X158883731Y-108500705D02*
X159714497Y-108077409D01*
X153750403Y-106832786D02*
X158883731Y-108500705D01*
X154233346Y-104318990D02*
X153546555Y-106432713D01*
X153546555Y-106432713D02*
X153750403Y-106832786D01*
X153825651Y-103518843D02*
X154233346Y-104318990D01*
X151711928Y-102832053D02*
X153825651Y-103518843D01*
X159714497Y-108077409D02*
X159981642Y-107255220D01*
X149599792Y-103908239D02*
X151711928Y-102832053D01*
X148066689Y-103410104D02*
X149599792Y-103908239D01*
%TO.N,Net-(D54-Pad2)*%
X140482984Y-97607616D02*
X138781163Y-97054661D01*
X144279699Y-102153350D02*
X145567342Y-98190392D01*
X145567342Y-98190392D02*
X145144045Y-97359626D01*
X142595119Y-96531430D02*
X140482984Y-97607616D01*
X145144045Y-97359626D02*
X142595119Y-96531430D01*
%TO.N,Net-(D55-Pad2)*%
X134616965Y-99013737D02*
X133748555Y-98731574D01*
X133748555Y-98731574D02*
X132484572Y-96250867D01*
X132484572Y-96250867D02*
X133269475Y-93835183D01*
X132511034Y-92346659D02*
X131111174Y-91891817D01*
X133269475Y-93835183D02*
X132511034Y-92346659D01*
%TO.N,Net-(D56-Pad2)*%
X121970252Y-94824450D02*
X122445520Y-93361725D01*
X121737543Y-91972242D02*
X122263830Y-90352497D01*
X122445520Y-93361725D02*
X121737543Y-91972242D01*
D28*
%TO.N,Net-(J1-Pad1)*%
X99425000Y-86042500D02*
X100647500Y-86042500D01*
X102235000Y-84455000D02*
X102235000Y-82232500D01*
X100647500Y-86042500D02*
X102235000Y-84455000D01*
D27*
%TO.N,Net-(D10-Pad4)*%
X109423743Y-126704446D02*
X109423743Y-124915047D01*
X106273743Y-131720047D02*
X110440644Y-131720047D01*
X110440644Y-131720047D02*
X111099944Y-131060746D01*
X111099944Y-128380646D02*
X109423743Y-126704446D01*
X111099944Y-131060746D02*
X111099944Y-128380646D01*
%TO.N,Net-(D13-Pad4)*%
X69845452Y-110389621D02*
X68298179Y-110892361D01*
X68298179Y-110892361D02*
X65978004Y-109710174D01*
X65978004Y-109710174D02*
X62936505Y-100349401D01*
X61624517Y-99680909D02*
X60306733Y-100109083D01*
X62936505Y-100349401D02*
X61624517Y-99680909D01*
%TO.N,Net-(D25-Pad4)*%
X82830062Y-52520278D02*
X82015627Y-51399306D01*
X82599716Y-53974629D02*
X82830062Y-52520278D01*
X74636966Y-59759906D02*
X82599716Y-53974629D01*
X74229612Y-62331838D02*
X74636966Y-59759906D01*
X75185880Y-63648028D02*
X74229612Y-62331838D01*
%TO.N,Net-(D37-Pad4)*%
X134596882Y-58068375D02*
X135411317Y-56947401D01*
X133142531Y-58298722D02*
X134596882Y-58068375D01*
X125179781Y-52513446D02*
X133142531Y-58298722D01*
X122607849Y-52920800D02*
X125179781Y-52513446D01*
X121651581Y-54236989D02*
X122607849Y-52920800D01*
%TO.N,Net-(D49-Pad4)*%
X144786647Y-109021139D02*
X146104431Y-109449313D01*
X144118156Y-107709150D02*
X144786647Y-109021139D01*
X147159656Y-98348377D02*
X144118156Y-107709150D01*
X145977468Y-96028203D02*
X147159656Y-98348377D01*
X144430194Y-95525464D02*
X145977468Y-96028203D01*
%TO.N,Net-(D4-Pad4)*%
X108077000Y-101129740D02*
X108077000Y-101129740D01*
X107163494Y-99670494D02*
X108331000Y-100838000D01*
X107045577Y-99670494D02*
X107163494Y-99670494D01*
D28*
X95377000Y-107058303D02*
X95453744Y-107135047D01*
D27*
X95453744Y-107135047D02*
X95453744Y-105587256D01*
X96012000Y-105029000D02*
X97028000Y-105029000D01*
X95453744Y-105587256D02*
X96012000Y-105029000D01*
%TO.N,Net-(D11-Pad4)*%
X106273744Y-121560047D02*
X106273744Y-120646947D01*
X106273744Y-120646947D02*
X108242443Y-118678246D01*
X108242443Y-118678246D02*
X110782445Y-118678246D01*
X111963744Y-117496946D02*
X111963744Y-116025047D01*
X110782445Y-118678246D02*
X111963744Y-117496946D01*
%TO.N,Net-(D12-Pad4)*%
X106349944Y-108237745D02*
X107887944Y-108237748D01*
X108990645Y-107135047D02*
X110693744Y-107135046D01*
X107887944Y-108237748D02*
X108990645Y-107135047D01*
%TO.N,Net-(D14-Pad4)*%
X77520127Y-110299821D02*
X77839934Y-110462770D01*
X75546293Y-104224984D02*
X77520127Y-110299821D01*
X77839934Y-110462770D02*
X79085248Y-110058145D01*
X72387771Y-98613855D02*
X73946000Y-103409594D01*
X72591617Y-98213781D02*
X72387771Y-98613855D01*
X73946000Y-103409594D02*
X75546293Y-104224984D01*
X71708602Y-95496137D02*
X72591617Y-98213781D01*
X69850875Y-94549579D02*
X71708602Y-95496137D01*
X69592259Y-93753639D02*
X69850875Y-94549579D01*
%TO.N,Net-(D15-Pad4)*%
X85600414Y-106605881D02*
X87147688Y-106103141D01*
X84103253Y-102819405D02*
X85280609Y-106442931D01*
X83703180Y-102615559D02*
X84103253Y-102819405D01*
X79189987Y-88725378D02*
X83703180Y-102615559D01*
X85280609Y-106442931D02*
X85600414Y-106605881D01*
X78278072Y-88260734D02*
X79189987Y-88725378D01*
X77262248Y-88590794D02*
X78278072Y-88260734D01*
%TO.N,Net-(D16-Pad4)*%
X86273804Y-87135064D02*
X88759936Y-87135064D01*
X88759936Y-87135064D02*
X88759936Y-87135064D01*
X109448744Y-140610046D02*
X109448744Y-140868256D01*
X109448744Y-140868256D02*
X108331000Y-143637000D01*
X108331000Y-143637000D02*
X108331000Y-143637000D01*
%TO.N,Net-(D26-Pad4)*%
X77642890Y-70919329D02*
X77586741Y-71273836D01*
X82810455Y-67164873D02*
X77642890Y-70919329D01*
X77586741Y-71273836D02*
X78356388Y-72333164D01*
X87170918Y-62427004D02*
X83091420Y-65390933D01*
X87614404Y-62497245D02*
X87170918Y-62427004D01*
X83091420Y-65390933D02*
X82810455Y-67164873D01*
X89926169Y-60817648D02*
X87614404Y-62497245D01*
X90252331Y-58758343D02*
X89926169Y-60817648D01*
X90929397Y-58266426D02*
X90252331Y-58758343D01*
%TO.N,Net-(D27-Pad4)*%
X83652982Y-77462648D02*
X84609250Y-78778838D01*
X86791485Y-74868677D02*
X83709130Y-77108139D01*
X86861726Y-74425193D02*
X86791485Y-74868677D01*
X98677419Y-65840588D02*
X86861726Y-74425193D01*
X83709130Y-77108139D02*
X83652982Y-77462648D01*
X98837525Y-64829722D02*
X98677419Y-65840588D01*
X98209711Y-63965612D02*
X98837525Y-64829722D01*
%TO.N,Net-(D38-Pad4)*%
X115495421Y-58820701D02*
X115140914Y-58876849D01*
X120662987Y-62575157D02*
X115495421Y-58820701D01*
X115140914Y-58876849D02*
X114371267Y-59936177D01*
X126516425Y-65258122D02*
X122436926Y-62294193D01*
X126586666Y-65701606D02*
X126516425Y-65258122D01*
X122436926Y-62294193D02*
X120662987Y-62575157D01*
X128898432Y-67381203D02*
X126586666Y-65701606D01*
X130957737Y-67055041D02*
X128898432Y-67381203D01*
X131634804Y-67546959D02*
X130957737Y-67055041D01*
%TO.N,Net-(D39-Pad4)*%
X111129575Y-66558635D02*
X110173307Y-67874825D01*
X114566439Y-68741948D02*
X111484084Y-66502486D01*
X115009923Y-68671706D02*
X114566439Y-68741948D01*
X126825617Y-77256311D02*
X115009923Y-68671706D01*
X111484084Y-66502486D02*
X111129575Y-66558635D01*
X127836482Y-77096205D02*
X126825617Y-77256311D01*
X128464296Y-76232094D02*
X127836482Y-77096205D01*
%TO.N,Net-(D50-Pad4)*%
X138168468Y-91087052D02*
X138005519Y-90767246D01*
X136194634Y-97161890D02*
X138168468Y-91087052D01*
X138005519Y-90767246D02*
X136760205Y-90362619D01*
X135451794Y-103557922D02*
X137010024Y-98762183D01*
X135051721Y-103761769D02*
X135451794Y-103557922D01*
X137010024Y-98762183D02*
X136194634Y-97161890D01*
X134168705Y-106479413D02*
X135051721Y-103761769D01*
X135115264Y-108337140D02*
X134168705Y-106479413D01*
X134856647Y-109133079D02*
X135115264Y-108337140D01*
%TO.N,Net-(D51-Pad4)*%
X129460135Y-89326039D02*
X127912861Y-88823300D01*
X128445730Y-93269371D02*
X129623085Y-89645846D01*
X128649577Y-93669445D02*
X128445730Y-93269371D01*
X124136384Y-107559625D02*
X128649577Y-93669445D01*
X129623085Y-89645846D02*
X129460135Y-89326039D01*
X124601028Y-108471540D02*
X124136384Y-107559625D01*
X125616852Y-108801601D02*
X124601028Y-108471540D01*
%TO.N,/~Reset*%
X110537186Y-100600314D02*
X108521500Y-102616000D01*
X101219000Y-101092000D02*
X100441000Y-101092000D01*
X101600000Y-100711000D02*
X101219000Y-101092000D01*
X104267000Y-100711000D02*
X101600000Y-100711000D01*
X105410000Y-101854000D02*
X104267000Y-100711000D01*
X107569000Y-102616000D02*
X106807000Y-101854000D01*
X108521500Y-102616000D02*
X107569000Y-102616000D01*
X111870686Y-99266814D02*
X109855000Y-101282500D01*
X111870686Y-97770431D02*
X111870686Y-99266814D01*
X111145304Y-97045049D02*
X111870686Y-97770431D01*
X106807000Y-101854000D02*
X105410000Y-101854000D01*
X111145304Y-97040430D02*
X111145304Y-97045049D01*
%TO.N,/RX*%
X112647490Y-97407490D02*
X112647490Y-100600000D01*
X111667594Y-96427594D02*
X112647490Y-97407490D01*
X111659534Y-96427594D02*
X111667594Y-96427594D01*
%TO.N,/TX*%
X114617500Y-99377500D02*
X114617500Y-100600000D01*
X113347500Y-98107500D02*
X114617500Y-99377500D01*
X113347500Y-96993114D02*
X113347500Y-98107500D01*
X112173764Y-95819378D02*
X113347500Y-96993114D01*
X112173764Y-95814758D02*
X112173764Y-95819378D01*
%TO.N,Net-(C5-Pad1)*%
X110744000Y-103505000D02*
X109728000Y-104521000D01*
X110744000Y-102637500D02*
X110744000Y-103505000D01*
%TO.N,Net-(J2-Pad3)*%
X114617500Y-104457501D02*
X114680999Y-104521000D01*
X114808000Y-102600000D02*
X114808000Y-104457501D01*
%TO.N,Net-(J2-Pad2)*%
X112649000Y-104267000D02*
X112395000Y-104521000D01*
X112776000Y-102600000D02*
X112776000Y-104267000D01*
%TD*%
M02*
